<svg width="40" height="40" viewBox="0 0 40 40" fill="none" xmlns="http://www.w3.org/2000/svg">
<path d="M0 14.9167C0 6.67841 6.67842 0 14.9167 0H24.8611C33.0994 0 39.7778 6.67842 39.7778 14.9167V24.8611C39.7778 33.0994 33.0994 39.7778 24.8611 39.7778H14.9167C6.67841 39.7778 0 33.0994 0 24.8611V14.9167Z" fill="#F9FAFB"/>
<path fill-rule="evenodd" clip-rule="evenodd" d="M21.7888 15.9881C22.1124 15.6645 22.6371 15.6645 22.9608 15.9881L26.2756 19.3029C26.431 19.4583 26.5183 19.6691 26.5183 19.8889C26.5183 20.1087 26.431 20.3194 26.2756 20.4749L22.9608 23.7897C22.6371 24.1133 22.1124 24.1133 21.7888 23.7897C21.4652 23.466 21.4652 22.9413 21.7888 22.6177L23.6889 20.7176H14.0877C13.6301 20.7176 13.259 20.3466 13.259 19.8889C13.259 19.4312 13.6301 19.0602 14.0877 19.0602H23.6889L21.7888 17.16C21.4652 16.8364 21.4652 16.3117 21.7888 15.9881Z" fill="#101828"/>
</svg>
