<svg width="34" height="34" viewBox="0 0 34 34" fill="none" xmlns="http://www.w3.org/2000/svg">
<path fill-rule="evenodd" clip-rule="evenodd" d="M9.91667 4.25C10.6991 4.25 11.3333 4.88426 11.3333 5.66667V7.08333H15.5833V5.66667C15.5833 4.88426 16.2176 4.25 17 4.25C17.7824 4.25 18.4167 4.88426 18.4167 5.66667V7.08333H22.6667V5.66667C22.6667 4.88426 23.3009 4.25 24.0833 4.25C24.8657 4.25 25.5 4.88426 25.5 5.66667V7.08333H26.9167C28.4815 7.08333 29.75 8.35186 29.75 9.91667V26.9167C29.75 28.4815 28.4815 29.75 26.9167 29.75H7.08333C5.51853 29.75 4.25 28.4815 4.25 26.9167V9.91667C4.25 8.35186 5.51853 7.08333 7.08333 7.08333H8.5L8.5 5.66667C8.5 4.88426 9.13426 4.25 9.91667 4.25ZM8.5 9.91667L7.08333 9.91667V12.75H26.9167V9.91667H25.5C25.5 10.6991 24.8657 11.3333 24.0833 11.3333C23.3009 11.3333 22.6667 10.6991 22.6667 9.91667H18.4167C18.4167 10.6991 17.7824 11.3333 17 11.3333C16.2176 11.3333 15.5833 10.6991 15.5833 9.91667H11.3333C11.3333 10.6991 10.6991 11.3333 9.91667 11.3333C9.13426 11.3333 8.5 10.6991 8.5 9.91667ZM26.9167 15.5833H7.08333V26.9167H26.9167V15.5833ZM9.91667 18.4167C9.91667 17.6343 10.5509 17 11.3333 17H11.3475C12.1299 17 12.7642 17.6343 12.7642 18.4167V18.4308C12.7642 19.2132 12.1299 19.8475 11.3475 19.8475H11.3333C10.5509 19.8475 9.91667 19.2132 9.91667 18.4308V18.4167ZM15.5833 18.4167C15.5833 17.6343 16.2176 17 17 17H17.0142C17.7966 17 18.4308 17.6343 18.4308 18.4167V18.4308C18.4308 19.2132 17.7966 19.8475 17.0142 19.8475H17C16.2176 19.8475 15.5833 19.2132 15.5833 18.4308V18.4167ZM21.25 18.4167C21.25 17.6343 21.8843 17 22.6667 17H22.6808C23.4632 17 24.0975 17.6343 24.0975 18.4167V18.4308C24.0975 19.2132 23.4632 19.8475 22.6808 19.8475H22.6667C21.8843 19.8475 21.25 19.2132 21.25 18.4308V18.4167ZM9.91667 24.0833C9.91667 23.3009 10.5509 22.6667 11.3333 22.6667H11.3475C12.1299 22.6667 12.7642 23.3009 12.7642 24.0833V24.0975C12.7642 24.8799 12.1299 25.5142 11.3475 25.5142H11.3333C10.5509 25.5142 9.91667 24.8799 9.91667 24.0975V24.0833ZM15.5833 24.0833C15.5833 23.3009 16.2176 22.6667 17 22.6667H17.0142C17.7966 22.6667 18.4308 23.3009 18.4308 24.0833V24.0975C18.4308 24.8799 17.7966 25.5142 17.0142 25.5142H17C16.2176 25.5142 15.5833 24.8799 15.5833 24.0975V24.0833ZM21.25 24.0833C21.25 23.3009 21.8843 22.6667 22.6667 22.6667H22.6808C23.4632 22.6667 24.0975 23.3009 24.0975 24.0833V24.0975C24.0975 24.8799 23.4632 25.5142 22.6808 25.5142H22.6667C21.8843 25.5142 21.25 24.8799 21.25 24.0975V24.0833Z" fill="#86868B"/>
</svg>
