<svg width="86" height="15" viewBox="0 0 86 15" fill="none" xmlns="http://www.w3.org/2000/svg">
<path d="M8.77866 4.85955V7.01502H4.14011e-05V4.85955H8.77866ZM21.1726 4.85955V7.01502H12.394V4.85955H21.1726ZM26.6298 14.6963C26.1465 14.6963 25.7317 14.5232 25.3855 14.177C25.0394 13.8309 24.8663 13.4161 24.8663 12.9327C24.8663 12.4494 25.0394 12.0346 25.3855 11.6885C25.7317 11.3423 26.1465 11.1692 26.6298 11.1692C27.1132 11.1692 27.5279 11.3423 27.8741 11.6885C28.2203 12.0346 28.3934 12.4494 28.3934 12.9327C28.3934 13.2528 28.3118 13.5467 28.1485 13.8145C27.9917 14.0823 27.7794 14.2979 27.5116 14.4612C27.2504 14.6179 26.9564 14.6963 26.6298 14.6963ZM26.6298 3.52708C26.1465 3.52708 25.7317 3.35399 25.3855 3.00781C25.0394 2.66163 24.8663 2.24687 24.8663 1.76352C24.8663 1.28017 25.0394 0.865408 25.3855 0.519227C25.7317 0.173047 26.1465 -4.33641e-05 26.6298 -4.33641e-05C27.1132 -4.33641e-05 27.5279 0.173047 27.8741 0.519227C28.2203 0.865408 28.3934 1.28017 28.3934 1.76352C28.3934 2.08357 28.3118 2.3775 28.1485 2.6453C27.9917 2.9131 27.7794 3.12865 27.5116 3.29194C27.2504 3.4487 26.9564 3.52708 26.6298 3.52708ZM40.8682 4.85955V7.01502H32.0895V4.85955H40.8682ZM53.2621 4.85955V7.01502H44.4835V4.85955H53.2621ZM73.1193 4.85955V7.01502H64.3407V4.85955H73.1193ZM85.5132 4.85955V7.01502H76.7346V4.85955H85.5132Z" fill="#86868B"/>
</svg>
