<svg width="572" height="129" viewBox="0 0 572 129" fill="none" xmlns="http://www.w3.org/2000/svg">
<g filter="url(#filter0_d_13_1878)">
<mask id="path-1-inside-1_13_1878" fill="white">
<path d="M0.540049 12C0.540049 5.37258 5.92263 0 12.55 0H558.55C565.177 0 570.55 5.37258 570.55 12V115C570.55 121.627 565.177 127 558.55 127H12.5501C5.92265 127 0.540049 121.627 0.540049 115V12Z"/>
</mask>
<path d="M0.540049 12C0.540049 5.37258 5.92263 0 12.55 0H558.55C565.177 0 570.55 5.37258 570.55 12V115C570.55 121.627 565.177 127 558.55 127H12.5501C5.92265 127 0.540049 121.627 0.540049 115V12Z" fill="white"/>
<path d="M12.55 0V1H558.55V0V-1H12.55V0ZM570.55 12H569.55V115H570.55H571.55V12H570.55ZM558.55 127V126H12.5501V127V128H558.55V127ZM0.540049 115H1.54005V12H0.540049H-0.449951V115H0.540049ZM12.5501 127V126C6.47493 126 1.54005 121.075 1.54005 115H0.540049H-0.449951C-0.449951 122.18 5.37036 128 12.5501 128V127ZM570.55 115H569.55C569.55 121.075 564.625 126 558.55 126V127V128C565.73 128 571.55 122.18 571.55 115H570.55ZM558.55 0V1C564.625 1 569.55 5.92487 569.55 12H570.55H571.55C571.55 4.8203 565.73 -1 558.55 -1V0ZM12.55 0V-1C5.37035 -1 -0.449951 4.8203 -0.449951 12H0.540049H1.54005C1.54005 5.92487 6.47492 1 12.55 1V0Z" fill="#E5E7EB" mask="url(#path-1-inside-1_13_1878)"/>
<path d="M29.8206 88V84.0114L39.1402 75.3821C39.9328 74.6151 40.5976 73.9247 41.1345 73.3111C41.6799 72.6974 42.0933 72.0966 42.3746 71.5085C42.6558 70.9119 42.7964 70.2685 42.7964 69.5781C42.7964 68.8111 42.6217 68.1506 42.2723 67.5966C41.9228 67.0341 41.4456 66.6037 40.8405 66.3054C40.2353 65.9986 39.5493 65.8452 38.7822 65.8452C37.9811 65.8452 37.2822 66.0071 36.6856 66.331C36.089 66.6548 35.6288 67.1193 35.3049 67.7244C34.9811 68.3295 34.8192 69.0497 34.8192 69.8849H29.5649C29.5649 68.1719 29.9527 66.6847 30.7282 65.4233C31.5038 64.1619 32.5905 63.1861 33.9882 62.4957C35.3859 61.8054 36.9967 61.4602 38.8206 61.4602C40.6956 61.4602 42.3277 61.7926 43.7169 62.4574C45.1146 63.1136 46.2013 64.0256 46.9768 65.1932C47.7524 66.3608 48.1402 67.6989 48.1402 69.2074C48.1402 70.196 47.9442 71.1719 47.5521 72.1349C47.1686 73.098 46.4825 74.1676 45.4939 75.3438C44.5052 76.5114 43.1118 77.9134 41.3135 79.5497L37.491 83.2955V83.4744H48.4853V88H29.8206ZM52.307 88V84.0114L61.6266 75.3821C62.4192 74.6151 63.084 73.9247 63.6209 73.3111C64.1663 72.6974 64.5797 72.0966 64.861 71.5085C65.1422 70.9119 65.2828 70.2685 65.2828 69.5781C65.2828 68.8111 65.1081 68.1506 64.7587 67.5966C64.4092 67.0341 63.932 66.6037 63.3269 66.3054C62.7217 65.9986 62.0357 65.8452 61.2686 65.8452C60.4675 65.8452 59.7686 66.0071 59.172 66.331C58.5754 66.6548 58.1152 67.1193 57.7913 67.7244C57.4675 68.3295 57.3056 69.0497 57.3056 69.8849H52.0513C52.0513 68.1719 52.4391 66.6847 53.2146 65.4233C53.9902 64.1619 55.0769 63.1861 56.4746 62.4957C57.8723 61.8054 59.4831 61.4602 61.307 61.4602C63.182 61.4602 64.8141 61.7926 66.2033 62.4574C67.601 63.1136 68.6877 64.0256 69.4632 65.1932C70.2388 66.3608 70.6266 67.6989 70.6266 69.2074C70.6266 70.196 70.4306 71.1719 70.0385 72.1349C69.655 73.098 68.9689 74.1676 67.9803 75.3438C66.9916 76.5114 65.5982 77.9134 63.7999 79.5497L59.9774 83.2955V83.4744H70.9717V88H52.307ZM84.4709 88.358C82.5618 88.358 80.8616 88.0298 79.3701 87.3736C77.8871 86.7088 76.7152 85.7969 75.8545 84.6378C75.0022 83.4702 74.5633 82.1236 74.5377 80.598H80.1116C80.1456 81.2372 80.3545 81.7997 80.738 82.2855C81.13 82.7628 81.6499 83.1335 82.2976 83.3977C82.9454 83.6619 83.6741 83.794 84.4837 83.794C85.3275 83.794 86.0732 83.6449 86.7209 83.3466C87.3687 83.0483 87.8758 82.6349 88.2422 82.1065C88.6087 81.5781 88.792 80.9687 88.792 80.2784C88.792 79.5795 88.5959 78.9616 88.2039 78.4247C87.8204 77.8793 87.2664 77.4531 86.542 77.1463C85.826 76.8395 84.9738 76.6861 83.9851 76.6861H81.5434V72.6207H83.9851C84.8204 72.6207 85.5576 72.4759 86.1968 72.1861C86.8445 71.8963 87.3474 71.4957 87.7053 70.9844C88.0633 70.4645 88.2422 69.8594 88.2422 69.169C88.2422 68.5128 88.0846 67.9375 87.7692 67.4432C87.4624 66.9403 87.0277 66.5483 86.4652 66.267C85.9113 65.9858 85.2635 65.8452 84.5221 65.8452C83.7721 65.8452 83.086 65.9815 82.4638 66.2543C81.8417 66.5185 81.3431 66.8977 80.9681 67.392C80.5931 67.8864 80.3928 68.4659 80.3672 69.1307H75.0618C75.0874 67.6222 75.5178 66.2926 76.353 65.142C77.1883 63.9915 78.3133 63.0923 79.728 62.4446C81.1513 61.7884 82.7579 61.4602 84.5476 61.4602C86.3545 61.4602 87.9354 61.7884 89.2905 62.4446C90.6456 63.1009 91.6982 63.9872 92.4482 65.1037C93.2067 66.2116 93.5817 67.456 93.5732 68.8366C93.5817 70.3026 93.1258 71.5256 92.2053 72.5057C91.2934 73.4858 90.1045 74.108 88.6385 74.3722V74.5767C90.5647 74.8239 92.0306 75.4929 93.0363 76.5838C94.0505 77.6662 94.5533 79.0213 94.5448 80.6491C94.5533 82.1406 94.1229 83.4659 93.2536 84.625C92.3928 85.7841 91.2039 86.696 89.6868 87.3608C88.1698 88.0256 86.4312 88.358 84.4709 88.358Z" fill="black"/>
<path d="M60.4364 37H58.9591L63.2319 25.3636H64.6864L68.9591 37H67.4819L64.0046 27.2045H63.9137L60.4364 37ZM60.9819 32.4545H66.9364V33.7045H60.9819V32.4545ZM74.1353 37.1818C73.3171 37.1818 72.6125 36.9886 72.0216 36.6023C71.4307 36.2159 70.9762 35.6837 70.658 35.0057C70.3398 34.3277 70.1807 33.553 70.1807 32.6818C70.1807 31.7955 70.3436 31.0133 70.6694 30.3352C70.9989 29.6534 71.4572 29.1212 72.0444 28.7386C72.6353 28.3523 73.3247 28.1591 74.1125 28.1591C74.7262 28.1591 75.2792 28.2727 75.7716 28.5C76.2641 28.7273 76.6675 29.0455 76.9819 29.4545C77.2963 29.8636 77.4913 30.3409 77.5671 30.8864H76.2262C76.1239 30.4886 75.8966 30.1364 75.5444 29.8295C75.1959 29.5189 74.7262 29.3636 74.1353 29.3636C73.6125 29.3636 73.1542 29.5 72.7603 29.7727C72.3701 30.0417 72.0652 30.4223 71.8455 30.9148C71.6296 31.4034 71.5216 31.9773 71.5216 32.6364C71.5216 33.3106 71.6277 33.8977 71.8398 34.3977C72.0557 34.8977 72.3588 35.286 72.7489 35.5625C73.1429 35.839 73.605 35.9773 74.1353 35.9773C74.4838 35.9773 74.8 35.9167 75.0841 35.7955C75.3682 35.6742 75.6088 35.5 75.8057 35.2727C76.0027 35.0455 76.1429 34.7727 76.2262 34.4545H77.5671C77.4913 34.9697 77.3038 35.4337 77.0046 35.8466C76.7091 36.2557 76.3171 36.5814 75.8285 36.8239C75.3436 37.0625 74.7792 37.1818 74.1353 37.1818ZM83.3228 28.2727V29.4091H78.8V28.2727H83.3228ZM80.1182 26.1818H81.4591V34.5C81.4591 34.8788 81.5141 35.1629 81.6239 35.3523C81.7375 35.5379 81.8815 35.6629 82.0557 35.7273C82.2338 35.7879 82.4213 35.8182 82.6182 35.8182C82.766 35.8182 82.8872 35.8106 82.9819 35.7955C83.0766 35.7765 83.1523 35.7614 83.2091 35.75L83.4819 36.9545C83.391 36.9886 83.2641 37.0227 83.1012 37.0568C82.9383 37.0947 82.7319 37.1136 82.4819 37.1136C82.1031 37.1136 81.7319 37.0322 81.3682 36.8693C81.0084 36.7064 80.7091 36.4583 80.4705 36.125C80.2357 35.7917 80.1182 35.3712 80.1182 34.8636V26.1818ZM85.3398 37V28.2727H86.6807V37H85.3398ZM86.0216 26.8182C85.7603 26.8182 85.5349 26.7292 85.3455 26.5511C85.1599 26.3731 85.0671 26.1591 85.0671 25.9091C85.0671 25.6591 85.1599 25.4451 85.3455 25.267C85.5349 25.089 85.7603 25 86.0216 25C86.283 25 86.5065 25.089 86.6921 25.267C86.8815 25.4451 86.9762 25.6591 86.9762 25.9091C86.9762 26.1591 86.8815 26.3731 86.6921 26.5511C86.5065 26.7292 86.283 26.8182 86.0216 26.8182ZM96.2731 28.2727L93.0458 37H91.6822L88.4549 28.2727H89.9094L92.3185 35.2273H92.4094L94.8185 28.2727H96.2731ZM101.39 37.1818C100.549 37.1818 99.8232 36.9962 99.2134 36.625C98.6073 36.25 98.1395 35.7273 97.81 35.0568C97.4842 34.3826 97.3214 33.5985 97.3214 32.7045C97.3214 31.8106 97.4842 31.0227 97.81 30.3409C98.1395 29.6553 98.5979 29.1212 99.185 28.7386C99.7759 28.3523 100.465 28.1591 101.253 28.1591C101.708 28.1591 102.157 28.2348 102.6 28.3864C103.043 28.5379 103.446 28.7841 103.81 29.125C104.174 29.4621 104.463 29.9091 104.679 30.4659C104.895 31.0227 105.003 31.7083 105.003 32.5227V33.0909H98.2759V31.9318H103.64C103.64 31.4394 103.541 31 103.344 30.6136C103.151 30.2273 102.874 29.9223 102.515 29.6989C102.158 29.4754 101.738 29.3636 101.253 29.3636C100.719 29.3636 100.257 29.4962 99.8668 29.7614C99.4804 30.0227 99.1831 30.3636 98.9748 30.7841C98.7664 31.2045 98.6623 31.6553 98.6623 32.1364V32.9091C98.6623 33.5682 98.7759 34.1269 99.0032 34.5852C99.2342 35.0398 99.5543 35.3864 99.9634 35.625C100.372 35.8598 100.848 35.9773 101.39 35.9773C101.742 35.9773 102.06 35.928 102.344 35.8295C102.632 35.7273 102.88 35.5758 103.088 35.375C103.297 35.1705 103.458 34.9167 103.571 34.6136L104.867 34.9773C104.73 35.4167 104.501 35.803 104.179 36.1364C103.857 36.4659 103.46 36.7235 102.986 36.9091C102.513 37.0909 101.98 37.1818 101.39 37.1818ZM118.088 28.2727C118.02 27.697 117.744 27.25 117.259 26.9318C116.774 26.6136 116.179 26.4545 115.475 26.4545C114.96 26.4545 114.509 26.5379 114.122 26.7045C113.74 26.8712 113.441 27.1004 113.225 27.392C113.013 27.6837 112.907 28.0152 112.907 28.3864C112.907 28.697 112.98 28.964 113.128 29.1875C113.28 29.4072 113.473 29.5909 113.708 29.7386C113.943 29.8826 114.189 30.0019 114.446 30.0966C114.704 30.1875 114.941 30.2614 115.157 30.3182L116.338 30.6364C116.641 30.7159 116.979 30.8258 117.35 30.9659C117.725 31.1061 118.083 31.2973 118.424 31.5398C118.768 31.7784 119.052 32.0852 119.276 32.4602C119.499 32.8352 119.611 33.2955 119.611 33.8409C119.611 34.4697 119.446 35.0379 119.117 35.5455C118.791 36.053 118.314 36.4564 117.685 36.7557C117.06 37.0549 116.301 37.2045 115.407 37.2045C114.573 37.2045 113.852 37.0701 113.242 36.8011C112.636 36.5322 112.158 36.1572 111.81 35.6761C111.465 35.1951 111.27 34.6364 111.225 34H112.679C112.717 34.4394 112.865 34.803 113.122 35.0909C113.384 35.375 113.713 35.5871 114.111 35.7273C114.513 35.8636 114.944 35.9318 115.407 35.9318C115.944 35.9318 116.427 35.8447 116.855 35.6705C117.283 35.4924 117.622 35.2462 117.872 34.9318C118.122 34.6136 118.247 34.2424 118.247 33.8182C118.247 33.4318 118.14 33.1174 117.924 32.875C117.708 32.6326 117.424 32.4356 117.071 32.2841C116.719 32.1326 116.338 32 115.929 31.8864L114.497 31.4773C113.588 31.2159 112.869 30.8428 112.338 30.358C111.808 29.8731 111.543 29.2386 111.543 28.4545C111.543 27.803 111.719 27.2348 112.071 26.75C112.427 26.2614 112.905 25.8826 113.503 25.6136C114.105 25.3409 114.778 25.2045 115.52 25.2045C116.27 25.2045 116.937 25.339 117.52 25.608C118.104 25.8731 118.566 26.2367 118.907 26.6989C119.251 27.161 119.433 27.6856 119.452 28.2727H118.088ZM127.246 33.4318V28.2727H128.587V37H127.246V35.5227H127.155C126.951 35.9659 126.632 36.3428 126.201 36.6534C125.769 36.9602 125.223 37.1136 124.564 37.1136C124.019 37.1136 123.534 36.9943 123.11 36.7557C122.685 36.5133 122.352 36.1496 122.11 35.6648C121.867 35.1761 121.746 34.5606 121.746 33.8182V28.2727H123.087V33.7273C123.087 34.3636 123.265 34.8712 123.621 35.25C123.981 35.6288 124.439 35.8182 124.996 35.8182C125.329 35.8182 125.668 35.733 126.013 35.5625C126.362 35.392 126.653 35.1307 126.888 34.7784C127.127 34.4261 127.246 33.9773 127.246 33.4318ZM131.225 37V25.3636H132.566V29.6591H132.679C132.778 29.5076 132.914 29.3144 133.088 29.0795C133.266 28.8409 133.52 28.6288 133.85 28.4432C134.183 28.2538 134.634 28.1591 135.202 28.1591C135.937 28.1591 136.585 28.3428 137.145 28.7102C137.706 29.0777 138.143 29.5985 138.458 30.2727C138.772 30.947 138.929 31.7424 138.929 32.6591C138.929 33.5833 138.772 34.3845 138.458 35.0625C138.143 35.7367 137.708 36.2595 137.151 36.6307C136.594 36.9981 135.952 37.1818 135.225 37.1818C134.664 37.1818 134.215 37.089 133.878 36.9034C133.541 36.714 133.282 36.5 133.1 36.2614C132.918 36.0189 132.778 35.8182 132.679 35.6591H132.52V37H131.225ZM132.543 32.6364C132.543 33.2955 132.64 33.8769 132.833 34.3807C133.026 34.8807 133.308 35.2727 133.679 35.5568C134.051 35.8371 134.505 35.9773 135.043 35.9773C135.604 35.9773 136.071 35.8295 136.446 35.5341C136.825 35.2348 137.109 34.8333 137.299 34.3295C137.492 33.822 137.588 33.2576 137.588 32.6364C137.588 32.0227 137.494 31.4697 137.304 30.9773C137.119 30.4811 136.837 30.089 136.458 29.8011C136.083 29.5095 135.611 29.3636 135.043 29.3636C134.497 29.3636 134.039 29.5019 133.668 29.7784C133.297 30.0511 133.016 30.4337 132.827 30.9261C132.638 31.4148 132.543 31.9848 132.543 32.6364ZM147.162 30.2273L145.958 30.5682C145.882 30.3674 145.77 30.1723 145.622 29.983C145.479 29.7898 145.282 29.6307 145.032 29.5057C144.782 29.3807 144.462 29.3182 144.071 29.3182C143.537 29.3182 143.092 29.4413 142.736 29.6875C142.384 29.9299 142.208 30.2386 142.208 30.6136C142.208 30.947 142.329 31.2102 142.571 31.4034C142.814 31.5966 143.193 31.7576 143.708 31.8864L145.003 32.2045C145.783 32.3939 146.365 32.6837 146.747 33.0739C147.13 33.4602 147.321 33.9583 147.321 34.5682C147.321 35.0682 147.177 35.5152 146.89 35.9091C146.605 36.303 146.208 36.6136 145.696 36.8409C145.185 37.0682 144.59 37.1818 143.912 37.1818C143.022 37.1818 142.285 36.9886 141.702 36.6023C141.119 36.2159 140.749 35.6515 140.594 34.9091L141.867 34.5909C141.988 35.0606 142.217 35.4129 142.554 35.6477C142.895 35.8826 143.34 36 143.89 36C144.515 36 145.011 35.8674 145.378 35.6023C145.749 35.3333 145.935 35.0114 145.935 34.6364C145.935 34.3333 145.829 34.0795 145.617 33.875C145.405 33.6667 145.079 33.5114 144.64 33.4091L143.185 33.0682C142.386 32.8788 141.799 32.5852 141.424 32.1875C141.052 31.786 140.867 31.2841 140.867 30.6818C140.867 30.1894 141.005 29.7538 141.282 29.375C141.562 28.9962 141.943 28.6989 142.424 28.483C142.908 28.267 143.458 28.1591 144.071 28.1591C144.935 28.1591 145.613 28.3485 146.105 28.7273C146.602 29.1061 146.954 29.6061 147.162 30.2273ZM152.885 37.1818C152.067 37.1818 151.363 36.9886 150.772 36.6023C150.181 36.2159 149.726 35.6837 149.408 35.0057C149.09 34.3277 148.931 33.553 148.931 32.6818C148.931 31.7955 149.094 31.0133 149.419 30.3352C149.749 29.6534 150.207 29.1212 150.794 28.7386C151.385 28.3523 152.075 28.1591 152.863 28.1591C153.476 28.1591 154.029 28.2727 154.522 28.5C155.014 28.7273 155.417 29.0455 155.732 29.4545C156.046 29.8636 156.241 30.3409 156.317 30.8864H154.976C154.874 30.4886 154.647 30.1364 154.294 29.8295C153.946 29.5189 153.476 29.3636 152.885 29.3636C152.363 29.3636 151.904 29.5 151.51 29.7727C151.12 30.0417 150.815 30.4223 150.596 30.9148C150.38 31.4034 150.272 31.9773 150.272 32.6364C150.272 33.3106 150.378 33.8977 150.59 34.3977C150.806 34.8977 151.109 35.286 151.499 35.5625C151.893 35.839 152.355 35.9773 152.885 35.9773C153.234 35.9773 153.55 35.9167 153.834 35.7955C154.118 35.6742 154.359 35.5 154.556 35.2727C154.753 35.0455 154.893 34.7727 154.976 34.4545H156.317C156.241 34.9697 156.054 35.4337 155.755 35.8466C155.459 36.2557 155.067 36.5814 154.578 36.8239C154.094 37.0625 153.529 37.1818 152.885 37.1818ZM158.277 37V28.2727H159.573V29.5909H159.664C159.823 29.1591 160.111 28.8087 160.527 28.5398C160.944 28.2708 161.414 28.1364 161.936 28.1364C162.035 28.1364 162.158 28.1383 162.306 28.142C162.453 28.1458 162.565 28.1515 162.641 28.1591V29.5227C162.596 29.5114 162.491 29.4943 162.328 29.4716C162.169 29.4451 162.001 29.4318 161.823 29.4318C161.399 29.4318 161.02 29.5208 160.686 29.6989C160.357 29.8731 160.096 30.1155 159.902 30.4261C159.713 30.733 159.618 31.0833 159.618 31.4773V37H158.277ZM164.23 37V28.2727H165.571V37H164.23ZM164.912 26.8182C164.651 26.8182 164.426 26.7292 164.236 26.5511C164.051 26.3731 163.958 26.1591 163.958 25.9091C163.958 25.6591 164.051 25.4451 164.236 25.267C164.426 25.089 164.651 25 164.912 25C165.174 25 165.397 25.089 165.583 25.267C165.772 25.4451 165.867 25.6591 165.867 25.9091C165.867 26.1591 165.772 26.3731 165.583 26.5511C165.397 26.7292 165.174 26.8182 164.912 26.8182ZM168.027 40.2727V28.2727H169.323V29.6591H169.482C169.58 29.5076 169.717 29.3144 169.891 29.0795C170.069 28.8409 170.323 28.6288 170.652 28.4432C170.986 28.2538 171.436 28.1591 172.005 28.1591C172.739 28.1591 173.387 28.3428 173.948 28.7102C174.508 29.0777 174.946 29.5985 175.26 30.2727C175.575 30.947 175.732 31.7424 175.732 32.6591C175.732 33.5833 175.575 34.3845 175.26 35.0625C174.946 35.7367 174.51 36.2595 173.953 36.6307C173.397 36.9981 172.755 37.1818 172.027 37.1818C171.467 37.1818 171.018 37.089 170.681 36.9034C170.344 36.714 170.084 36.5 169.902 36.2614C169.721 36.0189 169.58 35.8182 169.482 35.6591H169.368V40.2727H168.027ZM169.346 32.6364C169.346 33.2955 169.442 33.8769 169.635 34.3807C169.828 34.8807 170.111 35.2727 170.482 35.5568C170.853 35.8371 171.308 35.9773 171.846 35.9773C172.406 35.9773 172.874 35.8295 173.249 35.5341C173.628 35.2348 173.912 34.8333 174.101 34.3295C174.294 33.822 174.391 33.2576 174.391 32.6364C174.391 32.0227 174.296 31.4697 174.107 30.9773C173.921 30.4811 173.639 30.089 173.26 29.8011C172.885 29.5095 172.414 29.3636 171.846 29.3636C171.3 29.3636 170.842 29.5019 170.471 29.7784C170.099 30.0511 169.819 30.4337 169.63 30.9261C169.44 31.4148 169.346 31.9848 169.346 32.6364ZM181.573 28.2727V29.4091H177.05V28.2727H181.573ZM178.368 26.1818H179.709V34.5C179.709 34.8788 179.764 35.1629 179.874 35.3523C179.988 35.5379 180.131 35.6629 180.306 35.7273C180.484 35.7879 180.671 35.8182 180.868 35.8182C181.016 35.8182 181.137 35.8106 181.232 35.7955C181.327 35.7765 181.402 35.7614 181.459 35.75L181.732 36.9545C181.641 36.9886 181.514 37.0227 181.351 37.0568C181.188 37.0947 180.982 37.1136 180.732 37.1136C180.353 37.1136 179.982 37.0322 179.618 36.8693C179.258 36.7064 178.959 36.4583 178.721 36.125C178.486 35.7917 178.368 35.3712 178.368 34.8636V26.1818ZM183.59 37V28.2727H184.931V37H183.59ZM184.272 26.8182C184.01 26.8182 183.785 26.7292 183.596 26.5511C183.41 26.3731 183.317 26.1591 183.317 25.9091C183.317 25.6591 183.41 25.4451 183.596 25.267C183.785 25.089 184.01 25 184.272 25C184.533 25 184.756 25.089 184.942 25.267C185.131 25.4451 185.226 25.6591 185.226 25.9091C185.226 26.1591 185.131 26.3731 184.942 26.5511C184.756 26.7292 184.533 26.8182 184.272 26.8182ZM190.932 37.1818C190.144 37.1818 189.453 36.9943 188.858 36.6193C188.267 36.2443 187.805 35.7197 187.472 35.0455C187.142 34.3712 186.978 33.5833 186.978 32.6818C186.978 31.7727 187.142 30.9792 187.472 30.3011C187.805 29.6231 188.267 29.0966 188.858 28.7216C189.453 28.3466 190.144 28.1591 190.932 28.1591C191.72 28.1591 192.409 28.3466 193 28.7216C193.595 29.0966 194.057 29.6231 194.387 30.3011C194.72 30.9792 194.887 31.7727 194.887 32.6818C194.887 33.5833 194.72 34.3712 194.387 35.0455C194.057 35.7197 193.595 36.2443 193 36.6193C192.409 36.9943 191.72 37.1818 190.932 37.1818ZM190.932 35.9773C191.531 35.9773 192.023 35.8239 192.409 35.517C192.796 35.2102 193.082 34.8068 193.267 34.3068C193.453 33.8068 193.546 33.2652 193.546 32.6818C193.546 32.0985 193.453 31.5549 193.267 31.0511C193.082 30.5473 192.796 30.1402 192.409 29.8295C192.023 29.5189 191.531 29.3636 190.932 29.3636C190.334 29.3636 189.841 29.5189 189.455 29.8295C189.069 30.1402 188.783 30.5473 188.597 31.0511C188.411 31.5549 188.319 32.0985 188.319 32.6818C188.319 33.2652 188.411 33.8068 188.597 34.3068C188.783 34.8068 189.069 35.2102 189.455 35.517C189.841 35.8239 190.334 35.9773 190.932 35.9773ZM198.274 31.75V37H196.934V28.2727H198.229V29.6364H198.343C198.547 29.1932 198.858 28.8371 199.274 28.5682C199.691 28.2955 200.229 28.1591 200.888 28.1591C201.479 28.1591 201.996 28.2803 202.439 28.5227C202.882 28.7614 203.227 29.125 203.473 29.6136C203.72 30.0985 203.843 30.7121 203.843 31.4545V37H202.502V31.5455C202.502 30.8598 202.324 30.3258 201.968 29.9432C201.612 29.5568 201.123 29.3636 200.502 29.3636C200.074 29.3636 199.691 29.4564 199.354 29.642C199.021 29.8277 198.757 30.0985 198.564 30.4545C198.371 30.8106 198.274 31.2424 198.274 31.75ZM212.475 30.2273L211.27 30.5682C211.194 30.3674 211.083 30.1723 210.935 29.983C210.791 29.7898 210.594 29.6307 210.344 29.5057C210.094 29.3807 209.774 29.3182 209.384 29.3182C208.85 29.3182 208.405 29.4413 208.049 29.6875C207.696 29.9299 207.52 30.2386 207.52 30.6136C207.52 30.947 207.641 31.2102 207.884 31.4034C208.126 31.5966 208.505 31.7576 209.02 31.8864L210.316 32.2045C211.096 32.3939 211.677 32.6837 212.06 33.0739C212.443 33.4602 212.634 33.9583 212.634 34.5682C212.634 35.0682 212.49 35.5152 212.202 35.9091C211.918 36.303 211.52 36.6136 211.009 36.8409C210.497 37.0682 209.903 37.1818 209.225 37.1818C208.335 37.1818 207.598 36.9886 207.015 36.6023C206.431 36.2159 206.062 35.6515 205.907 34.9091L207.179 34.5909C207.301 35.0606 207.53 35.4129 207.867 35.6477C208.208 35.8826 208.653 36 209.202 36C209.827 36 210.323 35.8674 210.691 35.6023C211.062 35.3333 211.247 35.0114 211.247 34.6364C211.247 34.3333 211.141 34.0795 210.929 33.875C210.717 33.6667 210.391 33.5114 209.952 33.4091L208.497 33.0682C207.698 32.8788 207.111 32.5852 206.736 32.1875C206.365 31.786 206.179 31.2841 206.179 30.6818C206.179 30.1894 206.318 29.7538 206.594 29.375C206.874 28.9962 207.255 28.6989 207.736 28.483C208.221 28.267 208.77 28.1591 209.384 28.1591C210.247 28.1591 210.926 28.3485 211.418 28.7273C211.914 29.1061 212.266 29.6061 212.475 30.2273Z" fill="#747474"/>
<g clip-path="url(#clip0_13_1878)">
<rect width="20" height="20" transform="translate(27.55 21)" fill="white"/>
<path d="M37.5501 21C35.5722 21 33.6388 21.5865 31.9944 22.6853C30.3499 23.7841 29.0681 25.3459 28.3113 27.1732C27.5544 29.0004 27.3563 31.0111 27.7422 32.9509C28.1281 34.8907 29.0805 36.6725 30.479 38.0711C31.8775 39.4696 33.6593 40.422 35.5992 40.8079C37.539 41.1937 39.5496 40.9957 41.3769 40.2388C43.2041 39.4819 44.7659 38.2002 45.8647 36.5557C46.9636 34.9112 47.5501 32.9778 47.5501 31C47.5472 28.3487 46.4927 25.8068 44.618 23.9321C42.7432 22.0574 40.2013 21.0029 37.5501 21V21ZM37.5501 39.3333C35.9019 39.3333 34.2907 38.8446 32.9203 37.9289C31.5499 37.0132 30.4818 35.7117 29.8511 34.189C29.2203 32.6663 29.0553 30.9908 29.3768 29.3742C29.6984 27.7577 30.4921 26.2729 31.6575 25.1074C32.8229 23.942 34.3078 23.1483 35.9243 22.8268C37.5408 22.5052 39.2164 22.6703 40.7391 23.301C42.2618 23.9317 43.5633 24.9998 44.479 26.3702C45.3946 27.7407 45.8834 29.3518 45.8834 31C45.881 33.2094 45.0022 35.3276 43.4399 36.8899C41.8777 38.4522 39.7594 39.3309 37.5501 39.3333Z" fill="#1D9F00"/>
<path d="M35.7122 35C35.5312 35.0005 35.3518 34.9661 35.1845 34.8988C35.0173 34.8315 34.8654 34.7327 34.7378 34.608L31.55 31.5134L32.5244 30.5675L35.7122 33.6621L42.5757 27L43.55 27.9459L36.6873 34.608C36.5596 34.7327 36.4076 34.8316 36.2402 34.8989C36.0728 34.9661 35.8934 35.0005 35.7122 35Z" fill="#1D9F00"/>
</g>
</g>
<defs>
<filter id="filter0_d_13_1878" x="4.88274e-05" y="0" width="571.1" height="128.55" filterUnits="userSpaceOnUse" color-interpolation-filters="sRGB">
<feFlood flood-opacity="0" result="BackgroundImageFix"/>
<feColorMatrix in="SourceAlpha" type="matrix" values="0 0 0 0 0 0 0 0 0 0 0 0 0 0 0 0 0 0 127 0" result="hardAlpha"/>
<feMorphology radius="0.05" operator="dilate" in="SourceAlpha" result="effect1_dropShadow_13_1878"/>
<feOffset dy="1"/>
<feGaussianBlur stdDeviation="0.25"/>
<feColorMatrix type="matrix" values="0 0 0 0 0.113725 0 0 0 0 0.160784 0 0 0 0 0.239216 0 0 0 0.02 0"/>
<feBlend mode="normal" in2="BackgroundImageFix" result="effect1_dropShadow_13_1878"/>
<feBlend mode="normal" in="SourceGraphic" in2="effect1_dropShadow_13_1878" result="shape"/>
</filter>
<clipPath id="clip0_13_1878">
<rect width="20" height="20" fill="white" transform="translate(27.55 21)"/>
</clipPath>
</defs>
</svg>
