<svg width="21" height="21" viewBox="0 0 21 21" fill="none" xmlns="http://www.w3.org/2000/svg">
<g clip-path="url(#clip0_601_360)">
<path d="M10.5 0C8.4233 0 6.39323 0.615814 4.66652 1.76957C2.9398 2.92332 1.59399 4.5632 0.79927 6.48182C0.0045495 8.40045 -0.203386 10.5116 0.201759 12.5484C0.606904 14.5853 1.60693 16.4562 3.07538 17.9246C4.54383 19.3931 6.41476 20.3931 8.45156 20.7982C10.4884 21.2034 12.5996 20.9955 14.5182 20.2007C16.4368 19.406 18.0767 18.0602 19.2304 16.3335C20.3842 14.6068 21 12.5767 21 10.5C20.997 7.71615 19.8898 5.04718 17.9213 3.0787C15.9528 1.11022 13.2839 0.00301095 10.5 0V0ZM10.5 1.75C12.5182 1.74839 14.4742 2.44803 16.0335 3.72925L3.72925 16.0335C2.67975 14.7524 2.01571 13.1995 1.81442 11.5556C1.61313 9.91177 1.88288 8.24455 2.59227 6.74803C3.30165 5.25152 4.4215 3.98727 5.82145 3.10244C7.2214 2.21761 8.84387 1.7486 10.5 1.75ZM10.5 19.25C8.48184 19.2516 6.52582 18.552 4.9665 17.2708L17.2708 4.9665C18.3203 6.24764 18.9843 7.80052 19.1856 9.44438C19.3869 11.0882 19.1171 12.7555 18.4077 14.252C17.6984 15.7485 16.5785 17.0127 15.1786 17.8976C13.7786 18.7824 12.1561 19.2514 10.5 19.25Z" fill="#C70036"/>
</g>
<defs>
<clipPath id="clip0_601_360">
<rect width="21" height="21" fill="white"/>
</clipPath>
</defs>
</svg>
