<svg width="141" height="13" viewBox="0 0 141 13" fill="none" xmlns="http://www.w3.org/2000/svg">
<path d="M3.07851 10.2706V2.03081H5.16174V10.2706H3.07851ZM0.00022053 7.19234V5.1091H8.24004V7.19234H0.00022053ZM14.9669 0.00577064C15.5798 0.00577064 16.1695 0.108574 16.7359 0.314182C17.3062 0.519789 17.8144 0.847598 18.2605 1.29761C18.7105 1.74762 19.0655 2.34504 19.3254 3.08988C19.5892 3.83085 19.723 4.74056 19.7269 5.81903C19.7269 6.83155 19.6125 7.73545 19.3836 8.53072C19.1586 9.32212 18.8346 9.99519 18.4118 10.5499C17.9889 11.1047 17.4788 11.5275 16.8814 11.8185C16.2839 12.1056 15.6167 12.2491 14.8796 12.2491C14.0843 12.2491 13.3822 12.0959 12.7731 11.7894C12.164 11.4791 11.6733 11.0581 11.3009 10.5267C10.9323 9.99131 10.7093 9.39001 10.6317 8.72275H13.1164C13.2134 9.15724 13.4171 9.49475 13.7274 9.73527C14.0378 9.97192 14.4218 10.0902 14.8796 10.0902C15.6555 10.0902 16.2452 9.75273 16.6486 9.07772C17.0521 8.39882 17.2557 7.46971 17.2596 6.29038H17.1781C16.9997 6.63952 16.7592 6.94017 16.4566 7.19234C16.154 7.44062 15.8068 7.63265 15.415 7.76842C15.027 7.9042 14.6139 7.97209 14.1755 7.97209C13.4733 7.97209 12.8468 7.80722 12.2959 7.47747C11.7451 7.14772 11.3106 6.69383 10.9925 6.11581C10.6744 5.53778 10.5153 4.87828 10.5153 4.13732C10.5114 3.33816 10.6957 2.6263 11.0681 2.00172C11.4405 1.37713 11.9604 0.888331 12.6276 0.535307C13.2988 0.178403 14.0785 0.00189114 14.9669 0.00577064ZM14.9844 1.98426C14.5925 1.98426 14.2434 2.07736 13.9369 2.26357C13.6343 2.44978 13.3938 2.7 13.2154 3.01424C13.0408 3.32847 12.9554 3.67955 12.9593 4.06749C12.9593 4.45931 13.0447 4.81233 13.2154 5.12656C13.3899 5.43691 13.6266 5.68519 13.9253 5.8714C14.2279 6.05373 14.5731 6.1449 14.9611 6.1449C15.252 6.1449 15.5216 6.09059 15.7699 5.98197C16.0182 5.87334 16.2335 5.72399 16.4158 5.5339C16.6021 5.33993 16.7475 5.11686 16.8523 4.8647C16.957 4.61254 17.0094 4.34486 17.0094 4.06167C17.0055 3.68537 16.9163 3.3401 16.7417 3.02587C16.5671 2.71164 16.3266 2.45948 16.0201 2.26939C15.7137 2.0793 15.3684 1.98426 14.9844 1.98426ZM26.6574 0.168705V12.0862H24.1378V2.56035H24.0679L21.3388 4.27116V2.03663L24.2891 0.168705H26.6574ZM37.6351 12.2491C36.8127 12.2491 36.0795 12.0978 35.4355 11.7952C34.7954 11.4926 34.2872 11.0756 33.9109 10.5441C33.5346 10.0126 33.3387 9.40359 33.3232 8.71693H35.7672C35.7944 9.17858 35.9883 9.55294 36.3491 9.84002C36.7099 10.1271 37.1386 10.2706 37.6351 10.2706C38.0308 10.2706 38.38 10.1833 38.6826 10.0088C38.989 9.83032 39.2276 9.58398 39.3983 9.26975C39.5729 8.95164 39.6602 8.58697 39.6602 8.17576C39.6602 7.75679 39.5709 7.38824 39.3925 7.07013C39.2179 6.75202 38.9755 6.50374 38.6651 6.32529C38.3547 6.14684 37.9998 6.05567 37.6002 6.0518C37.2511 6.0518 36.9116 6.12356 36.5819 6.2671C36.256 6.41064 36.0019 6.60655 35.8196 6.85483L33.5792 6.45331L34.1437 0.168705H41.4292V2.22866H36.2211L35.9127 5.21385H35.9825C36.192 4.91901 36.5082 4.67461 36.931 4.48064C37.3539 4.28667 37.8272 4.18969 38.3509 4.18969C39.0686 4.18969 39.7087 4.35844 40.2712 4.69595C40.8337 5.03346 41.2779 5.49704 41.6037 6.08671C41.9296 6.6725 42.0906 7.34751 42.0867 8.11175C42.0906 8.91478 41.9044 9.62859 41.5281 10.2532C41.1557 10.8739 40.6339 11.3627 39.9628 11.7196C39.2955 12.0726 38.5196 12.2491 37.6351 12.2491ZM48.4179 12.2491C47.8049 12.2452 47.2133 12.1424 46.6431 11.9407C46.0767 11.739 45.5685 11.4112 45.1185 10.9573C44.6684 10.5034 44.3115 9.90209 44.0477 9.15337C43.7878 8.40464 43.6579 7.48523 43.6579 6.39512C43.6617 5.39424 43.7762 4.50004 44.0012 3.71252C44.2301 2.92113 44.5559 2.25 44.9788 1.69912C45.4055 1.14825 45.9157 0.729276 46.5092 0.442201C47.1028 0.151248 47.7681 0.00577064 48.5052 0.00577064C49.3004 0.00577064 50.0026 0.160946 50.6117 0.471298C51.2207 0.777769 51.7095 1.1948 52.0781 1.7224C52.4505 2.25 52.6755 2.8416 52.7531 3.49722H50.2683C50.1714 3.08212 49.9677 2.75626 49.6573 2.51961C49.347 2.28297 48.9629 2.16465 48.5052 2.16465C47.7293 2.16465 47.1396 2.50216 46.7362 3.17717C46.3366 3.85218 46.1329 4.76966 46.1252 5.92959H46.2066C46.3851 5.57657 46.6256 5.27592 46.9282 5.02764C47.2347 4.77548 47.5819 4.58345 47.9698 4.45155C48.3616 4.31577 48.7748 4.24788 49.2093 4.24788C49.9153 4.24788 50.5438 4.41469 51.0947 4.74832C51.6455 5.07807 52.08 5.53196 52.3981 6.10999C52.7162 6.68801 52.8753 7.34945 52.8753 8.09429C52.8753 8.9012 52.6871 9.61889 52.3108 10.2474C51.9384 10.8758 51.4166 11.3685 50.7455 11.7254C50.0783 12.0784 49.3024 12.253 48.4179 12.2491ZM48.4062 10.2706C48.7942 10.2706 49.1414 10.1775 49.4479 9.99131C49.7543 9.8051 49.9948 9.55294 50.1694 9.23483C50.344 8.91672 50.4313 8.55982 50.4313 8.16412C50.4313 7.76842 50.344 7.41346 50.1694 7.09923C49.9987 6.785 49.7621 6.53478 49.4595 6.34857C49.1569 6.16236 48.8116 6.06925 48.4237 6.06925C48.1327 6.06925 47.8631 6.12356 47.6148 6.23219C47.3704 6.34081 47.1551 6.49211 46.9689 6.68607C46.7866 6.88004 46.6431 7.10505 46.5383 7.36109C46.4336 7.61325 46.3812 7.88287 46.3812 8.16994C46.3812 8.554 46.4685 8.90508 46.6431 9.22319C46.8215 9.5413 47.062 9.7954 47.3646 9.98549C47.6711 10.1756 48.0183 10.2706 48.4062 10.2706ZM55.1331 12.0862L60.0735 2.31013V2.22866H54.3184V0.168705H62.6804V2.25776L57.7342 12.0862H55.1331ZM68.613 12.2491C67.7169 12.2491 66.9196 12.1036 66.2214 11.8127C65.5269 11.5179 64.9819 11.1163 64.5862 10.6081C64.1905 10.0999 63.9926 9.52385 63.9926 8.87987C63.9926 8.38331 64.1051 7.92748 64.3301 7.51238C64.559 7.09341 64.8694 6.74621 65.2612 6.47077C65.653 6.19145 66.0914 6.013 66.5763 5.93541V5.85395C65.9401 5.72593 65.4241 5.41752 65.0284 4.92871C64.6327 4.43603 64.4349 3.86382 64.4349 3.21208C64.4349 2.59526 64.6153 2.04633 64.9761 1.56528C65.3369 1.08036 65.8315 0.700181 66.4599 0.424745C67.0923 0.145429 67.81 0.00577064 68.613 0.00577064C69.416 0.00577064 70.1318 0.145429 70.7602 0.424745C71.3926 0.70406 71.8891 1.08618 72.2499 1.5711C72.6107 2.05215 72.793 2.59914 72.7969 3.21208C72.793 3.8677 72.5913 4.43991 72.1917 4.92871C71.7922 5.41752 71.2801 5.72593 70.6555 5.85395V5.93541C71.1327 6.013 71.5652 6.19145 71.9531 6.47077C72.345 6.74621 72.6553 7.09341 72.8842 7.51238C73.117 7.92748 73.2353 8.38331 73.2392 8.87987C73.2353 9.52385 73.0355 10.0999 72.6398 10.6081C72.2441 11.1163 71.6971 11.5179 70.9988 11.8127C70.3044 12.1036 69.5091 12.2491 68.613 12.2491ZM68.613 10.3986C69.0126 10.3986 69.3617 10.3269 69.6604 10.1833C69.9591 10.0359 70.1919 9.8342 70.3587 9.57816C70.5294 9.31824 70.6148 9.01953 70.6148 8.68202C70.6148 8.33675 70.5275 8.03222 70.3529 7.76842C70.1783 7.50075 69.9417 7.29126 69.643 7.13996C69.3443 6.98479 69.0009 6.9072 68.613 6.9072C68.2289 6.9072 67.8856 6.98479 67.583 7.13996C67.2804 7.29126 67.0418 7.50075 66.8673 7.76842C66.6966 8.03222 66.6112 8.33675 66.6112 8.68202C66.6112 9.01953 66.6946 9.31824 66.8614 9.57816C67.0283 9.8342 67.263 10.0359 67.5656 10.1833C67.8682 10.3269 68.2173 10.3986 68.613 10.3986ZM68.613 5.07419C68.9466 5.07419 69.2434 5.0063 69.5033 4.87052C69.7632 4.73474 69.9669 4.54659 70.1143 4.30607C70.2617 4.06555 70.3354 3.78817 70.3354 3.47394C70.3354 3.16359 70.2617 2.89203 70.1143 2.65927C69.9669 2.42263 69.7652 2.23836 69.5091 2.10646C69.2531 1.97068 68.9544 1.90279 68.613 1.90279C68.2755 1.90279 67.9768 1.97068 67.7169 2.10646C67.4569 2.23836 67.2533 2.42263 67.1059 2.65927C66.9623 2.89203 66.8905 3.16359 66.8905 3.47394C66.8905 3.78817 66.9643 4.06555 67.1117 4.30607C67.2591 4.54659 67.4628 4.73474 67.7227 4.87052C67.9826 5.0063 68.2794 5.07419 68.613 5.07419ZM79.4467 12.2491C78.5505 12.2491 77.7533 12.1036 77.055 11.8127C76.3606 11.5179 75.8156 11.1163 75.4199 10.6081C75.0242 10.0999 74.8263 9.52385 74.8263 8.87987C74.8263 8.38331 74.9388 7.92748 75.1638 7.51238C75.3927 7.09341 75.7031 6.74621 76.0949 6.47077C76.4867 6.19145 76.9251 6.013 77.41 5.93541V5.85395C76.7738 5.72593 76.2578 5.41752 75.8621 4.92871C75.4664 4.43603 75.2686 3.86382 75.2686 3.21208C75.2686 2.59526 75.449 2.04633 75.8097 1.56528C76.1705 1.08036 76.6651 0.700181 77.2936 0.424745C77.9259 0.145429 78.6436 0.00577064 79.4467 0.00577064C80.2497 0.00577064 80.9654 0.145429 81.5939 0.424745C82.2262 0.70406 82.7228 1.08618 83.0836 1.5711C83.4444 2.05215 83.6267 2.59914 83.6306 3.21208C83.6267 3.8677 83.425 4.43991 83.0254 4.92871C82.6258 5.41752 82.1137 5.72593 81.4892 5.85395V5.93541C81.9663 6.013 82.3989 6.19145 82.7868 6.47077C83.1786 6.74621 83.489 7.09341 83.7179 7.51238C83.9506 7.92748 84.069 8.38331 84.0728 8.87987C84.069 9.52385 83.8692 10.0999 83.4735 10.6081C83.0778 11.1163 82.5308 11.5179 81.8325 11.8127C81.1381 12.1036 80.3428 12.2491 79.4467 12.2491ZM79.4467 10.3986C79.8462 10.3986 80.1954 10.3269 80.4941 10.1833C80.7928 10.0359 81.0256 9.8342 81.1924 9.57816C81.3631 9.31824 81.4484 9.01953 81.4484 8.68202C81.4484 8.33675 81.3611 8.03222 81.1866 7.76842C81.012 7.50075 80.7754 7.29126 80.4766 7.13996C80.1779 6.98479 79.8346 6.9072 79.4467 6.9072C79.0626 6.9072 78.7193 6.98479 78.4167 7.13996C78.1141 7.29126 77.8755 7.50075 77.7009 7.76842C77.5302 8.03222 77.4449 8.33675 77.4449 8.68202C77.4449 9.01953 77.5283 9.31824 77.6951 9.57816C77.8619 9.8342 78.0966 10.0359 78.3992 10.1833C78.7018 10.3269 79.051 10.3986 79.4467 10.3986ZM79.4467 5.07419C79.7803 5.07419 80.0771 5.0063 80.337 4.87052C80.5969 4.73474 80.8006 4.54659 80.948 4.30607C81.0954 4.06555 81.1691 3.78817 81.1691 3.47394C81.1691 3.16359 81.0954 2.89203 80.948 2.65927C80.8006 2.42263 80.5988 2.23836 80.3428 2.10646C80.0868 1.97068 79.7881 1.90279 79.4467 1.90279C79.1092 1.90279 78.8104 1.97068 78.5505 2.10646C78.2906 2.23836 78.0869 2.42263 77.9395 2.65927C77.796 2.89203 77.7242 3.16359 77.7242 3.47394C77.7242 3.78817 77.7979 4.06555 77.9453 4.30607C78.0928 4.54659 78.2964 4.73474 78.5563 4.87052C78.8163 5.0063 79.113 5.07419 79.4467 5.07419ZM93.9798 12.2491C93.1574 12.2491 92.4242 12.0978 91.7802 11.7952C91.1401 11.4926 90.6319 11.0756 90.2556 10.5441C89.8793 10.0126 89.6834 9.40359 89.6679 8.71693H92.1119C92.139 9.17858 92.333 9.55294 92.6938 9.84002C93.0546 10.1271 93.4833 10.2706 93.9798 10.2706C94.3755 10.2706 94.7247 10.1833 95.0273 10.0088C95.3337 9.83032 95.5723 9.58398 95.743 9.26975C95.9176 8.95164 96.0049 8.58697 96.0049 8.17576C96.0049 7.75679 95.9156 7.38824 95.7372 7.07013C95.5626 6.75202 95.3201 6.50374 95.0098 6.32529C94.6994 6.14684 94.3445 6.05567 93.9449 6.0518C93.5958 6.0518 93.2563 6.12356 92.9266 6.2671C92.6007 6.41064 92.3466 6.60655 92.1643 6.85483L89.9239 6.45331L90.4884 0.168705H97.7739V2.22866H92.5658L92.2574 5.21385H92.3272C92.5367 4.91901 92.8529 4.67461 93.2757 4.48064C93.6986 4.28667 94.1718 4.18969 94.6956 4.18969C95.4133 4.18969 96.0534 4.35844 96.6159 4.69595C97.1784 5.03346 97.6226 5.49704 97.9484 6.08671C98.2743 6.6725 98.4353 7.34751 98.4314 8.11175C98.4353 8.91478 98.2491 9.62859 97.8728 10.2532C97.5004 10.8739 96.9786 11.3627 96.3075 11.7196C95.6402 12.0726 94.8643 12.2491 93.9798 12.2491ZM104.763 12.2491C104.15 12.2452 103.558 12.1424 102.988 11.9407C102.421 11.739 101.913 11.4112 101.463 10.9573C101.013 10.5034 100.656 9.90209 100.392 9.15337C100.133 8.40464 100.003 7.48523 100.003 6.39512C100.006 5.39424 100.121 4.50004 100.346 3.71252C100.575 2.92113 100.901 2.25 101.323 1.69912C101.75 1.14825 102.26 0.729276 102.854 0.442201C103.447 0.151248 104.113 0.00577064 104.85 0.00577064C105.645 0.00577064 106.347 0.160946 106.956 0.471298C107.565 0.777769 108.054 1.1948 108.423 1.7224C108.795 2.25 109.02 2.8416 109.098 3.49722H106.613C106.516 3.08212 106.312 2.75626 106.002 2.51961C105.692 2.28297 105.308 2.16465 104.85 2.16465C104.074 2.16465 103.484 2.50216 103.081 3.17717C102.681 3.85218 102.478 4.76966 102.47 5.92959H102.551C102.73 5.57657 102.97 5.27592 103.273 5.02764C103.579 4.77548 103.927 4.58345 104.315 4.45155C104.706 4.31577 105.119 4.24788 105.554 4.24788C106.26 4.24788 106.888 4.41469 107.439 4.74832C107.99 5.07807 108.425 5.53196 108.743 6.10999C109.061 6.68801 109.22 7.34945 109.22 8.09429C109.22 8.9012 109.032 9.61889 108.656 10.2474C108.283 10.8758 107.761 11.3685 107.09 11.7254C106.423 12.0784 105.647 12.253 104.763 12.2491ZM104.751 10.2706C105.139 10.2706 105.486 10.1775 105.793 9.99131C106.099 9.8051 106.34 9.55294 106.514 9.23483C106.689 8.91672 106.776 8.55982 106.776 8.16412C106.776 7.76842 106.689 7.41346 106.514 7.09923C106.343 6.785 106.107 6.53478 105.804 6.34857C105.502 6.16236 105.156 6.06925 104.768 6.06925C104.477 6.06925 104.208 6.12356 103.96 6.23219C103.715 6.34081 103.5 6.49211 103.314 6.68607C103.131 6.88004 102.988 7.10505 102.883 7.36109C102.778 7.61325 102.726 7.88287 102.726 8.16994C102.726 8.554 102.813 8.90508 102.988 9.22319C103.166 9.5413 103.407 9.7954 103.709 9.98549C104.016 10.1756 104.363 10.2706 104.751 10.2706ZM111.478 12.0862L116.418 2.31013V2.22866H110.663V0.168705H119.025V2.25776L114.079 12.0862H111.478ZM124.958 12.2491C124.062 12.2491 123.264 12.1036 122.566 11.8127C121.872 11.5179 121.327 11.1163 120.931 10.6081C120.535 10.0999 120.337 9.52385 120.337 8.87987C120.337 8.38331 120.45 7.92748 120.675 7.51238C120.904 7.09341 121.214 6.74621 121.606 6.47077C121.998 6.19145 122.436 6.013 122.921 5.93541V5.85395C122.285 5.72593 121.769 5.41752 121.373 4.92871C120.977 4.43603 120.78 3.86382 120.78 3.21208C120.78 2.59526 120.96 2.04633 121.321 1.56528C121.682 1.08036 122.176 0.700181 122.805 0.424745C123.437 0.145429 124.155 0.00577064 124.958 0.00577064C125.761 0.00577064 126.476 0.145429 127.105 0.424745C127.737 0.70406 128.234 1.08618 128.595 1.5711C128.955 2.05215 129.138 2.59914 129.142 3.21208C129.138 3.8677 128.936 4.43991 128.536 4.92871C128.137 5.41752 127.625 5.72593 127 5.85395V5.93541C127.477 6.013 127.91 6.19145 128.298 6.47077C128.69 6.74621 129 7.09341 129.229 7.51238C129.462 7.92748 129.58 8.38331 129.584 8.87987C129.58 9.52385 129.38 10.0999 128.984 10.6081C128.589 11.1163 128.042 11.5179 127.344 11.8127C126.649 12.1036 125.854 12.2491 124.958 12.2491ZM124.958 10.3986C125.357 10.3986 125.706 10.3269 126.005 10.1833C126.304 10.0359 126.537 9.8342 126.703 9.57816C126.874 9.31824 126.959 9.01953 126.959 8.68202C126.959 8.33675 126.872 8.03222 126.698 7.76842C126.523 7.50075 126.286 7.29126 125.988 7.13996C125.689 6.98479 125.346 6.9072 124.958 6.9072C124.574 6.9072 124.23 6.98479 123.928 7.13996C123.625 7.29126 123.387 7.50075 123.212 7.76842C123.041 8.03222 122.956 8.33675 122.956 8.68202C122.956 9.01953 123.039 9.31824 123.206 9.57816C123.373 9.8342 123.608 10.0359 123.91 10.1833C124.213 10.3269 124.562 10.3986 124.958 10.3986ZM124.958 5.07419C125.291 5.07419 125.588 5.0063 125.848 4.87052C126.108 4.73474 126.312 4.54659 126.459 4.30607C126.606 4.06555 126.68 3.78817 126.68 3.47394C126.68 3.16359 126.606 2.89203 126.459 2.65927C126.312 2.42263 126.11 2.23836 125.854 2.10646C125.598 1.97068 125.299 1.90279 124.958 1.90279C124.62 1.90279 124.321 1.97068 124.062 2.10646C123.802 2.23836 123.598 2.42263 123.451 2.65927C123.307 2.89203 123.235 3.16359 123.235 3.47394C123.235 3.78817 123.309 4.06555 123.456 4.30607C123.604 4.54659 123.807 4.73474 124.067 4.87052C124.327 5.0063 124.624 5.07419 124.958 5.07419ZM135.791 12.2491C134.895 12.2491 134.098 12.1036 133.4 11.8127C132.705 11.5179 132.16 11.1163 131.765 10.6081C131.369 10.0999 131.171 9.52385 131.171 8.87987C131.171 8.38331 131.284 7.92748 131.509 7.51238C131.737 7.09341 132.048 6.74621 132.44 6.47077C132.831 6.19145 133.27 6.013 133.755 5.93541V5.85395C133.118 5.72593 132.603 5.41752 132.207 4.92871C131.811 4.43603 131.613 3.86382 131.613 3.21208C131.613 2.59526 131.794 2.04633 132.154 1.56528C132.515 1.08036 133.01 0.700181 133.638 0.424745C134.271 0.145429 134.988 0.00577064 135.791 0.00577064C136.594 0.00577064 137.31 0.145429 137.939 0.424745C138.571 0.70406 139.068 1.08618 139.428 1.5711C139.789 2.05215 139.971 2.59914 139.975 3.21208C139.971 3.8677 139.77 4.43991 139.37 4.92871C138.971 5.41752 138.458 5.72593 137.834 5.85395V5.93541C138.311 6.013 138.744 6.19145 139.132 6.47077C139.523 6.74621 139.834 7.09341 140.063 7.51238C140.295 7.92748 140.414 8.38331 140.418 8.87987C140.414 9.52385 140.214 10.0999 139.818 10.6081C139.422 11.1163 138.875 11.5179 138.177 11.8127C137.483 12.1036 136.688 12.2491 135.791 12.2491ZM135.791 10.3986C136.191 10.3986 136.54 10.3269 136.839 10.1833C137.138 10.0359 137.37 9.8342 137.537 9.57816C137.708 9.31824 137.793 9.01953 137.793 8.68202C137.793 8.33675 137.706 8.03222 137.531 7.76842C137.357 7.50075 137.12 7.29126 136.821 7.13996C136.523 6.98479 136.179 6.9072 135.791 6.9072C135.407 6.9072 135.064 6.98479 134.761 7.13996C134.459 7.29126 134.22 7.50075 134.046 7.76842C133.875 8.03222 133.79 8.33675 133.79 8.68202C133.79 9.01953 133.873 9.31824 134.04 9.57816C134.207 9.8342 134.441 10.0359 134.744 10.1833C135.047 10.3269 135.396 10.3986 135.791 10.3986ZM135.791 5.07419C136.125 5.07419 136.422 5.0063 136.682 4.87052C136.942 4.73474 137.145 4.54659 137.293 4.30607C137.44 4.06555 137.514 3.78817 137.514 3.47394C137.514 3.16359 137.44 2.89203 137.293 2.65927C137.145 2.42263 136.944 2.23836 136.688 2.10646C136.431 1.97068 136.133 1.90279 135.791 1.90279C135.454 1.90279 135.155 1.97068 134.895 2.10646C134.635 2.23836 134.432 2.42263 134.284 2.65927C134.141 2.89203 134.069 3.16359 134.069 3.47394C134.069 3.78817 134.143 4.06555 134.29 4.30607C134.437 4.54659 134.641 4.73474 134.901 4.87052C135.161 5.0063 135.458 5.07419 135.791 5.07419Z" fill="url(#paint0_linear_445_552)"/>
<defs>
<linearGradient id="paint0_linear_445_552" x1="70.0513" y1="-3.91382" x2="70.0513" y2="16.0862" gradientUnits="userSpaceOnUse">
<stop stop-color="white"/>
<stop offset="1" stop-color="#999999"/>
</linearGradient>
</defs>
</svg>
