<svg width="28" height="28" viewBox="0 0 28 28" fill="none" xmlns="http://www.w3.org/2000/svg">
<path d="M7.09506 11.6667C7.09506 11.0224 7.61739 10.5 8.26172 10.5H8.55353H10.3035H10.5951C11.2394 10.5 11.7617 11.0224 11.7617 11.6667V14C11.7617 14.6444 11.2394 15.1667 10.5951 15.1667H8.26172C7.61739 15.1667 7.09506 14.6444 7.09506 14V11.6667Z" fill="#995400"/>
<path d="M7.87782 0.775384C7.6617 0.343153 7.13612 0.167956 6.70388 0.384072C6.27165 0.600187 6.09646 1.12578 6.31257 1.55801L6.37416 1.68117C6.57944 2.09174 6.57944 2.57499 6.37415 2.98555L6.31257 3.10872C6.09646 3.54095 6.27165 4.06654 6.70388 4.28265C7.13611 4.49877 7.6617 4.32357 7.87782 3.89134L7.9394 3.76817C8.39102 2.86494 8.39102 1.80179 7.9394 0.898552L7.87782 0.775384Z" fill="#995400"/>
<path d="M17.2112 0.775385C16.995 0.343154 16.4694 0.167956 16.0372 0.384071C15.605 0.600186 15.4298 1.12577 15.6459 1.55801L15.7075 1.68117C15.9128 2.09174 15.9128 2.57499 15.7075 2.98555L15.6459 3.10871C15.4298 3.54094 15.605 4.06653 16.0372 4.28265C16.4694 4.49877 16.995 4.32358 17.2111 3.89135L17.2727 3.76818C17.7244 2.86494 17.7244 1.80179 17.2727 0.898553L17.2112 0.775385Z" fill="#995400"/>
<path d="M12.5445 1.55801C12.7606 1.12578 12.5854 0.600189 12.1532 0.384072C11.7209 0.167956 11.1954 0.343152 10.9792 0.775383L10.9177 0.898552C10.466 1.80179 10.466 2.86494 10.9177 3.76817L10.9792 3.89134C11.1954 4.32357 11.7209 4.49877 12.1532 4.28265C12.5854 4.06654 12.7606 3.54095 12.5445 3.10872L12.4829 2.98555C12.2776 2.57499 12.2776 2.09174 12.4829 1.68118L12.5445 1.55801Z" fill="#995400"/>
<path fill-rule="evenodd" clip-rule="evenodd" d="M16.2459 5.27502C15.2505 4.95783 14.0069 4.95803 11.9606 4.95834L11.7462 4.95836C10.7977 4.95836 10.0298 4.95836 9.39748 4.98081C8.55764 5.01063 7.88643 5.08109 7.27782 5.27502C4.82956 6.05517 3.04204 8.16526 2.675 10.7085C2.52578 11.7425 2.73041 12.9691 3.06714 14.9875L4.11824 21.2941C4.24528 22.0566 4.32289 22.5224 4.4457 22.931C5.20839 25.4685 7.39321 27.3193 10.0216 27.6545C10.4447 27.7084 10.9169 27.7084 11.6899 27.7084H11.8337C12.6067 27.7084 13.079 27.7084 13.5022 27.6545C16.1305 27.3193 18.3153 25.4685 19.078 22.931C19.2008 22.5224 19.2784 22.0566 19.4055 21.2942L19.5065 20.6882C19.6455 20.7015 19.7863 20.7084 19.9285 20.7084C22.3448 20.7084 24.3035 18.7496 24.3035 16.3334C24.3035 14.2419 22.8359 12.4931 20.8743 12.0609C20.9117 11.5679 20.9094 11.1287 20.8487 10.7085C20.4817 8.16526 18.6942 6.05517 16.2459 5.27502ZM11.7619 6.70836C14.0689 6.70836 15.0136 6.71903 15.7146 6.94241C17.5242 7.51904 18.8454 9.07868 19.1167 10.9584C19.1755 11.3661 19.1565 11.8716 19.0425 12.7164C18.9648 13.2929 18.8482 13.9929 18.6977 14.8959L17.6911 20.9355C17.5486 21.7908 17.4888 22.1389 17.4021 22.4273C16.8384 24.3028 15.2235 25.6708 13.2808 25.9185C12.9821 25.9566 12.6289 25.9584 11.7619 25.9584C10.8949 25.9584 10.5416 25.9566 10.2429 25.9185C8.30022 25.6708 6.68536 24.3028 6.12163 22.4273C6.03494 22.1389 5.97516 21.7908 5.83263 20.9355L4.82601 14.8959C4.44674 12.6202 4.30196 11.6867 4.40706 10.9584C4.67835 9.07868 5.99956 7.51904 7.80914 6.94241C8.01499 6.87682 8.25146 6.8278 8.55353 6.79223L8.55353 10.5H8.74978C8.74978 10.5 8.84986 10.5 9.33311 10.5C9.81636 10.5 9.91644 10.5 9.91644 10.5H10.3035L10.3035 6.71248C10.725 6.7084 11.2053 6.70836 11.7619 6.70836ZM19.9285 18.9584C19.8838 18.9584 19.8394 18.9573 19.7953 18.9551L20.4261 15.1702C20.51 14.6671 20.5852 14.2157 20.6495 13.8086C21.7487 14.1219 22.5535 15.1337 22.5535 16.3334C22.5535 17.7831 21.3783 18.9584 19.9285 18.9584Z" fill="#995400"/>
</svg>
