<svg width="198" height="198" viewBox="0 0 198 198" fill="none" xmlns="http://www.w3.org/2000/svg">
<path d="M38.7803 23.3799H24.8569V27.8111H38.7803V23.3799Z" fill="#EBEBEB"/>
<path d="M173.341 63.0631H159.022V58.2358H173.341V63.0631ZM159.418 62.6671H172.945V58.6318H159.418V62.6671Z" fill="#EBEBEB"/>
<path d="M31.0147 17.7925C28.7021 17.8321 22.774 17.9311 20.5405 17.9588H17.0914L17.2735 17.7766V22.2079L17.0755 22.0099C19.3882 22.0099 25.2846 22.0415 27.518 22.0732L30.9989 22.1168L30.9038 22.2079L30.9989 17.7766L31.0147 17.7925ZM31.0147 17.7925L31.1058 22.2237V22.3187H31.0108C29.2723 22.3425 25.7836 22.3821 24.0491 22.394L17.0874 22.4217H16.8894V22.2237V17.7925V17.6143H17.0676H20.5801C22.7977 17.638 28.6981 17.737 30.991 17.7766L31.0147 17.7925Z" fill="#EBEBEB"/>
<path d="M54.2836 123.453C51.971 123.493 46.0389 123.592 43.8094 123.619H40.3603L40.5385 123.437V127.869L40.3405 127.671C42.6531 127.671 48.5496 127.702 50.783 127.734L54.2638 127.777L54.1688 127.869L54.2638 123.437L54.2836 123.453ZM54.2836 123.453L54.3747 127.884V127.979H54.2797C52.5412 128.003 49.0525 128.043 47.318 128.059L40.3563 128.082H40.1583V127.88V123.449V123.271H40.3405H43.853C46.0706 123.295 51.971 123.398 54.2638 123.433L54.2836 123.453Z" fill="#EBEBEB"/>
<path d="M46.5142 117.866C44.2015 117.905 38.2734 118.004 36.0439 118.032H32.5948L32.773 117.85V122.281L32.575 122.083C34.8837 122.083 40.7801 122.115 43.0135 122.146L46.4944 122.19L46.4033 122.281L46.4944 117.85L46.5142 117.866ZM46.5142 117.866L46.6092 122.297V122.392H46.5102C44.7757 122.416 41.287 122.455 39.5485 122.471L32.5908 122.495H32.3928V122.293V117.862V117.683H32.575H36.0835C38.3051 117.707 44.2055 117.81 46.4944 117.846L46.5142 117.866Z" fill="#EBEBEB"/>
<path d="M38.7803 123.453H24.8569V127.884H38.7803V123.453Z" fill="#EBEBEB"/>
<path d="M180.909 17.7925H166.985V22.2237H180.909V17.7925Z" fill="#EBEBEB"/>
<path d="M173.143 173.009H159.22V177.44H173.143V173.009Z" fill="#EBEBEB"/>
<path d="M180.909 167.421C178.596 167.461 172.668 167.56 170.434 167.587H166.985L167.167 167.405V171.836L166.969 171.638C169.282 171.638 175.178 171.666 177.412 171.702L180.893 171.741L180.798 171.836L180.893 167.405L180.909 167.421ZM180.909 167.421L181.004 171.852V171.947H180.909C179.17 171.971 175.685 172.011 173.947 172.023L166.985 172.05H166.787V171.864L166.807 167.433V167.251H166.985H170.498C172.715 167.274 178.62 167.373 180.909 167.413V167.421Z" fill="#EBEBEB"/>
<path d="M31.0147 173.009C28.7021 173.048 22.774 173.147 20.5405 173.171L17.0914 173.191L17.2735 173.009V177.44L17.0755 177.242C19.3882 177.242 25.2846 177.27 27.518 177.301L30.9989 177.345L30.9038 177.44L30.9989 173.009H31.0147ZM31.0147 173.009L31.1058 177.44V177.535H31.0108C29.2723 177.559 25.7836 177.598 24.0491 177.61L17.0874 177.638H16.8894V177.44V173.009V172.826H17.0676H20.5801C22.7977 172.85 28.6981 172.949 30.991 172.989L31.0147 173.009Z" fill="#EBEBEB"/>
<path d="M179.079 16.4895H85.3221V84.2213H179.079V16.4895Z" fill="white"/>
<path d="M180.228 85.3698H84.1738V15.3372H180.228V85.3698ZM86.4706 83.069H177.947V17.6379H86.4706V83.069Z" fill="#EBEBEB"/>
<path d="M154.274 66.8767C154.236 66.8773 154.199 66.8677 154.167 66.8489L149.197 63.9819C149.164 63.9623 149.136 63.9346 149.117 63.9013C149.097 63.868 149.087 63.8303 149.086 63.7918V58.0538C149.086 58.0152 149.097 57.9774 149.116 57.944C149.136 57.9107 149.164 57.883 149.197 57.8637L154.167 54.9927C154.2 54.9732 154.237 54.9629 154.276 54.9629C154.314 54.9629 154.352 54.9732 154.385 54.9927L159.354 57.8637C159.388 57.883 159.416 57.9107 159.435 57.944C159.454 57.9774 159.465 58.0152 159.465 58.0538V63.7918C159.464 63.8303 159.454 63.868 159.435 63.9013C159.415 63.9346 159.388 63.9623 159.354 63.9819L154.385 66.8489C154.351 66.8683 154.312 66.8779 154.274 66.8767ZM149.522 63.6651L154.274 66.4054L159.026 63.6651V58.1805L154.274 55.4362L149.522 58.1805V63.6651Z" fill="#EBEBEB"/>
<path d="M164.213 66.8766C164.174 66.8774 164.136 66.8678 164.102 66.8488L159.137 63.9818C159.103 63.9628 159.075 63.9352 159.055 63.9018C159.036 63.8684 159.026 63.8304 159.026 63.7917V58.0537C159.025 58.0149 159.035 57.9768 159.055 57.9433C159.074 57.9098 159.103 57.8823 159.137 57.8636L164.102 54.9926C164.136 54.9731 164.174 54.9629 164.213 54.9629C164.252 54.9629 164.29 54.9731 164.324 54.9926L169.29 57.8636C169.324 57.8823 169.352 57.9098 169.372 57.9433C169.391 57.9768 169.401 58.0149 169.401 58.0537V63.7917C169.401 63.8304 169.391 63.8684 169.371 63.9018C169.352 63.9352 169.324 63.9628 169.29 63.9818L164.34 66.8488C164.302 66.8707 164.257 66.8804 164.213 66.8766ZM159.461 63.665L164.213 66.4053L168.965 63.665V58.1804L164.213 55.4361L159.461 58.1804V63.665Z" fill="#EBEBEB"/>
<path d="M164.213 55.4045C164.184 55.4045 164.156 55.3987 164.129 55.3875C164.102 55.3763 164.078 55.3599 164.058 55.3393C164.038 55.3187 164.022 55.2942 164.011 55.2673C164 55.2404 163.995 55.2117 163.996 55.1827V51.7771C163.996 51.7194 164.018 51.664 164.059 51.6231C164.1 51.5823 164.156 51.5593 164.213 51.5593C164.271 51.5593 164.326 51.5823 164.367 51.6231C164.408 51.664 164.431 51.7194 164.431 51.7771V55.1827C164.432 55.2117 164.426 55.2404 164.416 55.2673C164.405 55.2942 164.389 55.3187 164.369 55.3393C164.348 55.3599 164.324 55.3763 164.298 55.3875C164.271 55.3987 164.242 55.4045 164.213 55.4045Z" fill="#EBEBEB"/>
<path d="M169.183 58.2716C169.143 58.2724 169.104 58.2621 169.07 58.2418C169.035 58.2215 169.007 58.192 168.989 58.1567C168.962 58.1056 168.956 58.046 168.972 57.9905C168.988 57.935 169.026 57.8881 169.076 57.8597L171.967 56.2757C171.992 56.2618 172.02 56.253 172.048 56.2498C172.077 56.2467 172.106 56.2492 172.134 56.2573C172.161 56.2654 172.187 56.2789 172.209 56.297C172.232 56.3152 172.25 56.3375 172.264 56.3628C172.278 56.388 172.287 56.4157 172.29 56.4443C172.293 56.4729 172.29 56.5019 172.282 56.5295C172.274 56.5571 172.261 56.5829 172.243 56.6052C172.225 56.6276 172.202 56.6462 172.177 56.6598L169.286 58.2438C169.255 58.2627 169.219 58.2723 169.183 58.2716Z" fill="#EBEBEB"/>
<path d="M150.211 63.36C150.153 63.3589 150.097 63.3351 150.056 63.2936C150.016 63.2522 149.993 63.1964 149.993 63.1382V58.7664C149.993 58.7086 150.016 58.6532 150.057 58.6124C150.098 58.5715 150.153 58.5486 150.211 58.5486C150.268 58.5486 150.324 58.5715 150.365 58.6124C150.406 58.6532 150.429 58.7086 150.429 58.7664V63.1461C150.427 63.2032 150.404 63.2576 150.363 63.2976C150.323 63.3376 150.268 63.36 150.211 63.36Z" fill="#EBEBEB"/>
<path d="M160.467 63.36C160.438 63.36 160.41 63.3542 160.383 63.343C160.356 63.3318 160.332 63.3154 160.312 63.2948C160.291 63.2741 160.275 63.2497 160.265 63.2228C160.254 63.1959 160.249 63.1672 160.249 63.1382V58.7664C160.249 58.7086 160.272 58.6532 160.313 58.6124C160.354 58.5715 160.409 58.5486 160.467 58.5486C160.525 58.5486 160.58 58.5715 160.621 58.6124C160.662 58.6532 160.685 58.7086 160.685 58.7664V63.1461C160.684 63.2032 160.66 63.2576 160.62 63.2976C160.579 63.3376 160.524 63.36 160.467 63.36Z" fill="#EBEBEB"/>
<path d="M158.234 58.7507C158.194 58.7518 158.156 58.7408 158.123 58.719L154.337 56.5172C154.287 56.4883 154.251 56.4407 154.236 56.3851C154.221 56.3294 154.229 56.2701 154.258 56.2202C154.272 56.1946 154.291 56.1722 154.314 56.1542C154.337 56.1362 154.363 56.1231 154.391 56.1157C154.419 56.1083 154.449 56.1067 154.478 56.111C154.506 56.1154 154.534 56.1256 154.559 56.141L158.345 58.3428C158.394 58.3718 158.431 58.4193 158.445 58.4749C158.46 58.5306 158.453 58.5899 158.424 58.6398C158.404 58.6732 158.377 58.701 158.343 58.7205C158.31 58.7399 158.272 58.7503 158.234 58.7507Z" fill="#EBEBEB"/>
<path d="M168.106 58.7506C168.067 58.7517 168.028 58.7407 167.995 58.7189L164.209 56.5171C164.184 56.5032 164.162 56.4843 164.145 56.4617C164.127 56.4391 164.114 56.4131 164.107 56.3854C164.099 56.3577 164.098 56.3288 164.102 56.3004C164.106 56.272 164.115 56.2447 164.13 56.2201C164.144 56.1951 164.163 56.1731 164.186 56.1555C164.208 56.1378 164.234 56.125 164.262 56.1176C164.29 56.1102 164.319 56.1084 164.347 56.1125C164.375 56.1165 164.403 56.1261 164.427 56.1409L168.213 58.3427C168.25 58.3683 168.278 58.4047 168.293 58.4469C168.309 58.4891 168.311 58.535 168.299 58.5783C168.287 58.6217 168.262 58.6604 168.228 58.6891C168.193 58.7178 168.151 58.7351 168.106 58.7387V58.7506Z" fill="#EBEBEB"/>
<path d="M138.786 54.2957C138.747 54.2959 138.709 54.2864 138.675 54.268L133.709 51.4009C133.676 51.3813 133.649 51.3536 133.629 51.3203C133.61 51.287 133.599 51.2493 133.599 51.2108V45.4728C133.599 45.4342 133.609 45.3964 133.629 45.363C133.648 45.3297 133.676 45.302 133.709 45.2827L138.675 42.4117C138.71 42.394 138.748 42.3848 138.786 42.3848C138.825 42.3848 138.863 42.394 138.897 42.4117L143.867 45.2827C143.9 45.3022 143.927 45.33 143.946 45.3634C143.965 45.3968 143.974 45.4345 143.974 45.4728V51.2108C143.974 51.249 143.964 51.2866 143.945 51.3199C143.926 51.3532 143.899 51.3811 143.867 51.4009L138.897 54.2521C138.865 54.2767 138.826 54.2917 138.786 54.2957ZM134.034 51.0841L138.786 53.8244L143.538 51.0841V45.5995L138.786 42.8552L134.034 45.5995V51.0841Z" fill="#EBEBEB"/>
<path d="M138.786 42.8236C138.728 42.8225 138.673 42.7987 138.632 42.7572C138.591 42.7158 138.568 42.6599 138.568 42.6018V39.2041C138.568 39.1464 138.591 39.091 138.632 39.0501C138.673 39.0093 138.728 38.9863 138.786 38.9863C138.843 38.9884 138.896 39.0122 138.935 39.0529C138.974 39.0935 138.996 39.1477 138.996 39.2041V42.6097C138.995 42.6655 138.973 42.7187 138.934 42.7585C138.895 42.7983 138.842 42.8216 138.786 42.8236Z" fill="#EBEBEB"/>
<path d="M148.227 42.0553C148.169 42.0553 148.114 42.0324 148.073 41.9916C148.032 41.9507 148.009 41.8953 148.009 41.8375V38.4319C148.008 38.4032 148.014 38.3746 148.024 38.348C148.035 38.3213 148.051 38.2971 148.072 38.2767C148.092 38.2564 148.116 38.2404 148.143 38.2296C148.169 38.2189 148.198 38.2136 148.227 38.2141C148.285 38.2141 148.34 38.2371 148.381 38.2779C148.422 38.3188 148.445 38.3742 148.445 38.4319V41.8375C148.445 41.8953 148.422 41.9507 148.381 41.9916C148.34 42.0324 148.285 42.0553 148.227 42.0553Z" fill="#EBEBEB"/>
<path d="M143.748 45.6905C143.708 45.6913 143.669 45.681 143.635 45.6607C143.6 45.6404 143.572 45.611 143.554 45.5757C143.528 45.5244 143.522 45.4651 143.539 45.4099C143.555 45.3547 143.592 45.3077 143.641 45.2787L146.532 43.6947C146.557 43.6807 146.585 43.6719 146.613 43.6688C146.642 43.6656 146.671 43.6682 146.699 43.6763C146.726 43.6844 146.752 43.6979 146.774 43.716C146.797 43.7341 146.815 43.7565 146.829 43.7818C146.843 43.807 146.852 43.8347 146.855 43.8633C146.858 43.8919 146.855 43.9208 146.847 43.9485C146.839 43.9761 146.826 44.0018 146.808 44.0242C146.79 44.0465 146.767 44.0651 146.742 44.0788L143.851 45.6628C143.82 45.6817 143.784 45.6913 143.748 45.6905Z" fill="#EBEBEB"/>
<path d="M152.634 45.6905C152.598 45.6913 152.562 45.6817 152.531 45.6628L149.64 44.0788C149.615 44.0651 149.593 44.0465 149.575 44.0242C149.557 44.0018 149.543 43.9761 149.535 43.9485C149.527 43.9208 149.524 43.8919 149.527 43.8633C149.531 43.8347 149.539 43.807 149.553 43.7818C149.567 43.7565 149.586 43.7341 149.608 43.716C149.63 43.6979 149.656 43.6844 149.684 43.6763C149.711 43.6682 149.74 43.6656 149.769 43.6688C149.797 43.6719 149.825 43.6807 149.85 43.6947L152.741 45.2787C152.791 45.307 152.829 45.354 152.845 45.4094C152.861 45.4649 152.855 45.5246 152.828 45.5757C152.81 45.611 152.782 45.6404 152.748 45.6607C152.713 45.681 152.674 45.6913 152.634 45.6905Z" fill="#EBEBEB"/>
<path d="M142.806 50.7871C142.747 50.7861 142.692 50.7622 142.651 50.7208C142.611 50.6793 142.588 50.6235 142.588 50.5653V46.1856C142.588 46.1278 142.611 46.0724 142.652 46.0316C142.692 45.9907 142.748 45.9678 142.806 45.9678C142.863 45.9678 142.919 45.9907 142.96 46.0316C143 46.0724 143.023 46.1278 143.023 46.1856V50.5653C143.024 50.5943 143.019 50.623 143.008 50.6499C142.997 50.6768 142.981 50.7013 142.961 50.7219C142.941 50.7426 142.917 50.759 142.89 50.7701C142.863 50.7813 142.835 50.7871 142.806 50.7871Z" fill="#EBEBEB"/>
<path d="M134.925 46.1698C134.887 46.1699 134.849 46.1601 134.816 46.1414C134.783 46.1226 134.755 46.0956 134.735 46.0629C134.72 46.038 134.71 46.0104 134.706 45.9817C134.702 45.953 134.704 45.9238 134.711 45.8958C134.719 45.8678 134.732 45.8415 134.749 45.8185C134.767 45.7955 134.789 45.7763 134.814 45.762L138.6 43.5602C138.653 43.5313 138.714 43.5245 138.772 43.5412C138.829 43.5579 138.878 43.5968 138.907 43.6493C138.936 43.7018 138.943 43.7636 138.926 43.8212C138.909 43.8788 138.87 43.9273 138.818 43.9562L135.036 46.1421C135.002 46.1606 134.964 46.1701 134.925 46.1698Z" fill="#EBEBEB"/>
<path d="M110.444 33.0185C110.407 33.0172 110.371 33.0078 110.338 32.9908L105.368 30.1198C105.334 30.1005 105.306 30.0728 105.287 30.0395C105.268 30.0061 105.257 29.9683 105.257 29.9297V24.1917C105.258 24.1532 105.268 24.1155 105.288 24.0822C105.307 24.0489 105.335 24.0212 105.368 24.0016L110.338 21.1345C110.37 21.115 110.408 21.1047 110.446 21.1047C110.485 21.1047 110.522 21.115 110.555 21.1345L115.525 24.0016C115.558 24.0214 115.585 24.0493 115.604 24.0826C115.622 24.1159 115.632 24.1535 115.632 24.1917V29.9297C115.632 29.968 115.623 30.0057 115.604 30.0391C115.585 30.0725 115.558 30.1003 115.525 30.1198L110.555 32.9908C110.521 33.0078 110.483 33.0173 110.444 33.0185ZM105.692 29.803L110.444 32.5473L115.196 29.803V24.3184L110.444 21.5781L105.692 24.3184V29.803Z" fill="#EBEBEB"/>
<path d="M115.414 24.4134C115.375 24.4126 115.336 24.4016 115.302 24.3814C115.268 24.3613 115.24 24.3328 115.22 24.2986C115.194 24.2473 115.189 24.188 115.205 24.1328C115.221 24.0776 115.258 24.0307 115.307 24.0016L118.198 22.4176C118.25 22.3893 118.31 22.3825 118.367 22.3989C118.423 22.4152 118.471 22.4533 118.499 22.5047C118.525 22.556 118.531 22.6153 118.514 22.6705C118.498 22.7257 118.462 22.7726 118.412 22.8017L115.521 24.3857C115.488 24.4022 115.451 24.4117 115.414 24.4134Z" fill="#EBEBEB"/>
<path d="M106.583 29.5061C106.555 29.5066 106.526 29.5013 106.499 29.4906C106.473 29.4798 106.449 29.4638 106.428 29.4435C106.408 29.4231 106.392 29.3989 106.381 29.3723C106.37 29.3456 106.365 29.317 106.366 29.2883V24.9085C106.365 24.8798 106.37 24.8512 106.381 24.8245C106.392 24.7979 106.408 24.7736 106.428 24.7533C106.449 24.733 106.473 24.717 106.499 24.7062C106.526 24.6954 106.555 24.6902 106.583 24.6907C106.641 24.6907 106.697 24.7137 106.737 24.7545C106.778 24.7954 106.801 24.8507 106.801 24.9085V29.3041C106.797 29.3591 106.773 29.4105 106.732 29.448C106.692 29.4855 106.639 29.5062 106.583 29.5061Z" fill="#EBEBEB"/>
<path d="M114.444 24.8927C114.406 24.892 114.369 24.881 114.337 24.861L110.551 22.6592C110.526 22.6453 110.503 22.6263 110.485 22.6034C110.467 22.5804 110.454 22.554 110.447 22.5259C110.439 22.4977 110.438 22.4683 110.442 22.4395C110.446 22.4106 110.457 22.383 110.472 22.3583C110.501 22.3085 110.549 22.2722 110.604 22.2574C110.66 22.2425 110.719 22.2503 110.769 22.2791L114.555 24.4808C114.605 24.5106 114.641 24.5588 114.656 24.6151C114.671 24.6714 114.663 24.7313 114.634 24.7818C114.615 24.8155 114.587 24.8435 114.554 24.863C114.521 24.8825 114.483 24.8927 114.444 24.8927Z" fill="#EBEBEB"/>
<path d="M110.658 31.9335C110.613 31.9299 110.571 31.9126 110.536 31.8839C110.502 31.8552 110.477 31.8165 110.465 31.7732C110.454 31.7298 110.456 31.6839 110.471 31.6417C110.486 31.5995 110.514 31.5631 110.551 31.5375L114.337 29.3358C114.362 29.321 114.389 29.3113 114.417 29.3073C114.446 29.3033 114.475 29.305 114.502 29.3124C114.53 29.3198 114.556 29.3327 114.579 29.3503C114.601 29.3679 114.62 29.3899 114.634 29.415C114.663 29.4655 114.671 29.5253 114.656 29.5817C114.641 29.638 114.605 29.6862 114.555 29.7159L110.769 31.9177C110.734 31.9325 110.696 31.938 110.658 31.9335Z" fill="#EBEBEB"/>
<path d="M165.029 37.9528C164.99 37.952 164.952 37.9411 164.918 37.9212L159.948 35.0541C159.915 35.0346 159.888 35.0068 159.869 34.9734C159.851 34.94 159.841 34.9023 159.841 34.864V29.126C159.841 29.0877 159.851 29.05 159.869 29.0166C159.888 28.9832 159.915 28.9554 159.948 28.9359L164.918 26.0689C164.951 26.0494 164.989 26.0391 165.027 26.0391C165.065 26.0391 165.103 26.0494 165.136 26.0689L170.106 28.9359C170.139 28.9552 170.167 28.9829 170.186 29.0162C170.206 29.0496 170.216 29.0874 170.217 29.126V34.8482C170.216 34.8868 170.206 34.9246 170.186 34.958C170.167 34.9913 170.139 35.019 170.106 35.0383L165.132 37.9212C165.101 37.9405 165.066 37.9514 165.029 37.9528ZM160.277 34.7373L165.029 37.4816L169.781 34.7373V29.2527L165.029 26.5124L160.277 29.2527V34.7373Z" fill="#EBEBEB"/>
<path d="M169.995 29.3437C169.95 29.3395 169.908 29.3216 169.874 29.2927C169.84 29.2637 169.816 29.225 169.805 29.1817C169.794 29.1385 169.796 29.0929 169.812 29.051C169.827 29.0092 169.855 28.9731 169.892 28.9477L172.783 27.3637C172.835 27.3359 172.897 27.3301 172.953 27.3475C173.01 27.365 173.058 27.4043 173.086 27.4568C173.113 27.5093 173.119 27.5707 173.102 27.6275C173.084 27.6844 173.045 27.7319 172.993 27.7597L170.102 29.3437C170.067 29.3515 170.03 29.3515 169.995 29.3437Z" fill="#EBEBEB"/>
<path d="M161.172 34.452C161.114 34.452 161.059 34.4291 161.018 34.3882C160.977 34.3474 160.954 34.292 160.954 34.2342V29.8426C160.961 29.7894 160.988 29.7406 161.028 29.7052C161.068 29.6699 161.12 29.6504 161.174 29.6504C161.228 29.6504 161.28 29.6699 161.32 29.7052C161.36 29.7406 161.387 29.7894 161.394 29.8426V34.2223C161.395 34.2521 161.39 34.2818 161.379 34.3096C161.369 34.3375 161.352 34.3629 161.332 34.3843C161.311 34.4057 161.286 34.4228 161.259 34.4344C161.231 34.4461 161.202 34.452 161.172 34.452Z" fill="#EBEBEB"/>
<path d="M169.029 29.8229C168.99 29.8237 168.952 29.8141 168.918 29.7951L165.132 27.5934C165.106 27.5788 165.083 27.5593 165.065 27.5359C165.046 27.5125 165.033 27.4857 165.025 27.457C165.016 27.4283 165.014 27.3983 165.018 27.3687C165.021 27.3391 165.03 27.3105 165.045 27.2845C165.059 27.2585 165.079 27.2356 165.102 27.2172C165.126 27.1987 165.153 27.1851 165.181 27.177C165.21 27.1689 165.24 27.1665 165.27 27.17C165.299 27.1735 165.328 27.1828 165.354 27.1974L169.14 29.3991C169.189 29.4296 169.225 29.4778 169.239 29.5338C169.254 29.5898 169.247 29.6494 169.219 29.7001C169.201 29.736 169.174 29.7665 169.141 29.7881C169.107 29.8098 169.069 29.8218 169.029 29.8229Z" fill="#EBEBEB"/>
<path d="M165.243 36.8678C165.198 36.8649 165.155 36.8481 165.12 36.8197C165.084 36.7913 165.059 36.7526 165.047 36.7091C165.035 36.6656 165.036 36.6194 165.052 36.5769C165.067 36.5343 165.095 36.4976 165.132 36.4718L168.918 34.27C168.942 34.2554 168.97 34.2459 168.998 34.2419C169.027 34.2379 169.055 34.2395 169.083 34.2467C169.111 34.2539 169.137 34.2664 169.16 34.2837C169.183 34.3009 169.202 34.3225 169.217 34.3472C169.231 34.3719 169.241 34.3992 169.245 34.4276C169.249 34.456 169.247 34.4849 169.24 34.5127C169.233 34.5405 169.22 34.5665 169.203 34.5894C169.186 34.6124 169.164 34.6316 169.14 34.6462L165.354 36.8282C165.321 36.8508 165.283 36.8644 165.243 36.8678Z" fill="#EBEBEB"/>
<path d="M109.481 42.6276L25.1469 53.446L39.9024 168.472L124.237 157.654L109.481 42.6276Z" fill="#EBEBEB"/>
<path d="M36.175 168.948L39.9025 168.47L25.1469 53.4442L21.4194 53.9223L36.175 168.948Z" fill="#DBDBDB"/>
<path d="M109.482 42.6257L25.1478 53.4441L26.6206 64.9251L110.955 54.1067L109.482 42.6257Z" fill="#DBDBDB"/>
<path d="M25.1427 53.444L21.4152 53.9221L22.8879 65.4031L26.6154 64.925L25.1427 53.444Z" fill="#505050"/>
<path d="M23.2696 65.3542L23.0732 65.3794L36.356 168.924L36.5524 168.899L23.2696 65.3542Z" fill="#C7C7C7"/>
<path d="M23.7223 65.2971L23.5259 65.3223L36.8092 168.871L37.0056 168.846L23.7223 65.2971Z" fill="#C7C7C7"/>
<path d="M24.1743 65.2363L23.9779 65.2615L37.2607 168.807L37.4571 168.781L24.1743 65.2363Z" fill="#C7C7C7"/>
<path d="M24.7468 64.9716L24.5508 64.9973L38.1219 168.347L38.318 168.321L24.7468 64.9716Z" fill="#C7C7C7"/>
<path d="M25.1944 64.9135L24.9984 64.9392L38.5701 168.293L38.7661 168.267L25.1944 64.9135Z" fill="#C7C7C7"/>
<path d="M25.5272 65.0615L25.3308 65.0867L38.6141 168.636L38.8105 168.61L25.5272 65.0615Z" fill="#C7C7C7"/>
<path d="M25.9792 65.0043L25.7828 65.0295L39.0656 168.575L39.262 168.549L25.9792 65.0043Z" fill="#C7C7C7"/>
<path d="M26.4319 64.9475L26.2355 64.9727L39.5188 168.522L39.7152 168.496L26.4319 64.9475Z" fill="#C7C7C7"/>
<path d="M41.5336 100.097L72.0068 96.0955L71.9234 95.4604L41.4502 99.4619L41.5336 100.097Z" fill="#C7C7C7"/>
<path d="M42.1011 103.085L72.632 99.1682L72.5503 98.5319L42.0194 102.448L42.1011 103.085Z" fill="#C7C7C7"/>
<path d="M41.2324 96.3472L107.216 87.8828L107.134 87.2465L41.1507 95.7109L41.2324 96.3472Z" fill="#C7C7C7"/>
<path d="M40.3716 89.6165L106.355 81.1521L106.273 80.5158L40.29 88.9802L40.3716 89.6165Z" fill="#C7C7C7"/>
<path d="M39.9411 86.2473L105.924 77.783L105.843 77.1467L39.8595 85.611L39.9411 86.2473Z" fill="#C7C7C7"/>
<path d="M39.0765 79.5171L105.06 71.0527L104.978 70.4164L38.9948 78.8808L39.0765 79.5171Z" fill="#C7C7C7"/>
<path d="M38.6419 76.148L104.625 67.6836L104.544 67.0473L38.5603 75.5117L38.6419 76.148Z" fill="#C7C7C7"/>
<path d="M42.5272 106.45L73.0581 102.534L72.9765 101.897L42.4456 105.814L42.5272 106.45Z" fill="#C7C7C7"/>
<path d="M42.9577 109.815L73.4886 105.899L73.407 105.263L42.8761 109.179L42.9577 109.815Z" fill="#C7C7C7"/>
<path d="M43.3923 113.185L73.9232 109.268L73.8416 108.632L43.3107 112.548L43.3923 113.185Z" fill="#C7C7C7"/>
<path d="M43.8229 116.553L74.3538 112.637L74.2721 112.001L43.7412 115.917L43.8229 116.553Z" fill="#C7C7C7"/>
<path d="M44.2574 119.923L74.7883 116.006L74.7067 115.37L44.1758 119.286L44.2574 119.923Z" fill="#C7C7C7"/>
<path d="M44.6876 123.284L75.2185 119.367L75.1369 118.731L44.606 122.648L44.6876 123.284Z" fill="#C7C7C7"/>
<path d="M45.1221 126.653L75.653 122.736L75.5713 122.1L45.0404 126.017L45.1221 126.653Z" fill="#C7C7C7"/>
<path d="M45.5527 130.022L76.0836 126.105L76.002 125.469L45.4711 129.386L45.5527 130.022Z" fill="#C7C7C7"/>
<path d="M46.4173 136.752L76.9482 132.836L76.8666 132.199L46.3357 136.116L46.4173 136.752Z" fill="#C7C7C7"/>
<path d="M46.8479 140.121L77.3788 136.205L77.2972 135.569L46.7663 139.485L46.8479 140.121Z" fill="#C7C7C7"/>
<path d="M77.1197 95.1648L107.651 91.2483L107.569 90.612L77.0381 94.5285L77.1197 95.1648Z" fill="#C7C7C7"/>
<path d="M77.5503 98.5339L108.081 94.6174L108 93.9811L77.4686 97.8976L77.5503 98.5339Z" fill="#C7C7C7"/>
<path d="M77.9848 101.903L108.516 97.9866L108.434 97.3503L77.9032 101.267L77.9848 101.903Z" fill="#C7C7C7"/>
<path d="M78.4154 105.272L108.946 101.355L108.865 100.719L78.3338 104.636L78.4154 105.272Z" fill="#C7C7C7"/>
<path d="M78.85 108.637L109.381 104.721L109.299 104.084L78.7683 108.001L78.85 108.637Z" fill="#C7C7C7"/>
<path d="M79.7068 115.372L110.238 111.455L110.156 110.819L79.6251 114.736L79.7068 115.372Z" fill="#C7C7C7"/>
<path d="M80.1412 118.737L110.672 114.821L110.59 114.184L80.0596 118.101L80.1412 118.737Z" fill="#C7C7C7"/>
<path d="M80.5719 122.106L111.103 118.19L111.021 117.553L80.4903 121.47L80.5719 122.106Z" fill="#C7C7C7"/>
<path d="M81.006 125.471L111.537 121.555L111.455 120.918L80.9243 124.835L81.006 125.471Z" fill="#C7C7C7"/>
<path d="M81.4365 128.836L111.967 124.92L111.886 124.284L81.3549 128.2L81.4365 128.836Z" fill="#C7C7C7"/>
<path d="M81.8711 132.206L112.402 128.289L112.32 127.653L81.7895 131.569L81.8711 132.206Z" fill="#C7C7C7"/>
<path d="M82.3016 135.574L112.833 131.658L112.751 131.022L82.22 134.938L82.3016 135.574Z" fill="#C7C7C7"/>
<path opacity="0.1" d="M36.1865 57.0242C36.2367 57.4127 36.1704 57.8074 35.9962 58.1583C35.8219 58.5091 35.5475 58.8004 35.2077 58.9953C34.8678 59.1902 34.4778 59.2798 34.0869 59.2529C33.6961 59.2261 33.322 59.0839 33.0121 58.8443C32.7021 58.6047 32.4701 58.2786 32.3456 57.9072C32.221 57.5358 32.2094 57.1357 32.3123 56.7577C32.4151 56.3797 32.6278 56.0407 32.9234 55.7836C33.219 55.5265 33.5842 55.3629 33.9729 55.3135C34.4932 55.2472 35.0185 55.3902 35.4335 55.7109C35.8486 56.0317 36.1194 56.504 36.1865 57.0242Z" fill="black"/>
<path d="M35.4103 57.1073C35.4381 57.3392 35.3969 57.5741 35.292 57.7827C35.187 57.9913 35.0229 58.1644 34.8202 58.2803C34.6174 58.3961 34.385 58.4497 34.152 58.4342C33.9189 58.4187 33.6956 58.3349 33.51 58.1932C33.3243 58.0515 33.1846 57.8583 33.1081 57.6376C33.0317 57.4169 33.022 57.1786 33.0803 56.9524C33.1385 56.7263 33.2621 56.5223 33.4357 56.366C33.6092 56.2098 33.825 56.1081 34.0559 56.0737C34.2131 56.0504 34.3733 56.0587 34.5271 56.0983C34.6809 56.138 34.8252 56.208 34.9515 56.3044C35.0777 56.4007 35.1834 56.5215 35.2622 56.6594C35.341 56.7973 35.3913 56.9496 35.4103 57.1073Z" fill="#263238"/>
<path opacity="0.1" d="M46.427 55.6936C46.4771 56.0821 46.4109 56.4768 46.2367 56.8277C46.0624 57.1786 45.788 57.4699 45.4481 57.6647C45.1083 57.8596 44.7183 57.9493 44.3274 57.9224C43.9366 57.8955 43.5625 57.7533 43.2525 57.5137C42.9426 57.2742 42.7106 56.948 42.586 56.5766C42.4615 56.2052 42.4499 55.8052 42.5528 55.4272C42.6556 55.0491 42.8683 54.7101 43.1639 54.453C43.4595 54.196 43.8247 54.0323 44.2134 53.9829C44.7337 53.9167 45.259 54.0596 45.674 54.3804C46.089 54.7011 46.3599 55.1734 46.427 55.6936Z" fill="black"/>
<path d="M45.6508 55.7926C45.6792 56.0251 45.6381 56.2609 45.5328 56.4702C45.4275 56.6795 45.2627 56.853 45.059 56.9689C44.8554 57.0847 44.622 57.1378 44.3883 57.1214C44.1546 57.1049 43.9309 57.0198 43.7455 56.8766C43.56 56.7334 43.4211 56.5385 43.3461 56.3166C43.2711 56.0946 43.2634 55.8554 43.324 55.6291C43.3846 55.4028 43.5107 55.1994 43.6866 55.0446C43.8625 54.8898 44.0802 54.7904 44.3124 54.759C44.4683 54.7379 44.6268 54.748 44.7788 54.7887C44.9308 54.8294 45.0731 54.8998 45.1977 54.996C45.3222 55.0922 45.4264 55.2121 45.5042 55.3488C45.582 55.4856 45.6318 55.6364 45.6508 55.7926Z" fill="#263238"/>
<path opacity="0.1" d="M56.6676 54.3828C56.7177 54.7714 56.6515 55.166 56.4773 55.5169C56.303 55.8678 56.0286 56.1591 55.6887 56.3539C55.3489 56.5488 54.9589 56.6385 54.568 56.6116C54.1772 56.5847 53.8031 56.4425 53.4931 56.2029C53.1832 55.9634 52.9512 55.6373 52.8266 55.2658C52.7021 54.8944 52.6905 54.4944 52.7934 54.1164C52.8962 53.7384 53.1089 53.3994 53.4045 53.1423C53.7001 52.8852 54.0653 52.7215 54.4539 52.6721C54.9743 52.6059 55.4996 52.7488 55.9146 53.0696C56.3296 53.3903 56.6005 53.8626 56.6676 54.3828Z" fill="black"/>
<path d="M55.8954 54.4818C55.9228 54.7142 55.881 54.9494 55.7753 55.1581C55.6695 55.3668 55.5045 55.5396 55.3009 55.6549C55.0973 55.7702 54.8642 55.8228 54.6308 55.8061C54.3975 55.7894 54.1742 55.7042 53.9891 55.5611C53.804 55.418 53.6652 55.2235 53.5903 55.0018C53.5153 54.7802 53.5074 54.5414 53.5676 54.3153C53.6278 54.0892 53.7535 53.886 53.9288 53.731C54.1041 53.5761 54.3212 53.4763 54.5529 53.4443C54.7095 53.4227 54.8687 53.4325 55.0214 53.4731C55.174 53.5138 55.3171 53.5845 55.4421 53.6811C55.5671 53.7777 55.6716 53.8983 55.7494 54.0358C55.8272 54.1733 55.8769 54.3249 55.8954 54.4818Z" fill="#263238"/>
<path opacity="0.1" d="M66.9241 53.064C66.9742 53.4525 66.908 53.8472 66.7337 54.1981C66.5595 54.5489 66.2851 54.8402 65.9452 55.0351C65.6053 55.23 65.2153 55.3196 64.8245 55.2927C64.4337 55.2659 64.0596 55.1237 63.7496 54.8841C63.4396 54.6445 63.2077 54.3184 63.0831 53.947C62.9585 53.5756 62.947 53.1755 63.0498 52.7975C63.1527 52.4195 63.3654 52.0805 63.661 51.8234C63.9566 51.5663 64.3218 51.4027 64.7104 51.3532C65.2307 51.287 65.7561 51.43 66.1711 51.7507C66.5861 52.0715 66.8569 52.5438 66.9241 53.064Z" fill="black"/>
<path d="M66.1676 53.163C66.195 53.3953 66.1533 53.6306 66.0475 53.8393C65.9417 54.048 65.7767 54.2208 65.5731 54.3361C65.3695 54.4513 65.1364 54.5039 64.9031 54.4872C64.6697 54.4705 64.4464 54.3853 64.2613 54.2422C64.0762 54.0992 63.9375 53.9046 63.8625 53.683C63.7875 53.4614 63.7796 53.2226 63.8398 52.9965C63.9001 52.7704 64.0257 52.5671 64.201 52.4122C64.3763 52.2572 64.5934 52.1575 64.8252 52.1254C64.9817 52.1038 65.1409 52.1136 65.2936 52.1543C65.4463 52.1949 65.5893 52.2657 65.7143 52.3623C65.8393 52.4589 65.9438 52.5795 66.0216 52.7169C66.0994 52.8544 66.1491 53.0061 66.1676 53.163Z" fill="#263238"/>
<path opacity="0.1" d="M77.22 51.7454C77.2701 52.1339 77.2039 52.5286 77.0296 52.8795C76.8554 53.2303 76.581 53.5216 76.2411 53.7165C75.9012 53.9114 75.5112 54.001 75.1204 53.9741C74.7296 53.9473 74.3555 53.805 74.0455 53.5655C73.7355 53.3259 73.5036 52.9998 73.379 52.6284C73.2544 52.257 73.2429 51.8569 73.3457 51.4789C73.4486 51.1009 73.6613 50.7619 73.9569 50.5048C74.2525 50.2477 74.6177 50.0841 75.0063 50.0346C75.5266 49.9684 76.052 50.1114 76.467 50.4321C76.882 50.7529 77.1528 51.2252 77.22 51.7454Z" fill="black"/>
<path d="M76.428 51.8444C76.4562 52.0768 76.4152 52.3123 76.3099 52.5215C76.2047 52.7306 76.0401 52.904 75.8366 53.0199C75.6332 53.1357 75.4001 53.1889 75.1665 53.1727C74.933 53.1565 74.7094 53.0717 74.5239 52.9289C74.3384 52.7861 74.1993 52.5916 74.1239 52.37C74.0485 52.1483 74.0404 51.9094 74.1004 51.6831C74.1604 51.4568 74.2859 51.2533 74.4612 51.0981C74.6364 50.9429 74.8537 50.843 75.0856 50.8108C75.2418 50.7892 75.4007 50.7988 75.5532 50.8392C75.7056 50.8797 75.8485 50.95 75.9734 51.0462C76.0984 51.1424 76.2029 51.2626 76.281 51.3996C76.359 51.5366 76.409 51.6878 76.428 51.8444Z" fill="#263238"/>
<path opacity="0.1" d="M87.4368 50.4346C87.4869 50.8231 87.4207 51.2178 87.2464 51.5687C87.0722 51.9195 86.7978 52.2108 86.4579 52.4057C86.118 52.6006 85.728 52.6902 85.3372 52.6633C84.9464 52.6365 84.5723 52.4943 84.2623 52.2547C83.9523 52.0151 83.7204 51.689 83.5958 51.3176C83.4712 50.9462 83.4597 50.5461 83.5625 50.1681C83.6654 49.7901 83.8781 49.4511 84.1737 49.194C84.4693 48.9369 84.8345 48.7733 85.2231 48.7239C85.7434 48.6576 86.2688 48.8006 86.6838 49.1213C87.0988 49.4421 87.3696 49.9144 87.4368 50.4346Z" fill="black"/>
<path d="M86.6646 50.5336C86.692 50.7659 86.6502 51.0012 86.5444 51.2099C86.4387 51.4186 86.2737 51.5914 86.0701 51.7067C85.8665 51.8219 85.6334 51.8745 85.4 51.8578C85.1666 51.8411 84.9434 51.7559 84.7583 51.6128C84.5732 51.4698 84.4344 51.2752 84.3594 51.0536C84.2844 50.832 84.2766 50.5932 84.3368 50.3671C84.397 50.141 84.5226 49.9377 84.6979 49.7828C84.8732 49.6278 85.0904 49.5281 85.3221 49.496C85.4786 49.4744 85.6379 49.4842 85.7905 49.5249C85.9432 49.5656 86.0862 49.6363 86.2112 49.7329C86.3362 49.8295 86.4407 49.9501 86.5186 50.0876C86.5964 50.225 86.646 50.3767 86.6646 50.5336Z" fill="#263238"/>
<path opacity="0.1" d="M97.6892 49.104C97.7393 49.4925 97.6731 49.8872 97.4989 50.2381C97.3246 50.589 97.0502 50.8803 96.7103 51.0751C96.3705 51.27 95.9805 51.3597 95.5896 51.3328C95.1988 51.3059 94.8247 51.1637 94.5147 50.9241C94.2048 50.6846 93.9728 50.3585 93.8482 49.987C93.7237 49.6156 93.7121 49.2156 93.815 48.8376C93.9178 48.4595 94.1305 48.1205 94.4261 47.8635C94.7217 47.6064 95.0869 47.4427 95.4756 47.3933C95.9959 47.3271 96.5212 47.47 96.9362 47.7908C97.3513 48.1115 97.6221 48.5838 97.6892 49.104Z" fill="black"/>
<path d="M96.913 49.2188C96.9406 49.4514 96.8988 49.6868 96.793 49.8957C96.6871 50.1046 96.5219 50.2775 96.3181 50.3927C96.1143 50.508 95.8809 50.5605 95.6474 50.5435C95.4139 50.5266 95.1905 50.4411 95.0055 50.2976C94.8204 50.1541 94.6819 49.9592 94.6072 49.7373C94.5326 49.5153 94.5252 49.2763 94.586 49.0502C94.6469 48.824 94.7731 48.6209 94.949 48.4663C95.1249 48.3118 95.3425 48.2126 95.5746 48.1813C95.7308 48.1602 95.8896 48.1705 96.0418 48.2114C96.194 48.2523 96.3365 48.3231 96.4611 48.4197C96.5857 48.5163 96.6898 48.6367 96.7674 48.7739C96.845 48.911 96.8945 49.0623 96.913 49.2188Z" fill="#263238"/>
<path opacity="0.1" d="M107.973 47.8013C108.024 48.1898 107.957 48.5845 107.783 48.9354C107.609 49.2862 107.334 49.5775 106.995 49.7724C106.655 49.9673 106.265 50.0569 105.874 50.03C105.483 50.0032 105.109 49.861 104.799 49.6214C104.489 49.3818 104.257 49.0557 104.132 48.6843C104.008 48.3129 103.996 47.9128 104.099 47.5348C104.202 47.1568 104.415 46.8178 104.71 46.5607C105.006 46.3036 105.371 46.14 105.76 46.0906C106.28 46.0243 106.805 46.1673 107.22 46.488C107.635 46.8088 107.906 47.2811 107.973 47.8013Z" fill="black"/>
<path d="M107.197 47.9161C107.225 48.1486 107.183 48.3841 107.077 48.593C106.971 48.8018 106.806 48.9748 106.602 49.09C106.398 49.2053 106.165 49.2577 105.932 49.2408C105.698 49.2239 105.475 49.1383 105.29 48.9949C105.105 48.8514 104.966 48.6565 104.891 48.4345C104.817 48.2126 104.809 47.9735 104.87 47.7474C104.931 47.5213 105.057 47.3182 105.233 47.1636C105.409 47.009 105.627 46.9099 105.859 46.8786C106.015 46.8575 106.174 46.8677 106.326 46.9087C106.478 46.9496 106.621 47.0204 106.745 47.117C106.87 47.2135 106.974 47.3339 107.052 47.4711C107.129 47.6083 107.179 47.7596 107.197 47.9161Z" fill="#263238"/>
<path d="M34.6539 52.9888C34.7806 53.9669 35.0816 57.1706 35.0816 57.1706C35.2242 58.2794 33.4976 58.4972 33.3669 57.3923C33.2362 56.2875 32.9709 54.3233 32.7412 52.5255C32.4244 50.0703 31.2444 49.3218 30.1791 49.4604C28.8525 49.6307 28.2704 51.3296 28.4842 53.0244L26.7616 53.2462C26.2706 49.4248 27.9061 47.7022 29.7871 47.4765C32.6462 47.0963 34.1233 48.8466 34.6539 52.9888Z" fill="#505050"/>
<path d="M44.9065 51.6742C45.0332 52.6523 45.3341 55.8559 45.3341 55.8559C45.4767 56.9647 43.7501 57.1825 43.6195 56.0777C43.4888 54.9729 43.2235 53.0087 42.9938 51.2069C42.677 48.7557 41.4969 48.0072 40.4317 48.1458C39.1051 48.3161 38.5229 50.0149 38.7368 51.7098L37.0142 51.9316C36.5231 48.1102 38.1626 46.3876 40.0396 46.1579C42.8987 45.7817 44.3758 47.5201 44.9065 51.6742Z" fill="#505050"/>
<path d="M55.1589 50.3554C55.2856 51.3374 55.5866 54.5411 55.5866 54.5411C55.7291 55.6499 54.0026 55.8637 53.8719 54.7628C53.7412 53.662 53.4759 51.6938 53.2462 49.892C52.9334 47.4408 51.7493 46.6924 50.6841 46.831C49.3575 47.0012 48.7754 48.7001 48.9892 50.395L47.2666 50.6167C46.7756 46.7953 48.415 45.0727 50.2921 44.843C53.1551 44.4668 54.6481 46.2132 55.1589 50.3554Z" fill="#505050"/>
<path d="M65.4113 49.0406C65.5381 50.0227 65.839 53.2263 65.839 53.2263C65.9816 54.3351 64.255 54.549 64.1243 53.4441C63.9937 52.3393 63.7283 50.3791 63.4987 48.5773C63.1858 46.126 62.0018 45.3776 60.9365 45.5122C59.6099 45.6825 59.0278 47.3814 59.2456 49.0762L57.5191 49.298C57.028 45.4726 58.6675 43.754 60.5445 43.5243C63.4076 43.164 64.8807 44.8984 65.4113 49.0406Z" fill="#505050"/>
<path d="M75.6677 47.7259C75.7905 48.708 76.0915 51.9116 76.0915 51.9116C76.234 53.0204 74.5075 53.2343 74.3768 52.1294C74.2461 51.0246 73.9808 49.0644 73.7511 47.2626C73.4383 44.8114 72.2542 44.0629 71.189 44.1976C69.8624 44.3678 69.2803 46.0667 69.4981 47.7616L67.7715 47.9794C67.2805 44.158 68.9199 42.4354 70.7969 42.2096C73.6561 41.8334 75.1331 43.5838 75.6677 47.7259Z" fill="#505050"/>
<path d="M85.932 46.4112C86.0548 47.3932 86.3557 50.5969 86.3557 50.5969C86.4983 51.7017 84.7717 51.9195 84.6411 50.8147C84.5104 49.7098 84.2451 47.7457 84.0154 45.9478C83.7025 43.4966 82.5185 42.7482 81.4572 42.8828C80.1267 43.0531 79.5445 44.7519 79.7623 46.4468L78.0358 46.6686C77.5447 42.8472 79.1842 41.1246 81.0612 40.8988C83.9124 40.5187 85.3855 42.269 85.932 46.4112Z" fill="#505050"/>
<path d="M96.1725 45.0965C96.2953 46.0746 96.5962 49.2782 96.5962 49.2782C96.7388 50.387 95.0122 50.6048 94.8815 49.5C94.7509 48.3951 94.4855 46.431 94.2559 44.6331C93.943 42.1779 92.759 41.4335 91.6977 41.5681C90.3711 41.7384 89.785 43.4372 90.0028 45.1321L88.2763 45.3539C87.7852 41.5325 89.4247 39.8099 91.3017 39.5841C94.1648 39.204 95.6419 40.9543 96.1725 45.0965Z" fill="#505050"/>
<path d="M106.425 43.7818C106.552 44.7599 106.849 47.9635 106.849 47.9635C106.991 49.0723 105.265 49.2901 105.134 48.1853C105.003 47.0804 104.738 45.1163 104.508 43.3184C104.196 40.8632 103.012 40.1148 101.95 40.2534C100.624 40.4237 100.038 42.1225 100.255 43.8174L98.5288 44.0392C98.0378 40.2178 99.6772 38.4952 101.554 38.2694C104.417 37.8893 105.894 39.6396 106.425 43.7818Z" fill="#505050"/>
<path d="M99.6931 163.401H29.2882V170.854H99.6931V163.401Z" fill="#155DFC"/>
<path opacity="0.6" d="M99.6931 163.401H29.2882V170.854H99.6931V163.401Z" fill="white"/>
<path d="M86.4152 170.854H93.2937V163.402H86.4152V170.854Z" fill="#155DFC"/>
<path d="M80.99 170.854H83.861V163.402H80.99V170.854Z" fill="#155DFC"/>
<path d="M35.5569 170.854H42.4354V163.402H35.5569V170.854Z" fill="#155DFC"/>
<path d="M102.932 181.701H30.5198V186.987H102.932V181.701Z" fill="#455A64"/>
<path d="M49.6188 181.701H46.6647V186.987H49.6188V181.701Z" fill="#155DFC"/>
<path d="M44.7164 181.701H41.7622V186.987H44.7164V181.701Z" fill="#155DFC"/>
<path d="M95.7132 181.701H92.759V186.987H95.7132V181.701Z" fill="#155DFC"/>
<path d="M90.8107 181.701H87.8566V186.987H90.8107V181.701Z" fill="#155DFC"/>
<path d="M76.2023 155.513H32.373V163.405H76.2023V155.513Z" fill="#455A64"/>
<path d="M102.235 155.513H76.1508V163.405H102.235V155.513Z" fill="#37474F"/>
<path d="M75.2321 156.333H32.373V162.586H75.2321V156.333Z" fill="white"/>
<path d="M35.145 161.299C38.4873 161.344 41.8282 161.375 45.1678 161.394L55.1905 161.421L65.2093 161.394C68.5516 161.378 71.8925 161.346 75.2321 161.299C71.8899 161.254 68.5489 161.223 65.2093 161.208L55.1905 161.18L45.1678 161.208C41.8255 161.223 38.4846 161.254 35.145 161.299Z" fill="#DBDBDB"/>
<path d="M35.145 160.075C38.4873 160.117 41.8282 160.148 45.1678 160.166L55.1905 160.194L65.2093 160.166C68.5516 160.15 71.8925 160.12 75.2321 160.075C71.8899 160.028 68.5489 159.996 65.2093 159.98L55.1905 159.952L45.1678 159.98C41.8255 159.983 38.4846 160.014 35.145 160.075Z" fill="#DBDBDB"/>
<path d="M35.145 158.847C38.4873 158.892 41.8282 158.923 45.1678 158.938L55.1905 158.966L65.2093 158.938C68.5516 158.923 71.8925 158.892 75.2321 158.847C71.8899 158.8 68.5489 158.768 65.2093 158.752L55.1905 158.725L45.1678 158.752C41.8255 158.781 38.4846 158.813 35.145 158.847Z" fill="#DBDBDB"/>
<path d="M35.145 157.608C38.4873 157.653 41.8282 157.683 45.1678 157.699L55.1905 157.727L65.2093 157.699C68.5516 157.683 71.8925 157.653 75.2321 157.608C71.8899 157.566 68.5489 157.534 65.2093 157.513L55.1905 157.485L45.1678 157.517C41.8255 157.541 38.4846 157.571 35.145 157.608Z" fill="#DBDBDB"/>
<path d="M71.771 169.496L68.7852 166.344L65.7993 169.496V161.327L66.4369 160.075H72.4086L71.771 161.327V169.496Z" fill="#155DFC"/>
<path d="M70.6345 181.701H112.832V170.854H70.6345V181.701Z" fill="#37474F"/>
<path d="M23.8947 181.701H70.6306V170.854H23.8947V181.701Z" fill="#263238"/>
<path d="M71.9176 180.576H112.832V171.983H71.9176V180.576Z" fill="white"/>
<path d="M110.183 173.749C106.994 173.704 103.805 173.674 100.616 173.658L91.0523 173.63L81.485 173.658C78.2958 173.674 75.1067 173.704 71.9176 173.749C75.1041 173.794 78.2932 173.824 81.485 173.84L91.0523 173.868L100.616 173.84C103.807 173.824 106.997 173.794 110.183 173.749Z" fill="#DBDBDB"/>
<path d="M110.183 175.428C106.994 175.386 103.805 175.354 100.616 175.333L91.0523 175.305L81.485 175.333C78.2958 175.349 75.1067 175.38 71.9176 175.428C75.1041 175.473 78.2932 175.503 81.485 175.519L91.0523 175.547L100.616 175.519C103.807 175.508 106.997 175.478 110.183 175.428Z" fill="#DBDBDB"/>
<path d="M110.183 177.123C106.994 177.075 103.805 177.044 100.616 177.028L91.0523 177.012L81.485 177.04C78.2958 177.056 75.1067 177.087 71.9176 177.135C75.1041 177.18 78.2932 177.21 81.485 177.226L91.0523 177.254L100.616 177.226C103.807 177.202 106.997 177.168 110.183 177.123Z" fill="#DBDBDB"/>
<path d="M110.183 178.806C106.994 178.764 103.805 178.733 100.616 178.715L91.0523 178.687L81.485 178.715C78.2958 178.731 75.1067 178.761 71.9176 178.806C75.1041 178.853 78.2932 178.885 81.485 178.901L91.0523 178.929L100.616 178.901C103.807 178.885 106.997 178.853 110.183 178.806Z" fill="#DBDBDB"/>
<path d="M49.1357 155.513H89.1079V147.276H49.1357V155.513Z" fill="#155DFC"/>
<path d="M26.3499 155.513H49.1357V147.276H26.3499V155.513Z" fill="#155DFC"/>
<path opacity="0.2" d="M26.3498 155.513H48.1179V147.276H26.3498V155.513Z" fill="black"/>
<path d="M49.1357 154.658H89.1079V148.128H49.1357V154.658Z" fill="white"/>
<path d="M86.5181 149.474C83.4056 149.427 80.2904 149.395 77.1725 149.379L67.8269 149.347L58.4813 149.379C55.3688 149.395 52.2536 149.427 49.1357 149.474C52.2509 149.522 55.3661 149.553 58.4813 149.569L67.8269 149.601L77.1725 149.569C80.2904 149.553 83.4056 149.522 86.5181 149.474Z" fill="#DBDBDB"/>
<path d="M86.5181 150.753C83.4056 150.708 80.2904 150.677 77.1725 150.658L67.8269 150.63L58.4813 150.658C55.3688 150.674 52.2536 150.706 49.1357 150.753C52.2509 150.801 55.3661 150.834 58.4813 150.852L67.8269 150.88L77.1725 150.852C80.2904 150.834 83.4056 150.801 86.5181 150.753Z" fill="#DBDBDB"/>
<path d="M86.5181 152.036C83.4056 151.989 80.2904 151.956 77.1725 151.937L67.8269 151.91L58.4813 151.937C55.3688 151.956 52.2536 151.989 49.1357 152.036C52.2509 152.084 55.3661 152.116 58.4813 152.131L67.8269 152.163L77.1725 152.131C80.2904 152.116 83.4056 152.084 86.5181 152.036Z" fill="#DBDBDB"/>
<path d="M86.5181 153.315C83.4056 153.271 80.2904 153.239 77.1725 153.22L67.8269 153.193L58.4813 153.22C55.3688 153.236 52.2536 153.268 49.1357 153.315C52.2509 153.363 55.3661 153.396 58.4813 153.414L67.8269 153.442L77.1725 153.414C80.2904 153.396 83.4056 153.363 86.5181 153.315Z" fill="#DBDBDB"/>
<path d="M56.2202 158.234L58.1527 156.194L60.0852 158.234V152.951L59.6733 152.139H55.8083L56.2202 152.951V158.234Z" fill="#455A64"/>
<path d="M143.352 38.6656V136.874H89.7811V137.056C89.7821 140.676 88.3665 144.153 85.8371 146.743C83.3077 149.333 79.8652 150.831 76.2459 150.916H75.7667C75.2957 150.919 74.8249 150.894 74.3569 150.84L71.775 150.31C71.1345 150.105 70.5099 149.853 69.9059 149.557C69.6042 149.423 69.3106 149.271 69.0268 149.102C68.8725 149.023 68.7254 148.93 68.5872 148.825C68.1842 148.59 67.799 148.325 67.4349 148.033C67.3705 147.989 67.3096 147.94 67.2527 147.886C66.9717 147.687 66.7068 147.466 66.4607 147.225C66.334 147.114 66.2073 146.987 66.0647 146.861C64.4682 145.289 63.2906 143.342 62.6393 141.198C62.6262 141.153 62.6076 141.111 62.5839 141.071C62.4928 140.742 62.4017 140.394 62.3304 140.046C62.2183 139.607 62.1442 139.159 62.1087 138.707C62.073 138.505 62.073 138.311 62.0532 138.105C62.0455 138.038 62.0455 137.97 62.0532 137.903C62.0532 137.646 61.9978 137.408 61.9978 137.151V38.8081C61.9978 34.9234 59.2852 24.9204 47.2864 24.9204H129.595C131.401 24.9189 133.19 25.2732 134.859 25.9633C136.528 26.6533 138.044 27.6656 139.322 28.9421C140.6 30.2186 141.613 31.7344 142.305 33.4028C142.996 35.0712 143.352 36.8595 143.352 38.6656Z" fill="white"/>
<path d="M143.352 38.6655C143.38 38.7249 143.423 136.901 143.443 136.965C143.463 137.028 89.8207 136.988 89.8009 137.016L89.9435 136.873C89.9447 138.361 89.7285 139.84 89.302 141.265C88.6242 143.399 87.4489 145.342 85.8729 146.932C84.2968 148.522 82.3653 149.716 80.2375 150.413C78.334 151.008 76.3294 151.212 74.345 151.011L71.7433 150.48C71.011 150.254 70.3006 149.963 69.6208 149.609C67.4038 148.521 65.5175 146.862 64.1571 144.801C62.7967 142.74 62.0116 140.353 61.8829 137.887C61.7918 136.953 61.8354 135.278 61.8275 134.323C61.8275 131.947 61.8275 125.366 61.8275 122.895C61.8473 97.8635 61.8829 64.1481 61.9027 39.0892C61.9027 34.0798 59.1624 28.9754 54.6361 26.6588C52.3574 25.5485 49.8486 24.9922 47.3141 25.0352V24.8292C67.2844 24.8768 110.575 24.8292 130.078 24.9282C137.376 25.1064 143.388 31.3632 143.34 38.6655H143.352ZM143.352 38.6655C143.384 31.391 137.388 25.1223 130.086 24.9678C110.777 24.9164 67.122 25.0312 47.322 25.0233V24.8292C49.8898 24.7794 52.4329 25.3385 54.743 26.4608C59.3446 28.8051 62.1205 33.9848 62.1522 39.0773C62.1799 64.1481 62.2076 97.8398 62.2274 122.883C62.2274 125.358 62.2274 131.912 62.2274 134.311C62.2512 135.246 62.172 136.945 62.2789 137.875C62.3152 138.54 62.3986 139.202 62.5284 139.855C62.9458 141.873 63.8142 143.769 65.0685 145.404C66.3228 147.038 67.9305 148.367 69.7712 149.292C70.425 149.635 71.1073 149.92 71.8106 150.143L74.3926 150.678C76.3257 150.891 78.2821 150.691 80.1323 150.092C81.9826 149.493 83.6845 148.508 85.1257 147.202C86.5668 145.896 87.7143 144.299 88.4922 142.516C89.2702 140.734 89.6609 138.806 89.6386 136.862V136.719H89.7811L143.332 136.771C143.198 137.365 143.332 38.515 143.332 38.6536L143.352 38.6655Z" fill="#263238"/>
<path d="M105.538 33.2244H134.284V32.4363H105.538V33.2244Z" fill="#DBDBDB"/>
<path d="M72.1551 54.054H100.901V53.2659H72.1551V54.054Z" fill="#DBDBDB"/>
<path d="M72.1551 58.2239H100.901V57.4358H72.1551V58.2239Z" fill="#DBDBDB"/>
<path d="M72.1551 62.3899H100.901V61.6019H72.1551V62.3899Z" fill="#DBDBDB"/>
<path d="M72.1551 66.5557H100.901V65.7676H72.1551V66.5557Z" fill="#DBDBDB"/>
<path d="M72.1551 70.7217H100.901V69.9336H72.1551V70.7217Z" fill="#DBDBDB"/>
<path d="M72.1551 74.8877H100.901V74.0997H72.1551V74.8877Z" fill="#DBDBDB"/>
<path d="M72.1551 79.0496H100.901V78.2615H72.1551V79.0496Z" fill="#DBDBDB"/>
<path d="M72.1551 83.2156H100.901V82.4275H72.1551V83.2156Z" fill="#DBDBDB"/>
<path d="M72.1551 87.3813H100.901V86.5933H72.1551V87.3813Z" fill="#DBDBDB"/>
<path d="M72.1551 91.5513H100.901V90.7632H72.1551V91.5513Z" fill="#DBDBDB"/>
<path d="M72.1551 99.8831H100.901V99.095H72.1551V99.8831Z" fill="#DBDBDB"/>
<path d="M72.1551 104.049H100.901V103.261H72.1551V104.049Z" fill="#DBDBDB"/>
<path d="M72.1551 108.215H100.901V107.427H72.1551V108.215Z" fill="#DBDBDB"/>
<path d="M72.1551 112.381H100.901V111.593H72.1551V112.381Z" fill="#DBDBDB"/>
<path d="M72.1551 120.713H100.901V119.925H72.1551V120.713Z" fill="#DBDBDB"/>
<path d="M72.1551 124.879H100.901V124.091H72.1551V124.879Z" fill="#DBDBDB"/>
<path d="M72.1551 129.049H100.901V128.261H72.1551V129.049Z" fill="#DBDBDB"/>
<path d="M105.538 37.3904H134.284V36.6023H105.538V37.3904Z" fill="#DBDBDB"/>
<path d="M105.538 41.5564H134.284V40.7684H105.538V41.5564Z" fill="#DBDBDB"/>
<path d="M105.538 45.7222H134.284V44.9341H105.538V45.7222Z" fill="#DBDBDB"/>
<path d="M105.538 49.8882H134.284V49.1001H105.538V49.8882Z" fill="#DBDBDB"/>
<path d="M105.538 54.054H134.284V53.2659H105.538V54.054Z" fill="#DBDBDB"/>
<path d="M105.538 58.2239H134.284V57.4358H105.538V58.2239Z" fill="#DBDBDB"/>
<path d="M105.538 62.3899H134.284V61.6019H105.538V62.3899Z" fill="#DBDBDB"/>
<path d="M105.538 66.5557H134.284V65.7676H105.538V66.5557Z" fill="#DBDBDB"/>
<path d="M105.538 70.7217H134.284V69.9336H105.538V70.7217Z" fill="#DBDBDB"/>
<path d="M105.538 79.0496H134.284V78.2615H105.538V79.0496Z" fill="#DBDBDB"/>
<path d="M105.538 83.2156H134.284V82.4275H105.538V83.2156Z" fill="#DBDBDB"/>
<path d="M105.538 87.3813H134.284V86.5933H105.538V87.3813Z" fill="#DBDBDB"/>
<path d="M105.538 91.5513H134.284V90.7632H105.538V91.5513Z" fill="#DBDBDB"/>
<path d="M105.538 95.7173H134.284V94.9292H105.538V95.7173Z" fill="#DBDBDB"/>
<path d="M105.538 99.8831H134.284V99.095H105.538V99.8831Z" fill="#DBDBDB"/>
<path d="M105.538 104.049H134.284V103.261H105.538V104.049Z" fill="#DBDBDB"/>
<path d="M105.538 108.215H134.284V107.427H105.538V108.215Z" fill="#DBDBDB"/>
<path d="M72.1552 33.1887L86.5299 33.1531C91.3215 33.1531 96.1092 33.1531 100.901 33.1887C96.1092 33.2204 91.3215 33.2125 86.5299 33.2244L72.1552 33.1887Z" fill="#DBDBDB"/>
<path d="M72.1552 34.262L86.5299 34.2263C91.3215 34.2263 96.1092 34.2263 100.901 34.262C96.1092 34.2936 91.3215 34.2857 86.5299 34.2976L72.1552 34.262Z" fill="#DBDBDB"/>
<path d="M72.1552 35.3351L86.5299 35.3035C91.3215 35.3035 96.1092 35.3035 100.901 35.3351C96.1092 35.3668 91.3215 35.3589 86.5299 35.3708L72.1552 35.3351Z" fill="#DBDBDB"/>
<path d="M72.1552 36.4084L86.5299 36.3767C91.3215 36.3767 96.1092 36.3767 100.901 36.4084C96.1092 36.4401 91.3215 36.4321 86.5299 36.444L72.1552 36.4084Z" fill="#DBDBDB"/>
<path d="M72.1552 37.4853L86.5299 37.4497C91.3215 37.4497 96.1092 37.4497 100.901 37.4853C96.1092 37.5131 91.3215 37.4853 86.5299 37.517L72.1552 37.4853Z" fill="#DBDBDB"/>
<path d="M72.1552 38.5586L86.5299 38.5229C91.3215 38.5229 96.1092 38.523 100.901 38.5586C96.1092 38.5863 91.3215 38.5586 86.5299 38.5942L72.1552 38.5586Z" fill="#DBDBDB"/>
<path d="M72.1552 39.6318L86.5299 39.5962C91.3215 39.5962 96.1092 39.5962 100.901 39.6318C96.1092 39.6596 91.3215 39.6556 86.5299 39.6675L72.1552 39.6318Z" fill="#DBDBDB"/>
<path d="M72.1552 40.7048L86.5299 40.6692C91.3215 40.6692 96.1092 40.6692 100.901 40.7048C96.1092 40.7365 91.3215 40.7286 86.5299 40.7405L72.1552 40.7048Z" fill="#DBDBDB"/>
<path d="M72.1552 41.7781L86.5299 41.7424C91.3215 41.7424 96.1092 41.7424 100.901 41.7781C96.1092 41.8098 91.3215 41.8018 86.5299 41.8137L72.1552 41.7781Z" fill="#DBDBDB"/>
<path d="M72.1552 42.8513L86.5299 42.8157C91.3215 42.8157 96.1092 42.8157 100.901 42.8513C96.1092 42.883 91.3215 42.8751 86.5299 42.887L72.1552 42.8513Z" fill="#DBDBDB"/>
<path d="M72.1552 43.9243L86.5299 43.8887C91.3215 43.8887 96.1092 43.8887 100.901 43.9243C96.1092 43.956 91.3215 43.9481 86.5299 43.96L72.1552 43.9243Z" fill="#DBDBDB"/>
<path d="M72.1552 44.9975L86.5299 44.9658C91.3215 44.9658 96.1092 44.9658 100.901 44.9975C96.1092 45.0292 91.3215 45.0213 86.5299 45.0331L72.1552 44.9975Z" fill="#DBDBDB"/>
<path d="M72.1552 46.0747L86.5299 46.0391C91.3215 46.0391 96.1092 46.0391 100.901 46.0747C96.1092 46.1024 91.3215 46.0945 86.5299 46.1064L72.1552 46.0747Z" fill="#DBDBDB"/>
<path d="M72.1552 47.1477L86.5299 47.1121C91.3215 47.1121 96.1092 47.1121 100.901 47.1477C96.1092 47.1754 91.3215 47.1477 86.5299 47.1794L72.1552 47.1477Z" fill="#DBDBDB"/>
<path d="M72.1552 48.2209L86.5299 48.1853C91.3215 48.1853 96.1092 48.1853 100.901 48.2209C96.1092 48.2487 91.3215 48.2209 86.5299 48.2566L72.1552 48.2209Z" fill="#DBDBDB"/>
<path d="M77.3744 40.7048H75.1964V49.4723H77.3744V40.7048Z" fill="#155DFC"/>
<path d="M81.4176 36.9944H79.2396V49.4684H81.4176V36.9944Z" fill="#263238"/>
<path d="M85.4607 39.6675H83.2827V49.4724H85.4607V39.6675Z" fill="#DBDBDB"/>
<path d="M89.5039 36.4082H87.3259V49.4683H89.5039V36.4082Z" fill="#155DFC"/>
<path d="M93.551 38.1626H91.373V49.4724H93.551V38.1626Z" fill="#263238"/>
<path d="M97.5941 44.5698H95.4161V49.4723H97.5941V44.5698Z" fill="#DBDBDB"/>
<path d="M72.9353 32.4365L72.9947 36.6935L73.0383 40.9545C73.066 43.7938 73.0739 46.6331 73.0779 49.4724L72.9353 49.3418H79.9287H86.9181L93.9114 49.3814L100.901 49.4606L93.9114 49.5358L86.9181 49.5794H79.9287H72.8007V49.4487C72.8007 46.6094 72.8007 43.77 72.8442 40.9307L72.8838 36.6698L72.9353 32.4365Z" fill="#DBDBDB"/>
<path d="M77.3744 50.3713H75.1964V50.5535H77.3744V50.3713Z" fill="#DBDBDB"/>
<path d="M81.4176 50.3713H79.2396V50.5535H81.4176V50.3713Z" fill="#DBDBDB"/>
<path d="M85.4607 50.3713H83.2827V50.5535H85.4607V50.3713Z" fill="#DBDBDB"/>
<path d="M89.5039 50.3713H87.3259V50.5535H89.5039V50.3713Z" fill="#DBDBDB"/>
<path d="M93.551 50.3713H91.373V50.5535H93.551V50.3713Z" fill="#DBDBDB"/>
<path d="M97.5941 50.3713H95.4161V50.5535H97.5941V50.3713Z" fill="#DBDBDB"/>
<path d="M120.297 118.107C120.297 119.47 119.896 120.802 119.144 121.939C118.392 123.075 117.322 123.965 116.068 124.498L113.355 118.107H120.297Z" fill="#155DFC"/>
<path d="M112.464 117.632L115.177 124.019C114.963 124.106 114.749 124.186 114.539 124.253C113.196 124.665 111.76 124.665 110.417 124.253C109.344 123.916 108.368 123.325 107.574 122.529C106.779 121.733 106.189 120.757 105.855 119.683C105.438 118.342 105.438 116.906 105.855 115.565C106.188 114.492 106.778 113.516 107.573 112.721C108.367 111.926 109.343 111.337 110.417 111.003C111.759 110.586 113.197 110.586 114.539 111.003C115.613 111.337 116.589 111.926 117.384 112.721C118.18 113.516 118.77 114.491 119.105 115.565C119.31 116.232 119.416 116.926 119.418 117.624L112.464 117.632Z" fill="#155DFC"/>
<path d="M112.464 117.632L115.177 124.019C114.963 124.106 114.749 124.186 114.539 124.253C113.143 124.688 111.645 124.67 110.259 124.203C108.874 123.736 107.671 122.844 106.822 121.653C105.974 120.462 105.523 119.033 105.534 117.571C105.545 116.109 106.018 114.688 106.885 113.51C107.752 112.332 108.968 111.458 110.361 111.013C111.754 110.567 113.251 110.573 114.641 111.029C116.03 111.485 117.24 112.368 118.098 113.553C118.956 114.737 119.418 116.162 119.418 117.624L112.464 117.632Z" fill="#DBDBDB"/>
<path d="M112.464 117.632L107.95 122.891C107.069 122.133 106.392 121.165 105.983 120.078C105.573 118.99 105.444 117.817 105.606 116.666C105.768 115.516 106.217 114.424 106.911 113.492C107.606 112.56 108.523 111.818 109.579 111.333C110.635 110.848 111.797 110.636 112.956 110.717C114.115 110.798 115.236 111.17 116.214 111.797C117.192 112.424 117.997 113.287 118.555 114.307C119.113 115.326 119.405 116.47 119.406 117.632H112.464Z" fill="#455A64"/>
<path d="M123.885 126.823H118.646L112.155 120.336L112.25 120.241L118.701 126.692H123.885V126.823Z" fill="#263238"/>
<path d="M112.567 119.921H111.838V120.649H112.567V119.921Z" fill="#263238"/>
<path d="M123.885 121.802H117.98L115.177 119.002L115.272 118.907L118.036 121.671H123.885V121.802Z" fill="#263238"/>
<path d="M115.588 118.59H114.86V119.319H115.588V118.59Z" fill="#263238"/>
<path d="M123.885 116.836H114.955V116.971H123.885V116.836Z" fill="#263238"/>
<path d="M115.22 116.539H114.491V117.267H115.22V116.539Z" fill="#263238"/>
<path d="M132.403 116.171H125.916V116.773H132.403V116.171Z" fill="#EBEBEB"/>
<path d="M134.335 117.43H125.916V118.032H134.335V117.43Z" fill="#EBEBEB"/>
<path d="M130.415 118.689H125.916V119.291H130.415V118.689Z" fill="#EBEBEB"/>
<path d="M124.617 116.171H123.152V117.636H124.617V116.171Z" fill="#455A64"/>
<path d="M133.191 121.045H125.916V121.647H133.191V121.045Z" fill="#EBEBEB"/>
<path d="M131.983 122.305H125.916V122.907H131.983V122.305Z" fill="#EBEBEB"/>
<path d="M134.335 123.568H125.916V124.17H134.335V123.568Z" fill="#EBEBEB"/>
<path d="M124.617 121.045H123.152V122.511H124.617V121.045Z" fill="#155DFC"/>
<path d="M133.191 125.92H125.916V126.522H133.191V125.92Z" fill="#EBEBEB"/>
<path d="M131.983 127.183H125.916V127.785H131.983V127.183Z" fill="#EBEBEB"/>
<path d="M134.335 128.443H125.916V129.045H134.335V128.443Z" fill="#EBEBEB"/>
<path d="M124.617 125.92H123.152V127.385H124.617V125.92Z" fill="#DBDBDB"/>
<path d="M48.312 24.9243C51.9904 24.9296 55.5163 26.3948 58.1151 28.998C60.7139 31.6013 62.173 35.1297 62.172 38.8081V44.7877H34.4282V38.8081C34.4277 36.9847 34.7865 35.1791 35.484 33.4944C36.1815 31.8097 37.2042 30.2789 38.4935 28.9896C39.7828 27.7003 41.3136 26.6776 42.9983 25.9801C44.683 25.2826 46.4886 24.9238 48.312 24.9243Z" fill="#DBDBDB"/>
<path d="M163.572 136.874V137.056C163.573 140.676 162.157 144.153 159.628 146.743C157.098 149.333 153.656 150.831 150.036 150.916H76.2458C79.8652 150.831 83.3077 149.333 85.8371 146.743C88.3665 144.153 89.7821 140.676 89.7811 137.056V136.874H163.572Z" fill="#DBDBDB"/>
<path d="M21.6018 186.991C71.1889 186.746 126.811 186.746 176.398 186.991C126.811 187.233 71.1889 187.233 21.6018 186.991Z" fill="#263238"/>
<path d="M118.923 186.952C119.893 187.264 147.502 186.904 148.544 186.223C148.94 185.973 149.126 181.946 149.205 177.075V176.921C149.225 175.919 149.241 174.885 149.241 173.836C149.241 173.693 149.241 173.547 149.241 173.404L147.902 159.081L129.433 159.267L131.254 173.456L131.278 174.018L131.389 176.953V177.257C131.389 177.257 120.895 182.12 119.83 182.992C118.764 183.863 117.953 186.643 118.923 186.952Z" fill="#EB9481"/>
<path d="M118.923 186.952C119.893 187.265 147.502 186.904 148.544 186.223C148.94 185.974 149.126 181.946 149.205 177.075V176.921C149.225 175.919 149.241 174.886 149.241 173.836C149.241 173.694 149.241 173.547 149.241 173.405L131.254 173.456L131.278 174.018L131.389 176.953V177.258C131.389 177.258 120.895 182.12 119.83 182.992C118.764 183.863 117.953 186.643 118.923 186.952Z" fill="#EBEBEB"/>
<path d="M118.919 186.948C119.418 187.11 126.918 187.094 134.252 186.948C135.725 186.92 137.19 186.884 138.608 186.849C143.839 186.706 148.159 186.488 148.559 186.227C148.959 185.966 149.138 182.061 149.217 177.281C149.217 177.214 149.217 177.147 149.217 177.079C149.217 177.012 149.217 176.972 149.217 176.921H149.193L131.401 176.957V177.261C131.401 177.261 120.895 182.12 119.83 182.992C118.764 183.863 117.953 186.643 118.919 186.948Z" fill="#505050"/>
<path d="M119.22 185.878C123.873 185.7 142.655 185.435 147.268 185.617C147.304 185.617 147.308 185.645 147.268 185.649C142.659 185.922 123.877 186.045 119.224 185.954C119.125 185.95 119.125 185.878 119.22 185.878Z" fill="#263238"/>
<path d="M129.409 177.032C131.238 176.664 133.48 176.917 134.897 178.22C134.953 178.271 134.897 178.347 134.822 178.331C133.064 177.789 131.254 177.435 129.421 177.277C129.388 177.279 129.356 177.268 129.332 177.246C129.308 177.224 129.294 177.193 129.292 177.161C129.29 177.128 129.302 177.096 129.324 177.072C129.346 177.048 129.376 177.033 129.409 177.032Z" fill="#263238"/>
<path d="M128.098 177.844C129.924 177.479 132.169 177.733 133.587 179.032C133.642 179.079 133.587 179.158 133.507 179.139C131.751 178.595 129.942 178.244 128.11 178.089C128.077 178.091 128.046 178.079 128.021 178.057C127.997 178.036 127.983 178.005 127.981 177.972C127.98 177.94 127.991 177.908 128.013 177.884C128.035 177.86 128.065 177.845 128.098 177.844Z" fill="#263238"/>
<path d="M126.787 178.659C128.613 178.291 130.858 178.544 132.272 179.847C132.327 179.899 132.272 179.974 132.197 179.958C130.439 179.415 128.628 179.062 126.795 178.905C126.763 178.906 126.731 178.894 126.707 178.872C126.684 178.849 126.67 178.819 126.669 178.786C126.667 178.753 126.679 178.722 126.702 178.698C126.724 178.674 126.755 178.66 126.787 178.659Z" fill="#263238"/>
<path opacity="0.2" d="M134.244 186.944C135.717 186.916 137.182 186.88 138.6 186.845C143.831 186.702 148.152 186.484 148.552 186.223C148.951 185.962 149.13 182.057 149.209 177.277C149.209 177.21 149.209 177.143 149.209 177.075C149.209 177.008 149.209 176.968 149.209 176.917H149.185C146.75 178.628 138.16 184.346 134.244 186.944Z" fill="black"/>
<path d="M130.181 177.012H150.084C150.084 177.012 146.08 130.569 146.235 129.761C146.437 128.72 147.609 124.019 149.173 117.881C149.66 115.961 150.191 113.902 150.757 111.763C152.242 105.986 153.878 99.6693 155.299 94.1768C157.438 85.944 159.105 79.5486 159.105 79.5486H142.211C142.211 79.5486 140.231 85.7777 137.772 93.8759C133.741 107.043 128.351 125.16 127.821 129.563C126.958 136.676 130.181 177.012 130.181 177.012Z" fill="#263238"/>
<path d="M131.076 173.622C134.113 173.559 133.242 173.535 136.279 173.507C137.764 173.507 147.534 173.408 148.92 173.638C148.926 173.64 148.931 173.644 148.935 173.65C148.938 173.655 148.94 173.661 148.94 173.668C148.94 173.674 148.938 173.68 148.935 173.686C148.931 173.691 148.926 173.695 148.92 173.697C147.53 173.927 137.764 173.844 136.279 173.828C133.242 173.8 134.113 173.777 131.076 173.713C131.066 173.71 131.058 173.704 131.051 173.696C131.045 173.688 131.042 173.678 131.042 173.668C131.042 173.657 131.045 173.647 131.051 173.639C131.058 173.631 131.066 173.625 131.076 173.622Z" fill="#37474F"/>
<path d="M142.477 126.926C143.126 124.051 144.1 121.235 144.948 118.412C146.674 112.678 148.409 106.948 150.151 101.222C151.023 98.3572 151.896 95.4955 152.773 92.6363C153.22 91.1909 153.664 89.7455 154.115 88.3041C154.567 86.8627 155.062 85.4925 155.462 84.0709C155.624 83.4927 155.711 83.8095 155.505 84.5461C155.085 86.0271 154.67 87.5121 154.238 88.9931C153.383 91.9209 152.521 94.8487 151.652 97.7764C149.931 103.608 148.192 109.428 146.437 115.236C145.56 118.156 144.683 121.073 143.803 123.988C143.359 125.374 143.001 126.787 142.73 128.217C142.495 129.715 142.435 131.235 142.552 132.747C142.742 135.788 143.095 138.826 143.376 141.855C143.657 144.885 143.942 147.938 144.223 150.963C144.783 157.014 145.337 163.068 145.886 169.124C145.958 169.887 146.024 170.654 146.084 171.425C146.104 171.682 145.922 171.714 145.894 171.468C145.241 165.481 144.528 159.426 143.97 153.43C143.411 147.435 142.849 141.503 142.291 135.535C142.152 134.038 141.994 132.537 141.99 131.033C141.999 129.65 142.162 128.272 142.477 126.926Z" fill="#37474F"/>
<path d="M144.144 79.5486C145.332 88.6011 147.542 105.57 149.169 117.881C152.971 102.964 159.069 79.5486 159.069 79.5486H144.144Z" fill="#37474F"/>
<path d="M139.986 187.217C140.956 187.534 168.565 187.276 169.611 186.599C170.007 186.346 170.209 182.322 170.304 177.452C170.304 177.4 170.304 177.349 170.304 177.297C170.328 176.295 170.343 175.262 170.347 174.212C170.347 174.07 170.347 173.927 170.347 173.781C170.411 166.752 169.904 159.457 169.904 159.457L151.858 159.576L152.361 173.765L152.381 174.327L152.48 177.265V177.566C152.48 177.566 141.954 182.394 140.885 183.261C139.816 184.128 139.02 186.912 139.986 187.217Z" fill="#EB9481"/>
<path d="M139.986 187.217C140.956 187.534 168.565 187.276 169.611 186.599C170.007 186.346 170.209 182.322 170.304 177.452C170.304 177.4 170.304 177.349 170.304 177.297C170.328 176.295 170.343 175.262 170.347 174.212C170.347 174.07 170.347 173.927 170.347 173.781H152.361L152.381 174.343L152.48 177.281V177.582C152.48 177.582 141.954 182.41 140.885 183.277C139.816 184.144 139.02 186.912 139.986 187.217Z" fill="#EBEBEB"/>
<path d="M139.986 187.217C140.956 187.534 168.565 187.276 169.611 186.599C170.007 186.346 170.209 182.322 170.304 177.451C170.304 177.4 170.304 177.349 170.304 177.297L152.484 177.265V177.566C152.484 177.566 141.958 182.394 140.889 183.261C139.82 184.128 139.02 186.912 139.986 187.217Z" fill="#505050"/>
<path d="M140.291 186.144C144.944 185.985 163.726 185.791 168.336 185.985C168.375 185.985 168.375 186.013 168.336 186.017C163.73 186.274 144.944 186.318 140.291 186.219C140.184 186.219 140.184 186.148 140.291 186.144Z" fill="#263238"/>
<path d="M150.512 177.337C152.337 176.976 154.583 177.238 155.992 178.525C156.048 178.576 155.992 178.651 155.917 178.632C154.161 178.084 152.352 177.725 150.52 177.562C150.493 177.558 150.469 177.545 150.451 177.525C150.433 177.505 150.423 177.48 150.422 177.453C150.421 177.426 150.429 177.4 150.446 177.379C150.462 177.357 150.485 177.343 150.512 177.337Z" fill="#263238"/>
<path d="M149.197 178.145C151.023 177.784 153.268 178.046 154.678 179.333C154.733 179.384 154.678 179.459 154.602 179.443C152.847 178.894 151.037 178.535 149.205 178.37C149.178 178.366 149.154 178.353 149.136 178.333C149.118 178.313 149.108 178.288 149.107 178.261C149.106 178.234 149.115 178.208 149.131 178.186C149.147 178.165 149.171 178.15 149.197 178.145Z" fill="#263238"/>
<path d="M147.882 178.952C149.708 178.596 151.953 178.853 153.363 180.14C153.418 180.188 153.363 180.267 153.288 180.247C151.532 179.698 149.722 179.339 147.89 179.178C147.866 179.171 147.845 179.157 147.829 179.137C147.814 179.117 147.805 179.093 147.804 179.068C147.803 179.043 147.81 179.018 147.824 178.998C147.838 178.977 147.859 178.961 147.882 178.952Z" fill="#263238"/>
<path d="M142.758 79.5486C142.758 79.5486 143.154 87.6111 144.991 93.9986C145.138 94.5253 145.3 95.048 145.474 95.543C147.166 96.2261 148.791 97.0625 150.329 98.0418C150.329 98.0418 150.523 104.528 150.725 111.763C150.943 119.85 151.165 128.87 151.121 130.771C150.951 137.927 152.016 177.293 152.016 177.293L171.896 177.372C171.896 177.372 168.3 133.416 168.332 130.791C168.367 126.578 167.365 107.946 166.593 94.359C166.319 89.385 165.699 84.4362 164.736 79.5486H142.758Z" fill="#263238"/>
<path d="M152.69 173.773C155.727 173.721 154.852 173.694 157.889 173.678C159.378 173.678 169.143 173.626 170.533 173.86C170.561 173.86 170.561 173.915 170.533 173.923C169.143 174.145 159.374 174.018 157.889 173.998C154.852 173.955 155.723 173.935 152.69 173.86C152.678 173.86 152.667 173.855 152.659 173.847C152.651 173.839 152.646 173.828 152.646 173.816C152.646 173.805 152.651 173.794 152.659 173.785C152.667 173.777 152.678 173.773 152.69 173.773Z" fill="#37474F"/>
<path d="M164.051 82.4314C164.415 93.5194 164.803 104.607 165.298 115.695C165.793 126.783 168.411 166.641 169.08 172.826C169.08 172.866 169.021 172.882 169.013 172.826C167.567 161.821 166.76 145.538 166.047 134.466C165.334 123.394 164.859 112.29 164.463 101.202C164.253 94.9292 164.087 88.6565 163.9 82.3839C163.908 82.3364 164.047 82.3443 164.051 82.4314Z" fill="#37474F"/>
<path d="M144.647 95.0638C146.624 95.8899 148.525 96.8863 150.329 98.0418C150.345 98.0496 150.356 98.0633 150.361 98.0796C150.367 98.0959 150.365 98.1137 150.357 98.1289C150.349 98.1441 150.336 98.1556 150.319 98.1608C150.303 98.166 150.285 98.1645 150.27 98.1566C148.353 97.226 146.393 96.331 144.532 95.2935C144.502 95.2783 144.478 95.2516 144.468 95.2193C144.457 95.187 144.459 95.1517 144.475 95.1213C144.49 95.0908 144.517 95.0676 144.549 95.0569C144.581 95.0461 144.616 95.0486 144.647 95.0638Z" fill="#37474F"/>
<path d="M144.54 88.2249C144.671 88.9298 144.841 89.6307 144.995 90.3316C145.15 91.0325 145.245 91.6622 145.419 92.3116C145.559 92.9426 145.88 93.5192 146.342 93.9709C146.599 94.2124 146.884 94.4263 147.161 94.6441C147.308 94.7629 147.47 94.8777 147.625 95.0005C147.625 94.9054 147.589 94.8104 147.569 94.7153C147.522 94.4461 147.478 94.1768 147.435 93.9233C147.332 93.3254 147.237 92.7353 147.146 92.1334C146.967 90.9454 146.801 89.7772 146.56 88.6169C146.56 88.6075 146.563 88.5984 146.57 88.5917C146.577 88.5851 146.586 88.5813 146.595 88.5813C146.605 88.5813 146.614 88.5851 146.62 88.5917C146.627 88.5984 146.631 88.6075 146.631 88.6169C146.924 89.7693 147.245 90.9058 147.498 92.0661C147.625 92.6363 148.068 95.444 148.088 95.6301C148.108 95.8162 148.128 96.0261 148.136 96.2479C148.161 96.457 148.161 96.6684 148.136 96.8775C148.132 96.8869 148.125 96.8949 148.117 96.9005C148.108 96.9062 148.098 96.9092 148.088 96.9092C148.078 96.9092 148.068 96.9062 148.06 96.9005C148.051 96.8949 148.045 96.8869 148.041 96.8775C147.955 96.6828 147.895 96.4778 147.862 96.2677C147.811 96.0657 147.763 95.8717 147.728 95.6578C147.728 95.5865 147.704 95.5113 147.696 95.4361C147.419 95.2658 147.161 95.0401 146.904 94.8579C146.647 94.6757 146.338 94.4619 146.076 94.2362C145.587 93.8224 145.235 93.2701 145.067 92.6522C144.898 91.99 144.788 91.3142 144.738 90.6326C144.647 89.8406 144.584 89.0486 144.469 88.2566C144.457 88.1932 144.54 88.1774 144.54 88.2249Z" fill="#37474F"/>
<path d="M151.054 58.1051C149.613 62.8254 145.708 72.6027 141.946 73.9451C137.483 75.5568 124.875 67.7596 120.633 63.4076C119.093 61.8236 125.781 54.9728 127.575 55.8479C129.369 56.7231 139.59 64.2708 140.18 63.9263C141.178 63.3442 143.285 60.988 147.023 57.1389C150.761 53.2898 151.747 55.836 151.054 58.1051Z" fill="#EB9481"/>
<path d="M124.502 65.6767C125.789 65.851 130.3 58.8576 129.65 57.6934C128.622 55.5151 128.056 53.1475 127.987 50.7396C128.015 48.5378 128.308 45.2708 127.124 45.1956C125.397 45.1045 124.53 49.1912 124.178 51.5672C123.148 50.7752 122.198 50.1693 121.497 50.0307C119.216 49.5635 115.842 59.4912 117.359 61.3128C118.824 63.0829 123.219 65.4985 124.502 65.6767Z" fill="#EB9481"/>
<path d="M121.131 58.5066L123.208 59.2136L126.314 50.0892L124.238 49.3822L121.131 58.5066Z" fill="#C7C7C7"/>
<path d="M118.455 64.6271L121.596 65.6963L124.348 57.6061L121.212 56.5369L118.455 64.6271Z" fill="#263238"/>
<path d="M124.875 51.4801C125.057 52.6681 123.54 52.2088 123.54 52.2088C123.54 52.2088 125.56 53.3968 125.271 54.7194C124.982 56.0421 123.176 55.3451 123.045 55.3015C123.152 55.3649 124.978 56.5173 124.554 57.8003C124.13 59.0833 122.4 58.1963 122.289 58.125C122.372 58.2161 123.425 59.4556 122.879 60.3585C121.94 61.9068 119.164 58.8101 117.699 58.7943C117.699 58.7943 117.386 61.2732 117.359 61.3405C117.359 61.3405 114.658 58.4497 114.792 56.4737C114.807 56.185 114.92 55.9099 115.112 55.6939C115.305 55.4779 115.565 55.334 115.85 55.2857C115.85 55.2857 114.876 54.4501 115.177 53.4285C115.335 52.9057 116.313 52.6919 116.313 52.6919C116.104 52.4921 115.954 52.2388 115.878 51.9596C115.803 51.6803 115.805 51.3858 115.885 51.1079C116.143 50.3951 117.073 50.2921 117.073 50.2921C117.073 50.2921 116.677 49.2823 117.165 48.6408C118.182 47.3261 124.479 48.9022 124.875 51.4801Z" fill="#EB9481"/>
<path d="M117.216 50.2366C117.192 50.2366 117.192 50.2009 117.216 50.2009C119.502 50.2065 121.732 50.9067 123.611 52.2086C123.667 52.2522 123.611 52.367 123.552 52.3314C121.553 51.3284 119.419 50.6227 117.216 50.2366Z" fill="#263238"/>
<path d="M116.285 52.6681C116.258 52.6681 116.285 52.6205 116.285 52.6245C118.804 52.6521 121.229 53.5822 123.12 55.246C123.188 55.3054 123.184 55.4242 123.12 55.3609C121.774 54.2877 118.356 52.9967 116.285 52.6681Z" fill="#263238"/>
<path d="M122.364 58.2755C120.499 56.6677 118.305 55.8203 115.925 55.2738C115.893 55.2738 115.925 55.2223 115.925 55.2223C117.16 55.1748 118.642 55.6817 119.758 56.1727C120.804 56.6095 121.718 57.3127 122.407 58.2121C122.463 58.2478 122.419 58.3111 122.364 58.2755Z" fill="#263238"/>
<path d="M123.58 52.1809C123.651 52.2324 123.497 52.2759 123.58 52.3314C123.865 52.5571 125.484 54.0659 125.14 54.7787C124.863 55.3449 123.908 55.3687 123.536 55.2341L122.606 54.8935L123.362 55.539C123.702 55.8201 123.992 56.1561 124.221 56.5329C124.341 56.7035 124.423 56.8978 124.461 57.1028C124.5 57.3078 124.493 57.5186 124.443 57.7209C124.395 57.9046 124.287 58.0666 124.135 58.1803C123.983 58.294 123.797 58.3527 123.607 58.3466C123.184 58.3173 122.776 58.181 122.419 57.9506L121.406 57.3566L122.166 58.2476C122.378 58.4945 122.558 58.7673 122.701 59.0594C122.849 59.3316 122.912 59.6419 122.883 59.9504C122.861 60.0886 122.801 60.2179 122.709 60.3236C122.617 60.4293 122.498 60.5072 122.364 60.5484C122.055 60.6044 121.736 60.57 121.445 60.4494C120.805 60.2025 120.185 59.9046 119.592 59.5584C119.291 59.3921 118.986 59.2257 118.673 59.0753C118.37 58.9065 118.033 58.8052 117.687 58.7783C118.025 58.846 118.345 58.9807 118.63 59.1743C118.927 59.3445 119.216 59.5307 119.505 59.7168C120.079 60.1116 120.689 60.451 121.326 60.7305C121.672 60.8848 122.054 60.937 122.427 60.881C122.63 60.8305 122.813 60.7212 122.954 60.5669C123.095 60.4127 123.187 60.2203 123.219 60.0138C123.266 59.6331 123.198 59.2473 123.025 58.905C122.871 58.5765 122.675 58.2691 122.443 57.9902L122.19 58.2872C122.611 58.5633 123.097 58.7244 123.6 58.7545C123.879 58.7634 124.152 58.6737 124.372 58.5011C124.584 58.3285 124.739 58.0949 124.815 57.8318C124.876 57.5794 124.883 57.3169 124.835 57.0616C124.788 56.8063 124.686 56.564 124.538 56.3508C124.279 55.9411 123.954 55.5771 123.576 55.2737L123.402 55.5746C123.877 55.733 124.95 55.8241 125.488 54.9925C126.027 53.7966 123.972 52.4066 123.58 52.1809Z" fill="#263238"/>
<path d="M123.552 52.1929C123.801 52.2197 124.052 52.2077 124.296 52.1572C124.395 52.1396 124.486 52.0962 124.562 52.0315C124.638 51.9668 124.695 51.8831 124.728 51.7889C124.771 51.5726 124.751 51.3483 124.669 51.1435C124.586 50.9011 124.491 50.6632 124.384 50.4307C124.599 50.5938 124.779 50.8001 124.91 51.0365C125.067 51.2922 125.119 51.5991 125.053 51.8919C125 52.0497 124.901 52.1877 124.768 52.2879C124.638 52.3728 124.487 52.4207 124.332 52.4265C124.054 52.4334 123.781 52.3516 123.552 52.1929Z" fill="#263238"/>
<path d="M130.751 57.131L122.645 67.237C122.645 67.237 135.895 76.931 142.271 74.4956C143.74 73.9333 148.73 67.7438 151.256 58.7705C151.981 56.2004 151.11 51.5791 146.207 57.1033C141.305 62.6275 140.243 63.5304 140.022 63.5423C139.8 63.5542 130.751 57.131 130.751 57.131Z" fill="#EBEBEB"/>
<path d="M125.659 68.3615C126.181 67.5339 126.827 66.7775 127.429 65.9855C128.031 65.1935 128.617 64.4689 129.223 63.7165C130.438 62.1998 131.626 60.6395 132.941 59.2021C132.947 59.1942 132.956 59.1889 132.965 59.1874C132.975 59.186 132.985 59.1884 132.993 59.1941C133 59.1999 133.006 59.2086 133.007 59.2182C133.009 59.2279 133.006 59.2377 133 59.2456C131.927 60.889 130.68 62.4136 129.464 63.9699C128.854 64.7381 128.234 65.5011 127.603 66.2588C127.014 67.0063 126.383 67.7202 125.714 68.3972C125.682 68.4447 125.639 68.3972 125.659 68.3615Z" fill="#263238"/>
<path opacity="0.1" d="M151.272 58.7705C148.745 67.7438 143.748 73.9333 142.287 74.4956C140.825 75.058 138.723 74.9867 136.462 74.3689C140.422 68.3695 146.758 58.7824 149.716 54.5254C151.498 54.2521 151.755 57.0241 151.272 58.7705Z" fill="black"/>
<path d="M139.816 86.4191L166.494 87.9674C166.494 87.9674 163.326 64.4807 154.848 55.4242C153.798 54.3074 151.201 54.2956 149.439 54.9727C148.809 55.2143 146.544 58.208 145.657 61.0038C144.77 63.7996 139.756 86.328 139.816 86.4191Z" fill="#155DFC"/>
<path d="M150.365 61.1861L149.72 59.2417L147.953 60.596L148.136 62.0097L149.53 62.3701L150.365 61.1861Z" fill="#263238"/>
<path d="M149.53 62.3701L148.179 78.3566L145.649 83.1284L144.275 77.5765L148.136 62.0098L149.53 62.3701Z" fill="#263238"/>
<path d="M153.83 54.8501C152.936 59.7842 152.346 64.7687 152.064 69.7753C151.272 88.8586 152.733 122.721 153.252 125.188C153.557 126.601 169.979 124.059 169.979 124.059C169.979 124.059 168.482 84.9619 163.017 69.6209C157.964 55.3966 153.83 54.8501 153.83 54.8501Z" fill="#EBEBEB"/>
<path d="M166.185 97.5388C164.323 97.7961 162.446 97.9428 160.566 97.9784C157.937 97.9784 155.327 97.721 154.575 97.7131C154.507 97.7131 154.472 97.9309 154.519 97.9388C156.51 98.1821 158.513 98.3249 160.519 98.3665C162.354 98.3529 164.186 98.1793 165.991 97.8477C165.991 98.4021 165.991 98.8377 165.991 99.3961C164.138 99.7525 160.562 100.374 154.784 99.6297C154.784 99.3961 154.784 98.1566 154.749 97.816C154.749 97.7645 154.527 97.7566 154.519 97.8358C154.472 98.1685 154.337 101.15 154.333 101.756C154.333 103.245 154.42 107.463 154.792 108.278C155.636 110.128 159.232 110.132 160.229 110.14C161.227 110.147 164.439 110.246 165.643 109.07C166.284 108.441 166.435 105.027 166.328 102.006C166.272 100.56 166.268 97.5665 166.185 97.5388ZM160.507 109.759C157.339 109.759 155.937 109.098 155.446 108.433C154.876 107.641 154.828 106.31 154.784 104.821C154.749 103.653 154.784 99.9861 154.784 99.9148C156.638 100.291 161.536 100.798 165.983 99.7643C165.983 101.499 165.983 102.889 165.983 104.627C165.983 105.883 165.904 107.993 165.267 108.726C164.736 109.34 162.807 109.755 160.507 109.759Z" fill="#DBDBDB"/>
<path d="M148.971 54.9966C148.971 54.9966 144.809 69.7436 144.354 72.0246C143.898 74.3055 140.394 121.548 139.558 123.239C139.281 123.809 129.433 120.325 129.433 120.325C129.433 120.325 144.283 63.3601 145.443 60.6356C147.213 56.4855 148.971 54.9966 148.971 54.9966Z" fill="#EBEBEB"/>
<path d="M156.578 57.1785C163.33 64.1838 169.036 74.7253 168.296 80.4831C167.559 86.1737 165.659 85.346 165.104 85.2351C161.703 84.5342 156.151 68.3814 154.563 61.6019C153.109 55.4124 154.907 55.4401 156.578 57.1785Z" fill="#EBEBEB"/>
<path d="M161.172 80.1623C160.875 79.394 160.566 78.6297 160.277 77.8536L159.394 75.5409C158.812 73.9965 158.206 72.4561 157.663 70.9038C157.121 69.3515 156.527 67.8071 155.98 66.2508C155.703 65.4746 155.439 64.6945 155.188 63.9104C154.919 63.1184 154.686 62.3264 154.444 61.5344C154.772 63.1576 155.189 64.7612 155.695 66.3379C156.182 67.9219 156.737 69.4742 157.279 71.0305C157.822 72.5868 158.467 74.1193 159.101 75.6439C159.735 77.1685 160.404 78.6931 161.172 80.1623Z" fill="#263238"/>
<path d="M154.959 63.562C154.854 63.2908 154.732 63.0263 154.594 62.77C154.527 62.6393 154.46 62.5087 154.385 62.374C154.317 62.2372 154.24 62.1049 154.155 61.978C154.183 62.2792 154.272 62.5715 154.416 62.8373C154.552 63.1099 154.735 63.3555 154.959 63.562Z" fill="#263238"/>
<path d="M149.403 61.4372L133.132 65.3855L138.272 86.5666L154.543 82.6183L149.403 61.4372Z" fill="#155DFC"/>
<path opacity="0.4" d="M149.403 61.4372L133.132 65.3855L138.272 86.5666L154.543 82.6183L149.403 61.4372Z" fill="black"/>
<path d="M144.93 61.3588L137.216 63.2222L137.781 65.5587L145.495 63.6953L144.93 61.3588Z" fill="#C7C7C7"/>
<path d="M143.182 61.7879L142.231 62.0137L141.97 60.9365L139.661 61.4949L139.923 62.572L138.972 62.8017L138.497 60.8375L142.718 59.8198L143.182 61.7879Z" fill="#C7C7C7"/>
<path d="M166.162 85.1835C163.635 85.7339 160.297 83.9955 151.565 78.6099C150.357 77.8614 153.327 67.9179 154.658 68.6544C156.333 69.5732 162.641 73.5015 163.065 73.85C166.649 76.7645 167.876 84.8112 166.162 85.1835Z" fill="#EB9481"/>
<path d="M157.834 71.3434C157.834 71.3434 155.228 68.2229 153.347 67.0111C151.362 65.8019 149.113 65.0926 146.793 64.944C144.29 64.7737 138.117 66.0885 138.184 67.9338C138.247 69.601 144.488 67.9338 144.488 67.9338C144.488 67.9338 137.848 68.5793 138.291 70.5751C138.735 72.571 145.87 70.2306 145.87 70.2306C145.87 70.2306 139.059 71.0464 139.843 73.0303C140.433 74.5312 147.019 72.7769 147.019 72.7769C147.019 72.7769 141.166 73.5174 141.709 75.0856C142.31 76.8201 148.488 75.5806 148.488 75.5806C150.539 79.3386 153.133 80.2415 154.998 80.7048C155.454 80.8078 157.834 71.3434 157.834 71.3434Z" fill="#EB9481"/>
<path d="M146.773 67.5576C145.981 67.6051 145.189 67.6487 144.421 67.7635C143.653 67.8784 142.873 68.0249 142.109 68.215C141.109 68.4441 140.138 68.7841 139.214 69.2287C140.913 68.5555 143.685 68.0922 144.461 67.9774C145.237 67.8625 146.005 67.7041 146.777 67.5814L146.773 67.5576Z" fill="#263238"/>
<path d="M147.249 70.3535C146.251 70.4564 145.269 70.5238 144.263 70.6703C143.257 70.8168 142.35 71.0465 141.372 71.2603C141.297 71.2603 141.332 71.3118 141.408 71.2959C142.394 71.1217 143.316 71.0346 144.298 70.8722C145.281 70.7099 146.278 70.5039 147.253 70.3772C147.268 70.3733 147.261 70.3495 147.249 70.3535Z" fill="#263238"/>
<path d="M148.104 72.678C146.571 72.8015 145.054 73.0815 143.578 73.5135C143.503 73.5333 143.554 73.5729 143.629 73.5611C145.13 73.2522 146.302 73.0027 148.108 72.7334C148.104 72.7295 148.104 72.678 148.104 72.678Z" fill="#263238"/>
<path d="M157.735 70.0286L155.398 82.1462C155.398 82.1462 164.768 87.2546 166.613 85.0488C168.13 83.2312 166.387 76.8358 163.999 74.3964C163.005 73.3787 157.735 70.0286 157.735 70.0286Z" fill="#EBEBEB"/>
<path d="M157.656 70.4326L157.755 70.0366H157.723C158.598 70.6465 159.481 71.2484 160.348 71.8661C161.216 72.4839 162.087 73.0977 162.922 73.7551C163.34 74.0729 163.736 74.4168 164.11 74.7847C164.471 75.1663 164.798 75.5784 165.088 76.0162C165.668 76.9067 166.103 77.8839 166.375 78.911C166.208 77.8456 165.837 76.8224 165.282 75.8974C165.004 75.4307 164.676 74.9952 164.304 74.5985C163.927 74.2125 163.523 73.8527 163.097 73.5214C162.249 72.8641 161.37 72.2542 160.479 71.6642C159.588 71.0741 158.669 70.5237 157.735 70.001H157.711V70.0287L157.656 70.4326Z" fill="#263238"/>
<path d="M159.877 72.8245C159.723 73.4225 159.616 74.0363 159.481 74.6421C159.346 75.248 159.251 75.8579 159.148 76.4677C158.939 77.6834 158.733 78.9031 158.546 80.1267C158.495 80.4594 158.444 80.796 158.4 81.1286C158.356 81.4613 158.348 81.8533 158.297 82.2097C158.299 82.2139 158.302 82.2176 158.306 82.2201C158.31 82.2226 158.314 82.224 158.319 82.224C158.323 82.224 158.328 82.2226 158.332 82.2201C158.336 82.2176 158.339 82.2139 158.341 82.2097C158.396 81.9127 158.495 81.6197 158.558 81.3227C158.622 81.0257 158.681 80.7049 158.741 80.396C158.851 79.7862 158.958 79.1803 159.065 78.5705C159.275 77.3547 159.461 76.1351 159.651 74.9075C159.75 74.2184 159.865 73.5215 159.925 72.8285C159.94 72.7928 159.885 72.7849 159.877 72.8245Z" fill="#263238"/>
<path d="M155.628 81.0652C155.588 81.4335 155.537 81.7938 155.489 82.1581L155.454 82.0829C158.404 83.4847 161.394 85.1321 164.657 85.5677C165.124 85.6179 165.596 85.5762 166.047 85.4449C165.609 85.6481 165.131 85.751 164.649 85.7459C161.291 85.6073 158.198 83.9164 155.382 82.2057L155.339 82.174C155.434 81.8057 155.525 81.4335 155.628 81.0652Z" fill="#263238"/>
<path d="M150.001 59.4197C151.462 59.7326 153.905 57.4397 154.852 55.634C154.915 55.5112 154.697 54.2123 154.507 52.6244C154.396 51.6621 154.293 50.585 154.274 49.5989C154.274 49.397 148.108 51.2423 148.108 51.2423C148.488 52.4706 148.717 53.7405 148.789 55.0241C148.789 55.1568 148.778 55.2891 148.757 55.4201C148.755 55.4425 148.755 55.4651 148.757 55.4875C148.639 56.2715 148.591 59.1188 150.001 59.4197Z" fill="#EB9481"/>
<path d="M154.353 51.1037C152.199 54.4816 149.387 54.2717 148.738 54.1965C148.611 53.1955 148.399 52.2072 148.104 51.2423C148.104 51.2423 154.266 49.397 154.27 49.5989C154.286 50.086 154.313 50.5969 154.353 51.1037Z" fill="#263238"/>
<path d="M155.751 41.976C156.258 44.2174 154.63 50.4663 152.979 51.7612C150.567 53.6422 146.853 53.563 145.316 50.7158C143.823 47.9438 146.088 39.8495 147.926 38.6972C150.615 36.9864 155.002 38.6496 155.751 41.976Z" fill="#EB9481"/>
<path d="M149.264 45.7102C149.264 45.7102 149.292 45.7419 149.288 45.7577C149.165 46.1537 149.098 46.6725 149.443 46.9101C149.443 46.9101 149.443 46.9378 149.443 46.9338C148.987 46.7477 149.082 46.0864 149.264 45.7102Z" fill="#263238"/>
<path d="M149.751 45.3657C150.444 45.4885 150.147 46.8626 149.51 46.7478C148.872 46.6329 149.173 45.2667 149.751 45.3657Z" fill="#263238"/>
<path d="M146.789 45.0886C146.789 45.0886 146.754 45.0886 146.75 45.1203C146.671 45.548 146.512 46.0271 146.096 46.0826C146.096 46.0826 146.096 46.1063 146.096 46.1103C146.579 46.142 146.785 45.5084 146.789 45.0886Z" fill="#263238"/>
<path d="M146.52 44.5658C145.847 44.3678 145.502 45.7261 146.124 45.9082C146.746 46.0904 147.07 44.748 146.52 44.5658Z" fill="#263238"/>
<path d="M150.381 44.9222C150.197 44.8676 150.016 44.8029 149.838 44.7282C149.638 44.6865 149.456 44.5809 149.32 44.4272C149.288 44.3698 149.275 44.3035 149.285 44.2384C149.294 44.1733 149.324 44.1131 149.371 44.0669C149.477 43.9897 149.601 43.942 149.731 43.9288C149.861 43.9156 149.993 43.9373 150.112 43.9916C150.369 44.0682 150.59 44.2357 150.733 44.4629C150.763 44.5167 150.776 44.5779 150.771 44.639C150.766 44.7001 150.744 44.7584 150.706 44.8071C150.669 44.8557 150.619 44.8924 150.561 44.9129C150.503 44.9333 150.441 44.9366 150.381 44.9222Z" fill="#505050"/>
<path d="M146.053 43.8054C146.241 43.8457 146.431 43.8761 146.623 43.8965C146.817 43.962 147.027 43.962 147.221 43.8965C147.276 43.8625 147.319 43.8109 147.342 43.7499C147.365 43.689 147.367 43.6221 147.348 43.5599C147.293 43.441 147.207 43.3392 147.099 43.2653C146.991 43.1914 146.865 43.1482 146.734 43.1402C146.465 43.0745 146.181 43.1156 145.942 43.255C145.897 43.2914 145.863 43.3394 145.843 43.3939C145.823 43.4483 145.819 43.5071 145.831 43.5638C145.842 43.6205 145.869 43.673 145.908 43.7156C145.947 43.7582 145.997 43.7893 146.053 43.8054Z" fill="#505050"/>
<path d="M148.932 49.591C148.809 49.6662 148.678 49.785 148.536 49.7613C148.379 49.726 148.232 49.6571 148.104 49.5593C148.104 49.5593 148.072 49.5593 148.08 49.5593C148.123 49.6561 148.192 49.7396 148.278 49.8009C148.364 49.8622 148.466 49.8992 148.571 49.9078C148.66 49.9006 148.744 49.868 148.814 49.8139C148.885 49.7598 148.938 49.6865 148.967 49.6029C148.979 49.595 148.951 49.5791 148.932 49.591Z" fill="#263238"/>
<path d="M148.757 48.2209C148.613 48.3656 148.44 48.4792 148.25 48.5548C148.06 48.6304 147.857 48.6663 147.653 48.6605C147.474 48.6556 147.296 48.6249 147.126 48.5694C147.093 48.5629 147.061 48.5523 147.031 48.5377C146.999 48.5293 146.969 48.5174 146.94 48.5021C146.918 48.4934 146.9 48.4778 146.889 48.4576C146.877 48.4375 146.873 48.4141 146.876 48.3912C146.875 48.3767 146.875 48.3621 146.876 48.3476V48.312C146.936 47.9833 147.074 47.4923 147.074 47.4923C146.944 47.5279 146.282 47.6705 146.318 47.4923C146.673 46.0249 147.176 44.5973 147.819 43.2313C147.823 43.2213 147.83 43.2132 147.84 43.2088C147.849 43.2043 147.86 43.2039 147.87 43.2076C147.88 43.2112 147.888 43.2187 147.893 43.2284C147.897 43.238 147.898 43.2491 147.894 43.259C147.577 44.6173 147.019 45.9083 146.678 47.2705C146.916 47.2158 147.16 47.1944 147.403 47.2071C147.447 47.2309 147.122 48.1536 147.106 48.3041C147.367 48.3861 147.641 48.4154 147.913 48.3903C148.185 48.3651 148.449 48.286 148.69 48.1576C148.761 48.1576 148.789 48.1932 148.757 48.2209Z" fill="#263238"/>
<path d="M147.356 48.4466C147.485 48.7194 147.683 48.9541 147.93 49.1277C148.067 49.2183 148.229 49.264 148.393 49.2584C148.75 49.2584 148.825 48.9297 148.821 48.6485C148.816 48.5001 148.795 48.3526 148.757 48.209C148.328 48.4363 147.836 48.5196 147.356 48.4466Z" fill="#263238"/>
<path d="M147.93 49.1277C148.067 49.2182 148.229 49.2639 148.393 49.2583C148.749 49.2583 148.825 48.9297 148.821 48.6485C148.64 48.6165 148.454 48.6463 148.292 48.7333C148.13 48.8202 148.003 48.9592 147.93 49.1277Z" fill="#FF9ABB"/>
<path d="M154.487 48.1181C153.379 47.7577 153.878 44.8709 153.878 44.8709C153.878 44.8709 152.559 44.0789 152.583 41.3821C152.583 41.3821 151.145 43.7858 146.528 42.3563C146.535 41.4933 146.812 40.6542 147.32 39.9565C146.706 40.6864 146.152 41.4651 145.665 42.285C145.665 42.285 145.269 38.1547 148.852 37.3786C150.286 37.0697 152.294 37.5528 155.097 39.6358C155.097 39.6358 156.024 37.8973 156.337 38.2022C156.65 38.5072 155.648 40.111 155.648 40.111C155.648 40.111 157.077 39.9367 157.255 40.2614C157.434 40.5862 156.04 40.6574 156.04 40.6574C156.609 40.9815 157.042 41.4997 157.26 42.1171C157.478 42.7345 157.467 43.4099 157.228 44.0195C156.499 46.142 155.038 48.3121 154.487 48.1181Z" fill="#505050"/>
<path d="M155.672 40.5465C156.272 40.6344 156.82 40.939 157.212 41.4029C157.604 41.8668 157.812 42.4581 157.798 43.0651C157.731 43.7662 157.506 44.4431 157.141 45.0451C156.765 45.6799 156.311 46.2653 155.79 46.7875C155.763 46.8192 155.719 46.7677 155.747 46.74C156.209 46.2446 156.593 45.681 156.883 45.0689C157.192 44.4994 157.409 43.8845 157.525 43.2473C157.606 42.6523 157.458 42.0487 157.112 41.5579C156.766 41.0672 156.247 40.7256 155.66 40.602C155.628 40.6059 155.628 40.5386 155.672 40.5465Z" fill="#505050"/>
<path d="M151.668 37.224C152.44 37.5519 153.165 37.9793 153.826 38.4951C154.475 38.9574 155.04 39.5265 155.497 40.1781C155.521 40.2138 155.477 40.2534 155.45 40.2217C154.38 39.1329 153.121 38.2473 151.735 37.6081C150.472 36.9864 148.896 36.7012 147.688 37.6081C147.688 37.6081 147.645 37.6081 147.66 37.5764C148.777 36.5904 150.381 36.6894 151.668 37.224Z" fill="#505050"/>
<path d="M145.332 47.1239C144.639 46.9299 144.31 45.9359 144.599 44.8746C144.888 43.8133 145.688 43.1322 146.381 43.3223C147.074 43.5124 147.403 44.5103 147.114 45.5716C146.825 46.6329 146.041 47.3061 145.332 47.1239ZM146.314 43.5599C145.76 43.4094 145.126 44.0232 144.857 44.9301C144.587 45.8369 144.857 46.7002 145.403 46.8507C145.95 47.0011 146.591 46.3913 146.861 45.4845C147.13 44.5776 146.88 43.7223 146.33 43.5599H146.314Z" fill="#37474F"/>
<path d="M149.609 48.3119C149.219 48.2337 148.861 48.0397 148.583 47.7554C148.305 47.471 148.119 47.1095 148.049 46.7178C147.979 46.3261 148.029 45.9225 148.192 45.5596C148.355 45.1967 148.623 44.8913 148.963 44.6831C149.302 44.475 149.695 44.3739 150.093 44.3929C150.49 44.4119 150.873 44.5501 151.19 44.7897C151.508 45.0292 151.746 45.3588 151.874 45.7356C152.001 46.1124 152.012 46.519 151.906 46.9022C151.786 47.3927 151.478 47.8162 151.048 48.0803C150.617 48.3443 150.1 48.4276 149.609 48.3119ZM150.587 44.7479C150.264 44.6305 149.912 44.6133 149.579 44.6987C149.245 44.784 148.946 44.9679 148.718 45.2264C148.491 45.4848 148.347 45.8057 148.305 46.1472C148.263 46.4888 148.325 46.835 148.483 47.1408C148.641 47.4465 148.887 47.6976 149.19 47.8611C149.493 48.0247 149.838 48.0931 150.18 48.0575C150.522 48.0219 150.846 47.8839 151.109 47.6615C151.371 47.4392 151.561 47.1428 151.652 46.8111C151.784 46.3962 151.746 45.946 151.546 45.5592C151.347 45.1724 151.002 44.8806 150.587 44.7479Z" fill="#37474F"/>
<path d="M148.5 45.7538C147.641 45.1598 147.122 45.3578 147.118 45.3578L147.019 45.1123C147.043 45.1123 147.66 44.8549 148.65 45.54L148.5 45.7538Z" fill="#37474F"/>
<path d="M151.826 46.6805L151.846 46.4192C152.02 46.4192 154.733 46.5578 155.161 46.6528C155.588 46.7479 156.487 47.6151 156.586 47.7141L156.42 47.9161C156.048 47.5218 155.617 47.189 155.141 46.93C154.773 46.8389 153.288 46.8112 151.826 46.6805Z" fill="#37474F"/>
<path d="M153.501 47.6704C153.501 47.6704 155.121 45.7617 156.004 46.3596C156.887 46.9576 155.529 49.8167 154.4 50.1216C154.258 50.17 154.108 50.1892 153.958 50.1782C153.808 50.1671 153.663 50.1259 153.529 50.0572C153.396 49.9884 153.277 49.8935 153.181 49.778C153.086 49.6625 153.014 49.5289 152.971 49.3851L153.501 47.6704Z" fill="#EB9481"/>
<path d="M155.592 47.1675V47.1992C154.8 47.4368 154.329 48.106 153.981 48.8148C154.032 48.7424 154.098 48.6819 154.176 48.6376C154.253 48.5934 154.338 48.5664 154.427 48.5585C154.515 48.5506 154.604 48.5619 154.688 48.5919C154.772 48.6218 154.848 48.6695 154.911 48.7317C154.931 48.7317 154.911 48.7792 154.887 48.7713C154.757 48.7159 154.613 48.7022 154.475 48.7319C154.337 48.7617 154.211 48.8336 154.115 48.9376C153.956 49.1133 153.817 49.3058 153.699 49.5118C153.656 49.5752 153.537 49.5118 153.569 49.4524C153.648 48.4584 154.539 47.1675 155.592 47.1675Z" fill="#263238"/>
<path d="M148.789 55.1352L149.811 58.6675L154.836 54.9966L155.588 56.7192C155.588 56.7192 150.535 62.5562 150.555 62.2632L149.597 59.2853L147.312 60.9049L148.207 56.0975L148.789 55.1352Z" fill="#155DFC"/>
<path d="M147.593 58.5011C147.771 57.7091 147.926 56.9171 148.14 56.1251C148.14 56.0974 148.195 56.0934 148.195 56.1251C148.247 56.9171 147.557 59.9346 147.447 60.6672C147.542 60.5959 149.549 59.2535 149.565 59.2812C149.795 59.7683 150.504 61.9344 150.543 62.1284C151.335 61.2018 154.689 57.5744 155.6 56.7191C155.624 56.6953 155.668 56.7191 155.644 56.7547C154.911 57.7526 150.571 62.5522 150.524 62.5284C150.135 61.499 149.802 60.4494 149.526 59.3842C149.173 59.6891 147.118 61.2374 147.13 61.1186C147.237 60.2384 147.391 59.3645 147.593 58.5011Z" fill="#263238"/>
<path d="M127.441 48.9061C127.143 48.8912 126.847 48.8475 126.558 48.7754L126.352 48.72L126.17 48.6645L126.043 48.6249L124.193 47.9478C124.362 48.0112 124.534 48.0642 124.708 48.1062C124.856 48.1419 125.005 48.1697 125.156 48.1893C125.294 48.1893 125.441 48.225 125.591 48.2329C129.25 48.4428 132.882 44.7085 133.697 39.9169C134.327 36.2064 133.107 32.9433 130.838 31.5415C130.556 31.3669 130.256 31.2223 129.943 31.1099L131.797 31.7791C131.876 31.8068 131.951 31.8385 132.03 31.8741L132.228 31.9613L132.319 32.0088L132.466 32.084L132.549 32.1315C133.971 32.9513 135 34.4877 135.448 36.4083C135.472 36.5073 135.491 36.6063 135.511 36.7053C135.756 37.9841 135.763 39.2971 135.531 40.5782C134.731 45.3817 131.1 49.1041 127.441 48.9061Z" fill="#37474F"/>
<path d="M119.295 39.0813C118.463 43.9719 120.38 48.1893 123.699 49.4089L125.548 50.0821C122.229 48.8941 120.317 44.6451 121.144 39.7545C122.107 34.1115 126.368 29.7317 130.648 29.9733C130.997 29.9938 131.343 30.0455 131.682 30.1277C131.885 30.1745 132.084 30.234 132.28 30.3059L130.431 29.6367C129.906 29.4454 129.356 29.3333 128.799 29.304C124.514 29.0585 120.253 33.4422 119.295 39.0813Z" fill="#37474F"/>
<path d="M136.695 40.6337C137.531 35.7272 135.598 31.4782 132.264 30.2941L132.038 30.2189H131.975C131.884 30.1912 131.793 30.1674 131.698 30.1476C131.531 30.108 131.365 30.0724 131.195 30.0486C131.025 30.0248 130.846 30.005 130.668 29.9932C126.376 29.7516 122.115 34.1353 121.164 39.7744C120.874 41.394 120.909 43.0551 121.267 44.661C121.317 44.8854 121.377 45.1072 121.445 45.3263C121.513 45.5441 121.584 45.754 121.667 45.9638C121.742 46.1688 121.828 46.3698 121.924 46.5658C121.968 46.6648 122.016 46.7598 122.067 46.8588C122.212 47.1322 122.373 47.3967 122.55 47.6508C122.665 47.8211 122.788 47.9834 122.914 48.1418C123.467 48.8413 124.164 49.4128 124.958 49.8169C125.014 49.8479 125.072 49.8756 125.132 49.9001L125.421 50.0268H125.445C125.68 50.1217 125.923 50.1985 126.17 50.2565C126.509 50.337 126.855 50.3874 127.203 50.407C131.472 50.6604 135.741 46.2806 136.695 40.6337ZM127.441 48.9061C127.143 48.8912 126.847 48.8475 126.558 48.7754L126.352 48.72L126.17 48.6646C125.814 48.5467 125.474 48.3872 125.156 48.1894C122.883 46.7915 121.663 43.5284 122.293 39.8179C123.109 35.0105 126.744 31.2762 130.403 31.5019C130.549 31.5019 130.696 31.5257 130.838 31.5455C130.988 31.5652 131.136 31.5929 131.282 31.6286C131.456 31.6712 131.628 31.7227 131.797 31.7831C131.876 31.8108 131.951 31.8425 132.03 31.8781L132.228 31.9652L132.319 32.0128L132.466 32.088L132.549 32.1355C133.971 32.9552 135 34.4917 135.448 36.4123C135.472 36.5113 135.491 36.6103 135.511 36.7093C135.756 37.9881 135.763 39.301 135.531 40.5822C134.731 45.3817 131.1 49.1041 127.441 48.9061Z" fill="#455A64"/>
<path opacity="0.4" d="M125.591 48.2329C125.441 48.2329 125.294 48.2091 125.156 48.1893C122.883 46.7915 121.663 43.5284 122.293 39.8179C123.109 35.0105 126.744 31.2762 130.403 31.5019C130.549 31.5019 130.696 31.5257 130.838 31.5455C133.108 32.9473 134.327 36.2103 133.698 39.9209C132.882 44.7085 129.25 48.4428 125.591 48.2329Z" fill="white"/>
<g opacity="0.3">
<path d="M133.345 34.848L123.097 37.1092C123.336 36.541 123.621 35.9928 123.948 35.4697L132.747 33.5254C132.989 33.9456 133.19 34.3886 133.345 34.848Z" fill="#EBEBEB"/>
<path d="M131.559 32.076L125.71 33.3669C127.096 32.1116 128.748 31.3869 130.403 31.4899C130.549 31.4899 130.696 31.5137 130.838 31.5335C131.095 31.6921 131.336 31.8737 131.559 32.076Z" fill="#EBEBEB"/>
<path d="M133.646 35.8856L122.649 38.3131C122.728 38.0517 122.819 37.7904 122.914 37.5211L133.472 35.1926C133.539 35.4263 133.599 35.6401 133.646 35.8856Z" fill="#EBEBEB"/>
<path d="M131.278 45.3064C131.02 45.6249 130.743 45.9264 130.446 46.2093L124.344 47.5557C124.143 47.3732 123.958 47.1745 123.79 46.9617L131.278 45.3064Z" fill="#EBEBEB"/>
<path d="M132.902 42.6056L122.637 44.8707C122.32 43.9472 122.149 42.9799 122.13 42.0036L133.765 39.4336C133.745 39.588 133.721 39.7425 133.698 39.9009C133.539 40.8304 133.272 41.7382 132.902 42.6056Z" fill="#EBEBEB"/>
</g>
<path d="M176.398 33.7669C176.398 35.2804 175.978 36.7641 175.184 38.0526C174.39 39.3412 173.254 40.3838 171.902 41.0643C170.55 41.7447 169.035 42.0363 167.528 41.9064C166.02 41.7765 164.577 41.2302 163.362 40.3286L159.358 41.3503L161.025 37.62C160.44 36.5249 160.111 35.3106 160.065 34.0695C160.019 32.8283 160.256 31.593 160.759 30.4574C161.262 29.3218 162.017 28.3159 162.968 27.516C163.918 26.7162 165.038 26.1435 166.242 25.8416C167.447 25.5396 168.705 25.5163 169.92 25.7734C171.135 26.0306 172.276 26.5614 173.255 27.3255C174.234 28.0896 175.026 29.0669 175.571 30.183C176.115 31.2992 176.398 32.5249 176.398 33.7669Z" fill="white"/>
<path d="M176.398 33.7668C176.473 38.4752 172.201 42.4115 167.516 41.9996C165.986 41.884 164.518 41.3436 163.279 40.4394L163.397 40.4632L159.402 41.5165L159.053 41.6076L159.2 41.2789L160.851 37.5446V37.711C159.953 36.0244 159.663 34.0801 160.03 32.205C160.398 30.3299 161.399 28.6384 162.867 27.415C168.233 22.9877 176.39 26.821 176.39 33.7747L176.398 33.7668ZM176.398 33.7668C176.422 28.5475 171.314 24.5677 166.268 25.9537C161.311 27.1813 158.744 33.054 161.192 37.5328L161.239 37.6159L161.2 37.6991L159.517 41.4175L159.315 41.1799L163.326 40.1899H163.394L163.445 40.2295C168.751 44.2489 176.366 40.4236 176.398 33.7826V33.7668Z" fill="#263238"/>
<path d="M166.906 38.6296L163.243 34.923L164.475 33.7073L166.613 35.8734L171.056 28.9038L172.513 29.8344L166.906 38.6296Z" fill="#155DFC"/>
</svg>
