<svg width="13" height="13" viewBox="0 0 13 13" fill="none" xmlns="http://www.w3.org/2000/svg">
<g clip-path="url(#clip0_192_722)">
<path d="M6.48284 1.62085H2.70129C2.41474 1.62085 2.13993 1.73468 1.9373 1.9373C1.73468 2.13993 1.62085 2.41474 1.62085 2.70129V10.2644C1.62085 10.5509 1.73468 10.8258 1.9373 11.0284C2.13993 11.231 2.41474 11.3448 2.70129 11.3448H10.2644C10.5509 11.3448 10.8258 11.231 11.0284 11.0284C11.231 10.8258 11.3448 10.5509 11.3448 10.2644V6.48284" stroke="#4A5565" stroke-width="1.08044" stroke-linecap="round" stroke-linejoin="round"/>
<path d="M9.92654 1.41817C10.1415 1.20326 10.4329 1.08252 10.7369 1.08252C11.0408 1.08252 11.3323 1.20326 11.5472 1.41817C11.7621 1.63308 11.8829 1.92457 11.8829 2.2285C11.8829 2.53244 11.7621 2.82392 11.5472 3.03883L6.67819 7.90839C6.54991 8.03656 6.39144 8.13037 6.21738 8.1812L4.66532 8.63499C4.61884 8.64855 4.56956 8.64936 4.52265 8.63734C4.47575 8.62532 4.43293 8.60092 4.39869 8.56668C4.36445 8.53244 4.34005 8.48962 4.32803 8.44272C4.31601 8.39581 4.31683 8.34654 4.33038 8.30005L4.78417 6.74799C4.83524 6.57407 4.92924 6.41579 5.05752 6.28773L9.92654 1.41817Z" stroke="#4A5565" stroke-width="1.08044" stroke-linecap="round" stroke-linejoin="round"/>
</g>
<defs>
<clipPath id="clip0_192_722">
<rect width="12.9653" height="12.9653" fill="white"/>
</clipPath>
</defs>
</svg>
