<svg width="21" height="21" viewBox="0 0 21 21" fill="none" xmlns="http://www.w3.org/2000/svg">
<g clip-path="url(#clip0_14_32)">
<path d="M10.5 0C8.4233 0 6.39323 0.615814 4.66652 1.76957C2.9398 2.92332 1.59399 4.5632 0.79927 6.48182C0.0045495 8.40045 -0.203386 10.5116 0.201759 12.5484C0.606904 14.5853 1.60693 16.4562 3.07538 17.9246C4.54383 19.3931 6.41476 20.3931 8.45156 20.7982C10.4884 21.2034 12.5996 20.9955 14.5182 20.2007C16.4368 19.406 18.0767 18.0602 19.2304 16.3335C20.3842 14.6068 21 12.5767 21 10.5C20.997 7.71615 19.8898 5.04718 17.9213 3.0787C15.9528 1.11022 13.2839 0.00301095 10.5 0V0ZM10.5 19.25C8.76942 19.25 7.0777 18.7368 5.63877 17.7754C4.19983 16.8139 3.07833 15.4473 2.41606 13.8485C1.75379 12.2496 1.58051 10.4903 1.91813 8.79296C2.25575 7.09563 3.08911 5.53653 4.31282 4.31282C5.53653 3.08911 7.09563 2.25575 8.79296 1.91813C10.4903 1.58051 12.2496 1.75379 13.8485 2.41605C15.4473 3.07832 16.8139 4.19983 17.7754 5.63876C18.7368 7.07769 19.25 8.76941 19.25 10.5C19.2475 12.8199 18.3248 15.044 16.6844 16.6844C15.044 18.3248 12.8199 19.2475 10.5 19.25Z" fill="#F97316"/>
<path d="M10.4002 4.37512C10.2682 4.37512 10.0456 4.46731 9.88153 4.6314C9.71743 4.7955 9.62524 5.01806 9.62524 5.25012V12.2501C9.62524 12.4822 9.71743 12.7047 9.88153 12.8688C10.0456 13.0329 10.2682 13.1251 10.4002 13.1251C10.7323 13.1251 10.9549 13.0329 11.119 12.8688C11.2831 12.7047 11.3753 12.4822 11.3753 12.2501V5.25012C11.3753 5.01806 11.2831 4.7955 11.119 4.6314C10.9549 4.46731 10.7323 4.37512 10.4002 4.37512Z" fill="#F97316"/>
<path d="M11.3753 15.7501C11.3753 15.2669 10.9835 14.8751 10.4002 14.8751C10.017 14.8751 9.62524 15.2669 9.62524 15.7501C9.62524 16.2334 10.017 16.6251 10.4002 16.6251C10.9835 16.6251 11.3753 16.2334 11.3753 15.7501Z" fill="#F97316"/>
</g>
<defs>
<clipPath id="clip0_14_32">
<rect width="21" height="21" fill="white"/>
</clipPath>
</defs>
</svg>
