<svg width="26" height="26" viewBox="0 0 26 26" fill="none" xmlns="http://www.w3.org/2000/svg">
<g clip-path="url(#clip0_14_2007)">
<path d="M20.5602 18.396C18.837 20.1155 16.502 21.0812 14.0676 21.0812C11.6332 21.0812 9.29817 20.1155 7.57492 18.396C2.64646 13.6331 4.89454 4.86101 11.5246 3.09393L12.8313 2.72006L12.4725 4.03104C10.8429 9.6515 16.617 14.8954 22.0524 12.7452L23.325 12.2637L23.0756 13.6017C22.7416 15.4176 21.8645 17.0893 20.5602 18.396ZM8.65703 6.49283C7.22412 7.92889 6.41939 9.87471 6.41939 11.9034C6.41939 13.932 7.22412 15.8779 8.65703 17.3139C12.4238 21.2485 19.4581 19.7146 21.2295 14.5691C19.8765 14.8354 18.4799 14.7812 17.1515 14.4109C15.8232 14.0405 14.6 13.3643 13.5799 12.4364C12.5599 11.5084 11.7712 10.3545 11.2771 9.06708C10.7831 7.77963 10.5973 6.39439 10.7347 5.02225C9.96296 5.38974 9.26017 5.88718 8.65703 6.49283Z" fill="#7A72FF"/>
</g>
<defs>
<clipPath id="clip0_14_2007">
<rect width="18.364" height="18.364" fill="white" transform="translate(0 12.9853) rotate(-45)"/>
</clipPath>
</defs>
</svg>
