<svg width="38" height="38" viewBox="0 0 38 38" fill="none" xmlns="http://www.w3.org/2000/svg">
<path d="M26.2305 16.9727H20.0586V10.8008C20.0586 10.3916 19.896 9.9991 19.6067 9.70974C19.3173 9.42038 18.9248 9.25781 18.5156 9.25781C18.1064 9.25781 17.7139 9.42038 17.4246 9.70974C17.1352 9.9991 16.9727 10.3916 16.9727 10.8008V16.9727H10.8008C10.3916 16.9727 9.9991 17.1352 9.70974 17.4246C9.42038 17.7139 9.25781 18.1064 9.25781 18.5156C9.25781 18.9248 9.42038 19.3173 9.70974 19.6067C9.9991 19.896 10.3916 20.0586 10.8008 20.0586H16.9727V26.2305C16.9727 26.6397 17.1352 27.0322 17.4246 27.3215C17.7139 27.6109 18.1064 27.7734 18.5156 27.7734C18.9248 27.7734 19.3173 27.6109 19.6067 27.3215C19.896 27.0322 20.0586 26.6397 20.0586 26.2305V20.0586H26.2305C26.6397 20.0586 27.0322 19.896 27.3215 19.6067C27.6109 19.3173 27.7734 18.9248 27.7734 18.5156C27.7734 18.1064 27.6109 17.7139 27.3215 17.4246C27.0322 17.1352 26.6397 16.9727 26.2305 16.9727Z" fill="white"/>
</svg>
