<svg width="18" height="18" viewBox="0 0 18 18" fill="none" xmlns="http://www.w3.org/2000/svg">
<g clip-path="url(#clip0_27_148)">
<path d="M9.00015 1.49996C9.99503 1.50323 10.9794 1.70377 11.8963 2.08998C12.8131 2.47619 13.6443 3.0404 14.3417 3.74996H12.0002C11.8012 3.74996 11.6105 3.82898 11.4698 3.96963C11.3292 4.11029 11.2502 4.30105 11.2502 4.49996C11.2502 4.69888 11.3292 4.88964 11.4698 5.03029C11.6105 5.17095 11.8012 5.24996 12.0002 5.24996H15.1074C15.4767 5.24976 15.8309 5.10296 16.092 4.84182C16.3532 4.58067 16.5 4.22653 16.4002 3.85721V0.749963C16.4002 0.55105 16.4211 0.360285 16.2805 0.219633C16.1398 0.0789805 15.9491 -3.71674e-05 15.7502 -3.71675e-05C15.5512 -3.71674e-05 15.3605 0.0789805 15.2198 0.219633C15.0792 0.360285 15.0002 0.55105 15.0002 0.749963V2.30846C13.7605 1.19205 12.2346 0.44277 10.5932 0.144525C8.95186 -0.153721 7.25987 0.0108468 5.70674 0.619798C4.15361 1.22875 2.80066 2.25804 1.79941 3.59241C0.798157 4.92677 0.188133 6.51352 0.0376519 8.17496C0.0279644 8.27941 0.0401387 8.38472 0.0733991 8.4842C0.106659 8.58368 0.160277 8.67514 0.230834 8.75275C0.301392 8.83037 0.387343 8.89243 0.483211 8.93499C0.579078 8.97756 0.682761 8.99968 0.787652 8.99996C0.971093 9.0023 1.1488 8.93609 1.286 8.8143C1.42319 8.6925 1.50999 8.52389 1.5294 8.34146C1.69636 6.47452 2.55538 4.73749 3.93771 3.47159C5.32004 2.20569 7.12576 1.50243 9.00015 1.49996Z" fill="#155DFC"/>
<path d="M17.2133 9.00018C17.0298 8.99784 16.8521 9.06405 16.7149 9.18585C16.5777 9.30764 16.4909 9.47626 16.4715 9.65868C16.3475 11.0861 15.8167 12.448 14.942 13.5828C14.0673 14.7177 12.8854 15.5778 11.5366 16.0611C10.1878 16.5445 8.72865 16.6308 7.33226 16.3098C5.93588 15.9888 4.66087 15.274 3.6585 14.2502H6C6.19891 14.2502 6.38968 14.1712 6.53033 14.0305C6.67098 13.8899 6.75 13.6991 6.75 13.4002C6.75 13.3013 6.67098 13.1105 6.53033 12.9699C6.38968 12.8292 6.19891 12.7502 6 12.7502H2.89275C2.70982 12.7501 2.52867 12.7861 2.35965 12.856C2.19063 12.926 2.03706 13.0286 1.90771 13.1579C1.77836 13.2872 1.67577 13.4408 1.60582 13.6098C1.53586 13.7789 1.4999 13.96 1.5 14.1429V17.2502C1.5 17.4491 1.57902 17.6399 1.71967 17.7805C1.86032 17.9212 2.05109 18.0002 2.25 18.0002C2.44891 18.0002 2.63968 17.9212 2.78033 17.7805C2.92098 17.6399 3 17.4491 3 17.2502V15.6917C4.23962 16.8081 5.76556 17.5574 7.40693 17.8556C9.04829 18.1539 10.7403 17.9893 12.2934 17.3804C13.8465 16.7714 15.1995 15.7421 16.2007 14.4078C17.202 13.0734 17.812 11.4866 17.9625 9.82518C17.9722 9.72074 17.96 9.61542 17.9268 9.51595C17.8935 9.41647 17.8399 9.32501 17.7693 9.24739C17.6988 9.16978 17.6128 9.10772 17.5169 9.06515C17.4211 9.02259 17.3174 9.00046 17.2125 9.00018H17.2133Z" fill="#155DFC"/>
</g>
<defs>
<clipPath id="clip0_27_148">
<rect width="18" height="18" fill="white"/>
</clipPath>
</defs>
</svg>
