<svg width="49" height="11" viewBox="0 0 49 11" fill="none" xmlns="http://www.w3.org/2000/svg">
<path d="M0.000213914 9.88794V0.133295H1.76729V4.26282H6.28739V0.133295H8.05923V9.88794H6.28739V5.74412H1.76729V9.88794H0.000213914ZM9.83702 0.133295H11.9994L14.8953 7.2016H15.0096L17.9056 0.133295H20.068V9.88794H18.3723V3.18638H18.2818L15.586 9.85936H14.319L11.6231 3.1721H11.5327V9.88794H9.83702V0.133295ZM27.1494 2.81487C27.1049 2.3989 26.9176 2.07502 26.5873 1.84322C26.2603 1.61142 25.8348 1.49552 25.3108 1.49552C24.9425 1.49552 24.6266 1.55108 24.363 1.66222C24.0995 1.77336 23.8978 1.92419 23.7581 2.11471C23.6184 2.30523 23.5469 2.52274 23.5438 2.76724C23.5438 2.97046 23.5898 3.14669 23.6819 3.29593C23.7772 3.44517 23.9058 3.57219 24.0677 3.67697C24.2296 3.77859 24.4091 3.86432 24.6059 3.93418C24.8028 4.00403 25.0013 4.06278 25.2013 4.11041L26.1158 4.33903C26.4841 4.42477 26.8382 4.54067 27.1779 4.68673C27.5209 4.8328 27.8273 5.01697 28.0972 5.23924C28.3703 5.46152 28.5862 5.72983 28.745 6.04419C28.9037 6.35855 28.9831 6.72689 28.9831 7.14921C28.9831 7.72077 28.8371 8.22406 28.5449 8.65908C28.2528 9.09093 27.8305 9.4291 27.278 9.6736C26.7286 9.91493 26.0634 10.0356 25.2823 10.0356C24.5234 10.0356 23.8645 9.91811 23.3056 9.68313C22.7499 9.44815 22.3149 9.10522 22.0006 8.65432C21.6894 8.20342 21.5211 7.65409 21.4957 7.00632H23.2342C23.2596 7.34608 23.3644 7.62869 23.5485 7.85413C23.7327 8.07958 23.9724 8.24788 24.2678 8.35901C24.5662 8.47015 24.8996 8.52572 25.268 8.52572C25.6522 8.52572 25.9888 8.46856 26.2777 8.35425C26.5699 8.23676 26.7985 8.07482 26.9636 7.86842C27.1287 7.65885 27.2129 7.41435 27.2161 7.13492C27.2129 6.88089 27.1383 6.67132 26.9922 6.5062C26.8461 6.33791 26.6413 6.19819 26.3778 6.08706C26.1174 5.97275 25.8126 5.87113 25.4633 5.78222L24.3535 5.49644C23.5501 5.29005 22.9151 4.97728 22.4483 4.55813C21.9847 4.13581 21.7529 3.57536 21.7529 2.87679C21.7529 2.30205 21.9085 1.79876 22.2197 1.36691C22.534 0.935068 22.9611 0.60007 23.5009 0.361919C24.0407 0.120593 24.652 -6.94072e-05 25.3347 -6.94072e-05C26.0269 -6.94072e-05 26.6334 0.120593 27.1541 0.361919C27.6781 0.60007 28.0893 0.931893 28.3878 1.35739C28.6862 1.77971 28.8402 2.26554 28.8498 2.81487H27.1494ZM34.7726 4.30093V5.72031H30.3811V4.30093H34.7726ZM38.2853 0.133295V9.88794H36.5182V0.133295H38.2853ZM43.3603 9.88794H40.0547V0.133295H43.427C44.3954 0.133295 45.2274 0.328578 45.9228 0.719145C46.6213 1.10654 47.158 1.66381 47.5327 2.39096C47.9074 3.11811 48.0947 3.98816 48.0947 5.00109C48.0947 6.0172 47.9058 6.89042 47.5279 7.62075C47.1532 8.35107 46.6118 8.91152 45.9037 9.30209C45.1988 9.69266 44.351 9.88794 43.3603 9.88794ZM41.8218 8.35901H43.2745C43.9541 8.35901 44.5209 8.23517 44.9749 7.9875C45.429 7.73665 45.7704 7.36354 45.999 6.86819C46.2276 6.36966 46.3419 5.7473 46.3419 5.00109C46.3419 4.25489 46.2276 3.63569 45.999 3.14352C45.7704 2.64816 45.4322 2.27824 44.9845 2.03374C44.5399 1.78606 43.9874 1.66222 43.3269 1.66222H41.8218V8.35901Z" fill="url(#paint0_linear_445_542)"/>
<defs>
<linearGradient id="paint0_linear_445_542" x1="24.0381" y1="-4.11206" x2="24.0381" y2="15.8879" gradientUnits="userSpaceOnUse">
<stop stop-color="white"/>
<stop offset="1" stop-color="#999999"/>
</linearGradient>
</defs>
</svg>
