<svg width="340" height="35" viewBox="0 0 340 35" fill="none" xmlns="http://www.w3.org/2000/svg">
<path d="M-0.000224375 12.0505V0.651257H2.40988V5.6774H2.56016L6.66234 0.651257H9.55113L5.32092 5.75533L9.60122 12.0505H6.718L3.59545 7.36392L2.40988 8.81109V12.0505H-0.000224375ZM10.7617 12.0505V3.50108H13.0605V4.99278H13.1496C13.3054 4.46215 13.567 4.06139 13.9344 3.79051C14.3018 3.51592 14.7248 3.37862 15.2035 3.37862C15.3222 3.37862 15.4502 3.38605 15.5875 3.40089C15.7248 3.41573 15.8454 3.43614 15.9493 3.46211V5.56608C15.838 5.53269 15.684 5.503 15.4873 5.47703C15.2907 5.45105 15.1107 5.43806 14.9474 5.43806C14.5986 5.43806 14.2869 5.51413 14.0123 5.66627C13.7414 5.8147 13.5262 6.0225 13.3667 6.28967C13.2108 6.55684 13.1329 6.86483 13.1329 7.21364V12.0505H10.7617ZM17.1752 12.0505V3.50108H19.5464V12.0505H17.1752ZM18.3664 2.399C18.0138 2.399 17.7114 2.28211 17.4591 2.04834C17.2105 1.81085 17.0862 1.52698 17.0862 1.19673C17.0862 0.870189 17.2105 0.590031 17.4591 0.356257C17.7114 0.118771 18.0138 2.86368e-05 18.3664 2.86368e-05C18.7189 2.86368e-05 19.0194 0.118771 19.2681 0.356257C19.5204 0.590031 19.6466 0.870189 19.6466 1.19673C19.6466 1.52698 19.5204 1.81085 19.2681 2.04834C19.0194 2.28211 18.7189 2.399 18.3664 2.399ZM28.5592 5.93901L26.3884 6.07259C26.3513 5.88706 26.2716 5.72008 26.1491 5.57165C26.0266 5.41951 25.8652 5.29891 25.6649 5.20986C25.4682 5.11709 25.2326 5.0707 24.958 5.0707C24.5906 5.0707 24.2808 5.14863 24.0284 5.30448C23.7761 5.45662 23.6499 5.66071 23.6499 5.91674C23.6499 6.12083 23.7316 6.29338 23.8948 6.43439C24.0581 6.57539 24.3383 6.68857 24.7353 6.77392L26.2827 7.08562C27.1139 7.25631 27.7336 7.5309 28.1417 7.90939C28.5499 8.28788 28.754 8.78512 28.754 9.4011C28.754 9.96141 28.5889 10.4531 28.2586 10.8761C27.9321 11.2991 27.4831 11.6294 26.9116 11.8669C26.3439 12.1006 25.689 12.2175 24.9468 12.2175C23.8151 12.2175 22.9134 11.9819 22.2417 11.5106C21.5738 11.0357 21.1823 10.39 21.0673 9.57364L23.3995 9.45119C23.47 9.79629 23.6407 10.0597 23.9115 10.2416C24.1824 10.4197 24.5294 10.5087 24.9524 10.5087C25.368 10.5087 25.702 10.429 25.9543 10.2694C26.2103 10.1061 26.3402 9.89647 26.3439 9.64044C26.3402 9.42521 26.2493 9.24896 26.0712 9.11166C25.8931 8.97065 25.6185 8.86304 25.2474 8.78883L23.7668 8.49383C22.9319 8.32685 22.3104 8.03741 21.9022 7.62552C21.4977 7.21364 21.2955 6.68857 21.2955 6.05033C21.2955 5.50115 21.4439 5.02803 21.7408 4.63099C22.0414 4.23394 22.4625 3.92781 23.0043 3.71259C23.5498 3.49737 24.188 3.38976 24.919 3.38976C25.9988 3.38976 26.8486 3.61796 27.4683 4.07438C28.0917 4.5308 28.4553 5.15234 28.5592 5.93901ZM34.7946 3.50108V5.28221H29.646V3.50108H34.7946ZM30.8148 1.45277H33.186V9.42336C33.186 9.64229 33.2194 9.81298 33.2862 9.93544C33.353 10.0542 33.4457 10.1377 33.5645 10.1859C33.6869 10.2341 33.8279 10.2583 33.9875 10.2583C34.0988 10.2583 34.2101 10.249 34.3215 10.2304C34.4328 10.2082 34.5181 10.1915 34.5775 10.1803L34.9504 11.9448C34.8317 11.9819 34.6647 12.0246 34.4495 12.0728C34.2343 12.1248 33.9727 12.1563 33.6647 12.1674C33.0932 12.1897 32.5923 12.1136 32.1618 11.9392C31.7351 11.7648 31.403 11.4939 31.1655 11.1266C30.928 10.7592 30.8111 10.2954 30.8148 9.73506V1.45277ZM41.8217 8.41034V3.50108H44.1929V12.0505H41.9163V10.4976H41.8273C41.6343 10.9986 41.3134 11.4012 40.8644 11.7054C40.4191 12.0097 39.8755 12.1619 39.2335 12.1619C38.6621 12.1619 38.1593 12.032 37.7251 11.7722C37.2909 11.5125 36.9514 11.1433 36.7065 10.6646C36.4653 10.1859 36.3429 9.61261 36.3392 8.94468V3.50108H38.7103V8.52166C38.714 9.02631 38.8494 9.42521 39.1166 9.71836C39.3838 10.0115 39.7419 10.1581 40.1909 10.1581C40.4766 10.1581 40.7438 10.0931 40.9924 9.96327C41.241 9.82968 41.4414 9.63301 41.5935 9.37326C41.7494 9.11352 41.8254 8.79254 41.8217 8.41034ZM54.3259 0.651257H56.7081V8.59958C56.7081 9.3343 56.543 9.97254 56.2127 10.5143C55.8862 11.0561 55.4316 11.4735 54.8491 11.7667C54.2665 12.0598 53.5893 12.2064 52.8175 12.2064C52.131 12.2064 51.5076 12.0858 50.9473 11.8446C50.3907 11.5997 49.9491 11.2286 49.6225 10.7314C49.296 10.2304 49.1346 9.60147 49.1383 8.84449H51.5373C51.5447 9.14506 51.6059 9.40295 51.7209 9.61817C51.8397 9.82968 52.0011 9.99295 52.2052 10.108C52.413 10.2193 52.6579 10.275 52.9399 10.275C53.2368 10.275 53.4872 10.2119 53.6913 10.0857C53.8991 9.95585 54.0568 9.7666 54.1644 9.51798C54.2721 9.26937 54.3259 8.96323 54.3259 8.59958V0.651257ZM61.0942 12.212C60.5487 12.212 60.0626 12.1173 59.6359 11.9281C59.2091 11.7351 58.8715 11.4513 58.6229 11.0765C58.3779 10.698 58.2555 10.2267 58.2555 9.6627C58.2555 9.18773 58.3427 8.78883 58.5171 8.466C58.6915 8.14317 58.929 7.88342 59.2296 7.68675C59.5301 7.49008 59.8715 7.34165 60.2537 7.24147C60.6396 7.14128 61.0441 7.07077 61.4671 7.02996C61.9643 6.97801 62.3651 6.92977 62.6694 6.88524C62.9737 6.837 63.1944 6.7665 63.3317 6.67373C63.469 6.58096 63.5377 6.44366 63.5377 6.26184V6.22844C63.5377 5.87593 63.4264 5.60319 63.2037 5.41023C62.9848 5.21728 62.6731 5.1208 62.2686 5.1208C61.8419 5.1208 61.5024 5.21542 61.25 5.40467C60.9977 5.5902 60.8307 5.82398 60.7491 6.10599L58.5561 5.92788C58.6674 5.40838 58.8863 4.95938 59.2129 4.58089C59.5394 4.19869 59.9606 3.90554 60.4763 3.70145C60.9958 3.49366 61.597 3.38976 62.2797 3.38976C62.7547 3.38976 63.2093 3.44542 63.6434 3.55674C64.0813 3.66806 64.4691 3.84061 64.8067 4.07438C65.1481 4.30816 65.4171 4.60872 65.6138 4.97608C65.8105 5.33973 65.9088 5.77574 65.9088 6.2841V12.0505H63.6601V10.865H63.5933C63.456 11.1321 63.2724 11.3678 63.0423 11.5719C62.8122 11.7722 62.5358 11.9299 62.213 12.045C61.8901 12.1563 61.5172 12.212 61.0942 12.212ZM61.7732 10.5755C62.122 10.5755 62.43 10.5069 62.6972 10.3696C62.9644 10.2286 63.174 10.0393 63.3262 9.80185C63.4783 9.56437 63.5544 9.29534 63.5544 8.99477V8.08751C63.4802 8.13575 63.3781 8.18027 63.2482 8.22109C63.1221 8.2582 62.9792 8.29345 62.8197 8.32685C62.6601 8.35653 62.5005 8.38436 62.341 8.41034C62.1814 8.4326 62.0367 8.45301 61.9068 8.47156C61.6285 8.51238 61.3855 8.57732 61.1777 8.66638C60.9699 8.75543 60.8085 8.87603 60.6934 9.02817C60.5784 9.1766 60.5209 9.36213 60.5209 9.58477C60.5209 9.90761 60.6378 10.1544 60.8715 10.3251C61.109 10.492 61.4096 10.5755 61.7732 10.5755ZM68.9061 15.2566C68.6056 15.2566 68.3236 15.2325 68.0601 15.1842C67.8004 15.1397 67.5851 15.0822 67.4144 15.0117L67.9488 13.2417C68.2271 13.327 68.4776 13.3734 68.7002 13.3808C68.9266 13.3882 69.1214 13.3363 69.2846 13.225C69.4516 13.1137 69.5871 12.9244 69.691 12.6572L69.8301 12.2954L66.7632 3.50108H69.2568L71.0268 9.77959H71.1159L72.9026 3.50108H75.4129L72.0899 12.9745C71.9304 13.4346 71.7133 13.8354 71.4387 14.1768C71.1678 14.5219 70.8246 14.7872 70.409 14.9727C69.9934 15.162 69.4924 15.2566 68.9061 15.2566ZM78.8346 12.212C78.2891 12.212 77.803 12.1173 77.3763 11.9281C76.9495 11.7351 76.6119 11.4513 76.3633 11.0765C76.1184 10.698 75.9959 10.2267 75.9959 9.6627C75.9959 9.18773 76.0831 8.78883 76.2575 8.466C76.4319 8.14317 76.6694 7.88342 76.97 7.68675C77.2705 7.49008 77.6119 7.34165 77.9941 7.24147C78.38 7.14128 78.7845 7.07077 79.2075 7.02996C79.7047 6.97801 80.1055 6.92977 80.4098 6.88524C80.7141 6.837 80.9348 6.7665 81.0721 6.67373C81.2094 6.58096 81.2781 6.44366 81.2781 6.26184V6.22844C81.2781 5.87593 81.1668 5.60319 80.9441 5.41023C80.7252 5.21728 80.4135 5.1208 80.009 5.1208C79.5823 5.1208 79.2428 5.21542 78.9904 5.40467C78.7381 5.5902 78.5711 5.82398 78.4895 6.10599L76.2965 5.92788C76.4078 5.40838 76.6267 4.95938 76.9533 4.58089C77.2798 4.19869 77.701 3.90554 78.2168 3.70145C78.7363 3.49366 79.3374 3.38976 80.0202 3.38976C80.4951 3.38976 80.9497 3.44542 81.3838 3.55674C81.8217 3.66806 82.2095 3.84061 82.5471 4.07438C82.8885 4.30816 83.1576 4.60872 83.3542 4.97608C83.5509 5.33973 83.6492 5.77574 83.6492 6.2841V12.0505H81.4005V10.865H81.3337C81.1964 11.1321 81.0128 11.3678 80.7827 11.5719C80.5526 11.7722 80.2762 11.9299 79.9534 12.045C79.6305 12.1563 79.2576 12.212 78.8346 12.212ZM79.5136 10.5755C79.8625 10.5755 80.1704 10.5069 80.4376 10.3696C80.7048 10.2286 80.9144 10.0393 81.0666 9.80185C81.2187 9.56437 81.2948 9.29534 81.2948 8.99477V8.08751C81.2206 8.13575 81.1185 8.18027 80.9886 8.22109C80.8625 8.2582 80.7196 8.29345 80.5601 8.32685C80.4005 8.35653 80.2409 8.38436 80.0814 8.41034C79.9218 8.4326 79.7771 8.45301 79.6472 8.47156C79.3689 8.51238 79.1259 8.57732 78.9181 8.66638C78.7103 8.75543 78.5489 8.87603 78.4338 9.02817C78.3188 9.1766 78.2613 9.36213 78.2613 9.58477C78.2613 9.90761 78.3782 10.1544 78.6119 10.3251C78.8494 10.492 79.15 10.5755 79.5136 10.5755ZM87.8599 7.10788V12.0505H85.4888V3.50108H87.7486V5.00948H87.8488C88.0381 4.51224 88.3553 4.11891 88.8006 3.82947C89.2459 3.53633 89.7858 3.38976 90.4203 3.38976C91.014 3.38976 91.5317 3.51963 91.9733 3.77938C92.4148 4.03913 92.7581 4.4102 93.003 4.89259C93.2479 5.37127 93.3703 5.94272 93.3703 6.60694V12.0505H90.9992V7.02996C91.0029 6.50675 90.8693 6.09857 90.5984 5.80542C90.3276 5.50857 89.9546 5.36014 89.4797 5.36014C89.1605 5.36014 88.8785 5.42879 88.6336 5.56608C88.3924 5.70338 88.2032 5.90376 88.0659 6.16722C87.9323 6.42697 87.8637 6.74052 87.8599 7.10788ZM99.7866 3.50108V5.28221H94.638V3.50108H99.7866ZM95.8069 1.45277H98.178V9.42336C98.178 9.64229 98.2114 9.81298 98.2782 9.93544C98.345 10.0542 98.4378 10.1377 98.5565 10.1859C98.679 10.2341 98.82 10.2583 98.9795 10.2583C99.0909 10.2583 99.2022 10.249 99.3135 10.2304C99.4248 10.2082 99.5102 10.1915 99.5695 10.1803L99.9425 11.9448C99.8237 11.9819 99.6567 12.0246 99.4415 12.0728C99.2263 12.1248 98.9647 12.1563 98.6567 12.1674C98.0853 12.1897 97.5843 12.1136 97.1539 11.9392C96.7271 11.7648 96.395 11.4939 96.1575 11.1266C95.9201 10.7592 95.8032 10.2954 95.8069 9.73506V1.45277ZM101.331 12.0505V3.50108H103.702V12.0505H101.331ZM102.522 2.399C102.17 2.399 101.867 2.28211 101.615 2.04834C101.366 1.81085 101.242 1.52698 101.242 1.19673C101.242 0.870189 101.366 0.590031 101.615 0.356257C101.867 0.118771 102.17 2.86368e-05 102.522 2.86368e-05C102.875 2.86368e-05 103.175 0.118771 103.424 0.356257C103.676 0.590031 103.803 0.870189 103.803 1.19673C103.803 1.52698 103.676 1.81085 103.424 2.04834C103.175 2.28211 102.875 2.399 102.522 2.399ZM115.458 3.92966C115.413 3.48067 115.222 3.13186 114.885 2.88325C114.547 2.63463 114.089 2.51032 113.51 2.51032C113.116 2.51032 112.784 2.56598 112.513 2.6773C112.243 2.78491 112.035 2.9352 111.89 3.12815C111.749 3.32111 111.678 3.54004 111.678 3.78495C111.671 3.98903 111.714 4.16715 111.807 4.31929C111.903 4.47143 112.035 4.60316 112.202 4.71448C112.369 4.82209 112.562 4.91671 112.781 4.99835C112.999 5.07627 113.233 5.14306 113.482 5.19872L114.506 5.44363C115.003 5.55495 115.46 5.70338 115.875 5.88891C116.291 6.07445 116.651 6.30266 116.955 6.57354C117.259 6.84442 117.495 7.16354 117.662 7.5309C117.833 7.89826 117.92 8.31943 117.924 8.7944C117.92 9.49201 117.742 10.0969 117.389 10.6089C117.04 11.1173 116.536 11.5125 115.875 11.7945C115.218 12.0728 114.426 12.212 113.499 12.212C112.578 12.212 111.777 12.0709 111.094 11.7889C110.415 11.5069 109.884 11.0895 109.502 10.5366C109.124 9.97996 108.925 9.29163 108.907 8.47156H111.239C111.265 8.85377 111.374 9.17289 111.567 9.42893C111.764 9.68125 112.025 9.87235 112.352 10.0022C112.682 10.1284 113.055 10.1915 113.471 10.1915C113.879 10.1915 114.233 10.1321 114.534 10.0134C114.838 9.89462 115.074 9.72949 115.241 9.51798C115.408 9.30647 115.491 9.06342 115.491 8.78883C115.491 8.53279 115.415 8.31757 115.263 8.14317C115.115 7.96876 114.896 7.82034 114.606 7.69788C114.321 7.57543 113.97 7.46411 113.554 7.36392L112.313 7.05222C111.352 6.81845 110.593 6.45294 110.036 5.95571C109.48 5.45847 109.203 4.78869 109.207 3.94636C109.203 3.25617 109.387 2.65318 109.758 2.13739C110.133 1.62161 110.647 1.219 111.3 0.92956C111.953 0.640125 112.695 0.495408 113.526 0.495408C114.372 0.495408 115.111 0.640125 115.742 0.92956C116.376 1.219 116.87 1.62161 117.222 2.13739C117.575 2.65318 117.757 3.2506 117.768 3.92966H115.458ZM123.363 12.2175C122.498 12.2175 121.751 12.0338 121.12 11.6665C120.493 11.2954 120.009 10.7796 119.667 10.1191C119.326 9.4549 119.155 8.68493 119.155 7.8092C119.155 6.92606 119.326 6.15423 119.667 5.49372C120.009 4.82951 120.493 4.31372 121.12 3.94636C121.751 3.57529 122.498 3.38976 123.363 3.38976C124.228 3.38976 124.973 3.57529 125.601 3.94636C126.231 4.31372 126.718 4.82951 127.059 5.49372C127.4 6.15423 127.571 6.92606 127.571 7.8092C127.571 8.68493 127.4 9.4549 127.059 10.1191C126.718 10.7796 126.231 11.2954 125.601 11.6665C124.973 12.0338 124.228 12.2175 123.363 12.2175ZM123.374 10.3807C123.767 10.3807 124.096 10.2694 124.359 10.0468C124.623 9.8204 124.821 9.51242 124.955 9.12279C125.092 8.73317 125.161 8.28974 125.161 7.79251C125.161 7.29527 125.092 6.85184 124.955 6.46222C124.821 6.07259 124.623 5.76461 124.359 5.53825C124.096 5.3119 123.767 5.19872 123.374 5.19872C122.977 5.19872 122.643 5.3119 122.372 5.53825C122.105 5.76461 121.903 6.07259 121.766 6.46222C121.632 6.85184 121.565 7.29527 121.565 7.79251C121.565 8.28974 121.632 8.73317 121.766 9.12279C121.903 9.51242 122.105 9.8204 122.372 10.0468C122.643 10.2694 122.977 10.3807 123.374 10.3807ZM133.71 3.50108V5.28221H128.434V3.50108H133.71ZM129.642 12.0505V2.88325C129.642 2.26356 129.762 1.74962 130.003 1.34145C130.248 0.93327 130.582 0.627137 131.005 0.423049C131.428 0.21896 131.909 0.116916 132.447 0.116916C132.81 0.116916 133.143 0.144746 133.443 0.200407C133.747 0.256067 133.974 0.306162 134.122 0.35069L133.699 2.13183C133.606 2.10214 133.491 2.07431 133.354 2.04834C133.221 2.02236 133.083 2.00937 132.942 2.00937C132.593 2.00937 132.35 2.09101 132.213 2.25428C132.076 2.41384 132.007 2.63834 132.007 2.92777V12.0505H129.642ZM139.706 3.50108V5.28221H134.558V3.50108H139.706ZM135.727 1.45277H138.098V9.42336C138.098 9.64229 138.131 9.81298 138.198 9.93544C138.265 10.0542 138.358 10.1377 138.476 10.1859C138.599 10.2341 138.74 10.2583 138.899 10.2583C139.011 10.2583 139.122 10.249 139.233 10.2304C139.345 10.2082 139.43 10.1915 139.489 10.1803L139.862 11.9448C139.743 11.9819 139.576 12.0246 139.361 12.0728C139.146 12.1248 138.884 12.1563 138.576 12.1674C138.005 12.1897 137.504 12.1136 137.074 11.9392C136.647 11.7648 136.315 11.4939 136.077 11.1266C135.84 10.7592 135.723 10.2954 135.727 9.73506V1.45277ZM142.937 12.0505L140.611 3.50108H143.01L144.335 9.24525H144.412L145.793 3.50108H148.147L149.55 9.21185H149.622L150.925 3.50108H153.318L150.997 12.0505H148.487L147.017 6.67373H146.912L145.442 12.0505H142.937ZM157.021 12.212C156.475 12.212 155.989 12.1173 155.563 11.9281C155.136 11.7351 154.798 11.4513 154.55 11.0765C154.305 10.698 154.182 10.2267 154.182 9.6627C154.182 9.18773 154.269 8.78883 154.444 8.466C154.618 8.14317 154.856 7.88342 155.156 7.68675C155.457 7.49008 155.798 7.34165 156.18 7.24147C156.566 7.14128 156.971 7.07077 157.394 7.02996C157.891 6.97801 158.292 6.92977 158.596 6.88524C158.9 6.837 159.121 6.7665 159.259 6.67373C159.396 6.58096 159.464 6.44366 159.464 6.26184V6.22844C159.464 5.87593 159.353 5.60319 159.13 5.41023C158.912 5.21728 158.6 5.1208 158.195 5.1208C157.769 5.1208 157.429 5.21542 157.177 5.40467C156.924 5.5902 156.757 5.82398 156.676 6.10599L154.483 5.92788C154.594 5.40838 154.813 4.95938 155.14 4.58089C155.466 4.19869 155.887 3.90554 156.403 3.70145C156.923 3.49366 157.524 3.38976 158.207 3.38976C158.681 3.38976 159.136 3.44542 159.57 3.55674C160.008 3.66806 160.396 3.84061 160.734 4.07438C161.075 4.30816 161.344 4.60872 161.541 4.97608C161.737 5.33973 161.836 5.77574 161.836 6.2841V12.0505H159.587V10.865H159.52C159.383 11.1321 159.199 11.3678 158.969 11.5719C158.739 11.7722 158.463 11.9299 158.14 12.045C157.817 12.1563 157.444 12.212 157.021 12.212ZM157.7 10.5755C158.049 10.5755 158.357 10.5069 158.624 10.3696C158.891 10.2286 159.101 10.0393 159.253 9.80185C159.405 9.56437 159.481 9.29534 159.481 8.99477V8.08751C159.407 8.13575 159.305 8.18027 159.175 8.22109C159.049 8.2582 158.906 8.29345 158.746 8.32685C158.587 8.35653 158.427 8.38436 158.268 8.41034C158.108 8.4326 157.963 8.45301 157.834 8.47156C157.555 8.51238 157.312 8.57732 157.104 8.66638C156.897 8.75543 156.735 8.87603 156.62 9.02817C156.505 9.1766 156.448 9.36213 156.448 9.58477C156.448 9.90761 156.565 10.1544 156.798 10.3251C157.036 10.492 157.336 10.5755 157.7 10.5755ZM163.675 12.0505V3.50108H165.974V4.99278H166.063C166.219 4.46215 166.48 4.06139 166.848 3.79051C167.215 3.51592 167.638 3.37862 168.117 3.37862C168.236 3.37862 168.364 3.38605 168.501 3.40089C168.638 3.41573 168.759 3.43614 168.863 3.46211V5.56608C168.751 5.53269 168.597 5.503 168.401 5.47703C168.204 5.45105 168.024 5.43806 167.861 5.43806C167.512 5.43806 167.2 5.51413 166.926 5.66627C166.655 5.8147 166.44 6.0225 166.28 6.28967C166.124 6.55684 166.046 6.86483 166.046 7.21364V12.0505H163.675ZM173.587 12.2175C172.707 12.2175 171.951 12.0394 171.316 11.6832C170.685 11.3232 170.199 10.8149 169.858 10.1581C169.516 9.49757 169.346 8.71647 169.346 7.81477C169.346 6.93533 169.516 6.16351 169.858 5.49929C170.199 4.83508 170.68 4.31743 171.299 3.94636C171.923 3.57529 172.654 3.38976 173.492 3.38976C174.056 3.38976 174.581 3.48067 175.067 3.66249C175.557 3.84061 175.984 4.10963 176.348 4.46957C176.715 4.82951 177.001 5.28221 177.205 5.82769C177.409 6.36945 177.511 7.00398 177.511 7.73128V8.38251H170.292V6.91307H175.279C175.279 6.57168 175.205 6.26926 175.056 6.0058C174.908 5.74234 174.702 5.5364 174.439 5.38797C174.179 5.23583 173.876 5.15976 173.531 5.15976C173.171 5.15976 172.852 5.24325 172.574 5.41023C172.299 5.5735 172.084 5.79429 171.928 6.07259C171.772 6.34719 171.693 6.65332 171.689 6.99099V8.38807C171.689 8.81109 171.767 9.1766 171.923 9.48459C172.082 9.79257 172.307 10.0301 172.596 10.197C172.886 10.364 173.229 10.4475 173.626 10.4475C173.889 10.4475 174.131 10.4104 174.349 10.3362C174.568 10.262 174.756 10.1507 174.912 10.0022C175.067 9.8538 175.186 9.67198 175.268 9.45676L177.461 9.60147C177.35 10.1284 177.121 10.5885 176.776 10.9819C176.435 11.3715 175.993 11.6758 175.452 11.8947C174.914 12.1099 174.292 12.2175 173.587 12.2175ZM186.772 12.0505H182.731V0.651257H186.805C187.952 0.651257 188.939 0.879466 189.766 1.33588C190.594 1.78859 191.23 2.43982 191.675 3.28957C192.124 4.13932 192.349 5.15605 192.349 6.33977C192.349 7.52719 192.124 8.54763 191.675 9.4011C191.23 10.2546 190.59 10.9095 189.755 11.3659C188.924 11.8223 187.929 12.0505 186.772 12.0505ZM185.141 9.98553H186.671C187.384 9.98553 187.983 9.85937 188.469 9.60704C188.959 9.351 189.326 8.95581 189.571 8.42147C189.82 7.88342 189.944 7.18952 189.944 6.33977C189.944 5.49744 189.82 4.8091 189.571 4.27476C189.326 3.74042 188.961 3.34708 188.475 3.09475C187.989 2.84243 187.389 2.71626 186.677 2.71626H185.141V9.98553ZM197.986 12.2175C197.106 12.2175 196.349 12.0394 195.715 11.6832C195.084 11.3232 194.598 10.8149 194.256 10.1581C193.915 9.49757 193.744 8.71647 193.744 7.81477C193.744 6.93533 193.915 6.16351 194.256 5.49929C194.598 4.83508 195.078 4.31743 195.698 3.94636C196.321 3.57529 197.052 3.38976 197.891 3.38976C198.455 3.38976 198.98 3.48067 199.466 3.66249C199.956 3.84061 200.383 4.10963 200.746 4.46957C201.114 4.82951 201.4 5.28221 201.604 5.82769C201.808 6.36945 201.91 7.00398 201.91 7.73128V8.38251H194.691V6.91307H199.678C199.678 6.57168 199.604 6.26926 199.455 6.0058C199.307 5.74234 199.101 5.5364 198.837 5.38797C198.578 5.23583 198.275 5.15976 197.93 5.15976C197.57 5.15976 197.251 5.24325 196.973 5.41023C196.698 5.5735 196.483 5.79429 196.327 6.07259C196.171 6.34719 196.091 6.65332 196.088 6.99099V8.38807C196.088 8.81109 196.166 9.1766 196.321 9.48459C196.481 9.79257 196.706 10.0301 196.995 10.197C197.284 10.364 197.628 10.4475 198.025 10.4475C198.288 10.4475 198.529 10.4104 198.748 10.3362C198.967 10.262 199.155 10.1507 199.31 10.0022C199.466 9.8538 199.585 9.67198 199.667 9.45676L201.86 9.60147C201.748 10.1284 201.52 10.5885 201.175 10.9819C200.834 11.3715 200.392 11.6758 199.85 11.8947C199.312 12.1099 198.691 12.2175 197.986 12.2175ZM211.198 3.50108L208.209 12.0505H205.537L202.548 3.50108H205.053L206.829 9.61817H206.918L208.688 3.50108H211.198ZM216.032 12.2175C215.153 12.2175 214.396 12.0394 213.761 11.6832C213.131 11.3232 212.644 10.8149 212.303 10.1581C211.962 9.49757 211.791 8.71647 211.791 7.81477C211.791 6.93533 211.962 6.16351 212.303 5.49929C212.644 4.83508 213.125 4.31743 213.745 3.94636C214.368 3.57529 215.099 3.38976 215.938 3.38976C216.502 3.38976 217.027 3.48067 217.513 3.66249C218.003 3.84061 218.429 4.10963 218.793 4.46957C219.16 4.82951 219.446 5.28221 219.65 5.82769C219.854 6.36945 219.956 7.00398 219.956 7.73128V8.38251H212.737V6.91307H217.724C217.724 6.57168 217.65 6.26926 217.502 6.0058C217.353 5.74234 217.147 5.5364 216.884 5.38797C216.624 5.23583 216.322 5.15976 215.977 5.15976C215.617 5.15976 215.298 5.24325 215.019 5.41023C214.745 5.5735 214.529 5.79429 214.374 6.07259C214.218 6.34719 214.138 6.65332 214.134 6.99099V8.38807C214.134 8.81109 214.212 9.1766 214.368 9.48459C214.528 9.79257 214.752 10.0301 215.042 10.197C215.331 10.364 215.674 10.4475 216.071 10.4475C216.335 10.4475 216.576 10.4104 216.795 10.3362C217.014 10.262 217.201 10.1507 217.357 10.0022C217.513 9.8538 217.632 9.67198 217.713 9.45676L219.906 9.60147C219.795 10.1284 219.567 10.5885 219.222 10.9819C218.88 11.3715 218.439 11.6758 217.897 11.8947C217.359 12.1099 216.737 12.2175 216.032 12.2175ZM223.875 0.651257V12.0505H221.504V0.651257H223.875ZM229.637 12.2175C228.772 12.2175 228.025 12.0338 227.394 11.6665C226.767 11.2954 226.283 10.7796 225.941 10.1191C225.6 9.4549 225.429 8.68493 225.429 7.8092C225.429 6.92606 225.6 6.15423 225.941 5.49372C226.283 4.82951 226.767 4.31372 227.394 3.94636C228.025 3.57529 228.772 3.38976 229.637 3.38976C230.502 3.38976 231.248 3.57529 231.875 3.94636C232.505 4.31372 232.992 4.82951 233.333 5.49372C233.674 6.15423 233.845 6.92606 233.845 7.8092C233.845 8.68493 233.674 9.4549 233.333 10.1191C232.992 10.7796 232.505 11.2954 231.875 11.6665C231.248 12.0338 230.502 12.2175 229.637 12.2175ZM229.648 10.3807C230.042 10.3807 230.37 10.2694 230.633 10.0468C230.897 9.8204 231.095 9.51242 231.229 9.12279C231.366 8.73317 231.435 8.28974 231.435 7.79251C231.435 7.29527 231.366 6.85184 231.229 6.46222C231.095 6.07259 230.897 5.76461 230.633 5.53825C230.37 5.3119 230.042 5.19872 229.648 5.19872C229.251 5.19872 228.917 5.3119 228.646 5.53825C228.379 5.76461 228.177 6.07259 228.04 6.46222C227.906 6.85184 227.839 7.29527 227.839 7.79251C227.839 8.28974 227.906 8.73317 228.04 9.12279C228.177 9.51242 228.379 9.8204 228.646 10.0468C228.917 10.2694 229.251 10.3807 229.648 10.3807ZM235.387 15.2566V3.50108H237.725V4.93712H237.83C237.934 4.70706 238.085 4.47328 238.281 4.2358C238.482 3.9946 238.741 3.79422 239.06 3.63466C239.383 3.47139 239.784 3.38976 240.263 3.38976C240.886 3.38976 241.461 3.55303 241.988 3.87957C242.515 4.2024 242.936 4.69036 243.252 5.34344C243.567 5.99281 243.725 6.80731 243.725 7.78694C243.725 8.74059 243.571 9.54581 243.263 10.2026C242.959 10.8557 242.543 11.3511 242.016 11.6887C241.493 12.0227 240.906 12.1897 240.257 12.1897C239.797 12.1897 239.406 12.1136 239.083 11.9615C238.764 11.8093 238.502 11.6182 238.298 11.3882C238.094 11.1544 237.938 10.9188 237.83 10.6813H237.758V15.2566H235.387ZM237.708 7.77581C237.708 8.28417 237.778 8.7276 237.919 9.10609C238.06 9.48459 238.264 9.77959 238.532 9.9911C238.799 10.1989 239.124 10.3028 239.506 10.3028C239.892 10.3028 240.218 10.197 240.485 9.98553C240.753 9.77031 240.955 9.47345 241.092 9.09496C241.233 8.71276 241.304 8.27304 241.304 7.77581C241.304 7.28228 241.235 6.84813 241.098 6.47335C240.96 6.09857 240.758 5.80542 240.491 5.59391C240.224 5.3824 239.895 5.27665 239.506 5.27665C239.12 5.27665 238.793 5.37869 238.526 5.58278C238.263 5.78687 238.06 6.07631 237.919 6.45109C237.778 6.82587 237.708 7.26744 237.708 7.77581ZM245.306 12.0505V3.50108H247.565V5.00948H247.666C247.844 4.50853 248.141 4.11334 248.556 3.82391C248.972 3.53447 249.469 3.38976 250.048 3.38976C250.634 3.38976 251.133 3.53633 251.545 3.82947C251.957 4.11891 252.232 4.51224 252.369 5.00948H252.458C252.632 4.51967 252.948 4.12819 253.404 3.83504C253.864 3.53818 254.408 3.38976 255.035 3.38976C255.833 3.38976 256.48 3.64394 256.978 4.15231C257.479 4.65696 257.729 5.37313 257.729 6.3008V12.0505H255.363V6.76835C255.363 6.29338 255.237 5.93715 254.985 5.69967C254.733 5.46218 254.417 5.34344 254.039 5.34344C253.608 5.34344 253.272 5.48074 253.031 5.75533C252.79 6.02621 252.669 6.38429 252.669 6.82958V12.0505H250.371V6.71826C250.371 6.29895 250.25 5.96498 250.009 5.71637C249.771 5.46775 249.458 5.34344 249.068 5.34344C248.805 5.34344 248.567 5.41023 248.356 5.54382C248.148 5.67369 247.983 5.85737 247.86 6.09486C247.738 6.32863 247.677 6.60323 247.677 6.91863V12.0505H245.306ZM263.498 12.2175C262.619 12.2175 261.862 12.0394 261.227 11.6832C260.596 11.3232 260.11 10.8149 259.769 10.1581C259.428 9.49757 259.257 8.71647 259.257 7.81477C259.257 6.93533 259.428 6.16351 259.769 5.49929C260.11 4.83508 260.591 4.31743 261.211 3.94636C261.834 3.57529 262.565 3.38976 263.404 3.38976C263.968 3.38976 264.493 3.48067 264.979 3.66249C265.469 3.84061 265.895 4.10963 266.259 4.46957C266.626 4.82951 266.912 5.28221 267.116 5.82769C267.32 6.36945 267.422 7.00398 267.422 7.73128V8.38251H260.203V6.91307H265.19C265.19 6.57168 265.116 6.26926 264.968 6.0058C264.819 5.74234 264.613 5.5364 264.35 5.38797C264.09 5.23583 263.788 5.15976 263.443 5.15976C263.083 5.15976 262.763 5.24325 262.485 5.41023C262.211 5.5735 261.995 5.79429 261.839 6.07259C261.684 6.34719 261.604 6.65332 261.6 6.99099V8.38807C261.6 8.81109 261.678 9.1766 261.834 9.48459C261.993 9.79257 262.218 10.0301 262.507 10.197C262.797 10.364 263.14 10.4475 263.537 10.4475C263.801 10.4475 264.042 10.4104 264.261 10.3362C264.48 10.262 264.667 10.1507 264.823 10.0022C264.979 9.8538 265.097 9.67198 265.179 9.45676L267.372 9.60147C267.261 10.1284 267.033 10.5885 266.688 10.9819C266.346 11.3715 265.905 11.6758 265.363 11.8947C264.825 12.1099 264.203 12.2175 263.498 12.2175ZM271.341 7.10788V12.0505H268.97V3.50108H271.229V5.00948H271.33C271.519 4.51224 271.836 4.11891 272.281 3.82947C272.727 3.53633 273.267 3.38976 273.901 3.38976C274.495 3.38976 275.012 3.51963 275.454 3.77938C275.896 4.03913 276.239 4.4102 276.484 4.89259C276.729 5.37127 276.851 5.94272 276.851 6.60694V12.0505H274.48V7.02996C274.484 6.50675 274.35 6.09857 274.079 5.80542C273.808 5.50857 273.435 5.36014 272.96 5.36014C272.641 5.36014 272.359 5.42879 272.114 5.56608C271.873 5.70338 271.684 5.90376 271.547 6.16722C271.413 6.42697 271.344 6.74052 271.341 7.10788ZM283.267 3.50108V5.28221H278.119V3.50108H283.267ZM279.288 1.45277H281.659V9.42336C281.659 9.64229 281.692 9.81298 281.759 9.93544C281.826 10.0542 281.919 10.1377 282.037 10.1859C282.16 10.2341 282.301 10.2583 282.46 10.2583C282.572 10.2583 282.683 10.249 282.794 10.2304C282.906 10.2082 282.991 10.1915 283.05 10.1803L283.423 11.9448C283.305 11.9819 283.138 12.0246 282.922 12.0728C282.707 12.1248 282.446 12.1563 282.138 12.1674C281.566 12.1897 281.065 12.1136 280.635 11.9392C280.208 11.7648 279.876 11.4939 279.638 11.1266C279.401 10.7592 279.284 10.2954 279.288 9.73506V1.45277ZM298.542 4.64212H296.104C296.06 4.32671 295.969 4.04655 295.831 3.80164C295.694 3.55303 295.518 3.34152 295.303 3.16711C295.087 2.99271 294.839 2.85913 294.557 2.76636C294.278 2.67359 293.976 2.62721 293.65 2.62721C293.06 2.62721 292.546 2.77378 292.108 3.06692C291.67 3.35636 291.33 3.77938 291.089 4.33599C290.848 4.88888 290.727 5.56052 290.727 6.3509C290.727 7.16354 290.848 7.84631 291.089 8.39921C291.334 8.9521 291.675 9.36955 292.113 9.65157C292.551 9.93358 293.058 10.0746 293.633 10.0746C293.956 10.0746 294.254 10.0319 294.529 9.94657C294.807 9.86122 295.054 9.73691 295.269 9.57364C295.484 9.40666 295.663 9.20443 295.804 8.96694C295.948 8.72946 296.048 8.45858 296.104 8.1543L298.542 8.16543C298.479 8.68864 298.321 9.1933 298.069 9.6794C297.82 10.1618 297.485 10.5941 297.062 10.9763C296.642 11.3548 296.141 11.6553 295.559 11.878C294.98 12.0969 294.325 12.2064 293.594 12.2064C292.577 12.2064 291.668 11.9763 290.866 11.5162C290.069 11.0561 289.438 10.39 288.974 9.51798C288.514 8.64597 288.284 7.59027 288.284 6.3509C288.284 5.10781 288.518 4.05026 288.985 3.17825C289.453 2.30623 290.087 1.64201 290.889 1.1856C291.69 0.725471 292.592 0.495408 293.594 0.495408C294.254 0.495408 294.867 0.588175 295.431 0.77371C295.998 0.959246 296.501 1.23013 296.939 1.58635C297.377 1.93887 297.733 2.37117 298.008 2.88325C298.286 3.39532 298.464 3.98161 298.542 4.64212ZM304.122 12.2175C303.243 12.2175 302.486 12.0394 301.851 11.6832C301.22 11.3232 300.734 10.8149 300.393 10.1581C300.051 9.49757 299.881 8.71647 299.881 7.81477C299.881 6.93533 300.051 6.16351 300.393 5.49929C300.734 4.83508 301.215 4.31743 301.834 3.94636C302.458 3.57529 303.189 3.38976 304.027 3.38976C304.591 3.38976 305.116 3.48067 305.603 3.66249C306.092 3.84061 306.519 4.10963 306.883 4.46957C307.25 4.82951 307.536 5.28221 307.74 5.82769C307.944 6.36945 308.046 7.00398 308.046 7.73128V8.38251H300.827V6.91307H305.814C305.814 6.57168 305.74 6.26926 305.591 6.0058C305.443 5.74234 305.237 5.5364 304.974 5.38797C304.714 5.23583 304.411 5.15976 304.066 5.15976C303.706 5.15976 303.387 5.24325 303.109 5.41023C302.834 5.5735 302.619 5.79429 302.463 6.07259C302.307 6.34719 302.228 6.65332 302.224 6.99099V8.38807C302.224 8.81109 302.302 9.1766 302.458 9.48459C302.617 9.79257 302.842 10.0301 303.131 10.197C303.421 10.364 303.764 10.4475 304.161 10.4475C304.424 10.4475 304.666 10.4104 304.885 10.3362C305.103 10.262 305.291 10.1507 305.447 10.0022C305.603 9.8538 305.721 9.67198 305.803 9.45676L307.996 9.60147C307.885 10.1284 307.656 10.5885 307.311 10.9819C306.97 11.3715 306.528 11.6758 305.987 11.8947C305.449 12.1099 304.827 12.2175 304.122 12.2175ZM311.965 7.10788V12.0505H309.593V3.50108H311.853V5.00948H311.953C312.143 4.51224 312.46 4.11891 312.905 3.82947C313.351 3.53633 313.89 3.38976 314.525 3.38976C315.119 3.38976 315.636 3.51963 316.078 3.77938C316.519 4.03913 316.863 4.4102 317.108 4.89259C317.353 5.37127 317.475 5.94272 317.475 6.60694V12.0505H315.104V7.02996C315.108 6.50675 314.974 6.09857 314.703 5.80542C314.432 5.50857 314.059 5.36014 313.584 5.36014C313.265 5.36014 312.983 5.42879 312.738 5.56608C312.497 5.70338 312.308 5.90376 312.171 6.16722C312.037 6.42697 311.968 6.74052 311.965 7.10788ZM323.891 3.50108V5.28221H318.743V3.50108H323.891ZM319.912 1.45277H322.283V9.42336C322.283 9.64229 322.316 9.81298 322.383 9.93544C322.45 10.0542 322.542 10.1377 322.661 10.1859C322.784 10.2341 322.925 10.2583 323.084 10.2583C323.196 10.2583 323.307 10.249 323.418 10.2304C323.529 10.2082 323.615 10.1915 323.674 10.1803L324.047 11.9448C323.928 11.9819 323.761 12.0246 323.546 12.0728C323.331 12.1248 323.069 12.1563 322.761 12.1674C322.19 12.1897 321.689 12.1136 321.259 11.9392C320.832 11.7648 320.5 11.4939 320.262 11.1266C320.025 10.7592 319.908 10.2954 319.912 9.73506V1.45277ZM325.436 12.0505V3.50108H327.735V4.99278H327.824C327.98 4.46215 328.241 4.06139 328.609 3.79051C328.976 3.51592 329.399 3.37862 329.878 3.37862C329.996 3.37862 330.124 3.38605 330.262 3.40089C330.399 3.41573 330.52 3.43614 330.623 3.46211V5.56608C330.512 5.53269 330.358 5.503 330.161 5.47703C329.965 5.45105 329.785 5.43806 329.622 5.43806C329.273 5.43806 328.961 5.51413 328.686 5.66627C328.416 5.8147 328.2 6.0225 328.041 6.28967C327.885 6.55684 327.807 6.86483 327.807 7.21364V12.0505H325.436ZM335.348 12.2175C334.468 12.2175 333.711 12.0394 333.077 11.6832C332.446 11.3232 331.96 10.8149 331.618 10.1581C331.277 9.49757 331.106 8.71647 331.106 7.81477C331.106 6.93533 331.277 6.16351 331.618 5.49929C331.96 4.83508 332.44 4.31743 333.06 3.94636C333.683 3.57529 334.414 3.38976 335.253 3.38976C335.817 3.38976 336.342 3.48067 336.828 3.66249C337.318 3.84061 337.745 4.10963 338.108 4.46957C338.476 4.82951 338.761 5.28221 338.966 5.82769C339.17 6.36945 339.272 7.00398 339.272 7.73128V8.38251H332.052V6.91307H337.04C337.04 6.57168 336.965 6.26926 336.817 6.0058C336.669 5.74234 336.463 5.5364 336.199 5.38797C335.939 5.23583 335.637 5.15976 335.292 5.15976C334.932 5.15976 334.613 5.24325 334.335 5.41023C334.06 5.5735 333.845 5.79429 333.689 6.07259C333.533 6.34719 333.453 6.65332 333.45 6.99099V8.38807C333.45 8.81109 333.527 9.1766 333.683 9.48459C333.843 9.79257 334.067 10.0301 334.357 10.197C334.646 10.364 334.99 10.4475 335.387 10.4475C335.65 10.4475 335.891 10.4104 336.11 10.3362C336.329 10.262 336.516 10.1507 336.672 10.0022C336.828 9.8538 336.947 9.67198 337.029 9.45676L339.222 9.60147C339.11 10.1284 338.882 10.5885 338.537 10.9819C338.196 11.3715 337.754 11.6758 337.212 11.8947C336.674 12.1099 336.053 12.2175 335.348 12.2175ZM108.44 31.0505V19.6513H113.004C113.843 19.6513 114.542 19.7756 115.102 20.0242C115.663 20.2728 116.084 20.6179 116.366 21.0595C116.648 21.4973 116.789 22.002 116.789 22.5734C116.789 23.0187 116.7 23.4102 116.522 23.7479C116.344 24.0818 116.099 24.3564 115.787 24.5716C115.479 24.7832 115.126 24.9334 114.729 25.0225V25.1338C115.164 25.1524 115.57 25.2748 115.948 25.5012C116.331 25.7275 116.64 26.0448 116.878 26.453C117.115 26.8574 117.234 27.3398 117.234 27.9002C117.234 28.505 117.084 29.0449 116.783 29.5199C116.486 29.9911 116.047 30.3641 115.464 30.6386C114.882 30.9132 114.164 31.0505 113.31 31.0505H108.44ZM110.85 29.0802H112.815C113.486 29.0802 113.976 28.9521 114.284 28.6961C114.592 28.4363 114.746 28.0913 114.746 27.6608C114.746 27.3454 114.67 27.0671 114.518 26.8259C114.366 26.5847 114.149 26.3955 113.867 26.2582C113.588 26.1209 113.256 26.0522 112.87 26.0522H110.85V29.0802ZM110.85 24.4214H112.637C112.967 24.4214 113.26 24.3639 113.516 24.2488C113.776 24.1301 113.98 23.9631 114.128 23.7479C114.28 23.5327 114.356 23.2748 114.356 22.9742C114.356 22.5623 114.21 22.2302 113.917 21.9779C113.627 21.7255 113.215 21.5994 112.681 21.5994H110.85V24.4214ZM122.654 31.2175C121.775 31.2175 121.018 31.0394 120.383 30.6832C119.752 30.3232 119.266 29.8149 118.925 29.1581C118.583 28.4976 118.413 27.7165 118.413 26.8148C118.413 25.9353 118.583 25.1635 118.925 24.4993C119.266 23.8351 119.747 23.3174 120.366 22.9464C120.99 22.5753 121.721 22.3898 122.559 22.3898C123.123 22.3898 123.649 22.4807 124.135 22.6625C124.624 22.8406 125.051 23.1096 125.415 23.4696C125.782 23.8295 126.068 24.2822 126.272 24.8277C126.476 25.3695 126.578 26.004 126.578 26.7313V27.3825H119.359V25.9131H124.346C124.346 25.5717 124.272 25.2693 124.123 25.0058C123.975 24.7423 123.769 24.5364 123.506 24.388C123.246 24.2358 122.943 24.1598 122.598 24.1598C122.238 24.1598 121.919 24.2433 121.641 24.4102C121.366 24.5735 121.151 24.7943 120.995 25.0726C120.84 25.3472 120.76 25.6533 120.756 25.991V27.3881C120.756 27.8111 120.834 28.1766 120.99 28.4846C121.149 28.7926 121.374 29.0301 121.663 29.197C121.953 29.364 122.296 29.4475 122.693 29.4475C122.956 29.4475 123.198 29.4104 123.417 29.3362C123.636 29.262 123.823 29.1507 123.979 29.0022C124.135 28.8538 124.253 28.672 124.335 28.4568L126.528 28.6015C126.417 29.1284 126.189 29.5885 125.843 29.9819C125.502 30.3715 125.06 30.6758 124.519 30.8947C123.981 31.1099 123.359 31.2175 122.654 31.2175ZM130.497 26.1079V31.0505H128.125V22.5011H130.385V24.0095H130.485C130.675 23.5122 130.992 23.1189 131.437 22.8295C131.883 22.5363 132.422 22.3898 133.057 22.3898C133.651 22.3898 134.168 22.5196 134.61 22.7794C135.052 23.0391 135.395 23.4102 135.64 23.8926C135.885 24.3713 136.007 24.9427 136.007 25.6069V31.0505H133.636V26.03C133.64 25.5067 133.506 25.0986 133.235 24.8054C132.964 24.5086 132.591 24.3601 132.116 24.3601C131.797 24.3601 131.515 24.4288 131.27 24.5661C131.029 24.7034 130.84 24.9038 130.703 25.1672C130.569 25.427 130.5 25.7405 130.497 26.1079ZM141.728 34.4347C140.959 34.4347 140.301 34.3289 139.752 34.1174C139.206 33.9096 138.772 33.6258 138.449 33.2658C138.126 32.9059 137.917 32.5014 137.82 32.0524L140.013 31.7574C140.08 31.9281 140.186 32.0877 140.33 32.2361C140.475 32.3845 140.666 32.5033 140.904 32.5923C141.145 32.6851 141.438 32.7315 141.783 32.7315C142.299 32.7315 142.724 32.6053 143.058 32.353C143.395 32.1044 143.564 31.6869 143.564 31.1006V29.5366H143.464C143.36 29.7741 143.204 29.9986 142.997 30.2101C142.789 30.4216 142.522 30.5941 142.195 30.7277C141.869 30.8613 141.479 30.9281 141.026 30.9281C140.384 30.9281 139.8 30.7797 139.273 30.4828C138.75 30.1822 138.332 29.724 138.021 29.108C137.713 28.4883 137.559 27.7053 137.559 26.7591C137.559 25.7906 137.716 24.9817 138.032 24.3323C138.347 23.6829 138.766 23.1968 139.29 22.874C139.817 22.5512 140.394 22.3898 141.021 22.3898C141.499 22.3898 141.9 22.4714 142.223 22.6347C142.546 22.7942 142.805 22.9946 143.002 23.2358C143.203 23.4733 143.357 23.7071 143.464 23.9371H143.553V22.5011H145.908V31.134C145.908 31.8613 145.73 32.4699 145.373 32.9597C145.017 33.4495 144.524 33.8169 143.893 34.0618C143.266 34.3104 142.544 34.4347 141.728 34.4347ZM141.778 29.1469C142.16 29.1469 142.483 29.0523 142.746 28.8631C143.013 28.6701 143.217 28.3955 143.358 28.0393C143.503 27.6794 143.575 27.2489 143.575 26.748C143.575 26.247 143.505 25.8129 143.364 25.4455C143.223 25.0744 143.019 24.7869 142.752 24.5828C142.485 24.3787 142.16 24.2766 141.778 24.2766C141.388 24.2766 141.06 24.3824 140.792 24.5939C140.525 24.8017 140.323 25.0911 140.186 25.4622C140.048 25.8333 139.98 26.2619 139.98 26.748C139.98 27.2415 140.048 27.6682 140.186 28.0282C140.327 28.3844 140.529 28.6608 140.792 28.8575C141.06 29.0505 141.388 29.1469 141.778 29.1469ZM150.232 31.212C149.687 31.212 149.201 31.1173 148.774 30.9281C148.347 30.7351 148.01 30.4513 147.761 30.0765C147.516 29.698 147.394 29.2267 147.394 28.6627C147.394 28.1877 147.481 27.7888 147.655 27.466C147.83 27.1432 148.067 26.8834 148.368 26.6868C148.668 26.4901 149.01 26.3417 149.392 26.2415C149.778 26.1413 150.182 26.0708 150.605 26.03C151.103 25.978 151.503 25.9298 151.808 25.8852C152.112 25.837 152.333 25.7665 152.47 25.6737C152.607 25.581 152.676 25.4437 152.676 25.2618V25.2284C152.676 24.8759 152.565 24.6032 152.342 24.4102C152.123 24.2173 151.811 24.1208 151.407 24.1208C150.98 24.1208 150.641 24.2154 150.388 24.4047C150.136 24.5902 149.969 24.824 149.887 25.106L147.694 24.9279C147.806 24.4084 148.025 23.9594 148.351 23.5809C148.678 23.1987 149.099 22.9055 149.615 22.7015C150.134 22.4937 150.735 22.3898 151.418 22.3898C151.893 22.3898 152.348 22.4454 152.782 22.5567C153.22 22.6681 153.607 22.8406 153.945 23.0744C154.286 23.3082 154.555 23.6087 154.752 23.9761C154.949 24.3397 155.047 24.7757 155.047 25.2841V31.0505H152.798V29.865H152.732C152.594 30.1321 152.411 30.3678 152.181 30.5719C151.951 30.7722 151.674 30.9299 151.351 31.045C151.028 31.1563 150.655 31.212 150.232 31.212ZM150.912 29.5755C151.26 29.5755 151.568 29.5069 151.835 29.3696C152.103 29.2286 152.312 29.0393 152.464 28.8019C152.617 28.5644 152.693 28.2953 152.693 27.9948V27.0875C152.618 27.1357 152.516 27.1803 152.387 27.2211C152.26 27.2582 152.117 27.2935 151.958 27.3268C151.798 27.3565 151.639 27.3844 151.479 27.4103C151.32 27.4326 151.175 27.453 151.045 27.4716C150.767 27.5124 150.524 27.5773 150.316 27.6664C150.108 27.7554 149.947 27.876 149.832 28.0282C149.717 28.1766 149.659 28.3621 149.659 28.5848C149.659 28.9076 149.776 29.1544 150.01 29.3251C150.247 29.492 150.548 29.5755 150.912 29.5755ZM159.258 19.6513V31.0505H156.887V19.6513H159.258ZM166.64 27.4103V22.5011H169.011V31.0505H166.734V29.4976H166.645C166.452 29.9986 166.131 30.4012 165.682 30.7054C165.237 31.0097 164.694 31.1619 164.052 31.1619C163.48 31.1619 162.977 31.032 162.543 30.7722C162.109 30.5125 161.77 30.1433 161.525 29.6646C161.283 29.1859 161.161 28.6126 161.157 27.9447V22.5011H163.528V27.5217C163.532 28.0263 163.668 28.4252 163.935 28.7184C164.202 29.0115 164.56 29.1581 165.009 29.1581C165.295 29.1581 165.562 29.0931 165.81 28.9633C166.059 28.8297 166.259 28.633 166.412 28.3733C166.567 28.1135 166.644 27.7925 166.64 27.4103ZM170.908 31.0505V22.5011H173.206V23.9928H173.295C173.451 23.4621 173.713 23.0614 174.08 22.7905C174.448 22.5159 174.871 22.3786 175.349 22.3786C175.468 22.3786 175.596 22.386 175.733 22.4009C175.871 22.4157 175.991 22.4361 176.095 22.4621V24.5661C175.984 24.5327 175.83 24.503 175.633 24.477C175.436 24.4511 175.257 24.4381 175.093 24.4381C174.744 24.4381 174.433 24.5141 174.158 24.6663C173.887 24.8147 173.672 25.0225 173.512 25.2897C173.357 25.5568 173.279 25.8648 173.279 26.2136V31.0505H170.908ZM182.804 27.4103V22.5011H185.175V31.0505H182.898V29.4976H182.809C182.616 29.9986 182.295 30.4012 181.846 30.7054C181.401 31.0097 180.857 31.1619 180.215 31.1619C179.644 31.1619 179.141 31.032 178.707 30.7722C178.273 30.5125 177.933 30.1433 177.688 29.6646C177.447 29.1859 177.325 28.6126 177.321 27.9447V22.5011H179.692V27.5217C179.696 28.0263 179.831 28.4252 180.099 28.7184C180.366 29.0115 180.724 29.1581 181.173 29.1581C181.458 29.1581 181.726 29.0931 181.974 28.9633C182.223 28.8297 182.423 28.633 182.575 28.3733C182.731 28.1135 182.807 27.7925 182.804 27.4103ZM189.648 29.492L189.587 30.1043C189.539 30.5941 189.446 31.0821 189.309 31.5682C189.175 32.058 189.034 32.5014 188.886 32.8985C188.741 33.2955 188.624 33.6072 188.535 33.8336H186.999C187.055 33.6146 187.131 33.3085 187.227 32.9152C187.324 32.5255 187.415 32.0877 187.5 31.6016C187.585 31.1155 187.639 30.6201 187.661 30.1154L187.689 29.492H189.648ZM197.363 19.6513V31.0505H194.953V19.6513H197.363ZM201.673 26.1079V31.0505H199.301V22.5011H201.561V24.0095H201.661C201.851 23.5122 202.168 23.1189 202.613 22.8295C203.058 22.5363 203.598 22.3898 204.233 22.3898C204.827 22.3898 205.344 22.5196 205.786 22.7794C206.227 23.0391 206.571 23.4102 206.816 23.8926C207.06 24.3713 207.183 24.9427 207.183 25.6069V31.0505H204.812V26.03C204.816 25.5067 204.682 25.0986 204.411 24.8054C204.14 24.5086 203.767 24.3601 203.292 24.3601C202.973 24.3601 202.691 24.4288 202.446 24.5661C202.205 24.7034 202.016 24.9038 201.878 25.1672C201.745 25.427 201.676 25.7405 201.673 26.1079ZM212.202 31.1897C211.553 31.1897 210.965 31.0227 210.438 30.6887C209.914 30.3511 209.499 29.8557 209.191 29.2026C208.887 28.5458 208.734 27.7406 208.734 26.7869C208.734 25.8073 208.892 24.9928 209.208 24.3434C209.523 23.6904 209.942 23.2024 210.466 22.8796C210.992 22.553 211.569 22.3898 212.197 22.3898C212.675 22.3898 213.074 22.4714 213.393 22.6347C213.716 22.7942 213.976 22.9946 214.173 23.2358C214.373 23.4733 214.525 23.7071 214.629 23.9371H214.701V19.6513H217.067V31.0505H214.729V29.6813H214.629C214.518 29.9188 214.36 30.1544 214.156 30.3882C213.955 30.6182 213.694 30.8093 213.371 30.9615C213.052 31.1136 212.662 31.1897 212.202 31.1897ZM212.954 29.3028C213.336 29.3028 213.659 29.1989 213.922 28.9911C214.189 28.7796 214.393 28.4846 214.534 28.1061C214.679 27.7276 214.751 27.2842 214.751 26.7758C214.751 26.2674 214.681 25.8259 214.54 25.4511C214.399 25.0763 214.195 24.7869 213.928 24.5828C213.66 24.3787 213.336 24.2766 212.954 24.2766C212.564 24.2766 212.236 24.3824 211.968 24.5939C211.701 24.8054 211.499 25.0986 211.362 25.4734C211.224 25.8481 211.156 26.2823 211.156 26.7758C211.156 27.273 211.224 27.7128 211.362 28.095C211.503 28.4735 211.705 28.7703 211.968 28.9855C212.236 29.197 212.564 29.3028 212.954 29.3028ZM219.016 31.0505V22.5011H221.388V31.0505H219.016ZM220.208 21.399C219.855 21.399 219.553 21.2821 219.3 21.0483C219.052 20.8109 218.927 20.527 218.927 20.1967C218.927 19.8702 219.052 19.59 219.3 19.3563C219.553 19.1188 219.855 19 220.208 19C220.56 19 220.861 19.1188 221.109 19.3563C221.362 19.59 221.488 19.8702 221.488 20.1967C221.488 20.527 221.362 20.8109 221.109 21.0483C220.861 21.2821 220.56 21.399 220.208 21.399ZM225.725 31.212C225.179 31.212 224.693 31.1173 224.267 30.9281C223.84 30.7351 223.502 30.4513 223.254 30.0765C223.009 29.698 222.886 29.2267 222.886 28.6627C222.886 28.1877 222.973 27.7888 223.148 27.466C223.322 27.1432 223.56 26.8834 223.86 26.6868C224.161 26.4901 224.502 26.3417 224.884 26.2415C225.27 26.1413 225.675 26.0708 226.098 26.03C226.595 25.978 226.996 25.9298 227.3 25.8852C227.604 25.837 227.825 25.7665 227.962 25.6737C228.1 25.581 228.168 25.4437 228.168 25.2618V25.2284C228.168 24.8759 228.057 24.6032 227.834 24.4102C227.615 24.2173 227.304 24.1208 226.899 24.1208C226.473 24.1208 226.133 24.2154 225.881 24.4047C225.628 24.5902 225.461 24.824 225.38 25.106L223.187 24.9279C223.298 24.4084 223.517 23.9594 223.844 23.5809C224.17 23.1987 224.591 22.9055 225.107 22.7015C225.627 22.4937 226.228 22.3898 226.91 22.3898C227.385 22.3898 227.84 22.4454 228.274 22.5567C228.712 22.6681 229.1 22.8406 229.437 23.0744C229.779 23.3082 230.048 23.6087 230.244 23.9761C230.441 24.3397 230.539 24.7757 230.539 25.2841V31.0505H228.291V29.865H228.224C228.087 30.1321 227.903 30.3678 227.673 30.5719C227.443 30.7722 227.166 30.9299 226.844 31.045C226.521 31.1563 226.148 31.212 225.725 31.212ZM226.404 29.5755C226.753 29.5755 227.061 29.5069 227.328 29.3696C227.595 29.2286 227.805 29.0393 227.957 28.8019C228.109 28.5644 228.185 28.2953 228.185 27.9948V27.0875C228.111 27.1357 228.009 27.1803 227.879 27.2211C227.753 27.2582 227.61 27.2935 227.45 27.3268C227.291 27.3565 227.131 27.3844 226.972 27.4103C226.812 27.4326 226.667 27.453 226.538 27.4716C226.259 27.5124 226.016 27.5773 225.808 27.6664C225.601 27.7554 225.439 27.876 225.324 28.0282C225.209 28.1766 225.152 28.3621 225.152 28.5848C225.152 28.9076 225.268 29.1544 225.502 29.3251C225.74 29.492 226.04 29.5755 226.404 29.5755Z" fill="url(#paint0_linear_445_553)"/>
<defs>
<linearGradient id="paint0_linear_445_553" x1="169.441" y1="-2.94946" x2="169.441" y2="59.0267" gradientUnits="userSpaceOnUse">
<stop stop-color="white"/>
<stop offset="1" stop-color="#999999"/>
</linearGradient>
</defs>
</svg>
