<svg width="566" height="38" viewBox="0 0 566 38" fill="none" xmlns="http://www.w3.org/2000/svg">
<path d="M0.611184 30V3.88816H7.99711V24.1435H20.4562V30H0.611184ZM23.0432 30V9.78197H30.1307V30H23.0432ZM26.5869 7.54381C25.2938 7.54381 24.2493 7.18322 23.4535 6.46204C22.6577 5.74085 22.2598 4.84559 22.2598 3.77625C22.2598 2.70691 22.6577 1.81164 23.4535 1.09046C24.2493 0.369276 25.2938 0.00868362 26.5869 0.00868362C27.8801 0.00868362 28.9246 0.356841 29.7204 1.05316C30.5161 1.7246 30.914 2.595 30.914 3.66434C30.914 4.78342 30.5161 5.71599 29.7204 6.46204C28.9494 7.18322 27.905 7.54381 26.5869 7.54381ZM47.4569 30.3357C45.6415 30.3357 44.1245 29.9627 42.906 29.2166C41.7123 28.4706 40.817 27.3266 40.2202 25.7848C39.6233 24.243 39.3249 22.2659 39.3249 19.8537C39.3249 17.4912 39.6358 15.539 40.2575 13.9972C40.904 12.4553 41.8366 11.3114 43.0552 10.5653C44.2737 9.81928 45.741 9.44625 47.4569 9.44625C49.2971 9.44625 50.9633 9.86901 52.4554 10.7145C53.9724 11.5601 55.1661 12.7662 56.0365 14.3329C56.9317 15.8747 57.3794 17.715 57.3794 19.8537C57.3794 22.0172 56.9317 23.8824 56.0365 25.4491C55.1661 26.9909 53.9724 28.197 52.4554 29.0674C50.9633 29.913 49.2971 30.3357 47.4569 30.3357ZM34.7367 30V2.32145H41.8242V13.1765L41.4512 19.8537L41.4885 26.5309V30H34.7367ZM45.9648 24.703C46.7606 24.703 47.4693 24.5165 48.091 24.1435C48.7376 23.7705 49.2474 23.2234 49.6204 22.5022C50.0183 21.7561 50.2173 20.8733 50.2173 19.8537C50.2173 18.8341 50.0183 17.9761 49.6204 17.2798C49.2474 16.5586 48.7376 16.0115 48.091 15.6385C47.4693 15.2655 46.7606 15.0789 45.9648 15.0789C45.169 15.0789 44.4478 15.2655 43.8012 15.6385C43.1795 16.0115 42.6697 16.5586 42.2718 17.2798C41.8988 17.9761 41.7123 18.8341 41.7123 19.8537C41.7123 20.8733 41.8988 21.7561 42.2718 22.5022C42.6697 23.2234 43.1795 23.7705 43.8012 24.1435C44.4478 24.5165 45.169 24.703 45.9648 24.703ZM60.6737 30V9.78197H67.4254V15.6758L66.4183 13.9972C67.0151 12.4802 67.985 11.3487 69.3279 10.6026C70.6708 9.83171 72.2997 9.44625 74.2145 9.44625V15.825C73.8912 15.7753 73.6052 15.7504 73.3566 15.7504C73.1327 15.7255 72.8841 15.7131 72.6105 15.7131C71.1681 15.7131 69.9993 16.111 69.1041 16.9068C68.2088 17.6777 67.7612 18.946 67.7612 20.7116V30H60.6737ZM88.2843 30V26.2324L87.7994 25.2999V18.3616C87.7994 17.2425 87.4512 16.3845 86.7549 15.7877C86.0835 15.166 85.0017 14.8551 83.5096 14.8551C82.5397 14.8551 81.5574 15.0168 80.5627 15.3401C79.5679 15.6385 78.7224 16.0612 78.0261 16.6084L75.6387 11.7963C76.7827 11.0503 78.1504 10.4783 79.742 10.0804C81.3585 9.65763 82.9625 9.44625 84.5541 9.44625C87.8367 9.44625 90.3733 10.2047 92.1638 11.7217C93.9792 13.2138 94.8869 15.5639 94.8869 18.7719V30H88.2843ZM82.3159 30.3357C80.6994 30.3357 79.3317 30.0622 78.2126 29.5151C77.0935 28.968 76.2356 28.2219 75.6387 27.2769C75.0667 26.3319 74.7808 25.275 74.7808 24.1062C74.7808 22.8628 75.0916 21.7934 75.7133 20.8982C76.3599 19.978 77.3422 19.2817 78.6602 18.8092C79.9783 18.3118 81.6817 18.0632 83.7707 18.0632H88.5454V21.7561H84.7406C83.5966 21.7561 82.7884 21.9426 82.3159 22.3157C81.8683 22.6887 81.6444 23.1861 81.6444 23.8078C81.6444 24.4295 81.8807 24.9268 82.3532 25.2999C82.8257 25.6729 83.4723 25.8594 84.2929 25.8594C85.0639 25.8594 85.7602 25.6729 86.3819 25.2999C87.0285 24.902 87.501 24.3051 87.7994 23.5093L88.7692 26.1205C88.3962 27.5132 87.6626 28.5701 86.5684 29.2912C85.4991 29.9876 84.0816 30.3357 82.3159 30.3357ZM99.3606 30V9.78197H106.112V15.6758L105.105 13.9972C105.702 12.4802 106.672 11.3487 108.015 10.6026C109.358 9.83171 110.987 9.44625 112.901 9.44625V15.825C112.578 15.7753 112.292 15.7504 112.043 15.7504C111.82 15.7255 111.571 15.7131 111.297 15.7131C109.855 15.7131 108.686 16.111 107.791 16.9068C106.896 17.6777 106.448 18.946 106.448 20.7116V30H99.3606ZM119.915 37.5724C118.845 37.5724 117.764 37.3984 116.669 37.0502C115.6 36.7269 114.73 36.2917 114.058 35.7446L116.52 30.7834C116.943 31.1564 117.428 31.4424 117.975 31.6413C118.547 31.8651 119.106 31.977 119.654 31.977C120.424 31.977 121.034 31.803 121.481 31.4548C121.929 31.1066 122.314 30.5595 122.638 29.8135L123.57 27.4634L124.13 26.7547L130.994 9.78197H137.745L129.016 30.8207C128.32 32.5614 127.512 33.9168 126.592 34.8866C125.697 35.8814 124.689 36.5777 123.57 36.9756C122.476 37.3735 121.258 37.5724 119.915 37.5724ZM122.675 30.858L113.76 9.78197H121.034L127.599 26.1205L122.675 30.858ZM159.945 30.5222C157.807 30.5222 155.743 30.2611 153.753 29.7389C151.788 29.1918 150.184 28.4955 148.941 27.6499L151.366 22.2037C152.535 22.9498 153.877 23.5715 155.394 24.0689C156.936 24.5414 158.466 24.7776 159.983 24.7776C161.002 24.7776 161.823 24.6906 162.445 24.5165C163.066 24.3176 163.514 24.0689 163.787 23.7705C164.086 23.4472 164.235 23.0741 164.235 22.6514C164.235 22.0545 163.962 21.582 163.414 21.2339C162.867 20.8857 162.159 20.5997 161.288 20.3759C160.418 20.1521 159.448 19.9283 158.379 19.7045C157.334 19.4807 156.277 19.1947 155.208 18.8465C154.163 18.4984 153.206 18.0507 152.336 17.5036C151.465 16.9316 150.756 16.198 150.209 15.3028C149.662 14.3826 149.389 13.2262 149.389 11.8336C149.389 10.2669 149.811 8.84941 150.657 7.58112C151.527 6.31283 152.82 5.29322 154.536 4.5223C156.252 3.75138 158.391 3.36592 160.952 3.36592C162.668 3.36592 164.347 3.56487 165.988 3.96276C167.655 4.33579 169.134 4.89533 170.427 5.64138L168.152 11.1249C166.908 10.4534 165.677 9.95605 164.459 9.63276C163.24 9.28461 162.059 9.11053 160.915 9.11053C159.896 9.11053 159.075 9.22243 158.453 9.44625C157.831 9.6452 157.384 9.91875 157.11 10.2669C156.837 10.6151 156.7 11.013 156.7 11.4606C156.7 12.0326 156.961 12.4926 157.483 12.8408C158.03 13.1641 158.739 13.4376 159.61 13.6614C160.505 13.8604 161.475 14.0718 162.519 14.2956C163.589 14.5194 164.645 14.8054 165.69 15.1536C166.759 15.4768 167.729 15.9245 168.6 16.4964C169.47 17.0436 170.166 17.7772 170.688 18.6973C171.236 19.5926 171.509 20.7241 171.509 22.0918C171.509 23.6088 171.074 25.0139 170.204 26.307C169.358 27.5753 168.077 28.5949 166.361 29.3659C164.67 30.1368 162.532 30.5222 159.945 30.5222ZM185.179 30.3357C182.792 30.3357 180.703 29.8881 178.912 28.9928C177.147 28.0727 175.766 26.8293 174.772 25.2626C173.802 23.671 173.317 21.868 173.317 19.8537C173.317 17.8393 173.789 16.0488 174.734 14.4821C175.704 12.8905 177.035 11.6595 178.726 10.7891C180.417 9.89388 182.319 9.44625 184.433 9.44625C186.422 9.44625 188.238 9.85658 189.879 10.6772C191.521 11.473 192.826 12.6543 193.796 14.221C194.766 15.7877 195.251 17.6901 195.251 19.9283C195.251 20.177 195.238 20.463 195.213 20.7862C195.189 21.1095 195.164 21.408 195.139 21.6815H179.136V17.9512H191.371L188.686 18.9957C188.71 18.0756 188.536 17.2798 188.163 16.6084C187.815 15.9369 187.318 15.4147 186.671 15.0416C186.049 14.6686 185.316 14.4821 184.47 14.4821C183.625 14.4821 182.879 14.6686 182.232 15.0416C181.61 15.4147 181.126 15.9493 180.777 16.6457C180.429 17.3171 180.255 18.1129 180.255 19.033V20.1148C180.255 21.1095 180.454 21.9675 180.852 22.6887C181.275 23.4099 181.872 23.9694 182.642 24.3673C183.413 24.7403 184.334 24.9268 185.403 24.9268C186.398 24.9268 187.243 24.7901 187.939 24.5165C188.661 24.2181 189.369 23.7705 190.066 23.1736L193.796 27.0531C192.826 28.1224 191.632 28.9431 190.215 29.5151C188.797 30.0622 187.119 30.3357 185.179 30.3357ZM198.519 30V2.32145H205.606V30H198.519ZM211.033 30V10.0058C211.033 7.56868 211.754 5.62895 213.196 4.18658C214.663 2.71934 216.752 1.98572 219.463 1.98572C220.333 1.98572 221.191 2.07276 222.037 2.24684C222.883 2.42092 223.591 2.68204 224.163 3.0302L222.41 8.02875C222.112 7.85467 221.776 7.71789 221.403 7.61842C221.03 7.49408 220.657 7.43191 220.284 7.43191C219.538 7.43191 218.953 7.65572 218.531 8.10335C218.133 8.52612 217.934 9.18513 217.934 10.0804V11.5352L218.12 14.4821V30H211.033ZM208.086 15.825V10.528H222.746V15.825H208.086ZM224.517 22.0918V16.6457H235.409V22.0918H224.517ZM252.891 30.5222C250.827 30.5222 248.912 30.1989 247.147 29.5524C245.406 28.8809 243.889 27.9359 242.596 26.7174C241.327 25.4988 240.333 24.0689 239.611 22.4276C238.89 20.7614 238.53 18.9336 238.53 16.9441C238.53 14.9546 238.89 13.1392 239.611 11.4979C240.333 9.83171 241.327 8.38934 242.596 7.17079C243.889 5.95224 245.406 5.01967 247.147 4.37309C248.912 3.70164 250.827 3.36592 252.891 3.36592C255.303 3.36592 257.455 3.78868 259.345 4.63421C261.259 5.47974 262.851 6.69829 264.119 8.28987L259.419 12.5424C258.574 11.5476 257.641 10.7891 256.621 10.2669C255.627 9.74467 254.508 9.48355 253.264 9.48355C252.195 9.48355 251.213 9.65763 250.317 10.0058C249.422 10.3539 248.651 10.8637 248.005 11.5352C247.383 12.1818 246.885 12.9651 246.512 13.8853C246.164 14.8054 245.99 15.825 245.99 16.9441C245.99 18.0632 246.164 19.0828 246.512 20.0029C246.885 20.923 247.383 21.7188 248.005 22.3903C248.651 23.0368 249.422 23.5342 250.317 23.8824C251.213 24.2305 252.195 24.4046 253.264 24.4046C254.508 24.4046 255.627 24.1435 256.621 23.6212C257.641 23.099 258.574 22.3405 259.419 21.3458L264.119 25.5983C262.851 27.165 261.259 28.3836 259.345 29.2539C257.455 30.0995 255.303 30.5222 252.891 30.5222ZM280.245 9.44625C281.811 9.44625 283.229 9.76954 284.497 10.4161C285.765 11.0378 286.76 12.0077 287.481 13.3257C288.227 14.6437 288.6 16.3472 288.6 18.4362V30H281.513V19.5926C281.513 18.1502 281.214 17.1057 280.618 16.4591C280.046 15.7877 279.237 15.452 278.193 15.452C277.447 15.452 276.763 15.6261 276.141 15.9742C275.52 16.2975 275.035 16.8073 274.686 17.5036C274.338 18.1999 274.164 19.1076 274.164 20.2267V30H267.077V2.32145H274.164V15.5266L272.523 13.848C273.294 12.3807 274.351 11.2865 275.694 10.5653C277.037 9.81928 278.553 9.44625 280.245 9.44625ZM303.899 30.3357C301.512 30.3357 299.423 29.8881 297.632 28.9928C295.867 28.0727 294.486 26.8293 293.492 25.2626C292.522 23.671 292.037 21.868 292.037 19.8537C292.037 17.8393 292.509 16.0488 293.454 14.4821C294.424 12.8905 295.755 11.6595 297.446 10.7891C299.137 9.89388 301.039 9.44625 303.153 9.44625C305.142 9.44625 306.958 9.85658 308.599 10.6772C310.241 11.473 311.546 12.6543 312.516 14.221C313.486 15.7877 313.971 17.6901 313.971 19.9283C313.971 20.177 313.958 20.463 313.933 20.7862C313.909 21.1095 313.884 21.408 313.859 21.6815H297.856V17.9512H310.091L307.406 18.9957C307.43 18.0756 307.256 17.2798 306.883 16.6084C306.535 15.9369 306.038 15.4147 305.391 15.0416C304.769 14.6686 304.036 14.4821 303.19 14.4821C302.345 14.4821 301.599 14.6686 300.952 15.0416C300.33 15.4147 299.846 15.9493 299.497 16.6457C299.149 17.3171 298.975 18.1129 298.975 19.033V20.1148C298.975 21.1095 299.174 21.9675 299.572 22.6887C299.995 23.4099 300.592 23.9694 301.362 24.3673C302.133 24.7403 303.054 24.9268 304.123 24.9268C305.118 24.9268 305.963 24.7901 306.659 24.5165C307.381 24.2181 308.089 23.7705 308.786 23.1736L312.516 27.0531C311.546 28.1224 310.352 28.9431 308.935 29.5151C307.517 30.0622 305.839 30.3357 303.899 30.3357ZM327.571 30.3357C325.333 30.3357 323.331 29.8881 321.566 28.9928C319.825 28.0976 318.457 26.8666 317.462 25.2999C316.468 23.7083 315.97 21.8929 315.97 19.8537C315.97 17.8145 316.468 16.0115 317.462 14.4448C318.457 12.8781 319.825 11.6595 321.566 10.7891C323.331 9.89388 325.333 9.44625 327.571 9.44625C329.859 9.44625 331.836 9.93118 333.502 10.9011C335.169 11.8709 336.35 13.2387 337.046 15.0043L331.563 17.802C331.09 16.857 330.506 16.1732 329.81 15.7504C329.113 15.3028 328.355 15.0789 327.534 15.0789C326.713 15.0789 325.967 15.2655 325.296 15.6385C324.624 16.0115 324.09 16.5586 323.692 17.2798C323.319 17.9761 323.132 18.8341 323.132 19.8537C323.132 20.8982 323.319 21.781 323.692 22.5022C324.09 23.2234 324.624 23.7705 325.296 24.1435C325.967 24.5165 326.713 24.703 327.534 24.703C328.355 24.703 329.113 24.4916 329.81 24.0689C330.506 23.6212 331.09 22.9249 331.563 21.9799L337.046 24.7776C336.35 26.5433 335.169 27.9111 333.502 28.8809C331.836 29.8508 329.859 30.3357 327.571 30.3357ZM345.536 26.2697L345.722 17.802L353.966 9.78197H362.359L353.22 19.2195L349.602 22.1291L345.536 26.2697ZM339.642 30V2.32145H346.729V30H339.642ZM354.488 30L348.296 22.2411L352.698 16.7949L363.068 30H354.488ZM374.487 30.3357C372.273 30.3357 370.309 29.8881 368.593 28.9928C366.877 28.0976 365.522 26.8666 364.527 25.2999C363.557 23.7083 363.072 21.8929 363.072 19.8537C363.072 17.8145 363.557 16.0115 364.527 14.4448C365.522 12.8781 366.877 11.6595 368.593 10.7891C370.309 9.89388 372.273 9.44625 374.487 9.44625C376.7 9.44625 378.665 9.89388 380.381 10.7891C382.121 11.6595 383.477 12.8781 384.447 14.4448C385.416 16.0115 385.901 17.8145 385.901 19.8537C385.901 21.8929 385.416 23.7083 384.447 25.2999C383.477 26.8666 382.121 28.0976 380.381 28.9928C378.665 29.8881 376.7 30.3357 374.487 30.3357ZM374.487 24.703C375.307 24.703 376.029 24.5165 376.65 24.1435C377.297 23.7705 377.807 23.2234 378.18 22.5022C378.553 21.7561 378.739 20.8733 378.739 19.8537C378.739 18.8341 378.553 17.9761 378.18 17.2798C377.807 16.5586 377.297 16.0115 376.65 15.6385C376.029 15.2655 375.307 15.0789 374.487 15.0789C373.691 15.0789 372.97 15.2655 372.323 15.6385C371.701 16.0115 371.192 16.5586 370.794 17.2798C370.421 17.9761 370.234 18.8341 370.234 19.8537C370.234 20.8733 370.421 21.7561 370.794 22.5022C371.192 23.2234 371.701 23.7705 372.323 24.1435C372.97 24.5165 373.691 24.703 374.487 24.703ZM397.69 30.3357C396.048 30.3357 394.569 30.0124 393.251 29.3659C391.957 28.7193 390.938 27.7121 390.192 26.3443C389.471 24.9517 389.11 23.1985 389.11 21.0847V9.78197H396.197V19.9283C396.197 21.495 396.483 22.6141 397.055 23.2855C397.652 23.957 398.485 24.2927 399.555 24.2927C400.251 24.2927 400.885 24.1311 401.457 23.8078C402.029 23.4845 402.489 22.9747 402.837 22.2784C403.185 21.5572 403.36 20.637 403.36 19.518V9.78197H410.447V30H403.695V24.2927L405.001 25.8967C404.305 27.3888 403.297 28.5079 401.979 29.2539C400.661 29.9751 399.231 30.3357 397.69 30.3357ZM424.039 30.3357C421.453 30.3357 419.439 29.7016 417.996 28.4333C416.554 27.1401 415.833 25.2004 415.833 22.6141V5.26835H422.92V22.5395C422.92 23.2607 423.119 23.8326 423.517 24.2554C423.915 24.6533 424.425 24.8522 425.047 24.8522C425.892 24.8522 426.613 24.6409 427.21 24.2181L428.963 29.1793C428.367 29.5772 427.633 29.8632 426.763 30.0373C425.892 30.2363 424.984 30.3357 424.039 30.3357ZM412.886 15.825V10.528H427.546V15.825H412.886ZM449.49 24.2181L449.08 15.9369L460.308 3.88816H468.44L457.249 16.0115L453.146 20.3013L449.49 24.2181ZM442.888 30V3.88816H450.199V30H442.888ZM460.42 30L451.915 19.2195L456.727 14.0718L469 30H460.42ZM470.938 30V3.88816H478.324V30H470.938ZM496.746 30.5222C494.657 30.5222 492.73 30.1865 490.964 29.5151C489.199 28.8436 487.657 27.8986 486.339 26.6801C485.045 25.4366 484.038 23.9943 483.317 22.353C482.596 20.7116 482.235 18.9087 482.235 16.9441C482.235 14.9795 482.596 13.1765 483.317 11.5352C484.038 9.89388 485.045 8.46395 486.339 7.24539C487.657 6.00197 489.199 5.04454 490.964 4.37309C492.73 3.70164 494.657 3.36592 496.746 3.36592C498.86 3.36592 500.787 3.70164 502.528 4.37309C504.294 5.04454 505.823 6.00197 507.116 7.24539C508.409 8.46395 509.417 9.89388 510.138 11.5352C510.884 13.1765 511.257 14.9795 511.257 16.9441C511.257 18.9087 510.884 20.7241 510.138 22.3903C509.417 24.0316 508.409 25.4615 507.116 26.6801C505.823 27.8986 504.294 28.8436 502.528 29.5151C500.787 30.1865 498.86 30.5222 496.746 30.5222ZM496.746 24.4046C497.741 24.4046 498.661 24.2305 499.506 23.8824C500.377 23.5342 501.123 23.0368 501.745 22.3903C502.391 21.7188 502.889 20.923 503.237 20.0029C503.61 19.0828 503.796 18.0632 503.796 16.9441C503.796 15.8001 503.61 14.7805 503.237 13.8853C502.889 12.9651 502.391 12.1818 501.745 11.5352C501.123 10.8637 500.377 10.3539 499.506 10.0058C498.661 9.65763 497.741 9.48355 496.746 9.48355C495.751 9.48355 494.819 9.65763 493.948 10.0058C493.103 10.3539 492.357 10.8637 491.71 11.5352C491.089 12.1818 490.591 12.9651 490.218 13.8853C489.87 14.7805 489.696 15.8001 489.696 16.9441C489.696 18.0632 489.87 19.0828 490.218 20.0029C490.591 20.923 491.089 21.7188 491.71 22.3903C492.357 23.0368 493.103 23.5342 493.948 23.8824C494.819 24.2305 495.751 24.4046 496.746 24.4046ZM524.302 30.5222C522.163 30.5222 520.099 30.2611 518.109 29.7389C516.145 29.1918 514.541 28.4955 513.297 27.6499L515.722 22.2037C516.891 22.9498 518.234 23.5715 519.751 24.0689C521.293 24.5414 522.822 24.7776 524.339 24.7776C525.359 24.7776 526.179 24.6906 526.801 24.5165C527.423 24.3176 527.87 24.0689 528.144 23.7705C528.442 23.4472 528.591 23.0741 528.591 22.6514C528.591 22.0545 528.318 21.582 527.771 21.2339C527.224 20.8857 526.515 20.5997 525.645 20.3759C524.774 20.1521 523.804 19.9283 522.735 19.7045C521.69 19.4807 520.634 19.1947 519.564 18.8465C518.52 18.4984 517.562 18.0507 516.692 17.5036C515.822 16.9316 515.113 16.198 514.566 15.3028C514.019 14.3826 513.745 13.2262 513.745 11.8336C513.745 10.2669 514.168 8.84941 515.013 7.58112C515.884 6.31283 517.177 5.29322 518.893 4.5223C520.609 3.75138 522.747 3.36592 525.309 3.36592C527.025 3.36592 528.703 3.56487 530.345 3.96276C532.011 4.33579 533.491 4.89533 534.784 5.64138L532.508 11.1249C531.265 10.4534 530.034 9.95605 528.815 9.63276C527.597 9.28461 526.415 9.11053 525.272 9.11053C524.252 9.11053 523.431 9.22243 522.81 9.44625C522.188 9.6452 521.74 9.91875 521.467 10.2669C521.193 10.6151 521.056 11.013 521.056 11.4606C521.056 12.0326 521.317 12.4926 521.84 12.8408C522.387 13.1641 523.096 13.4376 523.966 13.6614C524.861 13.8604 525.831 14.0718 526.876 14.2956C527.945 14.5194 529.002 14.8054 530.046 15.1536C531.116 15.4768 532.085 15.9245 532.956 16.4964C533.826 17.0436 534.523 17.7772 535.045 18.6973C535.592 19.5926 535.865 20.7241 535.865 22.0918C535.865 23.6088 535.43 25.0139 534.56 26.307C533.714 27.5753 532.434 28.5949 530.718 29.3659C529.027 30.1368 526.888 30.5222 524.302 30.5222ZM545.88 24.2181L545.469 15.9369L556.698 3.88816H564.83L553.639 16.0115L549.535 20.3013L545.88 24.2181ZM539.277 30V3.88816H546.589V30H539.277ZM556.809 30L548.304 19.2195L553.116 14.0718L565.389 30H556.809Z" fill="url(#paint0_radial_280_74)"/>
<defs>
<radialGradient id="paint0_radial_280_74" cx="0" cy="0" r="1" gradientUnits="userSpaceOnUse" gradientTransform="translate(281.5 17) scale(283.5 28)">
<stop stop-color="white"/>
<stop offset="1" stop-color="#999999"/>
</radialGradient>
</defs>
</svg>
