<svg width="32" height="167" viewBox="0 0 32 167" fill="none" xmlns="http://www.w3.org/2000/svg">
<path d="M31.4394 -5.38606e-05L31.4394 8.07913L10.6212 16.6122L10.6212 16.9753L31.4394 25.5084L31.4394 33.5876L0.4541 33.5876L0.4541 27.2332L20.6218 27.2332L20.6218 26.976L0.605396 18.9573L0.605396 14.6302L20.6975 6.61156L20.6975 6.35436L0.454101 6.35436L0.454101 -5.52151e-05L31.4394 -5.38606e-05ZM0.000212436 48.997C0.00021254 46.6066 0.484359 44.5489 1.45265 42.8242C2.43103 41.1095 3.81286 39.7882 5.59815 38.8602C7.39353 37.9323 9.51671 37.4683 11.9677 37.4683C14.3582 37.4683 16.4561 37.9323 18.2616 38.8602C20.0671 39.7882 21.4741 41.0944 22.4827 42.7788C23.4914 44.4733 23.9957 46.4603 23.9957 48.7398C23.9957 50.273 23.7486 51.7002 23.2543 53.0215C22.7702 54.3529 22.0389 55.5128 21.0606 56.5013C20.0822 57.4998 18.8516 58.2765 17.369 58.8313C15.8963 59.386 14.1716 59.6634 12.1946 59.6634L10.4245 59.6634L10.4245 40.0403L14.4187 40.0403L14.4187 53.5964C15.3466 53.5964 16.1687 53.3947 16.8848 52.9912C17.6009 52.5878 18.1607 52.028 18.5642 51.3119C18.9777 50.6058 19.1845 49.7838 19.1845 48.8457C19.1845 47.8674 18.9576 46.9999 18.5037 46.2435C18.0599 45.4971 17.4597 44.9121 16.7032 44.4884C15.9569 44.0648 15.1247 43.8479 14.2069 43.8379L10.4094 43.8379C9.25951 43.8379 8.266 44.0497 7.42883 44.4733C6.59166 44.907 5.94613 45.5172 5.49224 46.304C5.03836 47.0907 4.81141 48.0237 4.81141 49.1029C4.81141 49.8191 4.91228 50.4747 5.114 51.0698C5.31573 51.6649 5.61832 52.1742 6.02178 52.5979C6.42523 53.0215 6.91947 53.3443 7.50447 53.5662L7.11111 59.5272C5.67884 59.2246 4.42813 58.6043 3.35897 57.6663C2.29991 56.7383 1.47282 55.538 0.877727 54.0654C0.292717 52.6029 0.000212352 50.9134 0.000212436 48.997ZM13.8891 69.8569L0.454098 69.8569L0.454099 63.4117L23.6931 63.4117L23.6931 69.5543L19.593 69.5543L19.593 69.8267C20.9446 70.3411 22.0137 71.2034 22.8005 72.4138C23.5973 73.6242 23.9957 75.0917 23.9957 76.8165C23.9957 78.4303 23.6427 79.8374 22.9366 81.0377C22.2306 82.2379 21.2219 83.1709 19.9107 83.8366C18.6096 84.5023 17.0563 84.8352 15.2508 84.8352L0.454098 84.8352L0.454098 78.39L14.101 78.39C15.5231 78.4001 16.6326 78.037 17.4295 77.3007C18.2364 76.5644 18.6398 75.5507 18.6398 74.2596C18.6398 73.3922 18.4532 72.6256 18.08 71.9599C17.7068 71.3043 17.1622 70.7899 16.446 70.4167C15.74 70.0536 14.8877 69.867 13.8891 69.8569ZM23.6931 101.818L18.8516 101.818L18.8516 87.8233L23.6931 87.8233L23.6931 101.818ZM29.2608 91.0005L29.2608 97.4457L7.59525 97.4457C7.00015 97.4457 6.53618 97.5364 6.20333 97.718C5.88057 97.8996 5.65362 98.1517 5.5225 98.4745C5.39138 98.8073 5.32582 99.1906 5.32582 99.6243C5.32582 99.9269 5.35103 100.23 5.40146 100.532C5.46198 100.835 5.50737 101.067 5.53763 101.228L0.741559 102.242C0.640695 101.919 0.524702 101.465 0.393579 100.88C0.25237 100.295 0.166635 99.584 0.136376 98.7468C0.0758581 97.1935 0.282629 95.8319 0.756689 94.6618C1.23075 93.5019 1.96705 92.5992 2.9656 91.9536C3.96416 91.3081 5.22495 90.9904 6.748 91.0005L29.2608 91.0005ZM0.000209515 115.809C0.000209618 113.459 0.499485 111.427 1.49804 109.712C2.50667 108.007 3.90868 106.691 5.70406 105.763C7.50952 104.835 9.60244 104.371 11.9828 104.371C14.3834 104.371 16.4813 104.835 18.2767 105.763C20.0822 106.691 21.4842 108.007 22.4827 109.712C23.4914 111.427 23.9957 113.459 23.9957 115.809C23.9957 118.159 23.4914 120.187 22.4827 121.891C21.4842 123.606 20.0822 124.927 18.2767 125.855C16.4813 126.783 14.3834 127.247 11.9828 127.247C9.60244 127.247 7.50952 126.783 5.70405 125.855C3.90868 124.927 2.50667 123.606 1.49804 121.891C0.499485 120.187 0.000209412 118.159 0.000209515 115.809ZM4.99297 115.839C4.99297 116.909 5.29556 117.801 5.90074 118.517C6.51601 119.234 7.35318 119.773 8.41225 120.136C9.47132 120.509 10.6766 120.696 12.0282 120.696C13.3798 120.696 14.5851 120.509 15.6442 120.136C16.7032 119.773 17.5404 119.234 18.1557 118.517C18.771 117.801 19.0786 116.909 19.0786 115.839C19.0786 114.76 18.771 113.852 18.1557 113.116C17.5404 112.39 16.7032 111.84 15.6442 111.467C14.5851 111.104 13.3798 110.922 12.0282 110.922C10.6766 110.922 9.47132 111.104 8.41225 111.467C7.35318 111.84 6.51601 112.39 5.90074 113.116C5.29556 113.852 4.99297 114.76 4.99297 115.839ZM0.454096 130.98L23.6931 130.98L23.6931 137.229L19.6384 137.229L19.6384 137.471C21.0807 137.895 22.1701 138.606 22.9064 139.604C23.6528 140.603 24.026 141.753 24.026 143.054C24.026 143.377 24.0058 143.724 23.9654 144.098C23.9251 144.471 23.8696 144.799 23.799 145.081L18.08 145.081C18.1708 144.779 18.2515 144.36 18.3221 143.825C18.3927 143.291 18.428 142.802 18.428 142.358C18.428 141.41 18.2212 140.562 17.8077 139.816C17.4042 139.08 16.8394 138.495 16.1132 138.061C15.387 137.637 14.5498 137.426 13.6017 137.426L0.454095 137.426L0.454096 130.98ZM0.0153374 153.917C0.0153375 152.434 0.27254 151.113 0.786945 149.953C1.31144 148.793 2.08304 147.875 3.10177 147.199C4.13058 146.534 5.41155 146.201 6.94468 146.201C8.23573 146.201 9.32002 146.438 10.1975 146.912C11.075 147.386 11.7811 148.031 12.3157 148.848C12.8502 149.665 13.2537 150.593 13.526 151.632C13.7984 152.681 13.99 153.781 14.101 154.93C14.2422 156.282 14.3733 157.371 14.4943 158.198C14.6255 159.026 14.8171 159.626 15.0693 159.999C15.3214 160.372 15.6946 160.559 16.1888 160.559L16.2796 160.559C17.2378 160.559 17.9792 160.256 18.5037 159.651C19.0282 159.056 19.2904 158.209 19.2904 157.109C19.2904 155.949 19.0332 155.026 18.5188 154.34C18.0145 153.655 17.379 153.201 16.6125 152.979L17.0966 147.018C18.5087 147.32 19.7292 147.915 20.758 148.803C21.7969 149.691 22.5937 150.835 23.1484 152.237C23.7133 153.649 23.9957 155.283 23.9957 157.139C23.9957 158.43 23.8444 159.666 23.5418 160.846C23.2392 162.036 22.7702 163.09 22.1348 164.008C21.4993 164.936 20.6823 165.667 19.6838 166.202C18.6953 166.737 17.5102 167.004 16.1283 167.004L0.454094 167.004L0.454094 160.891L3.67669 160.891L3.67669 160.71C2.95047 160.337 2.30999 159.837 1.75524 159.212C1.21057 158.587 0.781902 157.835 0.469224 156.958C0.166633 156.08 0.0153373 155.067 0.0153374 153.917ZM4.46343 155.763C4.46343 156.711 4.65003 157.548 5.02322 158.274C5.4065 159 5.92091 159.57 6.56644 159.984C7.21197 160.397 7.94323 160.604 8.76022 160.604L11.2263 160.604C11.0952 160.402 10.9742 160.125 10.8632 159.772C10.7624 159.429 10.6665 159.041 10.5758 158.607C10.4951 158.173 10.4194 157.739 10.3488 157.306C10.2883 156.872 10.2328 156.479 10.1824 156.126C10.0715 155.369 9.89494 154.709 9.65287 154.144C9.4108 153.579 9.08299 153.14 8.66945 152.827C8.26599 152.515 7.76167 152.358 7.15649 152.358C6.27898 152.358 5.60823 152.676 5.14426 153.312C4.69037 153.957 4.46343 154.774 4.46343 155.763Z" fill="url(#paint0_linear_445_541)"/>
<defs>
<linearGradient id="paint0_linear_445_541" x1="46.4541" y1="83.8069" x2="-14.5459" y2="83.8069" gradientUnits="userSpaceOnUse">
<stop stop-color="white"/>
<stop offset="1" stop-color="#999999"/>
</linearGradient>
</defs>
</svg>
