<svg width="90" height="570" viewBox="0 0 90 570" fill="none" xmlns="http://www.w3.org/2000/svg">
<mask id="path-1-outside-1_445_545" maskUnits="userSpaceOnUse" x="-0.92776" y="-0.346929" width="91" height="570" fill="black">
<rect fill="white" x="-0.92776" y="-0.346929" width="91" height="570"/>
<path d="M86.8643 2.81908L86.8643 21.1724L26.8724 45.7513L26.8724 46.7215L86.8643 71.3004L86.8643 89.6537L4.07226 89.6537L4.07226 75.2621L60.9514 75.2621L60.9514 74.494L4.31482 51.613L4.31482 40.8598L61.0726 17.9788L61.0726 17.2107L4.07226 17.2107L4.07227 2.81908L86.8643 2.81908ZM2.85949 131.606C2.85949 125.38 4.15311 120.003 6.74036 115.476C9.35456 110.975 13.0468 107.512 17.817 105.086C22.6142 102.661 28.2604 101.448 34.7554 101.448C41.1427 101.448 46.7484 102.661 51.5726 105.086C56.4237 107.539 60.1967 110.961 62.8918 115.354C65.6138 119.747 66.9748 124.908 66.9748 130.837C66.9748 134.664 66.3549 138.276 65.1152 141.672C63.9024 145.094 62.0159 148.113 59.4556 150.727C56.8953 153.368 53.6343 155.443 49.6726 156.953C45.7378 158.462 41.0484 159.216 35.6044 159.216L31.1171 159.216L31.1171 108.32L40.981 108.32L40.981 145.189C43.7839 145.162 46.2768 144.555 48.4598 143.369C50.6697 142.184 52.408 140.526 53.6747 138.397C54.9414 136.295 55.5747 133.842 55.5747 131.04C55.5747 128.048 54.8471 125.42 53.3917 123.157C51.9633 120.893 50.0768 119.127 47.7321 117.861C45.4144 116.621 42.8675 115.988 40.0916 115.961L31.4809 115.961C27.8696 115.961 24.7703 116.621 22.183 117.942C19.6227 119.262 17.6553 121.108 16.2808 123.48C14.9333 125.852 14.2596 128.628 14.2596 131.808C14.2596 133.937 14.556 135.864 15.1489 137.589C15.7688 139.313 16.6716 140.809 17.8575 142.076C19.0433 143.343 20.5121 144.299 22.2639 144.946L20.7277 158.61C17.1163 157.748 13.9631 156.104 11.268 153.678C8.59995 151.279 6.52476 148.207 5.04248 144.461C3.58715 140.715 2.85949 136.43 2.85949 131.606ZM49.7534 219.451L48.2981 206.11C49.6456 205.733 50.9123 205.073 52.0981 204.129C53.2839 203.213 54.2407 201.973 54.9683 200.41C55.696 198.847 56.0598 196.934 56.0598 194.67C56.0598 191.624 55.3995 189.064 54.079 186.989C52.7584 184.941 51.047 183.93 48.9449 183.957C47.1392 183.93 45.6704 184.59 44.5385 185.938C43.4066 187.312 42.4768 189.576 41.7491 192.729L39.4853 203.321C38.2186 209.196 36.2108 213.562 33.4618 216.419C30.7129 219.303 27.115 220.758 22.6681 220.785C18.7603 220.758 15.3106 219.612 12.3191 217.349C9.35456 215.112 7.03681 211.999 5.36588 208.01C3.69495 204.022 2.85948 199.44 2.85948 194.266C2.85948 186.665 4.44956 180.548 7.62973 175.912C10.8368 171.277 15.2972 168.514 21.0107 167.625L22.3851 181.895C19.5823 182.542 17.4667 183.917 16.0383 186.019C14.6099 188.121 13.8957 190.856 13.8957 194.225C13.8957 197.702 14.6099 200.491 16.0383 202.593C17.4667 204.722 19.2319 205.787 21.3341 205.787C23.1128 205.787 24.5816 205.1 25.7405 203.725C26.8994 202.378 27.7887 200.275 28.4086 197.419L30.632 186.827C31.8717 180.871 33.9604 176.465 36.898 173.608C39.8626 170.751 43.6087 169.336 48.1364 169.363C51.9633 169.336 55.2783 170.374 58.0811 172.476C60.9109 174.605 63.0939 177.556 64.6301 181.329C66.1932 185.129 66.9748 189.509 66.9748 194.468C66.9748 201.744 65.4251 207.471 62.3258 211.649C59.2265 215.853 55.0357 218.454 49.7534 219.451ZM49.7534 280.706L48.2981 267.365C49.6456 266.988 50.9123 266.328 52.0981 265.385C53.2839 264.468 54.2407 263.229 54.9683 261.665C55.696 260.102 56.0598 258.189 56.0598 255.925C56.0598 252.88 55.3995 250.319 54.079 248.244C52.7584 246.196 51.047 245.185 48.9449 245.212C47.1392 245.185 45.6704 245.845 44.5385 247.193C43.4066 248.567 42.4768 250.831 41.7491 253.985L39.4852 264.576C38.2186 270.451 36.2108 274.817 33.4618 277.674C30.7129 280.558 27.115 282.013 22.6681 282.04C18.7603 282.013 15.3106 280.868 12.3191 278.604C9.35456 276.367 7.03681 273.254 5.36588 269.265C3.69495 265.277 2.85948 260.695 2.85948 255.521C2.85948 247.921 4.44956 241.803 7.62972 237.167C10.8368 232.532 15.2972 229.769 21.0107 228.88L22.3851 243.15C19.5823 243.797 17.4667 245.172 16.0383 247.274C14.6099 249.376 13.8957 252.111 13.8957 255.48C13.8957 258.957 14.6099 261.746 16.0383 263.848C17.4667 265.978 19.2319 267.042 21.3341 267.042C23.1128 267.042 24.5816 266.355 25.7405 264.98C26.8994 263.633 27.7887 261.531 28.4086 258.674L30.632 248.082C31.8717 242.126 33.9604 237.72 36.898 234.863C39.8626 232.006 43.6087 230.591 48.1364 230.618C51.9633 230.591 55.2783 231.629 58.0811 233.731C60.9109 235.86 63.0939 238.811 64.6301 242.584C66.1932 246.384 66.9748 250.764 66.9748 255.723C66.9748 262.999 65.4251 268.726 62.3258 272.904C59.2265 277.108 55.0357 279.709 49.7534 280.706ZM4.07225 320.546L86.8643 320.546L86.8643 351.593C86.8643 357.953 85.6784 363.289 83.3068 367.601C80.9352 371.94 77.6741 375.215 73.5238 377.425C69.4003 379.662 64.7109 380.78 59.4556 380.78C54.1463 380.78 49.43 379.662 45.3066 377.425C41.1831 375.188 37.9356 371.886 35.5639 367.52C33.2192 363.154 32.0469 357.778 32.0469 351.39L32.0469 330.814L44.3768 330.814L44.3768 349.369C44.3768 353.088 45.0236 356.134 46.3172 358.505C47.6108 360.877 49.3896 362.629 51.6534 363.761C53.9173 364.92 56.518 365.499 59.4556 365.499C62.3932 365.499 64.9804 364.92 67.2173 363.761C69.4542 362.629 71.1925 360.864 72.4323 358.465C73.6989 356.093 74.3323 353.034 74.3323 349.288L74.3323 335.544L4.07225 335.544L4.07225 320.546ZM2.81905 408.694C2.81905 404.759 3.51976 401.215 4.92119 398.062C6.34957 394.936 8.45171 392.456 11.2276 390.624C14.0035 388.818 17.4262 387.915 21.4958 387.915C24.9993 387.915 27.8965 388.562 30.1873 389.856C32.4781 391.149 34.3107 392.914 35.6852 395.151C37.0597 397.388 38.0973 399.908 38.798 402.711C39.5257 405.541 40.0512 408.465 40.3746 411.483C40.7519 415.122 41.0888 418.073 41.3853 420.337C41.7087 422.601 42.1938 424.244 42.8406 425.269C43.5143 426.32 44.5519 426.845 45.9534 426.845L46.1959 426.845C49.2413 426.845 51.5995 425.942 53.2704 424.137C54.9414 422.331 55.7768 419.73 55.7768 416.335C55.7768 412.75 54.9953 409.907 53.4321 407.805C51.869 405.729 50.0229 404.328 47.8938 403.6L49.8342 389.936C53.6073 391.014 56.7605 392.793 59.2939 395.273C61.8542 397.752 63.7677 400.784 65.0343 404.368C66.328 407.953 66.9748 411.915 66.9748 416.254C66.9748 419.245 66.6244 422.223 65.9237 425.188C65.223 428.152 64.0641 430.861 62.4471 433.313C60.857 435.766 58.6875 437.733 55.9385 439.216C53.1896 440.725 49.7534 441.479 45.63 441.479L4.07225 441.479L4.07225 427.411L12.6021 427.411L12.6021 426.926C10.8773 426.037 9.26022 424.783 7.75099 423.166C6.26872 421.576 5.06942 419.569 4.1531 417.143C3.26373 414.744 2.81905 411.928 2.81905 408.694ZM13.5723 412.494C13.5723 415.432 14.1517 417.978 15.3106 420.135C16.4964 422.291 18.0596 423.948 20 425.107C21.9404 426.293 24.0561 426.886 26.3469 426.886L33.6639 426.886C33.2866 426.427 32.9363 425.646 32.6129 424.541C32.2895 423.463 32.0065 422.25 31.7639 420.903C31.5214 419.555 31.3058 418.221 31.1171 416.9C30.9284 415.58 30.7667 414.434 30.632 413.464C30.3355 411.281 29.8504 409.327 29.1767 407.603C28.5029 405.878 27.5596 404.517 26.3469 403.52C25.161 402.522 23.6249 402.024 21.7383 402.024C19.0433 402.024 17.0085 403.007 15.634 404.975C14.2595 406.942 13.5723 409.449 13.5723 412.494ZM49.7534 504.048L48.2981 490.708C49.6456 490.331 50.9123 489.67 52.0981 488.727C53.2839 487.811 54.2407 486.571 54.9683 485.008C55.696 483.445 56.0598 481.531 56.0598 479.267C56.0598 476.222 55.3995 473.662 54.079 471.586C52.7584 469.538 51.047 468.528 48.9449 468.555C47.1392 468.528 45.6704 469.188 44.5385 470.535C43.4065 471.91 42.4767 474.174 41.7491 477.327L39.4852 487.918C38.2186 493.794 36.2107 498.16 33.4618 501.016C30.7128 503.9 27.1149 505.355 22.6681 505.382C18.7603 505.355 15.3106 504.21 12.3191 501.946C9.35455 499.709 7.0368 496.597 5.36587 492.608C3.69494 488.619 2.85947 484.038 2.85947 478.863C2.85947 471.263 4.44955 465.145 7.62971 460.51C10.8368 455.874 15.2971 453.112 21.0107 452.223L22.3851 466.493C19.5823 467.14 17.4667 468.514 16.0383 470.616C14.6099 472.718 13.8957 475.454 13.8957 478.823C13.8957 482.299 14.6099 485.089 16.0383 487.191C17.4667 489.32 19.2319 490.384 21.3341 490.384C23.1128 490.384 24.5816 489.697 25.7405 488.323C26.8993 486.975 27.7887 484.873 28.4086 482.016L30.632 471.425C31.8717 465.469 33.9604 461.062 36.898 458.206C39.8625 455.349 43.6087 453.934 48.1364 453.961C51.9633 453.934 55.2782 454.971 58.0811 457.074C60.9109 459.203 63.0939 462.154 64.6301 465.927C66.1932 469.727 66.9748 474.106 66.9748 479.065C66.9748 486.342 65.4251 492.069 62.3258 496.246C59.2265 500.45 55.0357 503.051 49.7534 504.048ZM49.7534 565.304L48.2981 551.963C49.6456 551.586 50.9123 550.925 52.0981 549.982C53.2839 549.066 54.2406 547.826 54.9683 546.263C55.696 544.7 56.0598 542.786 56.0598 540.523C56.0598 537.477 55.3995 534.917 54.0789 532.842C52.7584 530.793 51.047 529.783 48.9449 529.81C47.1392 529.783 45.6704 530.443 44.5385 531.791C43.4065 533.165 42.4767 535.429 41.7491 538.582L39.4852 549.174C38.2186 555.049 36.2107 559.415 33.4618 562.272C30.7128 565.155 27.1149 566.611 22.6681 566.638C18.7603 566.611 15.3106 565.465 12.3191 563.201C9.35454 560.965 7.0368 557.852 5.36587 553.863C3.69493 549.874 2.85947 545.293 2.85947 540.118C2.85947 532.518 4.44955 526.4 7.62971 521.765C10.8368 517.129 15.2971 514.367 21.0107 513.478L22.3851 527.748C19.5823 528.395 17.4667 529.769 16.0383 531.871C14.6099 533.974 13.8957 536.709 13.8957 540.078C13.8957 543.554 14.6099 546.344 16.0383 548.446C17.4667 550.575 19.2319 551.64 21.3341 551.64C23.1128 551.64 24.5816 550.952 25.7405 549.578C26.8993 548.23 27.7887 546.128 28.4086 543.272L30.632 532.68C31.8717 526.724 33.9604 522.317 36.898 519.461C39.8625 516.604 43.6087 515.189 48.1364 515.216C51.9633 515.189 55.2782 516.227 58.0811 518.329C60.9109 520.458 63.0939 523.409 64.6301 527.182C66.1932 530.982 66.9748 535.362 66.9748 540.32C66.9748 547.597 65.4251 553.324 62.3258 557.501C59.2265 561.706 55.0357 564.306 49.7534 565.304Z"/>
</mask>
<path d="M86.8643 2.81908L89.6833 2.81908L89.6833 2.93601e-05L86.8643 2.92369e-05L86.8643 2.81908ZM86.8643 21.1724L87.933 23.781L89.6833 23.0639L89.6833 21.1724L86.8643 21.1724ZM26.8724 45.7513L25.8037 43.1427L24.0534 43.8598L24.0534 45.7513L26.8724 45.7513ZM26.8724 46.7215L24.0534 46.7215L24.0534 48.613L25.8037 49.3301L26.8724 46.7215ZM86.8643 71.3004L89.6833 71.3004L89.6833 69.4089L87.933 68.6918L86.8643 71.3004ZM86.8643 89.6537L86.8643 92.4727L89.6833 92.4727L89.6833 89.6537L86.8643 89.6537ZM4.07226 89.6537L1.25321 89.6537L1.25321 92.4727L4.07226 92.4727L4.07226 89.6537ZM4.07226 75.2621L4.07226 72.443L1.25321 72.443L1.25321 75.2621L4.07226 75.2621ZM60.9514 75.2621L60.9514 78.0812L63.7704 78.0812L63.7704 75.2621L60.9514 75.2621ZM60.9514 74.494L63.7704 74.494L63.7704 72.5925L62.0073 71.8802L60.9514 74.494ZM4.31482 51.613L1.49576 51.613L1.49576 53.5145L3.25885 54.2268L4.31482 51.613ZM4.31482 40.8598L3.26079 38.2452L1.49576 38.9567L1.49576 40.8598L4.31482 40.8598ZM61.0726 17.9788L62.1267 20.5933L63.8917 19.8818L63.8917 17.9788L61.0726 17.9788ZM61.0726 17.2107L63.8917 17.2107L63.8917 14.3916L61.0726 14.3916L61.0726 17.2107ZM4.07226 17.2107L1.25321 17.2107L1.25321 20.0297L4.07226 20.0297L4.07226 17.2107ZM4.07227 2.81908L4.07227 2.56179e-05L1.25321 2.54947e-05L1.25321 2.81908L4.07227 2.81908ZM86.8643 2.81908L84.0452 2.81908L84.0452 21.1724L86.8643 21.1724L89.6833 21.1724L89.6833 2.81908L86.8643 2.81908ZM86.8643 21.1724L85.7955 18.5638L25.8037 43.1427L26.8724 45.7513L27.9412 48.3599L87.933 23.781L86.8643 21.1724ZM26.8724 45.7513L24.0534 45.7513L24.0534 46.7215L26.8724 46.7215L29.6915 46.7215L29.6915 45.7513L26.8724 45.7513ZM26.8724 46.7215L25.8037 49.3301L85.7955 73.909L86.8643 71.3004L87.933 68.6918L27.9412 44.1129L26.8724 46.7215ZM86.8643 71.3004L84.0452 71.3004L84.0452 89.6537L86.8643 89.6537L89.6833 89.6537L89.6833 71.3004L86.8643 71.3004ZM86.8643 89.6537L86.8643 86.8346L4.07226 86.8346L4.07226 89.6537L4.07226 92.4727L86.8643 92.4727L86.8643 89.6537ZM4.07226 89.6537L6.89132 89.6537L6.89132 75.2621L4.07226 75.2621L1.25321 75.2621L1.25321 89.6537L4.07226 89.6537ZM4.07226 75.2621L4.07226 78.0812L60.9514 78.0812L60.9514 75.2621L60.9514 72.4431L4.07226 72.443L4.07226 75.2621ZM60.9514 75.2621L63.7704 75.2621L63.7704 74.494L60.9514 74.494L58.1323 74.494L58.1323 75.2621L60.9514 75.2621ZM60.9514 74.494L62.0073 71.8802L5.37079 48.9992L4.31482 51.613L3.25885 54.2268L59.8954 77.1078L60.9514 74.494ZM4.31482 51.613L7.13387 51.613L7.13387 40.8598L4.31482 40.8598L1.49576 40.8598L1.49576 51.613L4.31482 51.613ZM4.31482 40.8598L5.36885 43.4743L62.1267 20.5933L61.0726 17.9788L60.0186 15.3642L3.26079 38.2452L4.31482 40.8598ZM61.0726 17.9788L63.8917 17.9788L63.8917 17.2107L61.0726 17.2107L58.2536 17.2107L58.2536 17.9788L61.0726 17.9788ZM61.0726 17.2107L61.0726 14.3916L4.07226 14.3916L4.07226 17.2107L4.07226 20.0297L61.0726 20.0297L61.0726 17.2107ZM4.07226 17.2107L6.89132 17.2107L6.89132 2.81908L4.07227 2.81908L1.25321 2.81908L1.25321 17.2107L4.07226 17.2107ZM4.07227 2.81908L4.07227 5.63814L86.8643 5.63814L86.8643 2.81908L86.8643 2.92369e-05L4.07227 2.56179e-05L4.07227 2.81908ZM6.74037 115.476L4.30268 114.06L4.29768 114.068L4.29273 114.077L6.74037 115.476ZM17.817 105.086L16.545 102.57L16.5393 102.573L17.817 105.086ZM51.5726 105.086L52.8445 102.57L52.8389 102.568L51.5726 105.086ZM62.8918 115.354L60.4889 116.829L60.4955 116.839L62.8918 115.354ZM65.1152 141.672L62.4671 140.705L62.4625 140.717L62.458 140.73L65.1152 141.672ZM59.4556 150.727L57.4416 148.754L57.4365 148.76L57.4315 148.765L59.4556 150.727ZM49.6726 156.953L48.669 154.318L48.663 154.32L49.6726 156.953ZM31.1171 159.216L28.2981 159.216L28.2981 162.035L31.1171 162.035L31.1171 159.216ZM31.1171 108.32L31.1171 105.501L28.2981 105.501L28.2981 108.32L31.1171 108.32ZM40.981 108.32L43.8001 108.32L43.8001 105.501L40.981 105.501L40.981 108.32ZM40.981 145.189L38.162 145.189L38.162 148.035L41.0081 148.008L40.981 145.189ZM48.4598 143.369L47.1269 140.885L47.1205 140.889L47.1142 140.892L48.4598 143.369ZM53.6747 138.397L51.2601 136.942L51.256 136.949L51.252 136.956L53.6747 138.397ZM53.3917 123.157L51.0076 124.661L51.0139 124.671L51.0204 124.681L53.3917 123.157ZM47.7321 117.861L49.072 115.38L49.0617 115.375L47.7321 117.861ZM40.0916 115.961L40.119 113.142L40.1053 113.142L40.0916 113.142L40.0916 115.961ZM22.183 117.942L20.9014 115.431L20.8907 115.436L22.183 117.942ZM16.2808 123.48L13.8418 122.066L13.8358 122.077L13.8298 122.087L16.2808 123.48ZM15.1489 137.589L12.483 138.505L12.4894 138.524L12.496 138.542L15.1489 137.589ZM17.8575 142.076L19.9154 140.149L17.8575 142.076ZM22.2639 144.946L25.0653 145.261L25.312 143.066L23.2403 142.302L22.2639 144.946ZM20.7277 158.61L20.0729 161.352L23.173 162.092L23.5291 158.925L20.7277 158.61ZM11.2681 153.678L13.1539 151.583L13.1527 151.582L11.2681 153.678ZM5.04248 144.461L2.41475 145.482L2.41793 145.49L2.42117 145.498L5.04248 144.461ZM2.85948 131.606L5.67854 131.606C5.67854 125.775 6.8874 120.9 9.18799 116.874L6.74037 115.476L4.29273 114.077C1.41883 119.106 0.0404301 124.985 0.0404298 131.606L2.85948 131.606ZM6.74037 115.476L9.17805 116.892C11.5114 112.874 14.7944 109.786 19.0948 107.599L17.817 105.086L16.5393 102.573C11.2992 105.238 7.19777 109.075 4.30268 114.06L6.74037 115.476ZM17.817 105.086L19.089 107.602C23.418 105.413 28.6113 104.267 34.7554 104.267L34.7554 101.448L34.7554 98.6289C27.9094 98.6289 21.8105 99.9082 16.545 102.57L17.817 105.086ZM34.7554 101.448L34.7554 104.267C40.7829 104.267 45.9407 105.41 50.3062 107.605L51.5726 105.086L52.8389 102.568C47.5561 99.9115 41.5025 98.6289 34.7554 98.6289L34.7554 101.448ZM51.5726 105.086L50.3007 107.602C54.7122 109.832 58.0823 112.906 60.4889 116.829L62.8918 115.354L65.2947 113.88C62.3112 109.017 58.1351 105.245 52.8445 102.57L51.5726 105.086ZM62.8918 115.354L60.4955 116.839C62.9023 120.724 64.1557 125.354 64.1557 130.837L66.9748 130.837L69.7938 130.837C69.7938 124.463 68.3253 118.771 65.2881 113.87L62.8918 115.354ZM66.9748 130.837L64.1557 130.837C64.1557 134.354 63.5872 137.637 62.4671 140.705L65.1152 141.672L67.7633 142.638C69.1226 138.915 69.7938 134.975 69.7938 130.837L66.9748 130.837ZM65.1152 141.672L62.458 140.73C61.3832 143.763 59.7174 146.431 57.4416 148.754L59.4556 150.727L61.4696 152.699C64.3144 149.795 66.4216 146.425 67.7724 142.613L65.1152 141.672ZM59.4556 150.727L57.4315 148.765C55.1988 151.068 52.3041 152.933 48.669 154.318L49.6726 156.953L50.6761 159.587C54.9645 157.953 58.5918 155.668 61.4797 152.689L59.4556 150.727ZM49.6726 156.953L48.663 154.32C45.1292 155.676 40.7991 156.397 35.6044 156.397L35.6044 159.216L35.6044 162.035C41.2977 162.035 46.3463 161.248 50.6821 159.585L49.6726 156.953ZM35.6044 159.216L35.6044 156.397L31.1171 156.397L31.1171 159.216L31.1171 162.035L35.6044 162.035L35.6044 159.216ZM31.1171 159.216L33.9362 159.216L33.9362 108.32L31.1171 108.32L28.2981 108.32L28.2981 159.216L31.1171 159.216ZM31.1171 108.32L31.1171 111.139L40.981 111.139L40.981 108.32L40.981 105.501L31.1171 105.501L31.1171 108.32ZM40.981 108.32L38.162 108.32L38.162 145.189L40.981 145.189L43.8001 145.189L43.8001 108.32L40.981 108.32ZM40.981 145.189L41.0081 148.008C44.2119 147.977 47.1679 147.279 49.8054 145.847L48.4598 143.369L47.1142 140.892C45.3857 141.831 43.3558 142.347 40.9539 142.37L40.981 145.189ZM48.4598 143.369L49.7927 145.853C52.448 144.429 54.5655 142.413 56.0974 139.838L53.6747 138.397L51.252 136.956C50.2505 138.639 48.8915 139.939 47.1269 140.885L48.4598 143.369ZM53.6747 138.397L56.0893 139.852C57.6565 137.251 58.3938 134.281 58.3938 131.04L55.5747 131.04L52.7557 131.04C52.7557 133.404 52.2263 135.339 51.2601 136.942L53.6747 138.397ZM55.5747 131.04L58.3938 131.04C58.3938 127.57 57.5427 124.4 55.7631 121.632L53.3917 123.157L51.0204 124.681C52.1514 126.44 52.7557 128.526 52.7557 131.04L55.5747 131.04ZM53.3917 123.157L55.7759 121.652C54.0903 118.981 51.8449 116.878 49.072 115.381L47.7321 117.861L46.3922 120.341C48.3088 121.376 49.8365 122.805 51.0076 124.661L53.3917 123.157ZM47.7321 117.861L49.0617 115.375C46.3206 113.909 43.3232 113.173 40.119 113.142L40.0916 115.961L40.0643 118.78C42.4119 118.802 44.5082 119.333 46.4025 120.347L47.7321 117.861ZM40.0916 115.961L40.0916 113.142L31.4809 113.142L31.4809 115.961L31.4809 118.78L40.0916 118.78L40.0916 115.961ZM31.4809 115.961L31.4809 113.142C27.5303 113.142 23.9704 113.864 20.9014 115.431L22.183 117.942L23.4646 120.453C25.5701 119.378 28.2089 118.78 31.4809 118.78L31.4809 115.961ZM22.183 117.942L20.8907 115.436C17.8773 116.991 15.5005 119.204 13.8418 122.066L16.2808 123.48L18.7199 124.894C19.8102 123.012 21.3681 121.534 23.4753 120.447L22.183 117.942ZM16.2808 123.48L13.8298 122.087C12.2037 124.949 11.4405 128.221 11.4405 131.808L14.2596 131.808L17.0786 131.808C17.0786 129.034 17.6629 126.754 18.7319 124.873L16.2808 123.48ZM14.2596 131.808L11.4405 131.808C11.4405 134.198 11.7733 136.441 12.483 138.505L15.1489 137.589L17.8149 136.672C17.3387 135.287 17.0786 133.676 17.0786 131.808L14.2596 131.808ZM15.1489 137.589L12.496 138.542C13.2383 140.608 14.3365 142.44 15.7995 144.002L17.8575 142.076L19.9154 140.149C19.0068 139.179 18.2992 138.019 17.8019 136.635L15.1489 137.589ZM17.8575 142.076L15.7995 144.002C17.3076 145.613 19.1562 146.804 21.2874 147.591L22.2639 144.946L23.2403 142.302C21.8679 141.795 20.779 141.072 19.9154 140.149L17.8575 142.076ZM22.2639 144.946L19.4625 144.631L17.9263 158.295L20.7277 158.61L23.5291 158.925L25.0653 145.261L22.2639 144.946ZM20.7277 158.61L21.3825 155.868C18.2175 155.112 15.4904 153.685 13.1539 151.583L11.2681 153.678L9.3822 155.773C12.4358 158.522 16.0151 160.383 20.0729 161.352L20.7277 158.61ZM11.2681 153.678L13.1527 151.582C10.8467 149.508 9.0056 146.815 7.66379 143.424L5.04248 144.461L2.42117 145.498C4.04392 149.599 6.3532 153.05 9.38337 155.774L11.2681 153.678ZM5.04248 144.461L7.67021 143.44C6.36389 140.078 5.67854 136.149 5.67854 131.606L2.85948 131.606L0.0404298 131.606C0.0404296 136.711 0.810418 141.352 2.41475 145.482L5.04248 144.461ZM49.7534 219.451L46.951 219.757L47.2815 222.786L50.2763 222.221L49.7534 219.451ZM48.2981 206.11L47.538 203.396L45.2365 204.04L45.4956 206.416L48.2981 206.11ZM52.0981 204.129L50.3744 201.899L50.3587 201.911L50.3432 201.923L52.0981 204.129ZM54.9683 200.41L57.524 201.6L57.524 201.6L54.9683 200.41ZM54.079 186.989L56.4573 185.475L56.4528 185.468L56.4483 185.461L54.079 186.989ZM48.9449 183.957L48.9028 186.776L48.9419 186.776L48.981 186.776L48.9449 183.957ZM44.5385 185.938L42.3799 184.125L42.3711 184.135L42.3624 184.146L44.5385 185.938ZM41.7491 192.729L39.0022 192.095L38.9971 192.118L38.9923 192.14L41.7491 192.729ZM39.4853 203.321L42.241 203.915L42.242 203.91L39.4853 203.321ZM33.4618 216.419L31.4305 214.464L31.4213 214.474L33.4618 216.419ZM22.6681 220.785L22.6487 223.604L22.6669 223.604L22.6852 223.604L22.6681 220.785ZM12.3191 217.349L14.0203 215.101L14.0171 215.098L12.3191 217.349ZM5.36588 208.01L2.76576 209.1L5.36588 208.01ZM7.62973 175.912L5.31142 174.308L5.30513 174.317L7.62973 175.912ZM21.0107 167.625L23.8167 167.355L23.5302 164.38L20.5771 164.839L21.0107 167.625ZM22.3851 181.895L23.019 184.642L25.4283 184.086L25.1912 181.625L22.3851 181.895ZM16.0383 186.019L18.37 187.603V187.603L16.0383 186.019ZM16.0383 202.593L18.3793 201.023L18.3747 201.016L18.37 201.009L16.0383 202.593ZM25.7405 203.725L23.6031 201.887L23.5941 201.897L23.5853 201.908L25.7405 203.725ZM28.4086 197.419L31.1635 198.017L31.1655 198.007L31.1675 197.998L28.4086 197.419ZM30.632 186.827L33.3909 187.406L33.3919 187.402L30.632 186.827ZM36.898 173.608L34.9419 171.578L34.9326 171.587L36.898 173.608ZM48.1364 169.363L48.1196 172.182L48.1379 172.182L48.1562 172.182L48.1364 169.363ZM58.0811 172.476L59.776 170.223L59.7725 170.221L58.0811 172.476ZM64.6301 181.329L62.0191 182.392L62.023 182.402L64.6301 181.329ZM62.3258 211.649L60.0618 209.969L60.0567 209.976L62.3258 211.649ZM49.7534 219.451L52.5558 219.145L51.1005 205.805L48.2981 206.11L45.4956 206.416L46.951 219.757L49.7534 219.451ZM48.2981 206.11L49.0582 208.825C50.797 208.338 52.3974 207.493 53.853 206.336L52.0981 204.129L50.3432 201.923C49.4271 202.652 48.4942 203.128 47.538 203.396L48.2981 206.11ZM52.0981 204.129L53.8218 206.36C55.4145 205.129 56.635 203.51 57.524 201.6L54.9683 200.41L52.4126 199.221C51.8464 200.437 51.1534 201.297 50.3744 201.899L52.0981 204.129ZM54.9683 200.41L57.524 201.6C58.4705 199.567 58.8789 197.222 58.8789 194.67L56.0598 194.67L53.2408 194.67C53.2408 196.646 52.9215 198.127 52.4126 199.221L54.9683 200.41ZM56.0598 194.67L58.8789 194.67C58.8789 191.216 58.1273 188.1 56.4573 185.475L54.079 186.989L51.7006 188.502C52.6718 190.028 53.2408 192.033 53.2408 194.67L56.0598 194.67ZM54.079 186.989L56.4483 185.461C54.7001 182.75 52.1502 181.097 48.9087 181.138L48.9449 183.957L48.981 186.776C49.9438 186.763 50.8167 187.131 51.7097 188.516L54.079 186.989ZM48.9449 183.957L48.987 181.138C46.3596 181.099 44.0732 182.109 42.3799 184.125L44.5385 185.938L46.697 187.751C47.2675 187.072 47.9188 186.761 48.9028 186.776L48.9449 183.957ZM44.5385 185.938L42.3624 184.146C40.8102 186.03 39.7603 188.811 39.0022 192.095L41.7491 192.729L44.496 193.363C45.1932 190.342 46.0029 188.594 46.7146 187.73L44.5385 185.938ZM41.7491 192.729L38.9923 192.14L36.7285 202.732L39.4853 203.321L42.242 203.91L44.5059 193.319L41.7491 192.729ZM39.4853 203.321L36.7295 202.727C35.5204 208.335 33.6747 212.132 31.4305 214.464L33.4618 216.419L35.4931 218.374C38.7468 214.992 40.9168 210.057 42.241 203.915L39.4853 203.321ZM33.4618 216.419L31.4213 214.474C29.2642 216.737 26.4306 217.943 22.651 217.966L22.6681 220.785L22.6852 223.604C27.7993 223.573 32.1615 221.869 35.5023 218.364L33.4618 216.419ZM22.6681 220.785L22.6876 217.966C19.3601 217.943 16.5062 216.982 14.0203 215.101L12.3191 217.349L10.618 219.597C14.1151 222.243 18.1605 223.573 22.6487 223.604L22.6681 220.785ZM12.3191 217.349L14.0171 215.098C11.512 213.208 9.47626 210.526 7.966 206.921L5.36588 208.01L2.76576 209.1C4.59736 213.472 7.1971 217.015 10.6211 219.599L12.3191 217.349ZM5.36588 208.01L7.966 206.921C6.46503 203.338 5.67853 199.138 5.67853 194.266L2.85948 194.266L0.0404271 194.266C0.0404268 199.742 0.924872 204.705 2.76576 209.1L5.36588 208.01ZM2.85948 194.266L5.67853 194.266C5.67853 187.039 7.1917 181.534 9.95432 177.507L7.62973 175.912L5.30513 174.317C1.70743 179.562 0.0404274 186.292 0.0404271 194.266L2.85948 194.266ZM7.62973 175.912L9.94802 177.516C12.7028 173.534 16.4721 171.184 21.4443 170.41L21.0107 167.625L20.5771 164.839C14.1222 165.844 8.97092 169.019 5.31144 174.308L7.62973 175.912ZM21.0107 167.625L18.2046 167.895L19.5791 182.166L22.3851 181.895L25.1912 181.625L23.8167 167.355L21.0107 167.625ZM22.3851 181.895L21.7513 179.148C18.3545 179.932 15.5875 181.666 13.7066 184.434L16.0383 186.019L18.37 187.603C19.3458 186.167 20.8101 185.152 23.019 184.642L22.3851 181.895ZM16.0383 186.019L13.7066 184.434C11.8722 187.134 11.0767 190.472 11.0767 194.225L13.8957 194.225L16.7148 194.225C16.7148 191.24 17.3476 189.108 18.37 187.603L16.0383 186.019ZM13.8957 194.225L11.0767 194.225C11.0767 198.064 11.8633 201.465 13.7066 204.178L16.0383 202.593L18.37 201.009C17.3565 199.517 16.7148 197.339 16.7148 194.225L13.8957 194.225ZM16.0383 202.593L13.6973 204.164C15.5179 206.878 18.0789 208.606 21.3341 208.606L21.3341 205.787L21.3341 202.968C20.385 202.968 19.4154 202.567 18.3793 201.023L16.0383 202.593ZM21.3341 205.787L21.3341 208.606C23.954 208.606 26.2078 207.544 27.8957 205.542L25.7405 203.725L23.5853 201.908C22.9554 202.655 22.2716 202.968 21.3341 202.968L21.3341 205.787ZM25.7405 203.725L27.8778 205.563C29.4795 203.701 30.5011 201.069 31.1635 198.017L28.4086 197.419L25.6536 196.821C25.0763 199.482 24.3192 201.054 23.6031 201.887L25.7405 203.725ZM28.4086 197.419L31.1675 197.998L33.3909 187.406L30.632 186.827L27.8731 186.248L25.6497 196.84L28.4086 197.419ZM30.632 186.827L33.3919 187.402C34.5694 181.744 36.4806 177.946 38.8634 175.629L36.898 173.608L34.9326 171.587C31.4402 174.983 29.174 179.998 27.8721 186.253L30.632 186.827ZM36.898 173.608L38.8541 175.638C41.234 173.345 44.247 172.159 48.1196 172.182L48.1364 169.363L48.1532 166.544C42.9704 166.513 38.4911 168.158 34.9419 171.578L36.898 173.608ZM48.1364 169.363L48.1562 172.182C51.4268 172.159 54.1264 173.034 56.3897 174.731L58.0811 172.476L59.7725 170.221C56.4301 167.714 52.4999 166.513 48.1165 166.544L48.1364 169.363ZM58.0811 172.476L56.3863 174.729C58.7507 176.508 60.6458 179.019 62.0191 182.392L64.6301 181.329L67.241 180.266C65.5421 176.093 63.0712 172.703 59.776 170.223L58.0811 172.476ZM64.6301 181.329L62.023 182.402C63.4204 185.799 64.1557 189.802 64.1557 194.468L66.9748 194.468L69.7938 194.468C69.7938 189.215 68.966 184.46 67.2372 180.257L64.6301 181.329ZM66.9748 194.468L64.1557 194.468C64.1557 201.375 62.682 206.437 60.0618 209.969L62.3258 211.649L64.5898 213.328C68.1682 208.505 69.7938 202.114 69.7938 194.468L66.9748 194.468ZM62.3258 211.649L60.0567 209.976C57.3934 213.589 53.8356 215.811 49.2305 216.681L49.7534 219.451L50.2763 222.221C56.2358 221.096 61.0596 218.117 64.595 213.321L62.3258 211.649ZM49.7534 280.706L46.951 281.012L47.2815 284.041L50.2763 283.476L49.7534 280.706ZM48.2981 267.365L47.538 264.651L45.2365 265.295L45.4956 267.671L48.2981 267.365ZM52.0981 265.385L50.3744 263.154L50.3587 263.166L50.3432 263.178L52.0981 265.385ZM54.9683 261.665L57.524 262.855L57.524 262.855L54.9683 261.665ZM54.079 248.244L56.4573 246.731L56.4528 246.724L56.4483 246.716L54.079 248.244ZM48.9449 245.212L48.9028 248.031L48.9419 248.031L48.981 248.031L48.9449 245.212ZM44.5385 247.193L42.3799 245.38L42.3711 245.39L42.3624 245.401L44.5385 247.193ZM41.7491 253.985L39.0022 253.351L38.9971 253.373L38.9923 253.395L41.7491 253.985ZM39.4852 264.576L42.241 265.17L42.242 265.165L39.4852 264.576ZM33.4618 277.674L31.4305 275.719L31.4213 275.729L33.4618 277.674ZM22.6681 282.04L22.6487 284.859L22.6669 284.859L22.6852 284.859L22.6681 282.04ZM12.3191 278.604L14.0203 276.356L14.0171 276.354L12.3191 278.604ZM5.36588 269.265L2.76576 270.355L5.36588 269.265ZM7.62973 237.167L5.31141 235.563L5.30513 235.573L7.62973 237.167ZM21.0107 228.88L23.8167 228.61L23.5302 225.635L20.5771 226.095L21.0107 228.88ZM22.3851 243.15L23.019 245.897L25.4283 245.341L25.1912 242.88L22.3851 243.15ZM16.0383 247.274L18.37 248.858V248.858L16.0383 247.274ZM16.0383 263.848L18.3793 262.278L18.3747 262.271L18.37 262.264L16.0383 263.848ZM25.7405 264.98L23.6031 263.142L23.5941 263.153L23.5853 263.163L25.7405 264.98ZM28.4086 258.674L31.1635 259.272L31.1655 259.262L31.1675 259.253L28.4086 258.674ZM30.632 248.082L33.3909 248.662L33.3919 248.657L30.632 248.082ZM36.898 234.863L34.9419 232.833L34.9326 232.842L36.898 234.863ZM48.1364 230.618L48.1196 233.437L48.1379 233.438L48.1562 233.437L48.1364 230.618ZM58.0811 233.731L59.776 231.479L59.7725 231.476L58.0811 233.731ZM64.6301 242.584L62.0191 243.647L62.023 243.657L64.6301 242.584ZM62.3258 272.904L60.0618 271.224L60.0567 271.231L62.3258 272.904ZM49.7534 280.706L52.5558 280.4L51.1005 267.06L48.2981 267.365L45.4956 267.671L46.951 281.012L49.7534 280.706ZM48.2981 267.365L49.0582 270.08C50.797 269.593 52.3974 268.749 53.853 267.591L52.0981 265.385L50.3432 263.178C49.4271 263.907 48.4942 264.383 47.538 264.651L48.2981 267.365ZM52.0981 265.385L53.8218 267.615C55.4144 266.385 56.635 264.765 57.524 262.855L54.9683 261.665L52.4126 260.476C51.8463 261.692 51.1534 262.552 50.3744 263.154L52.0981 265.385ZM54.9683 261.665L57.524 262.855C58.4705 260.822 58.8789 258.477 58.8789 255.925L56.0598 255.925L53.2408 255.925C53.2408 257.901 52.9215 259.383 52.4126 260.476L54.9683 261.665ZM56.0598 255.925L58.8789 255.925C58.8789 252.471 58.1273 249.355 56.4573 246.731L54.079 248.244L51.7006 249.758C52.6717 251.284 53.2408 253.288 53.2408 255.925L56.0598 255.925ZM54.079 248.244L56.4483 246.716C54.7001 244.005 52.1502 242.352 48.9087 242.393L48.9449 245.212L48.981 248.031C49.9438 248.019 50.8167 248.387 51.7097 249.772L54.079 248.244ZM48.9449 245.212L48.987 242.393C46.3596 242.354 44.0732 243.364 42.3799 245.38L44.5385 247.193L46.697 249.006C47.2675 248.327 47.9188 248.016 48.9028 248.031L48.9449 245.212ZM44.5385 247.193L42.3624 245.401C40.8102 247.286 39.7603 250.066 39.0022 253.351L41.7491 253.985L44.496 254.618C45.1932 251.597 46.0029 249.849 46.7146 248.985L44.5385 247.193ZM41.7491 253.985L38.9923 253.395L36.7285 263.987L39.4852 264.576L42.242 265.165L44.5059 254.574L41.7491 253.985ZM39.4852 264.576L36.7295 263.982C35.5204 269.59 33.6747 273.387 31.4305 275.719L33.4618 277.674L35.4931 279.629C38.7468 276.247 40.9168 271.312 42.241 265.17L39.4852 264.576ZM33.4618 277.674L31.4213 275.729C29.2642 277.992 26.4306 279.198 22.651 279.221L22.6681 282.04L22.6852 284.859C27.7993 284.828 32.1615 283.124 35.5023 279.619L33.4618 277.674ZM22.6681 282.04L22.6876 279.221C19.3601 279.198 16.5062 278.237 14.0203 276.356L12.3191 278.604L10.618 280.852C14.1151 283.498 18.1605 284.828 22.6487 284.859L22.6681 282.04ZM12.3191 278.604L14.0171 276.354C11.512 274.463 9.47626 271.781 7.966 268.176L5.36588 269.265L2.76576 270.355C4.59736 274.727 7.1971 278.271 10.6211 280.854L12.3191 278.604ZM5.36588 269.265L7.966 268.176C6.46502 264.593 5.67853 260.393 5.67853 255.521L2.85948 255.521L0.0404244 255.521C0.0404241 260.997 0.924869 265.96 2.76576 270.355L5.36588 269.265ZM2.85948 255.521L5.67853 255.521C5.67853 248.294 7.1917 242.789 9.95432 238.762L7.62973 237.167L5.30513 235.573C1.70742 240.817 0.0404247 247.547 0.0404244 255.521L2.85948 255.521ZM7.62973 237.167L9.94802 238.771C12.7028 234.79 16.4721 232.44 21.4443 231.666L21.0107 228.88L20.5771 226.095C14.1222 227.099 8.97091 230.274 5.31144 235.563L7.62973 237.167ZM21.0107 228.88L18.2046 229.15L19.5791 243.421L22.3851 243.15L25.1912 242.88L23.8167 228.61L21.0107 228.88ZM22.3851 243.15L21.7512 240.404C18.3545 241.187 15.5875 242.921 13.7066 245.689L16.0383 247.274L18.37 248.858C19.3458 247.422 20.8101 246.407 23.019 245.897L22.3851 243.15ZM16.0383 247.274L13.7066 245.689C11.8722 248.389 11.0767 251.727 11.0767 255.48L13.8957 255.48L16.7148 255.48C16.7148 252.495 17.3476 250.363 18.37 248.858L16.0383 247.274ZM13.8957 255.48L11.0767 255.48C11.0767 259.32 11.8633 262.72 13.7066 265.433L16.0383 263.848L18.37 262.264C17.3565 260.772 16.7148 258.594 16.7148 255.48L13.8957 255.48ZM16.0383 263.848L13.6973 265.419C15.5179 268.133 18.0789 269.861 21.3341 269.861L21.3341 267.042L21.3341 264.223C20.385 264.223 19.4154 263.822 18.3793 262.278L16.0383 263.848ZM21.3341 267.042L21.3341 269.861C23.954 269.861 26.2078 268.799 27.8957 266.797L25.7405 264.98L23.5853 263.163C22.9554 263.91 22.2716 264.223 21.3341 264.223L21.3341 267.042ZM25.7405 264.98L27.8778 266.818C29.4795 264.956 30.5011 262.325 31.1635 259.272L28.4086 258.674L25.6536 258.076C25.0763 260.737 24.3192 262.31 23.6031 263.142L25.7405 264.98ZM28.4086 258.674L31.1675 259.253L33.3909 248.662L30.632 248.082L27.8731 247.503L25.6497 258.095L28.4086 258.674ZM30.632 248.082L33.3919 248.657C34.5694 243 36.4806 239.201 38.8634 236.884L36.898 234.863L34.9326 232.842C31.4402 236.238 29.174 241.253 27.8721 247.508L30.632 248.082ZM36.898 234.863L38.8541 236.893C41.234 234.6 44.247 233.414 48.1196 233.437L48.1364 230.618L48.1531 227.799C42.9704 227.769 38.4911 229.413 34.9419 232.833L36.898 234.863ZM48.1364 230.618L48.1562 233.437C51.4268 233.414 54.1264 234.289 56.3897 235.986L58.0811 233.731L59.7725 231.476C56.4301 228.969 52.4999 227.769 48.1165 227.799L48.1364 230.618ZM58.0811 233.731L56.3863 235.984C58.7507 237.763 60.6458 240.274 62.0191 243.647L64.6301 242.584L67.241 241.521C65.5421 237.348 63.0712 233.958 59.776 231.479L58.0811 233.731ZM64.6301 242.584L62.023 243.657C63.4204 247.054 64.1557 251.058 64.1557 255.723L66.9748 255.723L69.7938 255.723C69.7938 250.47 68.966 245.715 67.2372 241.512L64.6301 242.584ZM66.9748 255.723L64.1557 255.723C64.1557 262.63 62.682 267.693 60.0618 271.224L62.3258 272.904L64.5898 274.584C68.1682 269.76 69.7938 263.369 69.7938 255.723L66.9748 255.723ZM62.3258 272.904L60.0567 271.231C57.3934 274.844 53.8356 277.066 49.2305 277.936L49.7534 280.706L50.2763 283.476C56.2358 282.351 61.0596 279.372 64.595 274.577L62.3258 272.904ZM4.07225 320.546L4.07225 317.727L1.2532 317.727L1.2532 320.546L4.07225 320.546ZM86.8643 320.546L89.6833 320.546L89.6833 317.727L86.8643 317.727L86.8643 320.546ZM83.3068 367.601L80.8367 366.243L80.8331 366.249L83.3068 367.601ZM73.5238 377.425L72.1988 374.936L72.1892 374.942L72.1795 374.947L73.5238 377.425ZM45.3066 377.425L43.9623 379.903V379.903L45.3066 377.425ZM35.5639 367.52L33.0803 368.854L33.0868 368.866L35.5639 367.52ZM32.0469 330.814L32.0469 327.995L29.2278 327.995L29.2278 330.814L32.0469 330.814ZM44.3768 330.814L47.1958 330.814L47.1958 327.995L44.3768 327.995L44.3768 330.814ZM46.3172 358.505L43.8424 359.855V359.855L46.3172 358.505ZM51.6534 363.761L52.938 361.251L52.9261 361.245L52.9141 361.239L51.6534 363.761ZM67.2173 363.761L65.9445 361.245L65.9325 361.251L65.9206 361.258L67.2173 363.761ZM72.4323 358.465L69.9456 357.137L69.9367 357.154L69.9279 357.171L72.4323 358.465ZM74.3323 335.544L77.1513 335.544L77.1513 332.724L74.3323 332.724L74.3323 335.544ZM4.07225 335.544L1.2532 335.544L1.2532 338.363L4.07225 338.363L4.07225 335.544ZM4.07225 320.546L4.07225 323.365L86.8643 323.365L86.8643 320.546L86.8643 317.727L4.07225 317.727L4.07225 320.546ZM86.8643 320.546L84.0452 320.546L84.0452 351.593L86.8643 351.593L89.6833 351.593L89.6833 320.546L86.8643 320.546ZM86.8643 351.593L84.0452 351.593C84.0452 357.613 82.9221 362.451 80.8367 366.243L83.3068 367.601L85.7769 368.96C88.4348 364.127 89.6833 358.293 89.6833 351.593L86.8643 351.593ZM83.3068 367.601L80.8331 366.249C78.711 370.132 75.8379 372.999 72.1988 374.936L73.5238 377.425L74.8487 379.913C79.5104 377.431 83.1593 373.749 85.7805 368.953L83.3068 367.601ZM73.5238 377.425L72.1795 374.947C68.5165 376.934 64.2988 377.961 59.4556 377.961L59.4556 380.78L59.4556 383.599C65.123 383.599 70.2842 382.389 74.868 379.903L73.5238 377.425ZM59.4556 380.78L59.4556 377.961C54.5531 377.961 50.3097 376.932 46.6508 374.947L45.3066 377.425L43.9623 379.903C48.5502 382.391 53.7395 383.599 59.4556 383.599L59.4556 380.78ZM45.3066 377.425L46.6508 374.947C43.0354 372.986 40.1687 370.091 38.0411 366.175L35.5639 367.52L33.0868 368.866C35.7025 373.681 39.3308 377.39 43.9623 379.903L45.3066 377.425ZM35.5639 367.52L38.0475 366.187C35.9776 362.332 34.866 357.443 34.866 351.39L32.0469 351.39L29.2278 351.39C29.2278 358.112 30.4609 363.977 33.0804 368.854L35.5639 367.52ZM32.0469 351.39L34.866 351.39L34.866 330.814L32.0469 330.814L29.2278 330.814L29.2278 351.39L32.0469 351.39ZM32.0469 330.814L32.0469 333.633L44.3768 333.633L44.3768 330.814L44.3768 327.995L32.0469 327.995L32.0469 330.814ZM44.3768 330.814L41.5577 330.814L41.5577 349.369L44.3768 349.369L47.1958 349.369L47.1958 330.814L44.3768 330.814ZM44.3768 349.369L41.5577 349.369C41.5577 353.391 42.2538 356.943 43.8424 359.855L46.3172 358.505L48.792 357.155C47.7933 355.325 47.1958 352.786 47.1958 349.369L44.3768 349.369ZM46.3172 358.505L43.8424 359.855C45.392 362.696 47.5786 364.875 50.3927 366.282L51.6534 363.761L52.9141 361.239C51.2005 360.383 49.8296 359.058 48.792 357.155L46.3172 358.505ZM51.6534 363.761L50.3688 366.27C53.0878 367.662 56.1408 368.318 59.4556 368.318L59.4556 365.499L59.4556 362.68C56.8952 362.68 54.7467 362.177 52.938 361.251L51.6534 363.761ZM59.4556 365.499L59.4556 368.318C62.7695 368.318 65.8148 367.662 68.5141 366.264L67.2173 363.761L65.9206 361.258C64.1461 362.177 62.0169 362.68 59.4556 362.68L59.4556 365.499ZM67.2173 363.761L68.4902 366.276C71.2971 364.856 73.447 362.641 74.9366 359.759L72.4323 358.465L69.9279 357.171C68.9381 359.086 67.6114 360.402 65.9445 361.245L67.2173 363.761ZM72.4323 358.465L74.9189 359.793C76.4727 356.884 77.1513 353.325 77.1513 349.288L74.3323 349.288L71.5132 349.288C71.5132 352.743 70.9252 355.303 69.9456 357.137L72.4323 358.465ZM74.3323 349.288L77.1513 349.288L77.1513 335.544L74.3323 335.544L71.5132 335.544L71.5132 349.288L74.3323 349.288ZM74.3323 335.544L74.3323 332.724L4.07225 332.724L4.07225 335.544L4.07225 338.363L74.3323 338.363L74.3323 335.544ZM4.07225 335.544L6.8913 335.544L6.89131 320.546L4.07225 320.546L1.2532 320.546L1.2532 335.544L4.07225 335.544ZM4.92119 398.062L2.35709 396.891L2.35103 396.904L2.34511 396.917L4.92119 398.062ZM11.2276 390.624L9.69046 388.261L9.68243 388.266L9.67444 388.271L11.2276 390.624ZM30.1873 389.856L31.5735 387.401V387.401L30.1873 389.856ZM35.6852 395.151L38.0871 393.676L38.0871 393.676L35.6852 395.151ZM38.798 402.711L36.0631 403.395L36.0654 403.404L36.0678 403.413L38.798 402.711ZM40.3746 411.483L43.1786 411.193L43.1776 411.183L40.3746 411.483ZM41.3853 420.337L38.5901 420.703L38.5922 420.719L38.5945 420.735L41.3853 420.337ZM42.8406 425.269L40.4571 426.774L40.4622 426.782L40.4673 426.79L42.8406 425.269ZM53.2704 424.137L55.3395 426.051V426.051L53.2704 424.137ZM53.4321 407.805L55.6943 406.123L55.6891 406.116L55.6839 406.109L53.4321 407.805ZM47.8938 403.6L45.1028 403.204L44.7748 405.514L46.9821 406.268L47.8938 403.6ZM49.8342 389.936L50.6087 387.226L47.4981 386.337L47.0432 389.54L49.8342 389.936ZM59.2939 395.273L57.3221 397.287L57.3274 397.293L57.3327 397.298L59.2939 395.273ZM65.0343 404.368L62.3764 405.308L62.3795 405.317L62.3827 405.325L65.0343 404.368ZM62.4471 433.313L60.0936 431.762L60.0876 431.771L60.0817 431.78L62.4471 433.313ZM55.9385 439.216L54.6006 436.734L54.5912 436.739L54.5818 436.744L55.9385 439.216ZM4.07225 441.479L1.25319 441.479L1.25319 444.298L4.07225 444.298L4.07225 441.479ZM4.07225 427.411L4.07225 424.592L1.25319 424.592L1.25319 427.411L4.07225 427.411ZM12.6021 427.411L12.6021 430.23L15.4211 430.23L15.4211 427.411L12.6021 427.411ZM12.6021 426.926L15.4211 426.926L15.4211 425.208L13.894 424.42L12.6021 426.926ZM7.751 423.166L5.68895 425.089L5.69011 425.09L7.751 423.166ZM4.1531 417.143L1.50989 418.123L1.5129 418.131L1.51595 418.139L4.1531 417.143ZM15.3106 420.135L12.8275 421.469L12.834 421.481L12.8405 421.493L15.3106 420.135ZM20 425.107L21.47 422.701L21.4578 422.694L21.4455 422.687L20 425.107ZM33.6639 426.886L33.6639 429.705L39.6375 429.705L35.84 425.094L33.6639 426.886ZM32.6129 424.541L35.3184 423.749L35.3157 423.74L35.313 423.731L32.6129 424.541ZM31.7639 420.903L28.9894 421.402V421.402L31.7639 420.903ZM30.632 413.464L27.8386 413.844L27.8397 413.852L30.632 413.464ZM29.1767 407.603L31.8025 406.577V406.577L29.1767 407.603ZM26.3469 403.52L24.5325 405.677L24.5444 405.687L24.5565 405.697L26.3469 403.52ZM15.634 404.975L13.3231 403.36V403.36L15.634 404.975ZM2.81905 408.694L5.6381 408.694C5.6381 405.099 6.27704 401.953 7.49727 399.207L4.92119 398.062L2.34511 396.917C0.762487 400.478 -1.02821e-05 404.42 -1.04689e-05 408.694L2.81905 408.694ZM4.92119 398.062L7.48529 399.234C8.70175 396.571 10.4611 394.508 12.7808 392.976L11.2276 390.624L9.67444 388.271C6.4423 390.405 3.99738 393.3 2.35709 396.891L4.92119 398.062ZM11.2276 390.624L12.7648 392.987C14.9883 391.54 17.8464 390.734 21.4958 390.734L21.4958 387.915L21.4958 385.096C17.006 385.096 13.0187 386.096 9.69046 388.261L11.2276 390.624ZM21.4958 387.915L21.4958 390.734C24.6692 390.734 27.0508 391.322 28.8011 392.31L30.1873 389.856L31.5735 387.401C28.7423 385.802 25.3295 385.096 21.4958 385.096L21.4958 387.915ZM30.1873 389.856L28.8011 392.31C30.6768 393.37 32.1596 394.798 33.2834 396.627L35.6852 395.151L38.0871 393.676C36.4619 391.031 34.2794 388.929 31.5735 387.401L30.1873 389.856ZM35.6852 395.151L33.2834 396.627C34.4927 398.595 35.4253 400.844 36.0631 403.395L38.798 402.711L41.5329 402.027C40.7693 398.973 39.6267 396.181 38.0871 393.676L35.6852 395.151ZM38.798 402.711L36.0678 403.413C36.7602 406.106 37.2621 408.896 37.5716 411.784L40.3746 411.483L43.1776 411.183C42.8403 408.034 42.2911 404.976 41.5282 402.009L38.798 402.711ZM40.3746 411.483L37.5706 411.774C37.9492 415.425 38.289 418.404 38.5901 420.703L41.3853 420.337L44.1804 419.971C43.8886 417.742 43.5547 414.819 43.1786 411.193L40.3746 411.483ZM41.3853 420.337L38.5945 420.735C38.933 423.105 39.484 425.233 40.4571 426.774L42.8406 425.269L45.2241 423.763C44.9035 423.256 44.4843 422.096 44.176 419.938L41.3853 420.337ZM42.8406 425.269L40.4673 426.79C41.7302 428.76 43.7304 429.664 45.9534 429.664L45.9534 426.845L45.9534 424.026C45.6055 424.026 45.4489 423.962 45.3979 423.936C45.3606 423.917 45.3001 423.882 45.2139 423.747L42.8406 425.269ZM45.9534 426.845L45.9534 429.664L46.1959 429.664L46.1959 426.845L46.1959 424.026L45.9534 424.026L45.9534 426.845ZM46.1959 426.845L46.1959 429.664C49.8264 429.664 53.0126 428.566 55.3395 426.051L53.2704 424.137L51.2014 422.222C50.1864 423.319 48.6562 424.026 46.1959 424.026L46.1959 426.845ZM53.2704 424.137L55.3395 426.051C57.6502 423.554 58.5959 420.168 58.5959 416.335L55.7768 416.335L52.9578 416.334C52.9578 419.293 52.2326 421.108 51.2014 422.222L53.2704 424.137ZM55.7768 416.335L58.5959 416.335C58.5959 412.363 57.7311 408.862 55.6943 406.123L53.4321 407.805L51.1699 409.487C52.2595 410.952 52.9578 413.137 52.9578 416.334L55.7768 416.335ZM53.4321 407.805L55.6839 406.109C53.8353 403.654 51.5475 401.87 48.8055 400.933L47.8938 403.6L46.9821 406.268C48.4983 406.786 49.9027 407.804 51.1804 409.501L53.4321 407.805ZM47.8938 403.6L50.6849 403.997L52.6253 390.333L49.8342 389.936L47.0432 389.54L45.1028 403.204L47.8938 403.6ZM49.8342 389.936L49.0598 392.647C52.4313 393.61 55.1585 395.17 57.3221 397.287L59.2939 395.273L61.2657 393.258C58.3626 390.417 54.7834 388.419 50.6087 387.226L49.8342 389.936ZM59.2939 395.273L57.3327 397.298C59.5593 399.454 61.245 402.106 62.3764 405.308L65.0343 404.368L67.6923 403.429C66.2903 399.462 64.1491 396.05 61.255 393.248L59.2939 395.273ZM65.0343 404.368L62.3827 405.325C63.5513 408.564 64.1557 412.196 64.1557 416.254L66.9748 416.254L69.7938 416.254C69.7938 411.633 69.1046 407.342 67.686 403.411L65.0343 404.368ZM66.9748 416.254L64.1557 416.254C64.1557 419.023 63.8317 421.783 63.1802 424.539L65.9237 425.188L68.6672 425.836C69.4172 422.663 69.7938 419.467 69.7938 416.254L66.9748 416.254ZM65.9237 425.188L63.1802 424.539C62.5527 427.194 61.522 429.595 60.0936 431.762L62.4471 433.313L64.8006 434.865C66.6063 432.127 67.8933 429.11 68.6672 425.836L65.9237 425.188ZM62.4471 433.313L60.0817 431.78C58.7667 433.808 56.9624 435.461 54.6006 436.734L55.9385 439.216L57.2765 441.697C60.4126 440.006 62.9473 437.724 64.8125 434.847L62.4471 433.313ZM55.9385 439.216L54.5818 436.744C52.3592 437.965 49.4236 438.66 45.63 438.66L45.63 441.479L45.63 444.298C50.0832 444.298 54.02 443.485 57.2952 441.687L55.9385 439.216ZM45.63 441.479L45.63 438.66L4.07225 438.66L4.07225 441.479L4.07225 444.298L45.63 444.298L45.63 441.479ZM4.07225 441.479L6.8913 441.479L6.8913 427.411L4.07225 427.411L1.25319 427.411L1.25319 441.479L4.07225 441.479ZM4.07225 427.411L4.07225 430.23L12.6021 430.23L12.6021 427.411L12.6021 424.592L4.07225 424.592L4.07225 427.411ZM12.6021 427.411L15.4211 427.411L15.4211 426.926L12.6021 426.926L9.78303 426.926L9.78303 427.411L12.6021 427.411ZM12.6021 426.926L13.894 424.42C12.4942 423.699 11.1306 422.656 9.81188 421.243L7.751 423.166L5.69011 425.09C7.38983 426.911 9.26027 428.375 11.3101 429.432L12.6021 426.926ZM7.751 423.166L9.81304 421.244C8.62413 419.969 7.60141 418.294 6.79025 416.147L4.1531 417.143L1.51595 418.139C2.53742 420.843 3.9133 423.184 5.68895 425.089L7.751 423.166ZM4.1531 417.143L6.79631 416.163C6.04941 414.149 5.6381 411.678 5.6381 408.694L2.81905 408.694L-1.04689e-05 408.694C-1.06212e-05 412.178 0.478055 415.34 1.50989 418.123L4.1531 417.143ZM13.5723 412.494L10.7533 412.494C10.7533 415.805 11.408 418.828 12.8275 421.469L15.3106 420.135L17.7937 418.8C16.8955 417.129 16.3914 415.059 16.3914 412.494L13.5723 412.494ZM15.3106 420.135L12.8405 421.493C14.2455 424.048 16.1467 426.089 18.5546 427.527L20 425.107L21.4455 422.687C19.9725 421.807 18.7474 420.534 17.7807 418.776L15.3106 420.135ZM20 425.107L18.53 427.512C20.9165 428.971 23.5414 429.705 26.3469 429.705L26.3469 426.886L26.3469 424.067C24.5708 424.067 22.9644 423.615 21.47 422.701L20 425.107ZM26.3469 426.886L26.3469 429.705L33.6639 429.705L33.6639 426.886L33.6639 424.067L26.3469 424.067L26.3469 426.886ZM33.6639 426.886L35.84 425.094C35.8649 425.124 35.8041 425.056 35.6906 424.803C35.5823 424.561 35.4554 424.217 35.3184 423.749L32.6129 424.541L29.9073 425.333C30.2561 426.524 30.7343 427.763 31.4878 428.678L33.6639 426.886ZM32.6129 424.541L35.313 423.731C35.0259 422.774 34.7659 421.667 34.5384 420.403L31.7639 420.903L28.9894 421.402C29.247 422.833 29.553 424.152 29.9127 425.351L32.6129 424.541ZM31.7639 420.903L34.5384 420.403C34.3017 419.088 34.0915 417.788 33.9078 416.502L31.1171 416.9L28.3264 417.299C28.52 418.654 28.741 420.022 28.9894 421.402L31.7639 420.903ZM31.1171 416.9L33.9078 416.502C33.7195 415.184 33.5584 414.042 33.4242 413.076L30.632 413.464L27.8397 413.852C27.9751 414.827 28.1374 415.976 28.3264 417.299L31.1171 416.9ZM30.632 413.464L33.4254 413.085C33.1044 410.721 32.5711 408.545 31.8025 406.577L29.1767 407.603L26.5508 408.628C27.1297 410.11 27.5667 411.842 27.8386 413.844L30.632 413.464ZM29.1767 407.603L31.8025 406.577C30.9849 404.484 29.7842 402.696 28.1373 401.342L26.3469 403.52L24.5565 405.697C25.3351 406.337 26.0209 407.272 26.5508 408.628L29.1767 407.603ZM26.3469 403.52L28.1612 401.362C26.3632 399.85 24.1386 399.205 21.7383 399.205L21.7383 402.024L21.7383 404.843C23.1111 404.843 23.9588 405.195 24.5325 405.677L26.3469 403.52ZM21.7383 402.024L21.7383 399.205C18.2541 399.205 15.296 400.536 13.3231 403.36L15.634 404.975L17.945 406.589C18.721 405.479 19.8325 404.843 21.7383 404.843L21.7383 402.024ZM15.634 404.975L13.3231 403.36C11.5387 405.914 10.7533 409.027 10.7533 412.494L13.5723 412.494L16.3914 412.494C16.3914 409.871 16.9804 407.97 17.945 406.589L15.634 404.975ZM49.7534 504.048L46.951 504.354L47.2815 507.384L50.2763 506.818L49.7534 504.048ZM48.2981 490.708L47.538 487.993L45.2364 488.638L45.4956 491.014L48.2981 490.708ZM52.0981 488.727L50.3744 486.496L50.3587 486.508L50.3432 486.521L52.0981 488.727ZM54.9683 485.008L57.524 486.198L57.524 486.198L54.9683 485.008ZM54.079 471.586L56.4573 470.073L56.4528 470.066L56.4483 470.059L54.079 471.586ZM48.9449 468.555L48.9028 471.373L48.9419 471.374L48.981 471.373L48.9449 468.555ZM44.5385 470.535L42.3799 468.722L42.3711 468.733L42.3623 468.743L44.5385 470.535ZM41.7491 477.327L39.0022 476.693L38.9971 476.715L38.9923 476.738L41.7491 477.327ZM39.4852 487.918L42.241 488.513L42.242 488.508L39.4852 487.918ZM33.4618 501.016L31.4304 499.062L31.4213 499.071L33.4618 501.016ZM22.6681 505.382L22.6487 508.201L22.6669 508.202L22.6852 508.201L22.6681 505.382ZM12.3191 501.946L14.0202 499.698L14.0171 499.696L12.3191 501.946ZM5.36587 492.608L2.76575 493.697L5.36587 492.608ZM7.62972 460.51L5.3114 458.906L5.30512 458.915L7.62972 460.51ZM21.0107 452.222L23.8167 451.952L23.5302 448.977L20.5771 449.437L21.0107 452.222ZM22.3851 466.493L23.019 469.24L25.4282 468.684L25.1912 466.223L22.3851 466.493ZM16.0383 470.616L18.37 472.201V472.201L16.0383 470.616ZM16.0383 487.191L18.3793 485.62L18.3747 485.613L18.37 485.606L16.0383 487.191ZM25.7405 488.323L23.6031 486.485L23.5941 486.495L23.5852 486.506L25.7405 488.323ZM28.4086 482.016L31.1635 482.614L31.1655 482.605L31.1675 482.595L28.4086 482.016ZM30.632 471.425L33.3909 472.004L33.3919 471.999L30.632 471.425ZM36.898 458.206L34.9418 456.176L34.9326 456.185L36.898 458.206ZM48.1364 453.961L48.1196 456.78L48.1379 456.78L48.1562 456.78L48.1364 453.961ZM58.0811 457.074L59.776 454.821L59.7725 454.818L58.0811 457.074ZM64.6301 465.927L62.0191 466.99L62.023 466.999L64.6301 465.927ZM62.3258 496.246L60.0618 494.566L60.0567 494.573L62.3258 496.246ZM49.7534 504.048L52.5558 503.743L51.1005 490.402L48.2981 490.708L45.4956 491.014L46.951 504.354L49.7534 504.048ZM48.2981 490.708L49.0582 493.423C50.797 492.936 52.3974 492.091 53.853 490.933L52.0981 488.727L50.3432 486.521C49.4271 487.249 48.4942 487.725 47.538 487.993L48.2981 490.708ZM52.0981 488.727L53.8218 490.958C55.4144 489.727 56.635 488.107 57.524 486.198L54.9683 485.008L52.4126 483.818C51.8463 485.035 51.1534 485.894 50.3744 486.496L52.0981 488.727ZM54.9683 485.008L57.524 486.198C58.4705 484.164 58.8789 481.819 58.8789 479.267L56.0598 479.267L53.2408 479.267C53.2408 481.243 52.9215 482.725 52.4126 483.818L54.9683 485.008ZM56.0598 479.267L58.8789 479.267C58.8789 475.813 58.1273 472.697 56.4573 470.073L54.079 471.586L51.7006 473.1C52.6717 474.626 53.2408 476.63 53.2408 479.267L56.0598 479.267ZM54.079 471.586L56.4483 470.059C54.7001 467.347 52.1502 465.694 48.9087 465.736L48.9449 468.555L48.981 471.373C49.9438 471.361 50.8167 471.729 51.7097 473.114L54.079 471.586ZM48.9449 468.555L48.9869 465.736C46.3595 465.697 44.0732 466.706 42.3799 468.722L44.5385 470.535L46.697 472.349C47.2675 471.669 47.9188 471.359 48.9028 471.373L48.9449 468.555ZM44.5385 470.535L42.3623 468.743C40.8102 470.628 39.7603 473.408 39.0022 476.693L41.7491 477.327L44.4959 477.961C45.1932 474.939 46.0029 473.192 46.7146 472.327L44.5385 470.535ZM41.7491 477.327L38.9923 476.738L36.7284 487.329L39.4852 487.918L42.242 488.508L44.5059 477.916L41.7491 477.327ZM39.4852 487.918L36.7295 487.324C35.5204 492.933 33.6747 496.729 31.4305 499.062L33.4618 501.016L35.4931 502.971C38.7468 499.59 40.9167 494.655 42.241 488.513L39.4852 487.918ZM33.4618 501.016L31.4213 499.071C29.2642 501.334 26.4306 502.541 22.651 502.563L22.6681 505.382L22.6852 508.201C27.7993 508.17 32.1615 506.466 35.5023 502.962L33.4618 501.016ZM22.6681 505.382L22.6876 502.563C19.3601 502.54 16.5062 501.58 14.0202 499.698L12.3191 501.946L10.618 504.194C14.1151 506.841 18.1605 508.17 22.6487 508.201L22.6681 505.382ZM12.3191 501.946L14.0171 499.696C11.512 497.806 9.47625 495.124 7.96599 491.519L5.36587 492.608L2.76575 493.697C4.59735 498.069 7.19709 501.613 10.6211 504.197L12.3191 501.946ZM5.36587 492.608L7.96599 491.519C6.46501 487.936 5.67852 483.736 5.67852 478.863L2.85947 478.863L0.0404146 478.863C0.0404144 484.34 0.924859 489.303 2.76575 493.697L5.36587 492.608ZM2.85947 478.863L5.67852 478.863C5.67852 471.636 7.19169 466.131 9.95431 462.105L7.62972 460.51L5.30512 458.915C1.70742 464.159 0.040415 470.89 0.0404146 478.863L2.85947 478.863ZM7.62972 460.51L9.94801 462.114C12.7028 458.132 16.4721 455.782 21.4442 455.008L21.0107 452.222L20.5771 449.437C14.1222 450.442 8.9709 453.617 5.31143 458.906L7.62972 460.51ZM21.0107 452.222L18.2046 452.493L19.5791 466.763L22.3851 466.493L25.1912 466.223L23.8167 451.952L21.0107 452.222ZM22.3851 466.493L21.7512 463.746C18.3545 464.53 15.5875 466.264 13.7066 469.032L16.0383 470.616L18.37 472.201C19.3458 470.764 20.8101 469.749 23.019 469.24L22.3851 466.493ZM16.0383 470.616L13.7066 469.032C11.8722 471.732 11.0767 475.07 11.0767 478.823L13.8957 478.823L16.7148 478.823C16.7148 475.838 17.3476 473.705 18.37 472.201L16.0383 470.616ZM13.8957 478.823L11.0767 478.823C11.0767 482.662 11.8633 486.062 13.7066 488.775L16.0383 487.191L18.37 485.606C17.3565 484.115 16.7148 481.937 16.7148 478.823L13.8957 478.823ZM16.0383 487.191L13.6973 488.761C15.5179 491.475 18.0789 493.204 21.3341 493.204L21.3341 490.384L21.3341 487.565C20.385 487.565 19.4154 487.165 18.3793 485.62L16.0383 487.191ZM21.3341 490.384L21.3341 493.204C23.954 493.204 26.2078 492.142 27.8957 490.14L25.7405 488.323L23.5852 486.506C22.9554 487.253 22.2716 487.565 21.3341 487.565L21.3341 490.384ZM25.7405 488.323L27.8778 490.161C29.4795 488.298 30.5011 485.667 31.1635 482.614L28.4086 482.016L25.6536 481.419C25.0763 484.079 24.3191 485.652 23.6031 486.485L25.7405 488.323ZM28.4086 482.016L31.1675 482.595L33.3909 472.004L30.632 471.425L27.8731 470.846L25.6497 481.437L28.4086 482.016ZM30.632 471.425L33.3919 471.999C34.5694 466.342 36.4806 462.544 38.8634 460.227L36.898 458.206L34.9326 456.185C31.4402 459.581 29.174 464.595 27.8721 470.85L30.632 471.425ZM36.898 458.206L38.8541 460.235C41.234 457.942 44.247 456.757 48.1196 456.78L48.1364 453.961L48.1531 451.142C42.9704 451.111 38.4911 452.755 34.9419 456.176L36.898 458.206ZM48.1364 453.961L48.1562 456.78C51.4268 456.757 54.1264 457.631 56.3897 459.329L58.0811 457.074L59.7725 454.818C56.4301 452.312 52.4999 451.111 48.1165 451.142L48.1364 453.961ZM58.0811 457.074L56.3862 459.326C58.7507 461.105 60.6458 463.617 62.0191 466.99L64.6301 465.927L67.241 464.864C65.542 460.691 63.0711 457.3 59.776 454.821L58.0811 457.074ZM64.6301 465.927L62.023 466.999C63.4204 470.397 64.1557 474.4 64.1557 479.065L66.9748 479.065L69.7938 479.065C69.7938 473.813 68.966 469.057 67.2372 464.854L64.6301 465.927ZM66.9748 479.065L64.1557 479.065C64.1557 485.972 62.682 491.035 60.0618 494.566L62.3258 496.246L64.5898 497.926C68.1682 493.103 69.7938 486.712 69.7938 479.065L66.9748 479.065ZM62.3258 496.246L60.0567 494.573C57.3934 498.186 53.8356 500.409 49.2305 501.278L49.7534 504.048L50.2763 506.818C56.2358 505.694 61.0596 502.715 64.5949 497.919L62.3258 496.246ZM49.7534 565.304L46.951 565.609L47.2815 568.639L50.2763 568.074L49.7534 565.304ZM48.2981 551.963L47.538 549.248L45.2364 549.893L45.4956 552.269L48.2981 551.963ZM52.0981 549.982L50.3744 547.752L50.3587 547.764L50.3432 547.776L52.0981 549.982ZM54.9683 546.263L57.524 547.453L57.524 547.453L54.9683 546.263ZM54.0789 532.842L56.4573 531.328L56.4528 531.321L56.4482 531.314L54.0789 532.842ZM48.9449 529.81L48.9028 532.628L48.9419 532.629L48.981 532.629L48.9449 529.81ZM44.5385 531.791L42.3799 529.977L42.3711 529.988L42.3623 529.998L44.5385 531.791ZM41.7491 538.582L39.0022 537.948L38.9971 537.971L38.9923 537.993L41.7491 538.582ZM39.4852 549.174L42.241 549.768L42.242 549.763L39.4852 549.174ZM33.4618 562.272L31.4304 560.317L31.4213 560.327L33.4618 562.272ZM22.6681 566.638L22.6487 569.457L22.6669 569.457L22.6852 569.457L22.6681 566.638ZM12.3191 563.201L14.0202 560.953L14.0171 560.951L12.3191 563.201ZM5.36587 553.863L2.76575 554.952L5.36587 553.863ZM7.62971 521.765L5.3114 520.161L5.30511 520.17L7.62971 521.765ZM21.0107 513.478L23.8167 513.207L23.5302 510.232L20.5771 510.692L21.0107 513.478ZM22.3851 527.748L23.019 530.495L25.4282 529.939L25.1912 527.478L22.3851 527.748ZM16.0383 531.871L18.37 533.456V533.456L16.0383 531.871ZM16.0383 548.446L18.3793 546.875L18.3747 546.869L18.37 546.862L16.0383 548.446ZM25.7405 549.578L23.6031 547.74L23.5941 547.75L23.5852 547.761L25.7405 549.578ZM28.4086 543.271L31.1635 543.869L31.1655 543.86L31.1675 543.851L28.4086 543.271ZM30.632 532.68L33.3909 533.259L33.3919 533.254L30.632 532.68ZM36.898 519.461L34.9418 517.431L34.9326 517.44L36.898 519.461ZM48.1364 515.216L48.1196 518.035L48.1379 518.035L48.1562 518.035L48.1364 515.216ZM58.0811 518.329L59.776 516.076L59.7725 516.074L58.0811 518.329ZM64.6301 527.182L62.0191 528.245L62.023 528.254L64.6301 527.182ZM62.3258 557.501L60.0618 555.822L60.0567 555.829L62.3258 557.501ZM49.7534 565.304L52.5558 564.998L51.1005 551.657L48.2981 551.963L45.4956 552.269L46.951 565.609L49.7534 565.304ZM48.2981 551.963L49.0582 554.678C50.797 554.191 52.3974 553.346 53.853 552.188L52.0981 549.982L50.3432 547.776C49.4271 548.505 48.4942 548.981 47.538 549.248L48.2981 551.963ZM52.0981 549.982L53.8218 552.213C55.4144 550.982 56.635 549.363 57.524 547.453L54.9683 546.263L52.4126 545.073C51.8463 546.29 51.1534 547.15 50.3744 547.752L52.0981 549.982ZM54.9683 546.263L57.524 547.453C58.4705 545.42 58.8789 543.074 58.8789 540.523L56.0598 540.523L53.2408 540.523C53.2408 542.498 52.9215 543.98 52.4126 545.073L54.9683 546.263ZM56.0598 540.523L58.8789 540.523C58.8789 537.069 58.1273 533.953 56.4573 531.328L54.0789 532.842L51.7006 534.355C52.6717 535.881 53.2408 537.886 53.2408 540.523L56.0598 540.523ZM54.0789 532.842L56.4482 531.314C54.7001 528.603 52.1502 526.949 48.9087 526.991L48.9449 529.81L48.981 532.629C49.9438 532.616 50.8167 532.984 51.7096 534.369L54.0789 532.842ZM48.9449 529.81L48.9869 526.991C46.3595 526.952 44.0732 527.961 42.3799 529.977L44.5385 531.791L46.697 533.604C47.2675 532.925 47.9188 532.614 48.9028 532.628L48.9449 529.81ZM44.5385 531.791L42.3623 529.998C40.8102 531.883 39.7603 534.663 39.0022 537.948L41.7491 538.582L44.4959 539.216C45.1932 536.194 46.0029 534.447 46.7146 533.583L44.5385 531.791ZM41.7491 538.582L38.9923 537.993L36.7284 548.584L39.4852 549.174L42.242 549.763L44.5059 539.171L41.7491 538.582ZM39.4852 549.174L36.7295 548.58C35.5204 554.188 33.6747 557.985 31.4305 560.317L33.4618 562.272L35.4931 564.226C38.7468 560.845 40.9167 555.91 42.241 549.768L39.4852 549.174ZM33.4618 562.272L31.4213 560.327C29.2642 562.589 26.4306 563.796 22.651 563.819L22.6681 566.638L22.6852 569.457C27.7993 569.426 32.1615 567.721 35.5023 564.217L33.4618 562.272ZM22.6681 566.638L22.6876 563.819C19.3601 563.796 16.5062 562.835 14.0202 560.953L12.3191 563.201L10.618 565.449C14.115 568.096 18.1605 569.426 22.6487 569.457L22.6681 566.638ZM12.3191 563.201L14.0171 560.951C11.512 559.061 9.47625 556.379 7.96599 552.774L5.36587 553.863L2.76575 554.952C4.59735 559.325 7.19709 562.868 10.6211 565.452L12.3191 563.201ZM5.36587 553.863L7.96599 552.774C6.46501 549.191 5.67852 544.991 5.67852 540.118L2.85947 540.118L0.0404119 540.118C0.0404117 545.595 0.924857 550.558 2.76575 554.952L5.36587 553.863ZM2.85947 540.118L5.67852 540.118C5.67852 532.892 7.19169 527.387 9.95431 523.36L7.62971 521.765L5.30511 520.17C1.70741 525.414 0.0404123 532.145 0.0404119 540.118L2.85947 540.118ZM7.62971 521.765L9.94801 523.369C12.7028 519.387 16.4721 517.037 21.4442 516.263L21.0107 513.478L20.5771 510.692C14.1222 511.697 8.9709 514.872 5.31142 520.161L7.62971 521.765ZM21.0107 513.478L18.2046 513.748L19.5791 528.018L22.3851 527.748L25.1912 527.478L23.8167 513.207L21.0107 513.478ZM22.3851 527.748L21.7512 525.001C18.3545 525.785 15.5875 527.519 13.7066 530.287L16.0383 531.871L18.37 533.456C19.3458 532.02 20.8101 531.005 23.019 530.495L22.3851 527.748ZM16.0383 531.871L13.7066 530.287C11.8722 532.987 11.0767 536.325 11.0767 540.078L13.8957 540.078L16.7148 540.078C16.7148 537.093 17.3476 534.96 18.37 533.456L16.0383 531.871ZM13.8957 540.078L11.0767 540.078C11.0767 543.917 11.8633 547.318 13.7066 550.03L16.0383 548.446L18.37 546.862C17.3565 545.37 16.7148 543.192 16.7148 540.078L13.8957 540.078ZM16.0383 548.446L13.6972 550.017C15.5179 552.73 18.0789 554.459 21.3341 554.459L21.3341 551.64L21.3341 548.821C20.3849 548.821 19.4154 548.42 18.3793 546.875L16.0383 548.446ZM21.3341 551.64L21.3341 554.459C23.954 554.459 26.2078 553.397 27.8957 551.395L25.7405 549.578L23.5852 547.761C22.9554 548.508 22.2716 548.821 21.3341 548.821L21.3341 551.64ZM25.7405 549.578L27.8778 551.416C29.4795 549.554 30.5011 546.922 31.1635 543.869L28.4086 543.271L25.6536 542.674C25.0763 545.334 24.3191 546.907 23.6031 547.74L25.7405 549.578ZM28.4086 543.271L31.1675 543.851L33.3909 533.259L30.632 532.68L27.8731 532.101L25.6496 542.692L28.4086 543.271ZM30.632 532.68L33.3919 533.254C34.5694 527.597 36.4806 523.799 38.8633 521.482L36.898 519.461L34.9326 517.44C31.4402 520.836 29.174 525.851 27.8721 532.105L30.632 532.68ZM36.898 519.461L38.8541 521.491C41.234 519.197 44.247 518.012 48.1196 518.035L48.1364 515.216L48.1531 512.397C42.9704 512.366 38.4911 514.011 34.9419 517.431L36.898 519.461ZM48.1364 515.216L48.1562 518.035C51.4268 518.012 54.1264 518.887 56.3897 520.584L58.0811 518.329L59.7725 516.074C56.4301 513.567 52.4999 512.366 48.1165 512.397L48.1364 515.216ZM58.0811 518.329L56.3862 520.581C58.7507 522.36 60.6458 524.872 62.0191 528.245L64.6301 527.182L67.241 526.119C65.542 521.946 63.0711 518.555 59.776 516.076L58.0811 518.329ZM64.6301 527.182L62.023 528.254C63.4204 531.652 64.1557 535.655 64.1557 540.32L66.9748 540.32L69.7938 540.32C69.7938 535.068 68.966 530.312 67.2372 526.11L64.6301 527.182ZM66.9748 540.32L64.1557 540.32C64.1557 547.227 62.682 552.29 60.0618 555.822L62.3258 557.501L64.5898 559.181C68.1682 554.358 69.7938 547.967 69.7938 540.32L66.9748 540.32ZM62.3258 557.501L60.0567 555.829C57.3934 559.441 53.8356 561.664 49.2305 562.533L49.7534 565.304L50.2763 568.074C56.2358 566.949 61.0596 563.97 64.5949 559.174L62.3258 557.501Z" fill="url(#paint0_linear_445_545)" mask="url(#path-1-outside-1_445_545)"/>
<defs>
<linearGradient id="paint0_linear_445_545" x1="127.072" y1="283.153" x2="-35.9277" y2="283.153" gradientUnits="userSpaceOnUse">
<stop stop-color="white"/>
<stop offset="1" stop-color="#999999"/>
</linearGradient>
</defs>
</svg>
