<svg width="332" height="332" viewBox="0 0 332 332" fill="none" xmlns="http://www.w3.org/2000/svg">
<path d="M188.304 12.6689C188.304 12.6689 133.072 5.64382 89.1021 45.6498C45.1321 85.6558 32.3368 148.796 20.6238 199.691C8.91086 250.587 31.706 294.776 74.7863 307.784C117.867 320.792 137.083 283.528 190.621 270.248C244.159 256.968 260.341 261.476 298.382 221.271C336.422 181.066 328.813 107.415 281.928 61.9444C235.043 16.4737 188.304 12.6689 188.304 12.6689Z" fill="#92E3A9"/>
<path opacity="0.7" d="M188.304 12.6689C188.304 12.6689 133.072 5.64382 89.1021 45.6498C45.1321 85.6558 32.3368 148.796 20.6238 199.691C8.91086 250.587 31.706 294.776 74.7863 307.784C117.867 320.792 137.083 283.528 190.621 270.248C244.159 256.968 260.341 261.476 298.382 221.271C336.422 181.066 328.813 107.415 281.928 61.9444C235.043 16.4737 188.304 12.6689 188.304 12.6689Z" fill="white"/>
<path d="M16.7461 137.634H318.72" stroke="#263238" stroke-width="0.664" stroke-linecap="round" stroke-linejoin="round"/>
<path d="M32.3701 137.654C32.3701 137.654 75.0255 110.483 81.2604 110.483C87.4954 110.483 127.634 137.362 127.634 137.362C127.634 137.362 211.019 105.809 218.456 106.2C225.893 106.592 245.733 116.718 246.902 117.11C248.071 117.502 264.438 112.827 269.478 114.773C274.518 116.718 309.318 137.667 309.318 137.667L32.3701 137.654Z" stroke="#263238" stroke-width="0.664" stroke-linecap="round" stroke-linejoin="round"/>
<path d="M114.739 137.648C110.224 134.607 101.884 128.737 100.928 126.824C99.6001 124.168 95.6161 126.824 90.9681 125.496C86.3201 124.168 81.2604 110.483 81.2604 110.483C75.0255 110.483 32.3701 137.654 32.3701 137.654L114.739 137.648Z" stroke="#263238" stroke-width="0.664" stroke-miterlimit="10"/>
<path d="M222.712 120.377C219.956 118.278 217.367 115.967 214.97 113.465L217.268 106.293C204.871 108.139 127.628 137.362 127.628 137.362L127.389 137.203L126.671 137.475L309.271 137.667L309.105 137.568C303.627 136.486 295.825 134.912 295.161 134.759C294.053 134.487 284.371 133.378 284.371 133.378C284.371 133.378 274.697 130.337 272.758 129.228C270.819 128.119 263.907 121.207 264.737 119.826C265.567 118.445 268.329 114.574 268.329 114.574L267.625 114.381C261.271 113.717 247.911 117.462 246.855 117.11L235.421 120.656C235.421 120.656 227.692 124.248 222.712 120.377Z" stroke="#263238" stroke-width="0.664" stroke-miterlimit="10"/>
<path d="M323.142 232.155L169.891 137.634L9.24951 236.617" stroke="#263238" stroke-width="0.664" stroke-linecap="round" stroke-linejoin="round"/>
<path d="M103.206 168.105L32.7485 208.284" stroke="#263238" stroke-width="0.664" stroke-linecap="round" stroke-linejoin="round"/>
<path d="M50.6699 192.215L14.8206 211.371" stroke="#263238" stroke-width="0.664" stroke-linecap="round" stroke-linejoin="round"/>
<path d="M229.299 166.252L263.907 185.415" stroke="#263238" stroke-width="0.664" stroke-linecap="round" stroke-linejoin="round"/>
<path d="M261.437 179.234L300.374 199.632" stroke="#263238" stroke-width="0.664" stroke-linecap="round" stroke-linejoin="round"/>
<path d="M278.422 309.424H320.911L266.118 258.05H273.455L234.418 236.941L233.383 258.05H240.726L278.422 309.424Z" fill="#92E3A9"/>
<path d="M10.0928 309.424H52.5821L90.284 258.05H97.6279L96.5854 236.941L57.5489 258.05H64.8861L10.0928 309.424Z" fill="#92E3A9"/>
<path d="M127.588 309.424H200.76L183.609 236.251H194.844L164.174 210.488L133.504 236.251H144.739L127.588 309.424Z" fill="#92E3A9"/>
<path d="M292.824 80.4835C290.261 79.0891 289.099 80.2511 288.176 79.0891C287.253 77.9271 290.732 74.8993 283.754 71.8781C283.754 71.8781 283.289 65.3642 273.754 65.1318C264.219 64.8994 266.775 71.6457 264.219 73.2725C261.663 74.8993 260.965 72.3429 258.402 73.9697C255.839 75.5965 257.008 78.8567 254.916 79.3215C252.825 79.7863 250.029 77.2299 247.473 78.8567C244.916 80.4835 244.916 81.8779 243.754 81.8779C242.592 81.8779 240.262 80.9483 238.867 81.8779C237.473 82.8075 235.846 83.9695 235.846 83.9695H294.69C294.69 83.9695 295.387 81.8779 292.824 80.4835Z" stroke="#263238" stroke-width="0.664" stroke-linecap="round" stroke-linejoin="round"/>
<path d="M258.017 79.5273C257.685 79.7167 257.338 79.8809 256.981 80.0187" stroke="#263238" stroke-width="0.664" stroke-linecap="round" stroke-linejoin="round"/>
<path d="M270.607 68.6646C270.03 68.9233 269.524 69.3153 269.129 69.8083C268.734 70.3013 268.462 70.8811 268.336 71.4998C267.911 73.6313 266.915 75.0522 265.779 75.1917C264.644 75.3311 260.388 74.9061 259.677 76.4732C259.488 76.9291 259.354 77.4062 259.279 77.8941" stroke="#263238" stroke-width="0.664" stroke-linecap="round" stroke-linejoin="round"/>
<path d="M252.127 79.0161H256.211" stroke="#263238" stroke-width="0.664" stroke-linecap="round" stroke-linejoin="round"/>
<path d="M288.176 79.0161H315.679C315.679 79.0161 317.89 72.3761 309.783 67.9605C301.675 63.5449 297.997 67.2235 295.048 63.5383C292.1 59.8531 303.149 50.2583 281.045 40.6967C281.045 40.6967 279.571 20.0662 249.359 19.3292C219.147 18.5921 227.254 39.9596 219.12 45.1521C210.986 50.3446 208.801 42.204 200.694 47.3632C192.587 52.5225 196.272 62.8411 189.645 64.3085C183.018 65.776 174.167 57.6685 166.06 62.8411C157.952 68.0136 157.979 72.3761 154.3 72.3761C150.622 72.3761 143.245 69.428 138.822 72.3761C134.4 75.3243 129.241 79.0161 129.241 79.0161H247.473" stroke="#263238" stroke-width="0.664" stroke-linecap="round" stroke-linejoin="round"/>
<path d="M199.492 64.9326C198.436 65.5294 197.337 66.0487 196.205 66.4864" stroke="#263238" stroke-width="0.664" stroke-linecap="round" stroke-linejoin="round"/>
<path d="M203.49 59.7599C203.73 58.2082 204.154 56.6904 204.751 55.2381C207.002 50.2913 220.488 51.6392 224.087 51.1943C227.686 50.7495 230.833 46.2475 232.181 39.5013C232.586 37.545 233.449 35.7128 234.701 34.1556C235.952 32.5983 237.555 31.3605 239.379 30.5439" stroke="#263238" stroke-width="0.664" stroke-linecap="round" stroke-linejoin="round"/>
<path d="M69.7201 106.293C68.0933 105.403 67.3496 106.147 66.7586 105.403C66.1677 104.66 68.3854 102.747 63.9366 100.808C63.9366 100.808 63.6445 96.6517 57.5622 96.5056C51.48 96.3595 53.1134 100.656 51.48 101.698C49.8465 102.741 49.4017 101.1 47.7749 102.143C46.1481 103.185 46.8851 105.257 45.5505 105.549C44.2158 105.841 42.4363 104.221 40.8029 105.257C39.1694 106.293 39.1694 107.183 38.4324 107.183C37.6953 107.183 36.208 106.592 35.3182 107.183C34.4285 107.774 33.386 108.511 33.386 108.511H70.9086C70.9086 108.511 71.3336 107.183 69.7201 106.293Z" stroke="#263238" stroke-width="0.664" stroke-linecap="round" stroke-linejoin="round"/>
<path d="M47.5092 105.682C47.2961 105.803 47.0741 105.907 46.8452 105.994" stroke="#263238" stroke-width="0.664" stroke-linecap="round" stroke-linejoin="round"/>
<path d="M55.5304 98.7568C55.1621 98.9216 54.8385 99.1722 54.5866 99.4875C54.3348 99.8028 54.1621 100.174 54.0829 100.57C53.8107 101.898 53.1799 102.827 52.4561 102.92C51.7323 103.013 49.0166 102.741 48.5651 103.737C48.4452 104.029 48.3605 104.334 48.3127 104.647" stroke="#263238" stroke-width="0.664" stroke-linecap="round" stroke-linejoin="round"/>
<path d="M155.848 70.4704L157.534 80.0121L169.991 79.6734L172.122 70.2446L155.848 70.4704Z" fill="white" stroke="#263238" stroke-width="0.664" stroke-linecap="round" stroke-linejoin="round"/>
<path d="M153.152 63.7437C153.152 63.7437 151.16 62.6216 151.16 65.7357C151.16 68.8499 154.188 70.9016 155.091 70.9016C155.994 70.9016 156.1 70.1115 155.874 69.1022C155.648 68.0929 153.152 63.7437 153.152 63.7437Z" fill="white" stroke="#263238" stroke-width="0.664" stroke-linecap="round" stroke-linejoin="round"/>
<path d="M173.238 63.7438C173.238 63.7438 175.15 62.4158 175.429 65.5698C175.708 68.7238 172.879 70.9881 171.983 71.0678C171.086 71.1474 170.907 70.4038 171.04 69.348C171.173 68.2922 173.238 63.7438 173.238 63.7438Z" fill="white" stroke="#263238" stroke-width="0.664" stroke-linecap="round" stroke-linejoin="round"/>
<path d="M155.004 51.4267C155.004 51.4267 151.884 55.5236 151.884 59.0362C151.884 62.5487 154.048 67.4291 155.376 70.1648C156.704 72.9005 158.497 76.0146 159.473 76.2138C160.449 76.413 167.282 76.4064 168.45 75.6229C169.619 74.8394 171.571 72.8938 172.355 68.797C173.138 64.7001 174.307 58.6444 174.307 58.6444C174.307 58.6444 178.603 58.0601 179.187 55.3244C179.772 52.5887 175.867 51.0283 174.699 49.2754C173.53 47.5224 176.843 45.9554 173.523 43.8106C170.203 41.6659 167.474 43.2263 165.137 44.0032C162.8 44.7801 162.986 41.4667 160.257 42.8346C157.528 44.2024 157.72 46.3471 157.72 46.3471C157.72 46.3471 155.768 46.1479 155.768 45.1718C155.768 44.1958 153.816 44.1957 153.231 47.3232C152.647 50.4506 155.004 51.4267 155.004 51.4267Z" fill="#263238" stroke="#263238" stroke-width="0.664" stroke-linecap="round" stroke-linejoin="round"/>
<path d="M172.009 77.688C172.009 77.688 163.377 77.688 159.666 78.02C155.954 78.352 154.613 82.6215 154.613 82.6215C158.516 81.9755 162.45 81.5322 166.399 81.2935C171.558 81.0677 174.811 81.1806 174.811 81.1806L172.009 77.688Z" fill="white" stroke="#263238" stroke-width="0.664" stroke-linecap="round" stroke-linejoin="round"/>
<path d="M196.591 85.8086C196.591 85.8086 207.699 129.686 207.513 131.166C207.328 132.647 187.149 139.134 187.149 139.134L185.11 132.103L193.815 125.808L189.559 113.956C189.559 113.956 194.924 88.5841 196.591 85.8086Z" fill="#92E3A9" stroke="#263238" stroke-width="0.664" stroke-linecap="round" stroke-linejoin="round"/>
<path d="M206.504 130.728C205.895 127.03 205.075 123.37 204.047 119.766L190.322 110.47C189.858 112.595 190.369 113.464 190.369 113.464L195.369 127.322L185.123 132.109L187.215 138.085C187.215 138.085 206.305 132.209 206.504 130.728Z" fill="#263238" stroke="#263238" stroke-width="0.664" stroke-linecap="round" stroke-linejoin="round"/>
<path d="M191.83 103.584L204.725 118.557C204.273 116.678 203.788 114.686 203.29 112.647L191.896 103.332L191.83 103.584Z" fill="#263238" stroke="#263238" stroke-width="0.664" stroke-linecap="round" stroke-linejoin="round"/>
<path d="M119.779 161.445C119.779 161.445 116.931 170.595 116.685 172.447C116.439 174.3 115.45 175.17 116.313 176.777C117.176 178.383 121.26 180.097 122.123 180.488C122.986 180.88 124.719 179.373 124.719 179.373C124.719 179.373 125.709 180.117 126.452 178.51C127.196 176.903 127.442 173.935 127.442 172.573C127.442 171.212 124.972 167.627 124.719 166.518C124.545 165.618 124.423 164.709 124.354 163.795L119.779 161.445Z" fill="white" stroke="#263238" stroke-width="0.664" stroke-linecap="round" stroke-linejoin="round"/>
<path d="M124.228 168.244C124.228 168.244 124.354 172.228 124.102 172.7C123.849 173.171 119.899 175.415 119.899 175.415" stroke="#263238" stroke-width="0.664" stroke-linecap="round" stroke-linejoin="round"/>
<path d="M121.014 174.798L122.741 177.394" stroke="#263238" stroke-width="0.664" stroke-linecap="round" stroke-linejoin="round"/>
<path d="M124.102 172.7C124.102 172.7 125.43 172.447 125.589 173.563C125.749 174.679 125.091 178.755 124.719 179.373" stroke="#263238" stroke-width="0.664" stroke-linecap="round" stroke-linejoin="round"/>
<path d="M151.047 264.272C151.047 264.272 151.605 270.753 152.714 271.676C153.822 272.599 157.156 273.528 159.008 273.004C160.221 272.599 161.347 271.971 162.328 271.151L162.7 263.562C162.7 263.562 155.124 265.945 151.047 264.272Z" fill="#263238" stroke="#263238" stroke-width="0.664" stroke-linecap="round" stroke-linejoin="round"/>
<path d="M142.534 166.531C142.534 166.531 145.854 195.595 146.047 200.78C146.24 205.966 144.201 216.517 144.938 222.068C145.675 227.619 148.258 244.644 148.258 244.644L150.483 256.862C150.483 256.862 148.63 259.265 149.155 260.932L150.483 264.823C150.483 264.823 153.995 267.041 156.777 267.227C159.559 267.413 161.956 265.899 162.328 265.195C162.7 264.491 163.251 256.862 163.251 255.009C163.251 253.157 162.142 248.369 161.956 244.644C161.771 240.919 163.251 224.645 163.251 219.465C163.251 214.286 163.809 199.286 163.995 198.729C164.181 198.171 165.104 173.736 165.104 173.736L165.476 170.031L142.534 166.531Z" fill="#263238" stroke="#263238" stroke-width="0.664" stroke-linecap="round" stroke-linejoin="round"/>
<path d="M164.008 252.618C164.008 252.618 160.861 255.208 160.861 257.612C160.883 259.14 161.197 260.65 161.784 262.061L163.265 262.798C163.265 262.798 162.713 264.278 161.97 267.24C161.226 270.201 163.636 278.528 164.008 279.278C164.38 280.028 167.893 280.201 167.893 280.201C169.261 278.551 170.326 276.671 171.04 274.65C171.97 271.682 171.97 264.464 171.97 262.426C172.018 260.863 172.203 259.308 172.521 257.778C172.521 257.778 168.822 249.836 164.008 252.618Z" fill="#263238" stroke="#263238" stroke-width="0.664" stroke-linecap="round" stroke-linejoin="round"/>
<path d="M166.047 255.766C163.45 253.728 161.399 256.317 161.399 256.317L161.033 256.536C160.912 256.882 160.847 257.246 160.841 257.612C160.863 259.14 161.177 260.65 161.764 262.061L163.245 262.798C163.245 262.798 162.693 264.279 161.95 267.24C161.206 270.202 163.616 278.528 163.988 279.278C164.36 280.029 167.873 280.201 167.873 280.201C168.775 279.106 169.554 277.914 170.197 276.649C170.748 273.023 170.588 269.324 169.725 265.759C168.656 261.503 168.656 257.798 166.047 255.766Z" fill="#636363" stroke="#263238" stroke-width="0.664" stroke-linecap="round" stroke-linejoin="round"/>
<path d="M164.566 170.23L172.534 209.479C172.534 209.479 167.886 222.254 167.541 227.626C167.195 232.998 164.759 247.991 164.579 249.472C164.4 250.952 164.021 252.619 164.021 252.619C164.021 252.619 167.727 252.247 169.573 254.286C171.418 256.324 173.464 261.131 173.464 261.131C173.464 261.131 178.829 246.523 180.681 242.433C182.534 238.343 188.457 222.254 188.649 216.703C188.842 211.152 190.502 181.153 190.502 177.082V167.826C190.502 167.826 166.412 170.416 164.566 170.23Z" fill="#92E3A9" stroke="#263238" stroke-width="0.664" stroke-linecap="round" stroke-linejoin="round"/>
<path d="M185.854 212.998C183.078 209.293 174.008 209.293 174.008 209.293C177.256 208.379 180.632 208.004 184.001 208.184" stroke="#263238" stroke-width="0.664" stroke-linecap="round" stroke-linejoin="round"/>
<path d="M164.566 170.23L167.328 183.815C169.32 182.109 179.732 173.53 190.488 170.163V167.826C190.488 167.826 166.412 170.416 164.566 170.23Z" fill="#263238" stroke="#263238" stroke-width="0.664" stroke-linecap="round" stroke-linejoin="round"/>
<path d="M122.269 174.353H119.799V186.471H122.269V174.353Z" fill="#263238" stroke="#263238" stroke-width="0.664" stroke-linecap="round" stroke-linejoin="round"/>
<path d="M125.755 184.811H116.313V223.688H125.755V184.811Z" fill="#263238" stroke="#263238" stroke-width="0.664" stroke-linecap="round" stroke-linejoin="round"/>
<path d="M154.612 82.5885L153.948 83.0068C152.282 83.9962 148.185 86.4397 147.74 86.7385C147.189 87.1037 133.484 91.7318 133.484 93.5843C133.484 95.4369 129.785 118.026 129.785 118.026C129.785 118.026 123.145 131.91 122.196 135.244C121.246 138.577 118.305 163.012 118.305 163.012L126.273 167.082C126.273 167.082 133.862 149.679 136.824 141.352C139.785 133.026 142.567 120.43 142.567 120.43L144.599 133.391L135.343 165.416C135.343 165.416 148.862 170.974 157.561 171.711C166.259 172.448 179.034 171.345 183.297 170.383C187.56 169.42 196.81 168.165 196.81 168.165C196.81 168.165 193.848 156.877 191.996 151.312C190.143 145.748 188.291 132.986 188.291 132.986L188.111 132.063L196.624 85.7757L177.368 82.8142L174.845 81.1011C174.845 81.1011 160.024 80.6695 154.612 82.5885Z" fill="#92E3A9" stroke="#263238" stroke-width="0.664" stroke-linecap="round" stroke-linejoin="round"/>
<path d="M142.408 119.142L137.906 103.956L141.352 125.39L142.408 119.142Z" fill="#263238" stroke="#263238" stroke-width="0.664" stroke-linecap="round" stroke-linejoin="round"/>
<path d="M162.614 102.635C163.072 103.159 163.477 103.611 163.822 103.963" stroke="#263238" stroke-width="0.664" stroke-linecap="round" stroke-linejoin="round"/>
<path d="M152.342 89.1421C152.342 89.1421 157.375 96.1871 161.093 100.802" stroke="#263238" stroke-width="0.664" stroke-linecap="round" stroke-linejoin="round"/>
<path d="M150.861 90.0718C150.861 90.0718 155.861 97.1035 157.899 100.251" stroke="#263238" stroke-width="0.664" stroke-linecap="round" stroke-linejoin="round"/>
<path d="M187.248 134.905C187.248 134.905 179.871 150.509 177.029 154.486" stroke="#263238" stroke-width="0.664" stroke-linecap="round" stroke-linejoin="round"/>
<path d="M178.57 157.866C177.972 159.055 177.368 160.21 176.77 161.292" stroke="#263238" stroke-width="0.664" stroke-linecap="round" stroke-linejoin="round"/>
<path d="M186.133 140.861C186.133 140.861 183.37 147.839 180.064 154.805" stroke="#263238" stroke-width="0.664" stroke-linecap="round" stroke-linejoin="round"/>
<path d="M155.336 149.526C155.768 150.064 156.193 150.582 156.618 151.08" stroke="#263238" stroke-width="0.664" stroke-linecap="round" stroke-linejoin="round"/>
<path d="M146.12 134.334C145.642 135.044 149.732 142.103 154.088 147.886" stroke="#263238" stroke-width="0.664" stroke-linecap="round" stroke-linejoin="round"/>
<path d="M146.684 138.875C146.684 138.875 150.668 147.673 152.66 150.794" stroke="#263238" stroke-width="0.664" stroke-linecap="round" stroke-linejoin="round"/>
<path d="M285.188 104.248C286.472 104.248 287.512 103.207 287.512 101.924C287.512 100.64 286.472 99.5996 285.188 99.5996C283.905 99.5996 282.864 100.64 282.864 101.924C282.864 103.207 283.905 104.248 285.188 104.248Z" stroke="#263238" stroke-width="0.664" stroke-linecap="round" stroke-linejoin="round"/>
<path d="M89.3081 220.78C90.5916 220.78 91.6321 219.739 91.6321 218.456C91.6321 217.172 90.5916 216.132 89.3081 216.132C88.0246 216.132 86.9841 217.172 86.9841 218.456C86.9841 219.739 88.0246 220.78 89.3081 220.78Z" stroke="#263238" stroke-width="0.664" stroke-linecap="round" stroke-linejoin="round"/>
<path d="M34.5281 159.36C35.8116 159.36 36.8521 158.319 36.8521 157.036C36.8521 155.752 35.8116 154.712 34.5281 154.712C33.2446 154.712 32.2041 155.752 32.2041 157.036C32.2041 158.319 33.2446 159.36 34.5281 159.36Z" stroke="#263238" stroke-width="0.664" stroke-linecap="round" stroke-linejoin="round"/>
<path d="M88.9761 90.9678C90.4429 90.9678 91.6321 89.7786 91.6321 88.3118C91.6321 86.8449 90.4429 85.6558 88.9761 85.6558C87.5092 85.6558 86.3201 86.8449 86.3201 88.3118C86.3201 89.7786 87.5092 90.9678 88.9761 90.9678Z" stroke="#263238" stroke-width="0.664" stroke-linecap="round" stroke-linejoin="round"/>
<path d="M121.18 41.1675C122.464 41.1675 123.504 40.127 123.504 38.8435C123.504 37.56 122.464 36.5195 121.18 36.5195C119.897 36.5195 118.856 37.56 118.856 38.8435C118.856 40.127 119.897 41.1675 121.18 41.1675Z" stroke="#263238" stroke-width="0.664" stroke-linecap="round" stroke-linejoin="round"/>
<path d="M69.5341 35.0656L74.6204 39.4547H77.1369L69.5341 32.8877L61.938 39.4547H64.4545L69.5341 35.0656Z" stroke="#263238" stroke-width="0.664" stroke-linecap="round" stroke-linejoin="round"/>
<path d="M69.5341 40.0722L74.6204 44.4678H77.1369L69.5341 37.9009L61.938 44.4678H64.4545L69.5341 40.0722Z" stroke="#263238" stroke-width="0.664" stroke-linecap="round" stroke-linejoin="round"/>
<path d="M295.885 154.24L299.172 157.076H300.792L295.885 152.839L290.985 157.076H292.605L295.885 154.24Z" stroke="#263238" stroke-width="0.664" stroke-linecap="round" stroke-linejoin="round"/>
<path d="M295.885 157.48L299.172 160.316H300.792L295.885 156.073L290.985 160.316H292.605L295.885 157.48Z" stroke="#263238" stroke-width="0.664" stroke-linecap="round" stroke-linejoin="round"/>
<path d="M250.328 95.2108L255.408 99.6065H257.924L250.328 93.0396L242.732 99.6065H245.248L250.328 95.2108Z" stroke="#263238" stroke-width="0.664" stroke-linecap="round" stroke-linejoin="round"/>
<path d="M250.328 100.224L255.408 104.613H257.924L250.328 98.0527L242.732 104.613H245.248L250.328 100.224Z" stroke="#263238" stroke-width="0.664" stroke-linecap="round" stroke-linejoin="round"/>
<path d="M286.184 237.347L291.264 241.742H293.78L286.184 235.175L278.588 241.742H281.104L286.184 237.347Z" stroke="#263238" stroke-width="0.664" stroke-linecap="round" stroke-linejoin="round"/>
<path d="M286.184 242.36L291.264 246.749H293.78L286.184 240.188L278.588 246.749H281.104L286.184 242.36Z" stroke="#263238" stroke-width="0.664" stroke-linecap="round" stroke-linejoin="round"/>
<path d="M67.5819 164.419L70.789 167.188H72.376L67.5819 163.045L62.7878 167.188H64.3748L67.5819 164.419Z" stroke="#263238" stroke-width="0.664" stroke-linecap="round" stroke-linejoin="round"/>
<path d="M67.5819 167.58L70.789 170.349H72.376L67.5819 166.206L62.7878 170.349H64.3748L67.5819 167.58Z" stroke="#263238" stroke-width="0.664" stroke-linecap="round" stroke-linejoin="round"/>
<path d="M45.9291 244.239L49.1362 247.008H50.7232L45.9291 242.865L41.135 247.008H42.722L45.9291 244.239Z" stroke="#263238" stroke-width="0.664" stroke-linecap="round" stroke-linejoin="round"/>
<path d="M45.9291 247.399L49.1362 250.168H50.7232L45.9291 246.025L41.135 250.168H42.722L45.9291 247.399Z" stroke="#263238" stroke-width="0.664" stroke-linecap="round" stroke-linejoin="round"/>
</svg>
