<svg width="301" height="18" viewBox="0 0 301 18" fill="none" xmlns="http://www.w3.org/2000/svg">
<path d="M0.000220583 3.28121V0.238597H14.3354V3.28121H8.99168V17.6931H5.34396V3.28121H0.000220583ZM16.6962 17.6931V0.238597H28.4576V3.28121H20.3866V7.44029H27.8525V10.4829H20.3866V14.6505H28.4917V17.6931H16.6962ZM31.3915 17.6931V0.238597H38.2779C39.596 0.238597 40.721 0.474392 41.6529 0.945982C42.5904 1.41189 43.3034 2.07382 43.7921 2.93178C44.2864 3.78405 44.5335 4.78689 44.5335 5.94029C44.5335 7.09938 44.2835 8.09654 43.7835 8.93176C43.2835 9.76131 42.5591 10.3977 41.6102 10.8409C40.6671 11.284 39.525 11.5056 38.1841 11.5056H33.5733V8.53972H37.5875C38.2921 8.53972 38.8773 8.44313 39.3432 8.24995C39.8091 8.05677 40.1557 7.76699 40.383 7.38063C40.6159 6.99427 40.7324 6.51416 40.7324 5.94029C40.7324 5.36075 40.6159 4.87211 40.383 4.47439C40.1557 4.07666 39.8063 3.77552 39.3347 3.57098C38.8688 3.36075 38.2807 3.25564 37.5705 3.25564H35.0818V17.6931H31.3915ZM40.8176 9.74995L45.1557 17.6931H41.0818L36.8375 9.74995H40.8176ZM47.1415 0.238597H51.6926L56.4994 11.9659H56.704L61.5108 0.238597H66.0619V17.6931H62.4824V6.33234H62.3375L57.8204 17.6079H55.3829L50.8659 6.28972H50.721V17.6931H47.1415V0.238597ZM78.5711 5.25848C78.5029 4.57098 78.2103 4.03689 77.6933 3.65621C77.1762 3.27552 76.4745 3.08518 75.5882 3.08518C74.9859 3.08518 74.4774 3.17041 74.0626 3.34087C73.6478 3.50564 73.3297 3.73575 73.1081 4.0312C72.8922 4.32666 72.7842 4.66189 72.7842 5.03689C72.7728 5.34938 72.8382 5.62211 72.9802 5.85507C73.1279 6.08802 73.3297 6.28972 73.5853 6.46018C73.841 6.62495 74.1365 6.76984 74.4717 6.89484C74.8069 7.01415 75.1649 7.11643 75.5456 7.20165L77.1137 7.57665C77.8751 7.74711 78.574 7.97438 79.2103 8.25847C79.8467 8.54256 80.3978 8.89199 80.8637 9.30676C81.3296 9.72154 81.6904 10.2102 81.9461 10.7727C82.2075 11.3352 82.341 11.9801 82.3467 12.7073C82.341 13.7755 82.0683 14.7016 81.5285 15.4857C80.9944 16.2641 80.2217 16.8693 79.2103 17.3011C78.2046 17.7272 76.9916 17.9403 75.5711 17.9403C74.162 17.9403 72.9348 17.7244 71.8893 17.2925C70.8495 16.8607 70.037 16.2215 69.4518 15.3749C68.8723 14.5227 68.5683 13.4687 68.5399 12.213H72.1109C72.1507 12.7982 72.3183 13.2869 72.6137 13.6789C72.9149 14.0653 73.3154 14.3579 73.8154 14.5568C74.3211 14.7499 74.8921 14.8465 75.5285 14.8465C76.1535 14.8465 76.6961 14.7556 77.1564 14.5738C77.6223 14.392 77.9831 14.1391 78.2387 13.8153C78.4944 13.4914 78.6223 13.1193 78.6223 12.6988C78.6223 12.3068 78.5058 11.9772 78.2728 11.7102C78.0456 11.4431 77.7103 11.2159 77.2671 11.0284C76.8296 10.8409 76.2927 10.6704 75.6564 10.517L73.7558 10.0397C72.2842 9.68176 71.1223 9.12211 70.27 8.36074C69.4177 7.59938 68.9944 6.57381 69.0001 5.28404C68.9944 4.22723 69.2757 3.30393 69.8439 2.51416C70.4177 1.72439 71.2047 1.10791 72.2047 0.664733C73.2047 0.221552 74.341 -3.91115e-05 75.6137 -3.91115e-05C76.9092 -3.91115e-05 78.0399 0.221552 79.0058 0.664733C79.9774 1.10791 80.733 1.72439 81.2728 2.51416C81.8126 3.30393 82.091 4.2187 82.108 5.25848H78.5711ZM93.3921 17.6931H89.4376L95.4631 0.238597H100.219L106.236 17.6931H102.281L97.9092 4.22723H97.7728L93.3921 17.6931ZM93.145 10.8323H102.486V13.713H93.145V10.8323ZM122.936 0.238597V17.6931H119.749L112.155 6.70734H112.027V17.6931H108.337V0.238597H111.575L119.109 11.2159H119.263V0.238597H122.936ZM132.173 17.6931H125.985V0.238597H132.224C133.979 0.238597 135.491 0.588028 136.758 1.28689C138.025 1.98007 138.999 2.97723 139.681 4.27836C140.369 5.5795 140.712 7.13631 140.712 8.94881C140.712 10.767 140.369 12.3295 139.681 13.6363C138.999 14.9431 138.019 15.946 136.741 16.6448C135.468 17.3437 133.945 17.6931 132.173 17.6931ZM129.675 14.5312H132.019C133.11 14.5312 134.028 14.338 134.772 13.9516C135.522 13.5596 136.085 12.9545 136.46 12.1363C136.84 11.3124 137.031 10.2499 137.031 8.94881C137.031 7.65904 136.84 6.60506 136.46 5.78688C136.085 4.9687 135.525 4.36643 134.781 3.98007C134.036 3.59371 133.119 3.40052 132.028 3.40052H129.675V14.5312ZM164.401 6.34938H160.668C160.6 5.86643 160.461 5.43745 160.251 5.06245C160.04 4.68177 159.771 4.35791 159.441 4.09086C159.111 3.82382 158.731 3.61927 158.299 3.47723C157.873 3.33518 157.41 3.26416 156.91 3.26416C156.006 3.26416 155.219 3.48859 154.549 3.93745C153.879 4.38064 153.359 5.02836 152.989 5.88063C152.62 6.72722 152.435 7.75563 152.435 8.96586C152.435 10.2102 152.62 11.2556 152.989 12.1022C153.364 12.9488 153.887 13.588 154.558 14.0198C155.228 14.4516 156.004 14.6676 156.884 14.6676C157.379 14.6676 157.836 14.6022 158.256 14.4715C158.683 14.3408 159.06 14.1505 159.39 13.9005C159.719 13.6448 159.992 13.3352 160.208 12.9715C160.43 12.6079 160.583 12.1931 160.668 11.7272L164.401 11.7443C164.305 12.5454 164.063 13.3181 163.677 14.0624C163.296 14.8011 162.782 15.463 162.134 16.0482C161.492 16.6278 160.725 17.088 159.833 17.4289C158.947 17.7641 157.944 17.9318 156.825 17.9318C155.268 17.9318 153.876 17.5795 152.648 16.8749C151.427 16.1704 150.461 15.1505 149.751 13.8153C149.046 12.4801 148.694 10.8636 148.694 8.96586C148.694 7.06245 149.052 5.44313 149.768 4.10791C150.484 2.77268 151.455 1.75564 152.683 1.05678C153.91 0.352233 155.29 -3.91115e-05 156.825 -3.91115e-05C157.836 -3.91115e-05 158.773 0.142006 159.637 0.426097C160.506 0.710187 161.276 1.12496 161.947 1.67041C162.617 2.21018 163.163 2.87212 163.583 3.65621C164.009 4.44029 164.282 5.33802 164.401 6.34938ZM183.087 8.96586C183.087 10.8693 182.726 12.4886 182.005 13.8238C181.289 15.159 180.312 16.1789 179.073 16.8835C177.84 17.5823 176.454 17.9318 174.914 17.9318C173.363 17.9318 171.971 17.5795 170.738 16.8749C169.505 16.1704 168.53 15.1505 167.815 13.8153C167.099 12.4801 166.741 10.8636 166.741 8.96586C166.741 7.06245 167.099 5.44313 167.815 4.10791C168.53 2.77268 169.505 1.75564 170.738 1.05678C171.971 0.352233 173.363 -3.91115e-05 174.914 -3.91115e-05C176.454 -3.91115e-05 177.84 0.352233 179.073 1.05678C180.312 1.75564 181.289 2.77268 182.005 4.10791C182.726 5.44313 183.087 7.06245 183.087 8.96586ZM179.346 8.96586C179.346 7.7329 179.161 6.69313 178.792 5.84654C178.428 4.99995 177.914 4.35791 177.249 3.92041C176.584 3.48291 175.806 3.26416 174.914 3.26416C174.022 3.26416 173.244 3.48291 172.579 3.92041C171.914 4.35791 171.397 4.99995 171.028 5.84654C170.664 6.69313 170.482 7.7329 170.482 8.96586C170.482 10.1988 170.664 11.2386 171.028 12.0852C171.397 12.9318 171.914 13.5738 172.579 14.0113C173.244 14.4488 174.022 14.6676 174.914 14.6676C175.806 14.6676 176.584 14.4488 177.249 14.0113C177.914 13.5738 178.428 12.9318 178.792 12.0852C179.161 11.2386 179.346 10.1988 179.346 8.96586ZM200.42 0.238597V17.6931H197.233L189.639 6.70734H189.511V17.6931H185.821V0.238597H189.06L196.594 11.2159H196.747V0.238597H200.42ZM209.657 17.6931H203.469V0.238597H209.708C211.464 0.238597 212.975 0.588028 214.242 1.28689C215.509 1.98007 216.484 2.97723 217.165 4.27836C217.853 5.5795 218.197 7.13631 218.197 8.94881C218.197 10.767 217.853 12.3295 217.165 13.6363C216.484 14.9431 215.503 15.946 214.225 16.6448C212.952 17.3437 211.43 17.6931 209.657 17.6931ZM207.16 14.5312H209.503C210.594 14.5312 211.512 14.338 212.256 13.9516C213.006 13.5596 213.569 12.9545 213.944 12.1363C214.324 11.3124 214.515 10.2499 214.515 8.94881C214.515 7.65904 214.324 6.60506 213.944 5.78688C213.569 4.9687 213.009 4.36643 212.265 3.98007C211.52 3.59371 210.603 3.40052 209.512 3.40052H207.16V14.5312ZM224.621 0.238597V17.6931H220.93V0.238597H224.621ZM226.992 3.28121V0.238597H241.327V3.28121H235.984V17.6931H232.336V3.28121H226.992ZM247.378 0.238597V17.6931H243.688V0.238597H247.378ZM266.454 8.96586C266.454 10.8693 266.094 12.4886 265.372 13.8238C264.656 15.159 263.679 16.1789 262.44 16.8835C261.207 17.5823 259.821 17.9318 258.281 17.9318C256.73 17.9318 255.338 17.5795 254.105 16.8749C252.872 16.1704 251.898 15.1505 251.182 13.8153C250.466 12.4801 250.108 10.8636 250.108 8.96586C250.108 7.06245 250.466 5.44313 251.182 4.10791C251.898 2.77268 252.872 1.75564 254.105 1.05678C255.338 0.352233 256.73 -3.91115e-05 258.281 -3.91115e-05C259.821 -3.91115e-05 261.207 0.352233 262.44 1.05678C263.679 1.75564 264.656 2.77268 265.372 4.10791C266.094 5.44313 266.454 7.06245 266.454 8.96586ZM262.713 8.96586C262.713 7.7329 262.528 6.69313 262.159 5.84654C261.795 4.99995 261.281 4.35791 260.616 3.92041C259.952 3.48291 259.173 3.26416 258.281 3.26416C257.389 3.26416 256.611 3.48291 255.946 3.92041C255.281 4.35791 254.764 4.99995 254.395 5.84654C254.031 6.69313 253.849 7.7329 253.849 8.96586C253.849 10.1988 254.031 11.2386 254.395 12.0852C254.764 12.9318 255.281 13.5738 255.946 14.0113C256.611 14.4488 257.389 14.6676 258.281 14.6676C259.173 14.6676 259.952 14.4488 260.616 14.0113C261.281 13.5738 261.795 12.9318 262.159 12.0852C262.528 11.2386 262.713 10.1988 262.713 8.96586ZM283.787 0.238597V17.6931H280.6L273.006 6.70734H272.878V17.6931H269.188V0.238597H272.427L279.961 11.2159H280.114V0.238597H283.787ZM296.305 5.25848C296.237 4.57098 295.944 4.03689 295.427 3.65621C294.91 3.27552 294.209 3.08518 293.322 3.08518C292.72 3.08518 292.211 3.17041 291.797 3.34087C291.382 3.50564 291.064 3.73575 290.842 4.0312C290.626 4.32666 290.518 4.66189 290.518 5.03689C290.507 5.34938 290.572 5.62211 290.714 5.85507C290.862 6.08802 291.064 6.28972 291.319 6.46018C291.575 6.62495 291.87 6.76984 292.206 6.89484C292.541 7.01415 292.899 7.11643 293.28 7.20165L294.848 7.57665C295.609 7.74711 296.308 7.97438 296.944 8.25847C297.581 8.54256 298.132 8.89199 298.598 9.30676C299.064 9.72154 299.424 10.2102 299.68 10.7727C299.942 11.3352 300.075 11.9801 300.081 12.7073C300.075 13.7755 299.802 14.7016 299.263 15.4857C298.728 16.2641 297.956 16.8693 296.944 17.3011C295.939 17.7272 294.726 17.9403 293.305 17.9403C291.896 17.9403 290.669 17.7244 289.623 17.2925C288.584 16.8607 287.771 16.2215 287.186 15.3749C286.606 14.5227 286.302 13.4687 286.274 12.213H289.845C289.885 12.7982 290.052 13.2869 290.348 13.6789C290.649 14.0653 291.049 14.3579 291.549 14.5568C292.055 14.7499 292.626 14.8465 293.263 14.8465C293.888 14.8465 294.43 14.7556 294.89 14.5738C295.356 14.392 295.717 14.1391 295.973 13.8153C296.228 13.4914 296.356 13.1193 296.356 12.6988C296.356 12.3068 296.24 11.9772 296.007 11.7102C295.78 11.4431 295.444 11.2159 295.001 11.0284C294.564 10.8409 294.027 10.6704 293.39 10.517L291.49 10.0397C290.018 9.68176 288.856 9.12211 288.004 8.36074C287.152 7.59938 286.728 6.57381 286.734 5.28404C286.728 4.22723 287.01 3.30393 287.578 2.51416C288.152 1.72439 288.939 1.10791 289.939 0.664733C290.939 0.221552 292.075 -3.91115e-05 293.348 -3.91115e-05C294.643 -3.91115e-05 295.774 0.221552 296.74 0.664733C297.711 1.10791 298.467 1.72439 299.007 2.51416C299.547 3.30393 299.825 4.2187 299.842 5.25848H296.305Z" fill="url(#paint0_linear_445_550)"/>
<defs>
<linearGradient id="paint0_linear_445_550" x1="150.148" y1="-5.30688" x2="150.148" y2="23.6931" gradientUnits="userSpaceOnUse">
<stop stop-color="white"/>
<stop offset="1" stop-color="#999999"/>
</linearGradient>
</defs>
</svg>
