<svg width="30" height="30" viewBox="0 0 30 30" fill="none" xmlns="http://www.w3.org/2000/svg">
  <path fill-rule="evenodd" clip-rule="evenodd" d="M15 3C8.373 3 3 8.373 3 15C3 21.627 8.373 27 15 27C21.627 27 27 21.627 27 15C27 8.373 21.627 3 15 3ZM0 15C0 6.716 6.716 0 15 0C23.284 0 30 6.716 30 15C30 23.284 23.284 30 15 30C6.716 30 0 23.284 0 15ZM16.5 9C16.5 8.172 15.828 7.5 15 7.5C14.172 7.5 13.5 8.172 13.5 9V15C13.5 15.398 13.658 15.779 13.939 16.061L18.439 20.561C19.025 21.146 19.975 21.146 20.561 20.561C21.146 19.975 21.146 19.025 20.561 18.439L16.5 14.379V9Z" fill="#86868B"/>
</svg>
