<svg width="30" height="30" viewBox="0 0 30 30" fill="none" xmlns="http://www.w3.org/2000/svg">
<path fill-rule="evenodd" clip-rule="evenodd" d="M15 3C8.37258 3 3 8.37258 3 15C3 21.6274 8.37258 27 15 27C21.6274 27 27 21.6274 27 15C27 8.37258 21.6274 3 15 3ZM0 15C0 6.71573 6.71573 0 15 0C23.2843 0 30 6.71573 30 15C30 23.2843 23.2843 30 15 30C6.71573 30 0 23.2843 0 15ZM15 7.5C15.8284 7.5 16.5 8.17157 16.5 9V14.3787L20.5607 18.4393C21.1464 19.0251 21.1464 19.9749 20.5607 20.5607C19.9749 21.1464 19.0251 21.1464 18.4393 20.5607L13.9393 16.0607C13.658 15.7794 13.5 15.3978 13.5 15V9C13.5 8.17157 14.1716 7.5 15 7.5Z" fill="#86868B"/>
</svg>
