<svg width="20" height="18" viewBox="0 0 20 18" fill="none" xmlns="http://www.w3.org/2000/svg">
<path d="M4 4.0625H4.75C4.75 5.44321 5.86929 6.5625 7.25 6.5625V7.3125V8.0625C5.04086 8.0625 3.25 6.27164 3.25 4.0625H4ZM7.25 7.3125V6.5625C8.63071 6.5625 9.75 5.44321 9.75 4.0625H10.5H11.25C11.25 6.27164 9.45914 8.0625 7.25 8.0625V7.3125ZM10.5 4.0625H9.75C9.75 2.68179 8.63071 1.5625 7.25 1.5625V0.8125V0.0625C9.45914 0.0625 11.25 1.85336 11.25 4.0625H10.5ZM7.25 0.8125V1.5625C5.86929 1.5625 4.75 2.68179 4.75 4.0625H4H3.25C3.25 1.85336 5.04086 0.0625 7.25 0.0625V0.8125ZM10.5 10.5625V11.3125H4V10.5625V9.8125H10.5V10.5625ZM4 17.0625V16.3125H10.5V17.0625V17.8125H4V17.0625ZM10.5 17.0625V16.3125C11.8807 16.3125 13 15.1932 13 13.8125H13.75H14.5C14.5 16.0216 12.7091 17.8125 10.5 17.8125V17.0625ZM0.75 13.8125H1.5C1.5 15.1932 2.61929 16.3125 4 16.3125V17.0625V17.8125C1.79086 17.8125 0 16.0216 0 13.8125H0.75ZM4 10.5625V11.3125C2.61929 11.3125 1.5 12.4318 1.5 13.8125H0.75H0C0 11.6034 1.79086 9.8125 4 9.8125V10.5625ZM10.5 10.5625V9.8125C12.7091 9.8125 14.5 11.6034 14.5 13.8125H13.75H13C13 12.4318 11.8807 11.3125 10.5 11.3125V10.5625Z" fill="#155DFC"/>
<path d="M11.8519 6.92104C12.0227 6.64654 12.3434 6.5 12.6667 6.5C14.0129 6.5 15.1042 5.40869 15.1042 4.0625C15.1042 2.71631 14.0129 1.625 12.6667 1.625C12.3434 1.625 12.0227 1.47845 11.8519 1.20396C11.8443 1.19182 11.8367 1.17971 11.8291 1.16763C11.5446 0.718583 11.6887 0.0827673 12.2171 0.0245952C12.3647 0.00834274 12.5147 0 12.6667 0C14.9103 0 16.7292 1.81884 16.7292 4.0625C16.7292 6.30616 14.9103 8.125 12.6667 8.125C12.5147 8.125 12.3647 8.11666 12.2171 8.1004C11.6887 8.04223 11.5446 7.40642 11.8291 6.95737C11.8367 6.94529 11.8443 6.93318 11.8519 6.92104Z" fill="#155DFC"/>
<path d="M15.1494 15.5099C15.2724 15.3048 15.4894 15.1667 15.7286 15.1667H15.9167C17.2629 15.1667 18.3542 14.0754 18.3542 12.7292C18.3542 11.383 17.2629 10.2917 15.9167 10.2917H15.7286C15.4894 10.2917 15.2724 10.1536 15.1494 9.94839C14.8492 9.44756 15.1749 8.66667 15.7589 8.66667H15.9167C18.1603 8.66667 19.9792 10.4855 19.9792 12.7292C19.9792 14.9728 18.1603 16.7917 15.9167 16.7917H15.7589C15.1749 16.7917 14.8492 16.0108 15.1494 15.5099Z" fill="#155DFC"/>
</svg>
