<svg width="29" height="23" viewBox="0 0 29 23" fill="none" xmlns="http://www.w3.org/2000/svg">
<path d="M7.47522 19.6744C7.09776 19.6751 6.72388 19.6012 6.37506 19.457C6.02624 19.3127 5.70935 19.101 5.4426 18.8339L0.0826416 13.4749L1.43772 12.1189L6.79768 17.4788C6.9774 17.6585 7.22111 17.7594 7.47522 17.7594C7.72934 17.7594 7.97305 17.6585 8.15277 17.4788L21.5627 4.06888L22.9178 5.42396L9.50785 18.8339C9.2411 19.101 8.92421 19.3127 8.57539 19.457C8.22657 19.6012 7.85269 19.6751 7.47522 19.6744Z" fill="#7A72FF"/>
<g clip-path="url(#clip0_13_1938)">
<path d="M13.2252 19.6744C12.8478 19.6751 12.4739 19.6012 12.1251 19.457C11.7762 19.3127 11.4593 19.101 11.1926 18.8339L5.83264 13.4749L7.18772 12.1189L12.5477 17.4788C12.7274 17.6585 12.9711 17.7594 13.2252 17.7594C13.4793 17.7594 13.7231 17.6585 13.9028 17.4788L27.3127 4.06888L28.6678 5.42396L15.2578 18.8339C14.9911 19.101 14.6742 19.3127 14.3254 19.457C13.9766 19.6012 13.6027 19.6751 13.2252 19.6744Z" fill="#7A72FF"/>
</g>
<defs>
<clipPath id="clip0_13_1938">
<rect width="23" height="23" fill="white" transform="translate(5.75)"/>
</clipPath>
</defs>
</svg>
