<svg width="25" height="25" viewBox="0 0 25 25" fill="none" xmlns="http://www.w3.org/2000/svg">
<path d="M21.0673 21.1022C18.7476 23.417 15.6043 24.717 12.3272 24.717C9.05015 24.717 5.90689 23.417 3.58714 21.1022C-3.04733 14.6906 -0.0210677 2.88204 8.90403 0.503275L10.663 -8.09284e-06L10.1801 1.76476C7.98632 9.33078 15.7592 16.3899 23.0761 13.4954L24.7892 12.8472L24.4534 14.6484C24.0039 17.0928 22.8232 19.3432 21.0673 21.1022ZM5.04382 5.07872C3.11491 7.01187 2.03161 9.63124 2.03161 12.3621C2.03161 15.093 3.11491 17.7124 5.04382 19.6455C10.1145 24.9421 19.5837 22.8772 21.9683 15.9507C20.1469 16.3091 18.2669 16.2362 16.4787 15.7376C14.6906 15.2391 13.044 14.3288 11.6708 13.0796C10.2976 11.8305 9.23598 10.2772 8.57088 8.54405C7.90578 6.81095 7.6557 4.94619 7.84065 3.09909C6.8018 3.59378 5.85574 4.26342 5.04382 5.07872Z" fill="#7A72FF"/>
</svg>
