<svg width="192" height="24" viewBox="0 0 192 24" fill="none" xmlns="http://www.w3.org/2000/svg">
<path d="M7.25163 23L0.477474 2.11052H6.56526L12.2651 20.1948H9.19137L15.1896 2.11052H20.6209L26.2909 20.1948H23.3365L29.2154 2.11052H34.8556L28.0814 23H21.7549L16.9205 7.63131H18.6215L13.5782 23H7.25163ZM43.9845 23.2686C42.0746 23.2686 40.4034 22.9105 38.971 22.1943C37.5585 21.4582 36.4543 20.4634 35.6585 19.2101C34.8826 17.9368 34.4947 16.4944 34.4947 14.8829C34.4947 13.2715 34.8727 11.8391 35.6287 10.5857C36.4046 9.31242 37.4689 8.32763 38.8218 7.63131C40.1746 6.9151 41.6966 6.557 43.3876 6.557C44.9792 6.557 46.4315 6.88526 47.7446 7.54179C49.0576 8.17842 50.1021 9.12342 50.878 10.3768C51.6539 11.6302 52.0418 13.1521 52.0418 14.9426C52.0418 15.1416 52.0319 15.3704 52.012 15.629C51.9921 15.8876 51.9722 16.1264 51.9523 16.3452H39.15V13.361H48.9383L46.7896 14.1966C46.8095 13.4605 46.6703 12.8238 46.3718 12.2867C46.0933 11.7495 45.6954 11.3317 45.1781 11.0333C44.6808 10.7349 44.0939 10.5857 43.4175 10.5857C42.741 10.5857 42.1442 10.7349 41.6269 11.0333C41.1296 11.3317 40.7416 11.7595 40.4631 12.3165C40.1846 12.8537 40.0453 13.4903 40.0453 14.2264V15.0918C40.0453 15.8876 40.2045 16.574 40.5228 17.1509C40.861 17.7279 41.3385 18.1755 41.9552 18.4938C42.5719 18.7923 43.308 18.9415 44.1635 18.9415C44.9593 18.9415 45.6357 18.8321 46.1928 18.6132C46.7697 18.3745 47.3367 18.0164 47.8938 17.5389L50.878 20.6425C50.1021 21.4979 49.1471 22.1545 48.0131 22.6121C46.8791 23.0497 45.5363 23.2686 43.9845 23.2686ZM54.656 23V0.857156H60.326V23H54.656ZM72.2771 23.2686C70.4866 23.2686 68.8851 22.9105 67.4725 22.1943C66.0799 21.4781 64.9857 20.4933 64.1899 19.2399C63.3941 17.9666 62.9962 16.5143 62.9962 14.8829C62.9962 13.2516 63.3941 11.8092 64.1899 10.5558C64.9857 9.30247 66.0799 8.32763 67.4725 7.63131C68.8851 6.9151 70.4866 6.557 72.2771 6.557C74.1074 6.557 75.6891 6.94495 77.022 7.72084C78.355 8.49674 79.3 9.59095 79.857 11.0035L75.4702 13.2416C75.0922 12.4856 74.6247 11.9385 74.0676 11.6003C73.5106 11.2422 72.9038 11.0632 72.2473 11.0632C71.5907 11.0632 70.9939 11.2124 70.4567 11.5108C69.9196 11.8092 69.4919 12.2469 69.1735 12.8238C68.8751 13.3809 68.7259 14.0673 68.7259 14.8829C68.7259 15.7185 68.8751 16.4248 69.1735 17.0017C69.4919 17.5787 69.9196 18.0164 70.4567 18.3148C70.9939 18.6132 71.5907 18.7624 72.2473 18.7624C72.9038 18.7624 73.5106 18.5933 74.0676 18.2551C74.6247 17.897 75.0922 17.3399 75.4702 16.5839L79.857 18.8221C79.3 20.2346 78.355 21.3288 77.022 22.1047C75.6891 22.8806 74.1074 23.2686 72.2771 23.2686ZM89.9341 23.2686C88.1634 23.2686 86.5918 22.9105 85.219 22.1943C83.8463 21.4781 82.762 20.4933 81.9662 19.2399C81.1903 17.9666 80.8024 16.5143 80.8024 14.8829C80.8024 13.2516 81.1903 11.8092 81.9662 10.5558C82.762 9.30247 83.8463 8.32763 85.219 7.63131C86.5918 6.9151 88.1634 6.557 89.9341 6.557C91.7047 6.557 93.2764 6.9151 94.6491 7.63131C96.0418 8.32763 97.126 9.30247 97.9019 10.5558C98.6778 11.8092 99.0658 13.2516 99.0658 14.8829C99.0658 16.5143 98.6778 17.9666 97.9019 19.2399C97.126 20.4933 96.0418 21.4781 94.6491 22.1943C93.2764 22.9105 91.7047 23.2686 89.9341 23.2686ZM89.9341 18.7624C90.5906 18.7624 91.1676 18.6132 91.6649 18.3148C92.1822 18.0164 92.59 17.5787 92.8884 17.0017C93.1869 16.4049 93.3361 15.6986 93.3361 14.8829C93.3361 14.0673 93.1869 13.3809 92.8884 12.8238C92.59 12.2469 92.1822 11.8092 91.6649 11.5108C91.1676 11.2124 90.5906 11.0632 89.9341 11.0632C89.2974 11.0632 88.7205 11.2124 88.2032 11.5108C87.7059 11.8092 87.298 12.2469 86.9797 12.8238C86.6813 13.3809 86.5321 14.0673 86.5321 14.8829C86.5321 15.6986 86.6813 16.4049 86.9797 17.0017C87.298 17.5787 87.7059 18.0164 88.2032 18.3148C88.7205 18.6132 89.2974 18.7624 89.9341 18.7624ZM122.761 6.557C124.014 6.557 125.128 6.81563 126.103 7.33289C127.098 7.83026 127.874 8.60616 128.431 9.66058C129.008 10.715 129.296 12.0778 129.296 13.7489V23H123.626V14.6741C123.626 13.5202 123.407 12.6846 122.97 12.1673C122.532 11.6302 121.935 11.3616 121.179 11.3616C120.642 11.3616 120.155 11.4909 119.717 11.7495C119.279 12.0082 118.941 12.4061 118.702 12.9432C118.464 13.4605 118.344 14.1369 118.344 14.9725V23H112.674V14.6741C112.674 13.5202 112.455 12.6846 112.018 12.1673C111.6 11.6302 111.003 11.3616 110.227 11.3616C109.67 11.3616 109.173 11.4909 108.735 11.7495C108.317 12.0082 107.979 12.4061 107.72 12.9432C107.482 13.4605 107.362 14.1369 107.362 14.9725V23H101.692V6.82558H107.094V11.3317L106.019 10.0485C106.616 8.89463 107.432 8.02921 108.466 7.45226C109.501 6.85542 110.655 6.557 111.928 6.557C113.38 6.557 114.654 6.935 115.748 7.691C116.862 8.4271 117.608 9.581 117.986 11.1527L116.136 10.7647C116.713 9.45168 117.578 8.4271 118.732 7.691C119.906 6.935 121.249 6.557 122.761 6.557ZM141.554 23.2686C139.644 23.2686 137.973 22.9105 136.541 22.1943C135.128 21.4582 134.024 20.4634 133.228 19.2101C132.452 17.9368 132.064 16.4944 132.064 14.8829C132.064 13.2715 132.442 11.8391 133.198 10.5857C133.974 9.31242 135.039 8.32763 136.391 7.63131C137.744 6.9151 139.266 6.557 140.957 6.557C142.549 6.557 144.001 6.88526 145.314 7.54179C146.627 8.17842 147.672 9.12342 148.448 10.3768C149.224 11.6302 149.612 13.1521 149.612 14.9426C149.612 15.1416 149.602 15.3704 149.582 15.629C149.562 15.8876 149.542 16.1264 149.522 16.3452H136.72V13.361H146.508L144.359 14.1966C144.379 13.4605 144.24 12.8238 143.942 12.2867C143.663 11.7495 143.265 11.3317 142.748 11.0333C142.25 10.7349 141.664 10.5857 140.987 10.5857C140.311 10.5857 139.714 10.7349 139.197 11.0333C138.699 11.3317 138.311 11.7595 138.033 12.3165C137.754 12.8537 137.615 13.4903 137.615 14.2264V15.0918C137.615 15.8876 137.774 16.574 138.092 17.1509C138.431 17.7279 138.908 18.1755 139.525 18.4938C140.142 18.7923 140.878 18.9415 141.733 18.9415C142.529 18.9415 143.205 18.8321 143.762 18.6132C144.339 18.3745 144.906 18.0164 145.463 17.5389L148.448 20.6425C147.672 21.4979 146.717 22.1545 145.583 22.6121C144.449 23.0497 143.106 23.2686 141.554 23.2686ZM168.132 23.2686C166.063 23.2686 164.452 22.7613 163.298 21.7466C162.144 20.7121 161.567 19.1603 161.567 17.0913V3.21468H167.237V17.0316C167.237 17.6085 167.396 18.0661 167.714 18.4043C168.033 18.7226 168.44 18.8818 168.938 18.8818C169.614 18.8818 170.191 18.7127 170.669 18.3745L172.071 22.3435C171.594 22.6618 171.007 22.8906 170.311 23.0298C169.614 23.189 168.888 23.2686 168.132 23.2686ZM159.209 11.66V7.42242H170.937V11.66H159.209ZM181.908 23.2686C180.138 23.2686 178.566 22.9105 177.193 22.1943C175.821 21.4781 174.736 20.4933 173.941 19.2399C173.165 17.9666 172.777 16.5143 172.777 14.8829C172.777 13.2516 173.165 11.8092 173.941 10.5558C174.736 9.30247 175.821 8.32763 177.193 7.63131C178.566 6.9151 180.138 6.557 181.908 6.557C183.679 6.557 185.251 6.9151 186.623 7.63131C188.016 8.32763 189.1 9.30247 189.876 10.5558C190.652 11.8092 191.04 13.2516 191.04 14.8829C191.04 16.5143 190.652 17.9666 189.876 19.2399C189.1 20.4933 188.016 21.4781 186.623 22.1943C185.251 22.9105 183.679 23.2686 181.908 23.2686ZM181.908 18.7624C182.565 18.7624 183.142 18.6132 183.639 18.3148C184.156 18.0164 184.564 17.5787 184.863 17.0017C185.161 16.4049 185.31 15.6986 185.31 14.8829C185.31 14.0673 185.161 13.3809 184.863 12.8238C184.564 12.2469 184.156 11.8092 183.639 11.5108C183.142 11.2124 182.565 11.0632 181.908 11.0632C181.272 11.0632 180.695 11.2124 180.178 11.5108C179.68 11.8092 179.272 12.2469 178.954 12.8238C178.656 13.3809 178.506 14.0673 178.506 14.8829C178.506 15.6986 178.656 16.4049 178.954 17.0017C179.272 17.5787 179.68 18.0164 180.178 18.3148C180.695 18.6132 181.272 18.7624 181.908 18.7624Z" fill="#CCCCCC"/>
</svg>
