<svg width="20" height="15" viewBox="0 0 20 15" fill="none" xmlns="http://www.w3.org/2000/svg">
<path d="M13.2727 10.5338L12.9455 10.2449C11.3187 8.809 8.68127 8.809 7.05454 10.2449L6.72727 10.5338M15.7273 7.64494L15.1545 7.13939C12.3078 4.6265 7.69223 4.6265 4.84545 7.13939L4.27273 7.64494M19 4.75606L18.1 3.96162C13.6265 0.0127944 6.37351 0.0127937 1.9 3.96162L1 4.75606" stroke="#155DFC" stroke-width="2" stroke-linecap="round"/>
<path d="M10 12.3055C10.5596 12.3056 11.0684 12.7129 11.0684 13.2782C11.0681 13.8433 10.5595 14.2498 10 14.2499C9.44043 14.2499 8.9319 13.8433 8.93164 13.2782C8.93164 12.7129 9.44028 12.3055 10 12.3055Z" fill="#155DFC" stroke="#155DFC" stroke-width="0.5"/>
</svg>
