<svg width="408" height="22" viewBox="0 0 408 22" fill="none" xmlns="http://www.w3.org/2000/svg">
<path d="M4.025 0.933999L2.162 5.189L2.024 4.154C2.346 4.154 2.622 4.269 2.852 4.499C3.082 4.729 3.197 5.01267 3.197 5.35C3.197 5.73333 3.06667 6.04767 2.806 6.293C2.56067 6.53833 2.26167 6.661 1.909 6.661C1.587 6.661 1.311 6.546 1.081 6.316C0.851004 6.086 0.736004 5.81 0.736004 5.488C0.736004 5.27333 0.766671 5.08167 0.828004 4.913C0.904671 4.729 1.012 4.51433 1.15 4.269L2.921 0.933999H4.025ZM7.935 0.933999L6.072 5.189L5.934 4.154C6.256 4.154 6.532 4.269 6.762 4.499C6.992 4.729 7.107 5.01267 7.107 5.35C7.107 5.73333 6.97667 6.04767 6.716 6.293C6.47067 6.53833 6.17167 6.661 5.819 6.661C5.497 6.661 5.221 6.546 4.991 6.316C4.761 6.086 4.646 5.81 4.646 5.488C4.646 5.27333 4.67667 5.08167 4.738 4.913C4.81467 4.729 4.922 4.51433 5.06 4.269L6.831 0.933999H7.935ZM15.9352 18.138C14.3559 18.138 13.0066 17.862 11.8872 17.31C10.7679 16.7427 9.9169 15.9607 9.33423 14.964C8.7669 13.952 8.48323 12.779 8.48323 11.445C8.48323 10.1263 8.70556 8.88433 9.15023 7.719C9.5949 6.55367 10.2389 5.52633 11.0822 4.637C11.9409 3.73233 12.9682 3.027 14.1642 2.521C15.3602 2.015 16.7019 1.762 18.1892 1.762C19.7839 1.762 21.1332 2.04567 22.2372 2.613C23.3566 3.165 24.1999 3.947 24.7672 4.959C25.3499 5.95567 25.6412 7.121 25.6412 8.455C25.6412 9.77367 25.4189 11.0157 24.9742 12.181C24.5296 13.3463 23.8779 14.3813 23.0192 15.286C22.1759 16.1753 21.1562 16.873 19.9602 17.379C18.7642 17.885 17.4226 18.138 15.9352 18.138ZM20.5352 21.197C19.3852 21.197 18.3502 20.898 17.4302 20.3C16.5102 19.702 15.6976 18.8587 14.9922 17.77L16.9012 17.356C17.3919 18.1993 17.9362 18.8203 18.5342 19.219C19.1322 19.633 19.8146 19.84 20.5812 19.84C21.1792 19.84 21.7389 19.7173 22.2602 19.472C22.7969 19.2267 23.2722 18.8817 23.6862 18.437L24.4222 19.472C23.9469 20.0547 23.3642 20.484 22.6742 20.76C21.9996 21.0513 21.2866 21.197 20.5352 21.197ZM16.0962 16.62C17.2922 16.62 18.3732 16.413 19.3392 15.999C20.3052 15.5697 21.1332 14.9793 21.8232 14.228C22.5132 13.4767 23.0422 12.618 23.4102 11.652C23.7782 10.6707 23.9622 9.628 23.9622 8.524C23.9622 7.48133 23.7322 6.569 23.2722 5.787C22.8276 5.005 22.1682 4.39167 21.2942 3.947C20.4202 3.50233 19.3316 3.28 18.0282 3.28C16.8322 3.28 15.7512 3.49467 14.7852 3.924C13.8192 4.338 12.9912 4.92067 12.3012 5.672C11.6266 6.42333 11.0976 7.28967 10.7142 8.271C10.3462 9.237 10.1622 10.272 10.1622 11.376C10.1622 12.4033 10.3846 13.3157 10.8292 14.113C11.2892 14.895 11.9562 15.5083 12.8302 15.953C13.7042 16.3977 14.7929 16.62 16.0962 16.62ZM32.4462 18.115C31.3882 18.115 30.5065 17.9003 29.8012 17.471C29.1112 17.0417 28.6358 16.4283 28.3752 15.631C28.1145 14.8337 28.0838 13.8907 28.2832 12.802L29.6632 5.925H31.2962L29.9162 12.802C29.6862 13.998 29.8165 14.941 30.3072 15.631C30.7978 16.3057 31.6565 16.643 32.8832 16.643C34.1558 16.643 35.2138 16.2903 36.0572 15.585C36.9158 14.8797 37.4908 13.8217 37.7822 12.411L39.0702 5.925H40.7032L38.2882 18H36.7242L37.4142 14.527L37.7592 15.102C37.1918 16.1447 36.4405 16.9113 35.5052 17.402C34.5852 17.8773 33.5655 18.115 32.4462 18.115ZM42.8393 18L45.2313 5.925H46.8643L44.4723 18H42.8393ZM46.7493 3.257C46.4273 3.257 46.159 3.14967 45.9443 2.935C45.745 2.72033 45.6453 2.46733 45.6453 2.176C45.6453 1.83867 45.7603 1.54733 45.9903 1.302C46.2356 1.05667 46.5423 0.933999 46.9103 0.933999C47.2323 0.933999 47.5006 1.03367 47.7153 1.233C47.93 1.43233 48.0373 1.68533 48.0373 1.992C48.0373 2.36 47.9146 2.66667 47.6693 2.912C47.424 3.142 47.1173 3.257 46.7493 3.257ZM54.4901 18.115C53.3401 18.115 52.3434 17.908 51.5001 17.494C50.6721 17.0647 50.0281 16.4667 49.5681 15.7C49.1234 14.9333 48.9011 14.0287 48.9011 12.986C48.9011 11.606 49.2001 10.3793 49.7981 9.306C50.3961 8.21733 51.2241 7.36633 52.2821 6.753C53.3554 6.12433 54.5744 5.81 55.9391 5.81C57.0584 5.81 58.0167 6.017 58.8141 6.431C59.6267 6.82967 60.2554 7.42767 60.7001 8.225L59.3201 9.03C58.9827 8.41667 58.5151 7.96433 57.9171 7.673C57.3344 7.38167 56.6291 7.236 55.8011 7.236C54.7891 7.236 53.8844 7.48133 53.0871 7.972C52.2897 8.46267 51.6611 9.13733 51.2011 9.996C50.7564 10.8393 50.5341 11.813 50.5341 12.917C50.5341 14.0977 50.8791 15.0177 51.5691 15.677C52.2744 16.3363 53.2711 16.666 54.5591 16.666C55.3411 16.666 56.0617 16.5203 56.7211 16.229C57.3957 15.9223 57.9477 15.4853 58.3771 14.918L59.5501 15.815C59.0287 16.5357 58.3157 17.103 57.4111 17.517C56.5064 17.9157 55.5327 18.115 54.4901 18.115ZM63.7513 14.78L64.0733 12.779L72.8593 5.925H75.1823L68.5813 11.054L67.6843 11.744L63.7513 14.78ZM61.7963 18L65.2003 0.933999H66.8333L63.4293 18H61.7963ZM71.2263 18L67.4083 11.721L68.5353 10.502L73.1353 18H71.2263ZM73.9083 21.358L75.7713 17.103L75.9323 18.115C75.595 18.115 75.3113 18 75.0813 17.77C74.8513 17.54 74.7363 17.2563 74.7363 16.919C74.7363 16.5357 74.8667 16.2213 75.1273 15.976C75.388 15.7307 75.687 15.608 76.0243 15.608C76.3617 15.608 76.6377 15.723 76.8523 15.953C77.0823 16.1677 77.1973 16.4513 77.1973 16.804C77.1973 17.0033 77.159 17.195 77.0823 17.379C77.021 17.5477 76.9137 17.7623 76.7603 18.023L75.0123 21.358H73.9083ZM94.3929 18.138C92.7982 18.138 91.4412 17.862 90.3219 17.31C89.2026 16.7427 88.3439 15.9607 87.7459 14.964C87.1632 13.952 86.8719 12.779 86.8719 11.445C86.8719 10.1263 87.0942 8.88433 87.5389 7.719C87.9989 6.55367 88.6506 5.52633 89.4939 4.637C90.3526 3.73233 91.3799 3.027 92.5759 2.521C93.7872 2.015 95.1519 1.762 96.6699 1.762C97.9579 1.762 99.1002 1.96133 100.097 2.36C101.094 2.75867 101.86 3.34133 102.397 4.108L101.201 5.166C100.695 4.53733 100.059 4.06967 99.2919 3.763C98.5252 3.441 97.6052 3.28 96.5319 3.28C95.3206 3.28 94.2166 3.49467 93.2199 3.924C92.2386 4.338 91.4029 4.92067 90.7129 5.672C90.0229 6.42333 89.4862 7.28967 89.1029 8.271C88.7349 9.237 88.5509 10.272 88.5509 11.376C88.5509 12.4033 88.7732 13.3157 89.2179 14.113C89.6779 14.895 90.3526 15.5083 91.2419 15.953C92.1312 16.3977 93.2199 16.62 94.5079 16.62C95.5659 16.62 96.5242 16.459 97.3829 16.137C98.2416 15.815 98.9929 15.3397 99.6369 14.711L100.626 15.838C99.9206 16.5893 99.0236 17.1643 97.9349 17.563C96.8462 17.9463 95.6656 18.138 94.3929 18.138ZM107.855 18.115C106.736 18.115 105.762 17.908 104.934 17.494C104.121 17.0647 103.485 16.4667 103.025 15.7C102.58 14.9333 102.358 14.0287 102.358 12.986C102.358 11.606 102.657 10.3793 103.255 9.306C103.853 8.21733 104.681 7.36633 105.739 6.753C106.797 6.12433 108.001 5.81 109.35 5.81C110.469 5.81 111.435 6.017 112.248 6.431C113.076 6.845 113.712 7.43533 114.157 8.202C114.617 8.96867 114.847 9.87333 114.847 10.916C114.847 12.296 114.548 13.5303 113.95 14.619C113.352 15.6923 112.524 16.5433 111.466 17.172C110.423 17.8007 109.22 18.115 107.855 18.115ZM107.97 16.666C108.982 16.666 109.879 16.4283 110.661 15.953C111.458 15.4623 112.079 14.7877 112.524 13.929C112.984 13.0703 113.214 12.0967 113.214 11.008C113.214 9.812 112.861 8.88433 112.156 8.225C111.466 7.56567 110.492 7.236 109.235 7.236C108.238 7.236 107.341 7.48133 106.544 7.972C105.747 8.46267 105.118 9.13733 104.658 9.996C104.213 10.8393 103.991 11.813 103.991 12.917C103.991 14.0977 104.336 15.0177 105.026 15.677C105.731 16.3363 106.713 16.666 107.97 16.666ZM125.196 5.81C126.285 5.81 127.174 6.02467 127.864 6.454C128.569 6.868 129.052 7.47367 129.313 8.271C129.589 9.06833 129.612 10.019 129.382 11.123L128.002 18H126.369L127.749 11.1C127.994 9.904 127.864 8.96867 127.358 8.294C126.867 7.61933 125.993 7.282 124.736 7.282C123.448 7.282 122.375 7.63467 121.516 8.34C120.673 9.04533 120.105 10.1033 119.814 11.514L118.526 18H116.893L119.285 5.925H120.849L120.159 9.398L119.814 8.8C120.397 7.75733 121.148 6.99833 122.068 6.523C123.003 6.04767 124.046 5.81 125.196 5.81ZM135.339 18L132.349 5.925H133.982L136.696 17.126H135.914L143.09 5.925H144.792L136.995 18H135.339ZM149.86 18.115C148.71 18.115 147.706 17.908 146.847 17.494C146.004 17.0647 145.352 16.4667 144.892 15.7C144.448 14.9333 144.225 14.021 144.225 12.963C144.225 11.583 144.517 10.3563 145.099 9.283C145.682 8.20967 146.479 7.36633 147.491 6.753C148.503 6.12433 149.646 5.81 150.918 5.81C151.992 5.81 152.919 6.017 153.701 6.431C154.483 6.82967 155.089 7.41233 155.518 8.179C155.963 8.94567 156.185 9.86567 156.185 10.939C156.185 11.1843 156.17 11.4373 156.139 11.698C156.109 11.9433 156.07 12.181 156.024 12.411H145.421L145.628 11.192H155.265L154.598 11.652C154.752 10.686 154.683 9.87333 154.391 9.214C154.1 8.55467 153.648 8.05633 153.034 7.719C152.436 7.36633 151.716 7.19 150.872 7.19C149.891 7.19 149.017 7.43533 148.25 7.926C147.484 8.40133 146.886 9.06833 146.456 9.927C146.027 10.7703 145.812 11.7593 145.812 12.894C145.812 14.1053 146.157 15.0407 146.847 15.7C147.553 16.344 148.603 16.666 149.998 16.666C150.811 16.666 151.562 16.5357 152.252 16.275C152.942 15.999 153.51 15.6233 153.954 15.148L154.69 16.321C154.123 16.8883 153.41 17.333 152.551 17.655C151.708 17.9617 150.811 18.115 149.86 18.115ZM166.524 5.81C167.613 5.81 168.502 6.02467 169.192 6.454C169.897 6.868 170.38 7.47367 170.641 8.271C170.917 9.06833 170.94 10.019 170.71 11.123L169.33 18H167.697L169.077 11.1C169.322 9.904 169.192 8.96867 168.686 8.294C168.195 7.61933 167.321 7.282 166.064 7.282C164.776 7.282 163.703 7.63467 162.844 8.34C162.001 9.04533 161.433 10.1033 161.142 11.514L159.854 18H158.221L160.613 5.925H162.177L161.487 9.398L161.142 8.8C161.725 7.75733 162.476 6.99833 163.396 6.523C164.331 6.04767 165.374 5.81 166.524 5.81ZM173.764 18L176.156 5.925H177.789L175.397 18H173.764ZM177.674 3.257C177.352 3.257 177.084 3.14967 176.869 2.935C176.67 2.72033 176.57 2.46733 176.57 2.176C176.57 1.83867 176.685 1.54733 176.915 1.302C177.16 1.05667 177.467 0.933999 177.835 0.933999C178.157 0.933999 178.425 1.03367 178.64 1.233C178.855 1.43233 178.962 1.68533 178.962 1.992C178.962 2.36 178.839 2.66667 178.594 2.912C178.349 3.142 178.042 3.257 177.674 3.257ZM185.461 18.115C184.311 18.115 183.307 17.908 182.448 17.494C181.605 17.0647 180.953 16.4667 180.493 15.7C180.048 14.9333 179.826 14.021 179.826 12.963C179.826 11.583 180.117 10.3563 180.7 9.283C181.283 8.20967 182.08 7.36633 183.092 6.753C184.104 6.12433 185.246 5.81 186.519 5.81C187.592 5.81 188.52 6.017 189.302 6.431C190.084 6.82967 190.69 7.41233 191.119 8.179C191.564 8.94567 191.786 9.86567 191.786 10.939C191.786 11.1843 191.771 11.4373 191.74 11.698C191.709 11.9433 191.671 12.181 191.625 12.411H181.022L181.229 11.192H190.866L190.199 11.652C190.352 10.686 190.283 9.87333 189.992 9.214C189.701 8.55467 189.248 8.05633 188.635 7.719C188.037 7.36633 187.316 7.19 186.473 7.19C185.492 7.19 184.618 7.43533 183.851 7.926C183.084 8.40133 182.486 9.06833 182.057 9.927C181.628 10.7703 181.413 11.7593 181.413 12.894C181.413 14.1053 181.758 15.0407 182.448 15.7C183.153 16.344 184.204 16.666 185.599 16.666C186.412 16.666 187.163 16.5357 187.853 16.275C188.543 15.999 189.11 15.6233 189.555 15.148L190.291 16.321C189.724 16.8883 189.011 17.333 188.152 17.655C187.309 17.9617 186.412 18.115 185.461 18.115ZM202.125 5.81C203.213 5.81 204.103 6.02467 204.793 6.454C205.498 6.868 205.981 7.47367 206.242 8.271C206.518 9.06833 206.541 10.019 206.311 11.123L204.931 18H203.298L204.678 11.1C204.923 9.904 204.793 8.96867 204.287 8.294C203.796 7.61933 202.922 7.282 201.665 7.282C200.377 7.282 199.303 7.63467 198.445 8.34C197.601 9.04533 197.034 10.1033 196.743 11.514L195.455 18H193.822L196.214 5.925H197.778L197.088 9.398L196.743 8.8C197.325 7.75733 198.077 6.99833 198.997 6.523C199.932 6.04767 200.975 5.81 202.125 5.81ZM213.206 18.115C212.516 18.115 211.925 17.9693 211.435 17.678C210.944 17.3713 210.599 16.942 210.4 16.39C210.216 15.838 210.2 15.1787 210.354 14.412L212.562 3.257H214.195L211.987 14.343C211.833 15.0943 211.887 15.677 212.148 16.091C212.424 16.505 212.922 16.712 213.643 16.712C213.98 16.712 214.31 16.666 214.632 16.574C214.954 16.4667 215.245 16.3057 215.506 16.091L215.897 17.333C215.513 17.6243 215.084 17.8313 214.609 17.954C214.133 18.0613 213.666 18.115 213.206 18.115ZM209.618 7.282L209.871 5.925H217.346L217.07 7.282H209.618ZM217.254 21.358L219.117 17.103L219.278 18.115C218.941 18.115 218.657 18 218.427 17.77C218.197 17.54 218.082 17.2563 218.082 16.919C218.082 16.5357 218.212 16.2213 218.473 15.976C218.734 15.7307 219.033 15.608 219.37 15.608C219.707 15.608 219.983 15.723 220.198 15.953C220.428 16.1677 220.543 16.4513 220.543 16.804C220.543 17.0033 220.505 17.195 220.428 17.379C220.367 17.5477 220.259 17.7623 220.106 18.023L218.358 21.358H217.254ZM234.979 18.115C233.951 18.115 233.039 17.908 232.242 17.494C231.444 17.08 230.823 16.4897 230.379 15.723C229.934 14.9563 229.712 14.044 229.712 12.986C229.712 11.9587 229.88 11.008 230.218 10.134C230.555 9.26 231.03 8.501 231.644 7.857C232.257 7.19767 232.978 6.69167 233.806 6.339C234.649 5.98633 235.561 5.81 236.543 5.81C237.601 5.81 238.498 6.00167 239.234 6.385C239.97 6.753 240.537 7.29733 240.936 8.018C241.334 8.72333 241.534 9.582 241.534 10.594C241.534 12.0507 241.265 13.3463 240.729 14.481C240.192 15.6157 239.433 16.505 238.452 17.149C237.47 17.793 236.313 18.115 234.979 18.115ZM235.324 16.666C236.336 16.666 237.233 16.4283 238.015 15.953C238.812 15.4623 239.433 14.7877 239.878 13.929C240.338 13.0703 240.568 12.0967 240.568 11.008C240.568 9.812 240.215 8.88433 239.51 8.225C238.82 7.56567 237.846 7.236 236.589 7.236C235.592 7.236 234.695 7.48133 233.898 7.972C233.1 8.46267 232.472 9.13733 232.012 9.996C231.567 10.8393 231.345 11.813 231.345 12.917C231.345 14.0977 231.69 15.0177 232.38 15.677C233.085 16.3363 234.066 16.666 235.324 16.666ZM239.303 18L239.993 14.527L240.683 12.089L240.913 9.559L241.649 5.925H243.282L240.867 18H239.303ZM253.717 5.81C254.806 5.81 255.695 6.02467 256.385 6.454C257.091 6.868 257.574 7.47367 257.834 8.271C258.11 9.06833 258.133 10.019 257.903 11.123L256.523 18H254.89L256.27 11.1C256.516 9.904 256.385 8.96867 255.879 8.294C255.389 7.61933 254.515 7.282 253.257 7.282C251.969 7.282 250.896 7.63467 250.037 8.34C249.194 9.04533 248.627 10.1033 248.335 11.514L247.047 18H245.414L247.806 5.925H249.37L248.68 9.398L248.335 8.8C248.918 7.75733 249.669 6.99833 250.589 6.523C251.525 6.04767 252.567 5.81 253.717 5.81ZM266.109 18.115C265.082 18.115 264.17 17.908 263.372 17.494C262.575 17.08 261.954 16.4897 261.509 15.723C261.065 14.9563 260.842 14.044 260.842 12.986C260.842 11.9587 261.011 11.008 261.348 10.134C261.686 9.26 262.161 8.501 262.774 7.857C263.388 7.19767 264.108 6.69167 264.936 6.339C265.78 5.98633 266.692 5.81 267.673 5.81C268.731 5.81 269.628 6.00167 270.364 6.385C271.1 6.753 271.668 7.29733 272.066 8.018C272.465 8.72333 272.664 9.582 272.664 10.594C272.664 11.6827 272.511 12.687 272.204 13.607C271.913 14.527 271.476 15.3243 270.893 15.999C270.311 16.6737 269.613 17.195 268.8 17.563C268.003 17.931 267.106 18.115 266.109 18.115ZM266.454 16.666C267.466 16.666 268.363 16.4283 269.145 15.953C269.943 15.4623 270.564 14.7877 271.008 13.929C271.468 13.0703 271.698 12.0967 271.698 11.008C271.698 9.812 271.346 8.88433 270.64 8.225C269.95 7.56567 268.977 7.236 267.719 7.236C266.723 7.236 265.826 7.48133 265.028 7.972C264.231 8.46267 263.602 9.13733 263.142 9.996C262.698 10.8393 262.475 11.813 262.475 12.917C262.475 14.0977 262.82 15.0177 263.51 15.677C264.216 16.3363 265.197 16.666 266.454 16.666ZM270.433 18L271.123 14.527L271.813 12.089L272.043 9.559L273.768 0.933999H275.401L271.997 18H270.433ZM287.602 18.138C286.82 18.138 286.046 18.0537 285.279 17.885C284.528 17.701 283.845 17.4557 283.232 17.149C282.619 16.827 282.128 16.4743 281.76 16.091L282.588 14.757C282.956 15.1403 283.408 15.4777 283.945 15.769C284.497 16.0603 285.103 16.2903 285.762 16.459C286.421 16.6123 287.081 16.689 287.74 16.689C288.691 16.689 289.519 16.5663 290.224 16.321C290.945 16.0757 291.504 15.7153 291.903 15.24C292.302 14.7647 292.501 14.1897 292.501 13.515C292.501 12.9783 292.348 12.549 292.041 12.227C291.734 11.8897 291.336 11.6213 290.845 11.422C290.354 11.2073 289.81 11.0157 289.212 10.847C288.614 10.6783 288.016 10.4943 287.418 10.295C286.82 10.0957 286.268 9.85033 285.762 9.559C285.271 9.26767 284.873 8.88433 284.566 8.409C284.275 7.93367 284.129 7.33567 284.129 6.615C284.129 5.603 284.405 4.73667 284.957 4.016C285.509 3.28 286.268 2.72033 287.234 2.337C288.2 1.95367 289.312 1.762 290.569 1.762C291.52 1.762 292.432 1.877 293.306 2.107C294.195 2.337 294.947 2.682 295.56 3.142L294.847 4.522C294.264 4.09267 293.597 3.77067 292.846 3.556C292.095 3.326 291.305 3.211 290.477 3.211C289.542 3.211 288.721 3.34133 288.016 3.602C287.311 3.86267 286.759 4.23833 286.36 4.729C285.977 5.20433 285.785 5.77933 285.785 6.454C285.785 6.99067 285.931 7.42767 286.222 7.765C286.529 8.10233 286.927 8.37833 287.418 8.593C287.924 8.80767 288.476 9.007 289.074 9.191C289.672 9.35967 290.27 9.54367 290.868 9.743C291.466 9.927 292.01 10.1647 292.501 10.456C293.007 10.732 293.413 11.1 293.72 11.56C294.027 12.0047 294.18 12.5797 294.18 13.285C294.18 14.3123 293.896 15.194 293.329 15.93C292.762 16.6507 291.98 17.2027 290.983 17.586C290.002 17.954 288.875 18.138 287.602 18.138ZM302.235 18.115C301.085 18.115 300.081 17.908 299.222 17.494C298.379 17.0647 297.727 16.4667 297.267 15.7C296.823 14.9333 296.6 14.021 296.6 12.963C296.6 11.583 296.892 10.3563 297.474 9.283C298.057 8.20967 298.854 7.36633 299.866 6.753C300.878 6.12433 302.021 5.81 303.293 5.81C304.367 5.81 305.294 6.017 306.076 6.431C306.858 6.82967 307.464 7.41233 307.893 8.179C308.338 8.94567 308.56 9.86567 308.56 10.939C308.56 11.1843 308.545 11.4373 308.514 11.698C308.484 11.9433 308.445 12.181 308.399 12.411H297.796L298.003 11.192H307.64L306.973 11.652C307.127 10.686 307.058 9.87333 306.766 9.214C306.475 8.55467 306.023 8.05633 305.409 7.719C304.811 7.36633 304.091 7.19 303.247 7.19C302.266 7.19 301.392 7.43533 300.625 7.926C299.859 8.40133 299.261 9.06833 298.831 9.927C298.402 10.7703 298.187 11.7593 298.187 12.894C298.187 14.1053 298.532 15.0407 299.222 15.7C299.928 16.344 300.978 16.666 302.373 16.666C303.186 16.666 303.937 16.5357 304.627 16.275C305.317 15.999 305.885 15.6233 306.329 15.148L307.065 16.321C306.498 16.8883 305.785 17.333 304.926 17.655C304.083 17.9617 303.186 18.115 302.235 18.115ZM315.748 18.115C314.721 18.115 313.808 17.908 313.011 17.494C312.214 17.08 311.593 16.4897 311.148 15.723C310.703 14.9563 310.481 14.044 310.481 12.986C310.481 11.9587 310.65 11.008 310.987 10.134C311.324 9.26 311.8 8.501 312.413 7.857C313.026 7.19767 313.747 6.69167 314.575 6.339C315.418 5.98633 316.331 5.81 317.312 5.81C318.37 5.81 319.267 6.00167 320.003 6.385C320.739 6.753 321.306 7.29733 321.705 8.018C322.104 8.72333 322.303 9.582 322.303 10.594C322.303 12.0507 322.035 13.3463 321.498 14.481C320.961 15.6157 320.202 16.505 319.221 17.149C318.24 17.793 317.082 18.115 315.748 18.115ZM316.093 16.666C317.105 16.666 318.002 16.4283 318.784 15.953C319.581 15.4623 320.202 14.7877 320.647 13.929C321.107 13.0703 321.337 12.0967 321.337 11.008C321.337 9.812 320.984 8.88433 320.279 8.225C319.589 7.56567 318.615 7.236 317.358 7.236C316.361 7.236 315.464 7.48133 314.667 7.972C313.87 8.46267 313.241 9.13733 312.781 9.996C312.336 10.8393 312.114 11.813 312.114 12.917C312.114 14.0977 312.459 15.0177 313.149 15.677C313.854 16.3363 314.836 16.666 316.093 16.666ZM320.072 18L320.762 14.527L321.452 12.089L321.682 9.559L322.418 5.925H324.051L321.636 18H320.072ZM343.388 5.81C344.477 5.81 345.358 6.02467 346.033 6.454C346.723 6.868 347.198 7.47367 347.459 8.271C347.72 9.06833 347.735 10.019 347.505 11.123L346.125 18H344.492L345.872 11.1C346.117 9.904 346.002 8.96867 345.527 8.294C345.067 7.61933 344.224 7.282 342.997 7.282C341.786 7.282 340.766 7.61933 339.938 8.294C339.125 8.96867 338.581 9.98067 338.305 11.33L336.971 18H335.338L336.718 11.1C336.963 9.904 336.848 8.96867 336.373 8.294C335.898 7.61933 335.054 7.282 333.843 7.282C332.601 7.282 331.574 7.63467 330.761 8.34C329.948 9.04533 329.396 10.1033 329.105 11.514L327.817 18H326.184L328.576 5.925H330.14L329.45 9.398L329.105 8.8C329.688 7.75733 330.424 6.99833 331.313 6.523C332.202 6.04767 333.207 5.81 334.326 5.81C335.169 5.81 335.89 5.95567 336.488 6.247C337.101 6.523 337.577 6.937 337.914 7.489C338.267 8.02567 338.458 8.66967 338.489 9.421L337.638 9.237C338.236 8.087 339.026 7.22833 340.007 6.661C341.004 6.09367 342.131 5.81 343.388 5.81ZM350.577 18L353.981 0.933999H355.614L352.21 18H350.577ZM362.273 18.115C361.123 18.115 360.119 17.908 359.26 17.494C358.417 17.0647 357.765 16.4667 357.305 15.7C356.861 14.9333 356.638 14.021 356.638 12.963C356.638 11.583 356.93 10.3563 357.512 9.283C358.095 8.20967 358.892 7.36633 359.904 6.753C360.916 6.12433 362.059 5.81 363.331 5.81C364.405 5.81 365.332 6.017 366.114 6.431C366.896 6.82967 367.502 7.41233 367.931 8.179C368.376 8.94567 368.598 9.86567 368.598 10.939C368.598 11.1843 368.583 11.4373 368.552 11.698C368.522 11.9433 368.483 12.181 368.437 12.411H357.834L358.041 11.192H367.678L367.011 11.652C367.165 10.686 367.096 9.87333 366.804 9.214C366.513 8.55467 366.061 8.05633 365.447 7.719C364.849 7.36633 364.129 7.19 363.285 7.19C362.304 7.19 361.43 7.43533 360.663 7.926C359.897 8.40133 359.299 9.06833 358.869 9.927C358.44 10.7703 358.225 11.7593 358.225 12.894C358.225 14.1053 358.57 15.0407 359.26 15.7C359.966 16.344 361.016 16.666 362.411 16.666C363.224 16.666 363.975 16.5357 364.665 16.275C365.355 15.999 365.923 15.6233 366.367 15.148L367.103 16.321C366.536 16.8883 365.823 17.333 364.964 17.655C364.121 17.9617 363.224 18.115 362.273 18.115ZM374.153 18.115C373.172 18.115 372.244 17.977 371.37 17.701C370.496 17.425 369.822 17.0723 369.346 16.643L370.128 15.355C370.588 15.769 371.194 16.0987 371.945 16.344C372.697 16.574 373.486 16.689 374.314 16.689C375.464 16.689 376.346 16.4973 376.959 16.114C377.588 15.7307 377.902 15.2017 377.902 14.527C377.902 14.067 377.734 13.722 377.396 13.492C377.074 13.2467 376.653 13.0627 376.131 12.94C375.61 12.802 375.058 12.6717 374.475 12.549C373.893 12.4263 373.341 12.273 372.819 12.089C372.298 11.8897 371.869 11.5907 371.531 11.192C371.209 10.7933 371.048 10.2567 371.048 9.582C371.048 8.81533 371.263 8.14833 371.692 7.581C372.137 7.01367 372.75 6.57667 373.532 6.27C374.314 5.96333 375.234 5.81 376.292 5.81C377.059 5.81 377.818 5.90967 378.569 6.109C379.321 6.30833 379.926 6.58433 380.386 6.937L379.696 8.248C379.221 7.88 378.669 7.61933 378.04 7.466C377.412 7.29733 376.783 7.213 376.154 7.213C375.035 7.213 374.169 7.42 373.555 7.834C372.957 8.23267 372.658 8.76167 372.658 9.421C372.658 9.881 372.819 10.2337 373.141 10.479C373.479 10.7243 373.908 10.916 374.429 11.054C374.951 11.192 375.503 11.3223 376.085 11.445C376.683 11.5523 377.235 11.7057 377.741 11.905C378.263 12.1043 378.684 12.3957 379.006 12.779C379.344 13.147 379.512 13.6683 379.512 14.343C379.512 15.1403 379.29 15.8227 378.845 16.39C378.401 16.942 377.772 17.3713 376.959 17.678C376.162 17.9693 375.227 18.115 374.153 18.115ZM385.384 18.115C384.402 18.115 383.475 17.977 382.601 17.701C381.727 17.425 381.052 17.0723 380.577 16.643L381.359 15.355C381.819 15.769 382.424 16.0987 383.176 16.344C383.927 16.574 384.717 16.689 385.545 16.689C386.695 16.689 387.576 16.4973 388.19 16.114C388.818 15.7307 389.133 15.2017 389.133 14.527C389.133 14.067 388.964 13.722 388.627 13.492C388.305 13.2467 387.883 13.0627 387.362 12.94C386.84 12.802 386.288 12.6717 385.706 12.549C385.123 12.4263 384.571 12.273 384.05 12.089C383.528 11.8897 383.099 11.5907 382.762 11.192C382.44 10.7933 382.279 10.2567 382.279 9.582C382.279 8.81533 382.493 8.14833 382.923 7.581C383.367 7.01367 383.981 6.57667 384.763 6.27C385.545 5.96333 386.465 5.81 387.523 5.81C388.289 5.81 389.048 5.90967 389.8 6.109C390.551 6.30833 391.157 6.58433 391.617 6.937L390.927 8.248C390.451 7.88 389.899 7.61933 389.271 7.466C388.642 7.29733 388.013 7.213 387.385 7.213C386.265 7.213 385.399 7.42 384.786 7.834C384.188 8.23267 383.889 8.76167 383.889 9.421C383.889 9.881 384.05 10.2337 384.372 10.479C384.709 10.7243 385.138 10.916 385.66 11.054C386.181 11.192 386.733 11.3223 387.316 11.445C387.914 11.5523 388.466 11.7057 388.972 11.905C389.493 12.1043 389.915 12.3957 390.237 12.779C390.574 13.147 390.743 13.6683 390.743 14.343C390.743 15.1403 390.52 15.8227 390.076 16.39C389.631 16.942 389.002 17.3713 388.19 17.678C387.392 17.9693 386.457 18.115 385.384 18.115ZM394.13 13.17L396.039 1.9H397.971L395.395 13.17H394.13ZM393.969 18.115C393.632 18.115 393.348 18.0077 393.118 17.793C392.903 17.563 392.796 17.2947 392.796 16.988C392.796 16.6353 392.919 16.344 393.164 16.114C393.409 15.8687 393.701 15.746 394.038 15.746C394.375 15.746 394.651 15.8533 394.866 16.068C395.096 16.2827 395.211 16.5433 395.211 16.85C395.211 17.08 395.15 17.2947 395.027 17.494C394.92 17.678 394.774 17.8313 394.59 17.954C394.406 18.0613 394.199 18.115 393.969 18.115ZM400.358 6.546L402.198 2.314L402.359 3.326C402.021 3.326 401.738 3.211 401.508 2.981C401.278 2.751 401.163 2.46733 401.163 2.13C401.163 1.74667 401.293 1.43233 401.554 1.187C401.814 0.941666 402.113 0.818999 402.451 0.818999C402.788 0.818999 403.064 0.933999 403.279 1.164C403.509 1.37867 403.624 1.66233 403.624 2.015C403.624 2.21433 403.585 2.406 403.509 2.59C403.447 2.75867 403.348 2.97333 403.21 3.234L401.462 6.546H400.358ZM404.268 6.546L406.108 2.314L406.269 3.326C405.931 3.326 405.648 3.211 405.418 2.981C405.188 2.751 405.073 2.46733 405.073 2.13C405.073 1.74667 405.203 1.43233 405.464 1.187C405.724 0.941666 406.023 0.818999 406.361 0.818999C406.698 0.818999 406.974 0.933999 407.189 1.164C407.419 1.37867 407.534 1.66233 407.534 2.015C407.534 2.21433 407.495 2.406 407.419 2.59C407.357 2.75867 407.258 2.97333 407.12 3.234L405.372 6.546H404.268Z" fill="url(#paint0_radial_302_243)"/>
<defs>
<radialGradient id="paint0_radial_302_243" cx="0" cy="0" r="1" gradientUnits="userSpaceOnUse" gradientTransform="translate(202.5 9.5) scale(206.5 17.5)">
<stop stop-color="white"/>
<stop offset="1" stop-color="#999999"/>
</radialGradient>
</defs>
</svg>
