<svg width="28" height="28" viewBox="0 0 28 28" fill="none" xmlns="http://www.w3.org/2000/svg">
<path d="M26.5269 12.7757H21.8213C21.7314 12.1358 21.5653 11.5091 21.3265 10.9093L25.3944 8.5353C25.5303 8.46163 25.6502 8.36122 25.7469 8.24002C25.8436 8.11883 25.9151 7.97932 25.9573 7.82976C25.9995 7.6802 26.0114 7.52364 25.9924 7.36936C25.9733 7.21507 25.9237 7.06621 25.8465 6.93159C25.7693 6.79697 25.666 6.67934 25.5428 6.58566C25.4195 6.49198 25.2789 6.42417 25.1292 6.38624C24.9795 6.34831 24.8237 6.34104 24.6711 6.36485C24.5186 6.38867 24.3723 6.44308 24.241 6.52488L20.1697 8.90231C19.7805 8.40722 19.3358 7.95903 18.8445 7.56668L21.2043 3.46569C21.3464 3.19978 21.38 2.8886 21.2981 2.59812C21.2162 2.30763 21.0252 2.06069 20.7656 1.90964C20.5059 1.75859 20.1981 1.71531 19.9073 1.78898C19.6165 1.86265 19.3656 2.04747 19.2078 2.30426L16.8469 6.39828C16.2513 6.15755 15.629 5.99025 14.9935 5.90003V1.16142C14.9935 0.853395 14.872 0.557982 14.6557 0.340173C14.4394 0.122364 14.146 0 13.8401 0C13.5343 0 13.2409 0.122364 13.0246 0.340173C12.8083 0.557982 12.6868 0.853395 12.6868 1.16142V5.90003C12.0513 5.99025 11.429 6.15755 10.8334 6.39828L8.47594 2.30194C8.31817 2.04515 8.0673 1.86033 7.77649 1.78666C7.48569 1.71299 7.17783 1.75627 6.91818 1.90732C6.65853 2.05837 6.46751 2.30531 6.38562 2.5958C6.30372 2.88628 6.3374 3.19746 6.4795 3.46337L8.83924 7.56668C8.34793 7.95903 7.90325 8.40722 7.51405 8.90231L3.44274 6.52488C3.31144 6.44308 3.16518 6.38867 3.01261 6.36485C2.86005 6.34104 2.70429 6.34831 2.55456 6.38624C2.40484 6.42417 2.26421 6.49198 2.14099 6.58566C2.01778 6.67934 1.9145 6.79697 1.83727 6.93159C1.76004 7.06621 1.71043 7.21507 1.6914 7.36936C1.67236 7.52364 1.68428 7.6802 1.72644 7.82976C1.76861 7.97932 1.84016 8.11883 1.93686 8.24002C2.03356 8.36122 2.15344 8.46163 2.28939 8.5353L6.35378 10.9093C6.11498 11.5091 5.94885 12.1358 5.859 12.7757H1.15335C0.847459 12.7757 0.554101 12.898 0.337807 13.1158C0.121513 13.3336 0 13.6291 0 13.9371C0 14.2451 0.121513 14.5405 0.337807 14.7583C0.554101 14.9761 0.847459 15.0985 1.15335 15.0985H5.859C5.94885 15.7384 6.11498 16.3651 6.35378 16.9649L2.28593 19.3389C2.14998 19.4125 2.0301 19.513 1.9334 19.6341C1.8367 19.7553 1.76515 19.8948 1.72298 20.0444C1.68082 20.194 1.6689 20.3505 1.68794 20.5048C1.70697 20.6591 1.75658 20.808 1.83381 20.9426C1.91104 21.0772 2.01432 21.1948 2.13753 21.2885C2.26075 21.3822 2.40138 21.45 2.5511 21.4879C2.70083 21.5259 2.85659 21.5331 3.00915 21.5093C3.16172 21.4855 3.30798 21.4311 3.43928 21.3493L7.51059 18.9719C7.89979 19.467 8.34447 19.9151 8.83578 20.3075L6.4795 24.4085C6.3374 24.6744 6.30372 24.9856 6.38562 25.2761C6.46751 25.5665 6.65853 25.8135 6.91818 25.9645C7.17783 26.1156 7.48569 26.1589 7.77649 26.0852C8.0673 26.0115 8.31817 25.8267 8.47594 25.5699L10.8334 21.4736C11.429 21.7146 12.0513 21.8827 12.6868 21.9741V26.7127C12.6868 27.0208 12.8083 27.3162 13.0246 27.534C13.2409 27.7518 13.5343 27.8742 13.8401 27.8742C14.146 27.8742 14.4394 27.7518 14.6557 27.534C14.872 27.3162 14.9935 27.0208 14.9935 26.7127V21.9741C15.6289 21.8834 16.2512 21.7161 16.8469 21.4759L19.2044 25.5722C19.3621 25.829 19.613 26.0138 19.9038 26.0875C20.1946 26.1612 20.5025 26.1179 20.7621 25.9669C21.0218 25.8158 21.2128 25.5689 21.2947 25.2784C21.3766 24.9879 21.3429 24.6767 21.2008 24.4108L18.8411 20.3098C19.3324 19.9175 19.777 19.4693 20.1662 18.9742L24.2376 21.3516C24.3688 21.4334 24.5151 21.4878 24.6677 21.5116C24.8202 21.5355 24.976 21.5282 25.1257 21.4903C25.2755 21.4523 25.4161 21.3845 25.5393 21.2908C25.6625 21.1972 25.7658 21.0795 25.843 20.9449C25.9203 20.8103 25.9699 20.6614 25.9889 20.5071C26.0079 20.3529 25.996 20.1963 25.9539 20.0467C25.9117 19.8972 25.8401 19.7577 25.7434 19.6365C25.6467 19.5153 25.5269 19.4149 25.3909 19.3412L21.3231 16.9672C21.5632 16.3668 21.7305 15.7393 21.8213 15.0985H26.5269C26.8328 15.0985 27.1262 14.9761 27.3425 14.7583C27.5588 14.5405 27.6803 14.2451 27.6803 13.9371C27.6803 13.6291 27.5588 13.3336 27.3425 13.1158C27.1262 12.898 26.8328 12.7757 26.5269 12.7757ZM13.8401 19.7442C6.21884 19.4003 6.22115 8.3727 13.8401 8.12997C21.4615 8.37387 21.4591 19.5015 13.8401 19.7442Z" fill="#155DFC"/>
</svg>
